<?xml version="1.0" standalone="no"?>
<!DOCTYPE svg PUBLIC "-//W3C//DTD SVG 1.1//EN" "http://www.w3.org/Graphics/SVG/1.1/DTD/svg11.dtd" >
<svg xmlns="http://www.w3.org/2000/svg" xmlns:xlink="http://www.w3.org/1999/xlink" version="1.1">
<metadata>
Created by FontForge 20170731 at Thu Jun  8 00:20:14 2023
 By Aleksey,,,
(c) 2014-2020. Copyright by TYPE.WELTKERN. All rights reserved.
</metadata>
<defs>
<font id="TWKEverett-Regular" horiz-adv-x="1536" >
  <font-face 
    font-family="TWK Everett"
    font-weight="400"
    font-stretch="normal"
    units-per-em="2048"
    panose-1="2 11 2 4 0 0 0 0 0 0"
    ascent="1638"
    descent="-410"
    x-height="1098"
    cap-height="1556"
    bbox="-1810 -596 6752 2198"
    underline-thickness="147"
    underline-position="-597"
    unicode-range="U+000D-FEFF"
  />
<missing-glyph horiz-adv-x="1503" 
d="M1298 0h-1093v1556h1093v-1556zM410 1389v-1221h684v1221h-684z" />
    <glyph glyph-name="fi" unicode="fi" horiz-adv-x="1290" 
d="M1130 1098v-1098h-200v946h-469v-946h-201v946h-227v152h227v153q0 152 93.5 228.5t246.5 76.5h143v-151h-122q-80 0 -120 -34t-40 -120v-153h669zM922 1286v270h217v-270h-217z" />
    <glyph glyph-name="fl" unicode="fl" horiz-adv-x="1290" 
d="M1130 1556v-1556h-200v1405h-309q-80 0 -120 -34t-40 -120v-153h282v-152h-282v-946h-201v946h-227v152h227v153q0 152 93.5 228.5t246.5 76.5h530z" />
    <glyph glyph-name="W_W_W" unicode="WWW" horiz-adv-x="6791" 
d="M6152 8l381 1548h219l-383 -1556h-430l-307 1546l-307 -1546h-430l-381 1548l-381 -1548h-430l-307 1546l-308 -1546h-430l-381 1548l-381 -1548h-430l-307 1546l-307 -1546h-430l-383 1556h219l381 -1548l307 1548h426l307 -1548l381 1548h434l381 -1548l308 1548h426
l307 -1548l381 1548h434l381 -1548l307 1548h426z" />
    <glyph glyph-name="f_f" unicode="ff" horiz-adv-x="1540" 
d="M1513 1405h-122q-80 0 -120 -34t-40 -120v-153h282v-152h-282v-946h-201v946h-569v-946h-201v946h-227v152h227v153q0 152 93.5 228.5t246.5 76.5h143v-151h-122q-80 0 -120 -34t-40 -120v-153h569v153q0 152 93.5 228.5t246.5 76.5h143v-151z" />
    <glyph glyph-name="f_f_i" unicode="ffi" horiz-adv-x="2060" 
d="M1231 1098h670v-1098h-201v946h-469v-946h-201v946h-569v-946h-201v946h-227v152h227v153q0 152 93.5 228.5t246.5 76.5h143v-151h-122q-80 0 -120 -34t-40 -120v-153h569v153q0 152 93.5 228.5t246.5 76.5h143v-151h-122q-80 0 -120 -34t-40 -120v-153zM1692 1286v270
h217v-270h-217z" />
    <glyph glyph-name="f_f_l" unicode="ffl" horiz-adv-x="2060" 
d="M1700 1098v458h201v-1556h-201v946h-469v-946h-201v946h-569v-946h-201v946h-227v152h227v153q0 152 93.5 228.5t246.5 76.5h143v-151h-122q-80 0 -120 -34t-40 -120v-153h569v153q0 152 93.5 228.5t246.5 76.5h143v-151h-122q-80 0 -120 -34t-40 -120v-153h469z" />
    <glyph glyph-name="f_j" unicode="fj" horiz-adv-x="1290" 
d="M461 1098h669v-1194q0 -152 -93 -228.5t-246 -76.5h-76v151h55q80 0 120 34t40 120v1042h-469v-946h-201v946h-227v152h227v153q0 152 93.5 228.5t246.5 76.5h143v-151h-122q-80 0 -120 -34t-40 -120v-153zM922 1286v270h217v-270h-217z" />
    <glyph glyph-name="f_t" unicode="ft" horiz-adv-x="1564" 
d="M1389 152h122v-152h-143q-151 0 -245.5 75.5t-94.5 225.5v4v641h-567v-946h-201v946h-227v152h227v153q0 152 93.5 228.5t246.5 76.5h143v-151h-122q-80 0 -120 -34t-40 -120v-153h567v260h201v-260h278v-152h-278v-641v-4q0 -83 40 -116t120 -33z" />
    <glyph glyph-name="t_f" unicode="tf" horiz-adv-x="1564" 
d="M1538 1405h-123q-80 0 -120 -34t-40 -120v-153h283v-152h-283v-946h-200v946h-596v-641v-4q0 -84 39.5 -116.5t119.5 -32.5h123v-152h-143q-151 0 -245.5 75.5t-94.5 225.5v4v641h-231v152h231v260h201v-260h596v153q0 152 93.5 228.5t246.5 76.5h143v-151z" />
    <glyph glyph-name="t_t" unicode="tt" horiz-adv-x="1589" 
d="M1413 152h123v-152h-143q-151 0 -245.5 75.5t-94.5 225.5v4v641h-594v-641v-4q0 -84 39.5 -116.5t119.5 -32.5h123v-152h-143q-151 0 -245.5 75.5t-94.5 225.5v4v641h-231v152h231v260h201v-260h594v260h200v-260h281v-152h-281v-641v-4q0 -83 40 -116t120 -33z" />
    <glyph glyph-name="w_w_w" unicode="www" horiz-adv-x="5275" 
d="M4768 10l268 1088h195l-271 -1098h-383l-213 1087l-213 -1087h-383l-266 1085l-268 -1085h-383l-213 1087l-213 -1087h-383l-266 1085l-269 -1085h-383l-213 1087l-213 -1087h-383l-270 1098h195l268 -1088l213 1088h381l213 -1088l268 1088h383l268 -1088l213 1088h381
l213 -1088l269 1088h383l268 -1088l213 1088h381z" />
    <glyph glyph-name=".notdef" horiz-adv-x="1503" 
d="M1298 0h-1093v1556h1093v-1556zM410 1389v-1221h684v1221h-684z" />
    <glyph glyph-name=".null" horiz-adv-x="0" 
 />
    <glyph glyph-name="nonmarkingreturn" horiz-adv-x="682" 
 />
    <glyph glyph-name="CR" unicode="&#xd;" horiz-adv-x="512" 
 />
    <glyph glyph-name="space" unicode=" " horiz-adv-x="512" 
 />
    <glyph glyph-name="exclam" unicode="!" horiz-adv-x="573" 
d="M375 516h-176l-23 1040h221zM408 0h-242v246h242v-246z" />
    <glyph glyph-name="quotedbl" unicode="&#x22;" horiz-adv-x="776" 
d="M303 991h-151l-31 565h213zM625 991h-152l-31 565h213z" />
    <glyph glyph-name="numbersign" unicode="#" horiz-adv-x="1636" 
d="M1552 1098v-152h-346l-76 -371h314v-151h-344l-88 -424h-174l88 424h-377l-88 -424h-174l88 424h-291v151h322l75 371h-288v152h321l94 458h174l-94 -458h377l94 458h174l-94 -458h313zM580 575h376l76 371h-377z" />
    <glyph glyph-name="dollar" unicode="$" horiz-adv-x="1355" 
d="M1251 453q0 -196 -127 -321t-348 -150v-250h-188v252q-203 25 -337 154.5t-157 330.5h209q15 -130 90.5 -213.5t194.5 -108.5v596l-51 13q-73 19 -130.5 41t-111 55.5t-89 74.5t-56.5 98t-21 126q0 169 128.5 286.5t330.5 137.5v240h188v-242q195 -26 315.5 -137
t143.5 -285h-209q-21 101 -86 165.5t-164 88.5v-510l70 -18q205 -58 305 -156.5t100 -267.5zM336 1167q0 -90 59 -134.5t193 -84.5v463q-115 -19 -183.5 -85.5t-68.5 -158.5zM776 692v-545q128 20 198 94t70 191q0 97 -62.5 157t-205.5 103z" />
    <glyph glyph-name="percent" unicode="%" horiz-adv-x="1892" 
d="M418 700q-167 0 -258.5 113.5t-91.5 325.5t91.5 326t258.5 114t258.5 -114t91.5 -326t-91.5 -325.5t-258.5 -113.5zM606 0h-198l878 1556h199zM418 827q180 0 180 312q0 313 -180 313t-180 -313q0 -312 180 -312zM1475 -23q-167 0 -259 113.5t-92 325.5t92 326t259 114
t258.5 -114t91.5 -326t-91.5 -325.5t-258.5 -113.5zM1475 104q180 0 180 312q0 313 -180 313q-88 0 -134.5 -78.5t-46.5 -234.5q0 -312 181 -312z" />
    <glyph glyph-name="ampersand" unicode="&#x26;" horiz-adv-x="1560" 
d="M1223 352l311 -352h-252l-176 199q-212 -222 -485 -222q-155 0 -274.5 50t-191 154.5t-71.5 250.5q0 89 29.5 164.5t85.5 134.5t120 103.5t150 87.5q-89 102 -130.5 173.5t-41.5 151.5q0 135 113.5 233.5t291.5 98.5t286 -93.5t108 -228.5q0 -61 -23 -113.5t-69.5 -97
t-102 -80t-133.5 -73.5l-16 -8l356 -402l199 334h194l-266 -446zM702 1432q-83 0 -141.5 -48.5t-58.5 -136.5q0 -53 29 -99t94 -118l18 -20l6 2q122 60 182 114t60 127q0 87 -54 133t-135 46zM627 125q222 0 374 192l-423 482q-74 -40 -123.5 -74t-89 -76.5t-58 -93
t-18.5 -113.5q0 -149 95 -233t243 -84z" />
    <glyph glyph-name="quotesingle" unicode="'" horiz-adv-x="454" 
d="M303 991h-151l-31 565h213z" />
    <glyph glyph-name="parenleft" unicode="(" horiz-adv-x="641" 
d="M625 -401h-203q-326 479 -326 987q0 149 26.5 289.5t75.5 262.5t102 219t122 199h203q-69 -102 -121 -199t-101 -219.5t-75.5 -262.5t-26.5 -289q0 -505 324 -987z" />
    <glyph glyph-name="parenright" unicode=")" horiz-adv-x="641" 
d="M219 -401h-203q324 482 324 987q0 149 -26.5 289t-75.5 262.5t-101 219.5t-121 199h203q69 -102 122 -199t102 -219t75.5 -262.5t26.5 -289.5q0 -508 -326 -987z" />
    <glyph glyph-name="asterisk" unicode="*" horiz-adv-x="911" 
d="M797 1604l41 -136l-267 -86l170 -231l-112 -82l-172 236l-174 -236l-113 82l170 231l-266 86l41 136l270 -86v268h141v-268z" />
    <glyph glyph-name="plus" unicode="+" horiz-adv-x="1290" 
d="M725 631h469v-156h-469v-475h-160v475h-469v156h469v467h160v-467z" />
    <glyph glyph-name="comma" unicode="," horiz-adv-x="552" 
d="M156 0v246h241v-271l-145 -247h-139l120 272h-77z" />
    <glyph glyph-name="hyphen" unicode="-" horiz-adv-x="921" 
d="M784 496h-647v168h647v-168z" />
    <glyph glyph-name="period" unicode="." horiz-adv-x="552" 
d="M397 0h-241v246h241v-246z" />
    <glyph glyph-name="slash" unicode="/" horiz-adv-x="997" 
d="M264 0h-217l686 1556h217z" />
    <glyph glyph-name="zero" unicode="0" horiz-adv-x="1449" 
d="M725 -23q-288 0 -448 207.5t-160 593.5t160 593.5t448 207.5t448 -207.5t160 -593.5t-160 -593.5t-448 -207.5zM725 139q192 0 295.5 162t103.5 477t-103.5 477t-295.5 162t-295.5 -162t-103.5 -477t103.5 -477t295.5 -162z" />
    <glyph glyph-name="one" unicode="1" horiz-adv-x="782" 
d="M420 1509l12 47h152v-1556h-205v1161h-330v168h70q99 0 161.5 21t93 58.5t46.5 100.5z" />
    <glyph glyph-name="two" unicode="2" horiz-adv-x="1343" 
d="M944 686l-608 -518h917v-168h-1149v225l680 580q106 89 164 167t58 161q0 124 -90.5 204t-247.5 80q-154 0 -245.5 -75t-103.5 -220h-208q7 112 54.5 201t125 144t173.5 83.5t204 28.5q156 0 279.5 -53.5t195 -156t71.5 -236.5q0 -124 -66.5 -227t-203.5 -220z" />
    <glyph glyph-name="three" unicode="3" horiz-adv-x="1339" 
d="M817 823q55 -6 108 -21.5t110 -46.5t99 -72t69.5 -105t27.5 -140q0 -112 -47.5 -201t-129.5 -145t-187.5 -85.5t-225.5 -29.5q-241 0 -386 116.5t-167 318.5h209q14 -125 101 -199t243 -74q52 0 103.5 10t102 33.5t89 58t62.5 87.5t24 118q0 95 -56 162.5t-146 99
t-204 31.5h-96v168h96q161 0 258 74t97 186q0 110 -90 180t-242 70q-139 0 -219.5 -68t-91.5 -184h-209q12 126 87 221.5t188 144t245 48.5q148 0 270.5 -47.5t196.5 -138.5t74 -209q0 -69 -22.5 -126t-57.5 -95t-84 -67t-97 -45.5t-102 -27.5z" />
    <glyph glyph-name="four" unicode="4" horiz-adv-x="1370" 
d="M1081 623h232v-168h-232v-455h-204v455h-820v225l609 876h415v-933zM877 1548l-641 -925h641v925z" />
    <glyph glyph-name="five" unicode="5" horiz-adv-x="1323" 
d="M733 1061q94 0 182 -35.5t159 -101t114 -170.5t43 -234t-45.5 -234t-123.5 -171.5t-178 -102t-212 -35.5q-229 0 -381 115t-178 320h209q12 -122 106 -197.5t240 -75.5q154 0 254 99t100 282q0 94 -30 168.5t-80 119t-111.5 68t-128.5 23.5q-125 0 -216.5 -61
t-136.5 -166l-196 20l78 864h938v-167h-754l-51 -576q48 106 153 177t246 71z" />
    <glyph glyph-name="six" unicode="6" horiz-adv-x="1413" 
d="M776 1028q247 0 393 -142t146 -384q0 -155 -76.5 -275.5t-207.5 -185t-294 -64.5q-290 0 -456 203t-166 598q0 380 168.5 590.5t451.5 210.5q217 0 358 -104.5t185 -296.5h-209q-32 108 -114.5 173.5t-219.5 65.5q-91 0 -163.5 -37t-120 -101t-78 -154t-42 -193
t-7.5 -221q43 141 168.5 229t283.5 88zM733 139q162 0 267.5 100.5t105.5 262.5q0 165 -99 264.5t-274 99.5q-174 0 -280.5 -98.5t-106.5 -247.5q0 -169 100.5 -275t286.5 -106z" />
    <glyph glyph-name="seven" unicode="7" horiz-adv-x="1118" 
d="M49 1389v167h1022v-225l-700 -1331h-236l742 1389h-828z" />
    <glyph glyph-name="eight" unicode="8" horiz-adv-x="1400" 
d="M903 831q71 -13 135.5 -40t123 -72.5t93.5 -117.5t35 -161q0 -145 -79.5 -251.5t-211.5 -159t-299 -52.5t-299 52.5t-211 159t-79 251.5q0 89 35 161t93.5 117.5t123 72.5t135.5 40q-70 17 -124.5 41t-106.5 63.5t-80.5 101t-28.5 141.5q0 184 150 292.5t392 108.5
t392.5 -108.5t150.5 -292.5q0 -80 -28.5 -141.5t-80.5 -101t-106.5 -63.5t-124.5 -41zM367 1165q0 -112 81 -182t252 -70t252.5 70t81.5 182q0 113 -85.5 182.5t-248.5 69.5t-248 -69t-85 -183zM700 139q72 0 137.5 18t121.5 54t89 98t33 142q0 139 -108 220t-273 81
t-273 -81t-108 -220q0 -80 33 -142t89 -98t121.5 -54t137.5 -18z" />
    <glyph glyph-name="nine" unicode="9" horiz-adv-x="1413" 
d="M676 1579q290 0 456 -203t166 -598q0 -380 -168.5 -590.5t-451.5 -210.5q-216 0 -357.5 105t-185.5 297h209q32 -108 114.5 -174t219.5 -66q113 0 197 56t131.5 154.5t68 223.5t15.5 273q-43 -141 -169 -229.5t-284 -88.5q-247 0 -393 142.5t-146 384.5q0 155 76.5 275.5
t207.5 184.5t294 64zM680 690q174 0 280.5 98.5t106.5 247.5q0 169 -100.5 275t-286.5 106q-162 0 -267.5 -100t-105.5 -262q0 -165 99.5 -265t273.5 -100z" />
    <glyph glyph-name="colon" unicode=":" horiz-adv-x="552" 
d="M397 688h-241v246h241v-246zM397 0h-241v246h241v-246z" />
    <glyph glyph-name="semicolon" unicode=";" horiz-adv-x="552" 
d="M156 688v246h241v-246h-241zM233 0h-77v246h241v-271l-145 -247h-139z" />
    <glyph glyph-name="less" unicode="&#x3c;" horiz-adv-x="1200" 
d="M106 680l965 373v-168l-864 -334l864 -334v-166l-965 373v256z" />
    <glyph glyph-name="equal" unicode="=" horiz-adv-x="1318" 
d="M1174 690h-1029v156h1029v-156zM1174 266h-1029v156h1029v-156z" />
    <glyph glyph-name="greater" unicode="&#x3e;" horiz-adv-x="1200" 
d="M129 885v168l965 -373v-256l-965 -373v166l864 334z" />
    <glyph glyph-name="question" unicode="?" horiz-adv-x="1138" 
d="M631 516h-201q0 118 42.5 205t133.5 166l90 78q88 75 125 125t37 116q0 91 -76 153t-211 62q-133 0 -216 -71.5t-89 -188.5h-205q9 196 155 307t355 111q225 0 360.5 -100t135.5 -265q0 -54 -14.5 -101t-45.5 -88t-57.5 -68.5t-70.5 -65.5l-93 -80q-91 -78 -123 -139
t-32 -156zM657 0h-241v246h241v-246z" />
    <glyph glyph-name="at" unicode="@" horiz-adv-x="1990" 
d="M989 1378q183 0 350 -71.5t287.5 -192t192 -287.5t71.5 -350q0 -106 -21 -190.5t-56.5 -138.5t-84 -89.5t-100 -50t-108.5 -14.5q-127 0 -213 62.5t-107 156.5q-38 -90 -123 -154.5t-203 -64.5q-137 0 -235 82.5t-98 218.5q0 73 30 126.5t88 86.5t128 52t165 30l244 26
v39v4q0 92 -57.5 139.5t-149.5 47.5q-87 0 -142 -42.5t-67 -117.5h-205q18 145 131.5 226t282.5 81q187 0 297.5 -90t110.5 -256v-4v-319v-5q0 -76 40.5 -118.5t106.5 -42.5q39 0 69.5 13.5t57 46.5t41 98.5t14.5 160.5q0 200 -99.5 370t-269.5 268.5t-368 98.5
q-201 0 -370.5 -99t-268 -268.5t-98.5 -369.5t98.5 -369.5t268 -268.5t370.5 -99q185 0 357 94l86 -141q-207 -117 -443 -117q-183 0 -350 71.5t-287.5 192t-192 287.5t-71.5 350t71.5 350t192 287.5t287.5 192t350 71.5zM938 141q113 0 185.5 75t72.5 192v75l-168 -18
q-67 -7 -114.5 -18t-87.5 -30.5t-60.5 -51t-20.5 -74.5q0 -71 55.5 -110.5t137.5 -39.5z" />
    <glyph glyph-name="A" unicode="A" horiz-adv-x="1554" 
d="M1548 0h-221l-168 471h-764l-168 -471h-221l559 1556h424zM778 1548l-317 -893h633z" />
    <glyph glyph-name="B" unicode="B" horiz-adv-x="1458" 
d="M918 801q218 -8 329 -100.5t111 -268.5q0 -210 -150.5 -321t-427.5 -111h-585v1556h585q111 0 200 -21.5t149 -58.5t100 -88.5t58 -110t18 -124.5q0 -150 -105.5 -242t-281.5 -110zM1090 1133q0 121 -80 180t-230 59h-379v-477h379q310 0 310 238zM401 184h385
q357 0 357 262q0 265 -357 265h-385v-527z" />
    <glyph glyph-name="C" unicode="C" horiz-adv-x="1597" 
d="M823 -23q-153 0 -285.5 58t-229 161.5t-151.5 254t-55 327.5t55 327t151 253.5t230.5 162t290.5 58.5q262 0 446 -145t245 -383h-215q-59 162 -178 258t-298 96q-230 0 -371 -174.5t-141 -452.5q0 -277 142.5 -451.5t363.5 -174.5q186 0 310 92t184 264h215
q-77 -262 -259.5 -396.5t-449.5 -134.5z" />
    <glyph glyph-name="D" unicode="D" horiz-adv-x="1601" 
d="M195 1556h530q234 0 406.5 -88t269 -264.5t96.5 -425.5t-96.5 -425.5t-269 -264.5t-406.5 -88h-530v1556zM401 184h330q262 0 406.5 154t144.5 440q0 285 -144.5 439.5t-406.5 154.5h-330v-1188z" />
    <glyph glyph-name="E" unicode="E" horiz-adv-x="1343" 
d="M401 711v-527h826v-184h-1032v1556h1013v-184h-807v-477h793v-184h-793z" />
    <glyph glyph-name="F" unicode="F" horiz-adv-x="1277" 
d="M1188 1556v-184h-787v-502h775v-184h-775v-686h-206v1556h993z" />
    <glyph glyph-name="G" unicode="G" horiz-adv-x="1691" 
d="M774 653v185h768v-838h-180v393q-25 -83 -68.5 -154.5t-108.5 -132t-159.5 -95t-208.5 -34.5q-150 0 -281.5 58.5t-227 162.5t-151 254.5t-55.5 325.5q0 235 93.5 418t260 283t378.5 100q268 0 446.5 -134t239.5 -370h-215q-55 154 -173.5 242t-297.5 88
q-231 0 -374 -174.5t-143 -452.5q0 -279 145.5 -452.5t379.5 -173.5q219 0 354 131.5t139 369.5h-561z" />
    <glyph glyph-name="H" unicode="H" horiz-adv-x="1617" 
d="M1217 895v661h206v-1556h-206v711h-816v-711h-206v1556h206v-661h816z" />
    <glyph glyph-name="I" unicode="I" horiz-adv-x="595" 
d="M401 0h-206v1556h206v-1556z" />
    <glyph glyph-name="J" unicode="J" horiz-adv-x="768" 
d="M233 0h-192v184h166q88 0 129 39t41 119v1214h207v-1245q0 -153 -91.5 -232t-259.5 -79z" />
    <glyph glyph-name="K" unicode="K" horiz-adv-x="1423" 
d="M651 819l799 -819h-274l-775 797v-797h-206v1556h206v-718l703 718h268z" />
    <glyph glyph-name="L" unicode="L" horiz-adv-x="1150" 
d="M401 1556v-1372h713v-184h-919v1556h206z" />
    <glyph glyph-name="M" unicode="M" horiz-adv-x="2154" 
d="M1960 1556v-1556h-207v1550l-461 -1550h-430l-461 1550v-1550h-206v1556h421l461 -1550l461 1550h422z" />
    <glyph glyph-name="N" unicode="N" horiz-adv-x="1726" 
d="M1325 8v1548h207v-1556h-428l-703 1548v-1548h-206v1556h428z" />
    <glyph glyph-name="O" unicode="O" horiz-adv-x="1687" 
d="M844 -23q-162 0 -300 58.5t-235.5 163t-152 253.5t-54.5 326t54.5 326t152 253.5t235.5 163t300 58.5t300 -58.5t235 -163t151.5 -253.5t54.5 -326t-54.5 -326t-151.5 -253.5t-235 -163t-300 -58.5zM844 152q234 0 380 174.5t146 451.5t-146 452t-380 175t-380.5 -175
t-146.5 -452t146.5 -451.5t380.5 -174.5z" />
    <glyph glyph-name="P" unicode="P" horiz-adv-x="1425" 
d="M195 1556h573q279 0 435.5 -127t156.5 -360t-156.5 -360t-435.5 -127h-367v-582h-206v1556zM401 766h373q371 0 371 303t-371 303h-373v-606z" />
    <glyph glyph-name="Q" unicode="Q" horiz-adv-x="1695" 
d="M1427 258l310 -258h-293l-148 123q-195 -146 -452 -146q-162 0 -300 58.5t-235.5 163t-152 253.5t-54.5 326t54.5 326t152 253.5t235.5 163t300 58.5t300 -58.5t235 -163t151.5 -253.5t54.5 -326q0 -307 -158 -520zM844 152q173 0 301 98l-338 282h293l170 -143
q100 165 100 389q0 277 -146 452t-380 175t-380.5 -175t-146.5 -452t146.5 -451.5t380.5 -174.5z" />
    <glyph glyph-name="R" unicode="R" horiz-adv-x="1456" 
d="M993 666l398 -666h-242l-375 635h-6h-367v-635h-206v1556h573q258 0 408.5 -124.5t150.5 -335.5q0 -159 -88 -271.5t-246 -158.5zM772 1372h-371v-553h371q160 0 250 72.5t90 204.5t-90 204t-250 72z" />
    <glyph glyph-name="S" unicode="S" horiz-adv-x="1417" 
d="M692 -23q-248 0 -413.5 132t-200.5 360h215q21 -154 129 -235.5t270 -81.5q201 0 312.5 75.5t111.5 200.5q0 42 -9.5 74.5t-33 58t-50.5 43.5t-74.5 34.5t-92 28t-115.5 27.5l-194 43q-195 42 -307.5 143t-112.5 267q0 122 74.5 221t203 155t283.5 56q243 0 402.5 -117
t193.5 -311h-215q-36 129 -135 191.5t-246 62.5q-150 0 -251 -66t-101 -172t75 -156.5t265 -92.5l194 -44q241 -54 348 -149t107 -274q0 -210 -174.5 -342t-458.5 -132z" />
    <glyph glyph-name="T" unicode="T" horiz-adv-x="1316" 
d="M37 1556h1243v-184h-518v-1372h-207v1372h-518v184z" />
    <glyph glyph-name="U" unicode="U" horiz-adv-x="1579" 
d="M791 -23q-613 0 -613 644v4v931h207v-944v-4q0 -231 101.5 -343.5t304.5 -112.5q202 0 302.5 113.5t100.5 346.5v944h207v-931q0 -316 -146.5 -482t-463.5 -166z" />
    <glyph glyph-name="V" unicode="V" horiz-adv-x="1517" 
d="M760 8l520 1548h227l-532 -1556h-432l-533 1556h228z" />
    <glyph glyph-name="W" unicode="W" horiz-adv-x="2318" 
d="M1679 8l381 1548h219l-383 -1556h-430l-307 1546l-307 -1546h-430l-383 1556h219l381 -1548l307 1548h426z" />
    <glyph glyph-name="X" unicode="X" horiz-adv-x="1507" 
d="M883 831l626 -831h-245l-510 676l-510 -676h-246l627 831l-547 725h246l430 -569l430 569h246z" />
    <glyph glyph-name="Y" unicode="Y" horiz-adv-x="1382" 
d="M1149 1556h237l-591 -888v-668h-207v668l-592 888h235l459 -690z" />
    <glyph glyph-name="Z" unicode="Z" horiz-adv-x="1411" 
d="M1307 1311l-1004 -1127h1043v-184h-1262v246l1003 1126h-989v184h1209v-245z" />
    <glyph glyph-name="bracketleft" unicode="[" horiz-adv-x="677" 
d="M623 1556v-151h-236v-1655h236v-151h-437v1957h437z" />
    <glyph glyph-name="backslash" unicode="\" horiz-adv-x="997" 
d="M950 0h-217l-686 1556h217z" />
    <glyph glyph-name="bracketright" unicode="]" horiz-adv-x="677" 
d="M55 1405v151h437v-1957h-437v151h236v1655h-236z" />
    <glyph glyph-name="asciicircum" unicode="^" horiz-adv-x="1128" 
d="M709 1556l344 -798h-193l-295 706l-297 -706h-192l346 798h287z" />
    <glyph glyph-name="underscore" unicode="_" horiz-adv-x="1167" 
d="M1073 -154h-979v154h979v-154z" />
    <glyph glyph-name="grave" unicode="`" horiz-adv-x="616" 
d="M565 1247h-186l-328 309h277z" />
    <glyph glyph-name="a" unicode="a" horiz-adv-x="1193" 
d="M592 1120q97 0 175 -23.5t129.5 -62.5t86 -93t49.5 -112t15 -122v-5v-702h-201v225q-62 -127 -145.5 -187.5t-233.5 -60.5q-155 0 -262 101t-107 252q0 53 15 97.5t39.5 75.5t62 56t75 40.5t86 27t87.5 17.5t88 11l295 31v19v4q0 114 -65 189t-189 75
q-110 0 -176.5 -57.5t-77.5 -141.5h-205q19 157 143 251.5t316 94.5zM541 111q146 0 225.5 100.5t79.5 255.5v82l-219 -23q-50 -5 -78 -9t-72.5 -13t-70 -22t-52 -33t-39 -50t-12.5 -69q0 -102 69 -160.5t169 -58.5z" />
    <glyph glyph-name="b" unicode="b" horiz-adv-x="1306" 
d="M748 1120q200 0 333 -160t133 -411t-132.5 -411.5t-333.5 -160.5q-123 0 -230 72.5t-158 190.5v-240h-200v1556h200v-725q42 122 143 205.5t245 83.5zM682 125q155 0 241.5 114t86.5 310t-86.5 310t-241.5 114t-242.5 -114.5t-87.5 -309.5t87.5 -309.5t242.5 -114.5z" />
    <glyph glyph-name="c" unicode="c" horiz-adv-x="1200" 
d="M625 -23q-243 0 -389 157.5t-146 414.5q0 256 146 413.5t389 157.5q198 0 328.5 -108.5t166.5 -286.5h-205q-25 109 -98.5 178.5t-191.5 69.5q-155 0 -242.5 -114.5t-87.5 -309.5t87.5 -309.5t242.5 -114.5q233 0 303 242h205q-42 -185 -179.5 -287.5t-328.5 -102.5z" />
    <glyph glyph-name="d" unicode="d" horiz-adv-x="1306" 
d="M946 831v725h201v-1556h-201v240q-51 -118 -157.5 -190.5t-229.5 -72.5q-201 0 -334 160.5t-133 411.5t133.5 411t333.5 160q144 0 244.5 -83.5t142.5 -205.5zM625 125q155 0 242 114t87 310t-87 310t-242 114t-241.5 -114t-86.5 -310t86.5 -310t241.5 -114z" />
    <glyph glyph-name="e" unicode="e" horiz-adv-x="1218" 
d="M1128 565q0 -22 -4 -76h-829q12 -176 96.5 -270t222.5 -94q116 0 184.5 50.5t100.5 146.5h205q-46 -172 -173 -258.5t-317 -86.5q-162 0 -281.5 74.5t-180 203t-60.5 294.5q0 167 61.5 296t180 202t278.5 73q232 0 374 -151.5t142 -403.5zM612 973q-132 0 -214 -85
t-101 -247h627q-9 149 -93.5 240.5t-218.5 91.5z" />
    <glyph glyph-name="f" unicode="f" horiz-adv-x="770" 
d="M743 1405h-122q-80 0 -120 -34t-40 -120v-153h282v-152h-282v-946h-201v946h-227v152h227v153q0 152 93.5 228.5t246.5 76.5h143v-151z" />
    <glyph glyph-name="g" unicode="g" horiz-adv-x="1306" 
d="M950 838v260h201v-1102q0 -106 -42 -188.5t-113.5 -132t-159.5 -74.5t-187 -25q-134 0 -240.5 40.5t-175.5 124t-81 200.5h204q13 -103 95.5 -160t197.5 -57q132 0 216.5 69t84.5 199v270q-51 -116 -157 -186t-230 -70q-203 0 -335 153.5t-132 403.5q0 249 133 403
t334 154q145 0 245 -81t142 -201zM629 154q156 0 242.5 107.5t86.5 301.5t-86.5 302t-242.5 108t-242 -108t-86 -302t86 -301.5t242 -107.5z" />
    <glyph glyph-name="h" unicode="h" horiz-adv-x="1232" 
d="M705 1120q180 0 280 -122t100 -314v-4v-680h-200v649v4q0 162 -69 241t-193 79t-193.5 -80t-69.5 -244v-649h-200v1556h200v-682q41 108 127.5 177t217.5 69z" />
    <glyph glyph-name="i" unicode="i" horiz-adv-x="520" 
d="M369 1286h-217v270h217v-270zM360 0h-200v1098h200v-1098z" />
    <glyph glyph-name="j" unicode="j" horiz-adv-x="520" 
d="M369 1286h-217v270h217v-270zM20 -401h-75v151h55q80 0 120 34t40 120v1194h200v-1194q0 -152 -93.5 -228.5t-246.5 -76.5z" />
    <glyph glyph-name="k" unicode="k" horiz-adv-x="1128" 
d="M592 612l538 -612h-249l-521 592v-592h-200v1556h200v-927l500 469h250z" />
    <glyph glyph-name="l" unicode="l" horiz-adv-x="520" 
d="M360 0h-200v1556h200v-1556z" />
    <glyph glyph-name="m" unicode="m" horiz-adv-x="1892" 
d="M1380 1120q175 0 270 -119.5t95 -316.5v-4v-680h-201v649v4q0 320 -246 320q-122 0 -183.5 -79t-61.5 -245v-649h-201v649v4q0 320 -246 320t-246 -324v-649h-200v1098h200v-224q41 110 121.5 178t206.5 68q133 0 222.5 -79t121.5 -195q18 53 46.5 99.5t70 87t101 64
t130.5 23.5z" />
    <glyph glyph-name="n" unicode="n" horiz-adv-x="1232" 
d="M705 1120q180 0 280 -122t100 -314v-4v-680h-200v649v4q0 162 -69 241t-193 79t-193.5 -80t-69.5 -244v-649h-200v1098h200v-224q41 108 127.5 177t217.5 69z" />
    <glyph glyph-name="o" unicode="o" horiz-adv-x="1247" 
d="M625 -23q-243 0 -389 157.5t-146 414.5q0 256 146 413.5t389 157.5t387.5 -157t144.5 -414t-144.5 -414.5t-387.5 -157.5zM625 125q155 0 241 114t86 310t-86 310t-241 114t-242.5 -114.5t-87.5 -309.5t87.5 -309.5t242.5 -114.5z" />
    <glyph glyph-name="p" unicode="p" horiz-adv-x="1306" 
d="M748 1120q200 0 333 -160t133 -411t-132.5 -411.5t-333.5 -160.5q-123 0 -230 72.5t-158 190.5v-641h-200v1499h200v-267q42 122 143 205.5t245 83.5zM682 125q155 0 241.5 114t86.5 310t-86.5 310t-241.5 114t-242.5 -114.5t-87.5 -309.5t87.5 -309.5t242.5 -114.5z" />
    <glyph glyph-name="q" unicode="q" horiz-adv-x="1306" 
d="M946 831v267h201v-1499h-201v641q-51 -118 -157.5 -190.5t-229.5 -72.5q-201 0 -334 160.5t-133 411.5t133.5 411t333.5 160q144 0 244.5 -83.5t142.5 -205.5zM625 125q155 0 242 114t87 310t-87 310t-242 114t-241.5 -114t-86.5 -310t86.5 -310t241.5 -114z" />
    <glyph glyph-name="r" unicode="r" horiz-adv-x="763" 
d="M360 1098v-236q82 258 361 258v-198h-62q-156 0 -227.5 -58t-71.5 -202v-662h-200v1098h200z" />
    <glyph glyph-name="s" unicode="s" horiz-adv-x="1085" 
d="M541 -23q-188 0 -315 90t-150 255h205q21 -107 92.5 -152t167.5 -45q126 0 193 44.5t67 121.5q0 74 -49 114t-172 66l-154 33q-322 69 -322 295q0 143 124.5 232t308.5 89q166 0 287 -76.5t157 -220.5h-205q-23 70 -90 110t-149 40q-95 0 -164.5 -42t-69.5 -112
q0 -62 50 -93t169 -56l154 -33q170 -36 246.5 -114.5t76.5 -207.5q0 -156 -126.5 -247t-331.5 -91z" />
    <glyph glyph-name="t" unicode="t" horiz-adv-x="794" 
d="M618 152h123v-152h-143q-151 0 -245.5 75.5t-94.5 225.5v4v641h-231v152h231v260h201v-260h278v-152h-278v-641v-4q0 -84 39.5 -116.5t119.5 -32.5z" />
    <glyph glyph-name="u" unicode="u" horiz-adv-x="1222" 
d="M862 449v649h201v-1098h-201v219q-39 -104 -125 -173t-213 -69q-180 0 -278.5 122.5t-98.5 314.5v4v680h201v-649v-5q0 -162 67 -240.5t191 -78.5q123 0 189.5 80t66.5 244z" />
    <glyph glyph-name="v" unicode="v" horiz-adv-x="1177" 
d="M590 10l356 1088h205l-367 -1098h-391l-366 1098h204z" />
    <glyph glyph-name="w" unicode="w" horiz-adv-x="1822" 
d="M1315 10l268 1088h195l-271 -1098h-383l-213 1087l-213 -1087h-383l-270 1098h195l268 -1088l213 1088h381z" />
    <glyph glyph-name="x" unicode="x" horiz-adv-x="1126" 
d="M682 590l432 -590h-217l-334 457l-334 -457h-217l432 590l-389 508h217l291 -381l291 381h217z" />
    <glyph glyph-name="y" unicode="y" horiz-adv-x="1146" 
d="M590 139l321 959h209l-504 -1499h-208l176 522h-195l-381 977h207z" />
    <glyph glyph-name="z" unicode="z" horiz-adv-x="1054" 
d="M948 895l-653 -743h696v-152h-905v203l653 743h-641v152h850v-203z" />
    <glyph glyph-name="braceleft" unicode="{" horiz-adv-x="702" 
d="M463 1219v-261q0 -76 -12.5 -133.5t-33 -94.5t-55.5 -64t-71.5 -41.5t-89.5 -28.5q67 -18 109.5 -39t80 -60t55 -103.5t17.5 -157.5v-5v-294v-5q0 -182 141 -182h23v-151h-47q-161 0 -239.5 82.5t-78.5 222.5v4v293v4q0 71 -8 120t-22.5 80t-41.5 49t-56.5 26.5
t-76.5 13.5v202q47 5 76.5 13.5t56.5 27t41.5 49.5t22.5 81t8 122v258q0 142 78 225.5t240 83.5h47v-151h-23q-141 0 -141 -186z" />
    <glyph glyph-name="bar" unicode="|" horiz-adv-x="565" 
d="M379 -463h-193v2142h193v-2142z" />
    <glyph glyph-name="braceright" unicode="}" horiz-adv-x="702" 
d="M440 985q0 -71 8 -120t22.5 -80t41.5 -49t56.5 -26.5t76.5 -13.5v-202q-47 -5 -76.5 -13.5t-56.5 -27t-41.5 -49.5t-22.5 -81t-8 -122v-293q0 -143 -77.5 -226t-239.5 -83h-47v151h22q142 0 142 187v294q0 76 12.5 133.5t33 95t55.5 64.5t71.5 42.5t89.5 29.5
q-53 14 -89.5 28.5t-71.5 41.5t-55.5 63.5t-33 93t-12.5 131.5v4v261v4q0 182 -142 182h-22v151h47q161 0 239 -82t78 -223v-4v-258v-4z" />
    <glyph glyph-name="asciitilde" unicode="~" horiz-adv-x="1363" 
d="M207 438l-103 103q149 194 328 194q55 0 107 -12.5t141 -48.5q156 -64 238 -64q68 0 120.5 33t116.5 100l102 -102q-152 -195 -327 -195q-56 0 -107 12.5t-141 49.5q-157 63 -240 63q-67 0 -121 -33t-114 -100z" />
    <glyph glyph-name="uni00A0" unicode="&#xa0;" horiz-adv-x="512" 
 />
    <glyph glyph-name="exclamdown" unicode="&#xa1;" horiz-adv-x="532" 
d="M387 852h-242v246h242v-246zM377 -401h-221l22 983h176z" />
    <glyph glyph-name="cent" unicode="&#xa2;" horiz-adv-x="1265" 
d="M963 367h204q-38 -163 -148.5 -262t-268.5 -121v-252h-185v252q-202 31 -321 183.5t-119 381.5t119 381.5t321 183.5v244h185v-244q162 -24 268 -128.5t137 -260.5h-205q-20 87 -70 149.5t-130 86.5v-826q157 43 213 232zM330 549q0 -164 61 -272t174 -140v824
q-113 -32 -174 -140t-61 -272z" />
    <glyph glyph-name="sterling" unicode="&#xa3;" horiz-adv-x="1269" 
d="M291 168h893v-168h-1049v225q164 99 232.5 176t68.5 185q0 46 -12 86h-315v168h204q-71 77 -111 154.5t-40 174.5q0 121 69.5 215.5t185 144.5t255.5 50q206 0 340 -104t157 -277h-208q-18 107 -95 163t-194 56q-125 0 -213 -71.5t-88 -190.5q0 -77 36 -139.5t109 -138.5
q13 -13 33 -37h479v-168h-389q6 -30 6 -68q0 -137 -83.5 -235t-270.5 -201z" />
    <glyph glyph-name="currency" unicode="&#xa4;" horiz-adv-x="1347" 
d="M1176 762q0 -155 -93 -289l140 -139l-125 -125l-137 137q-129 -90 -287 -90t-287 90l-137 -137l-125 125l137 137q-92 136 -92 291q0 160 94 291l-139 137l125 123l139 -137q126 90 285 90q158 0 284 -90l140 137l125 -123l-140 -137q93 -137 93 -291zM352 762
q0 -139 94 -231.5t228 -92.5q135 0 227 92t92 232q0 139 -92 230t-227 91q-134 0 -228 -91t-94 -230z" />
    <glyph glyph-name="yen" unicode="&#xa5;" horiz-adv-x="1501" 
d="M1214 1556h232l-502 -747h352v-168h-442v-145h442v-168h-442v-328h-205v328h-446v168h446v145h-446v168h356l-502 747h232l463 -698z" />
    <glyph glyph-name="brokenbar" unicode="&#xa6;" horiz-adv-x="577" 
d="M385 848h-192v831h192v-831zM385 -463h-192v832h192v-832z" />
    <glyph glyph-name="section" unicode="&#xa7;" horiz-adv-x="1216" 
d="M956 315q91 -88 91 -196q0 -141 -116 -235.5t-323 -94.5q-197 0 -326 93t-157 247h209q20 -83 96.5 -130.5t177.5 -47.5q106 0 168 43.5t62 111.5q0 33 -14 59.5t-45.5 50.5t-64 42t-89.5 45l-299 141q-130 61 -187 137.5t-57 176.5q0 165 178 295q-90 87 -90 196
q0 141 115.5 235.5t322.5 94.5q197 0 326.5 -93t157.5 -247h-209q-20 83 -97 130.5t-178 47.5q-106 0 -167.5 -43.5t-61.5 -111.5q0 -33 14 -59.5t45.5 -50.5t64 -42t89.5 -45l299 -141q130 -61 187 -137.5t57 -176.5q0 -164 -179 -295zM461 580l317 -152l47 -22
q101 85 101 176q0 66 -38 113.5t-132 92.5l-318 152l-47 23q-100 -84 -100 -177q0 -66 38 -113.5t132 -92.5z" />
    <glyph glyph-name="dieresis" unicode="&#xa8;" horiz-adv-x="747" 
d="M268 1286h-217v270h217v-270zM696 1286h-217v270h217v-270z" />
    <glyph glyph-name="copyright" unicode="&#xa9;" horiz-adv-x="1916" 
d="M958 -63q-171 0 -327 67t-268.5 179.5t-179 268t-66.5 326.5t66.5 326.5t179 268.5t268.5 180t327 67t327 -67t269 -180t179.5 -268.5t66.5 -326.5t-66.5 -326.5t-179.5 -268t-269 -179.5t-327 -67zM958 96q186 0 343 91t248 248t91 343q0 187 -91 344t-248 248.5
t-343 91.5t-343 -91.5t-248 -248.5t-91 -344q0 -186 91 -343t248 -248t343 -91zM967 293q-200 0 -329.5 135.5t-129.5 349.5q0 215 128.5 350.5t328.5 135.5q158 0 278 -91t150 -241h-174q-29 93 -94.5 141.5t-157.5 48.5q-121 0 -201 -90t-80 -254t80 -254t201 -90
q96 0 164 48t90 143h176q-29 -148 -148 -240t-282 -92z" />
    <glyph glyph-name="ordfeminine" unicode="&#xaa;" horiz-adv-x="688" 
d="M342 1571q133 0 198.5 -62.5t65.5 -154.5v-4v-351h-160v103q-22 -49 -69.5 -83t-120.5 -34q-85 0 -142 50t-57 132q0 150 238 172l147 15v6v4q0 48 -29 70t-71 22q-40 0 -66 -19.5t-28 -47.5h-168q9 85 80.5 133.5t181.5 48.5zM322 1087q57 0 88.5 40t31.5 108v14l-86 -8
q-131 -12 -131 -80q0 -33 27 -53.5t70 -20.5z" />
    <glyph glyph-name="guillemotleft" unicode="&#xab;" horiz-adv-x="1255" 
d="M446 1012h238l-350 -449l350 -471h-238l-350 471zM926 1012h237l-350 -449l350 -471h-237l-351 471z" />
    <glyph glyph-name="logicalnot" unicode="&#xac;" horiz-adv-x="1259" 
d="M1106 227h-160v482h-846v155h1006v-637z" />
    <glyph glyph-name="uni00AD" unicode="&#xad;" horiz-adv-x="921" 
d="M784 496h-647v168h647v-168z" />
    <glyph glyph-name="registered" unicode="&#xae;" horiz-adv-x="1916" 
d="M958 1620q171 0 327 -67t269 -180t179.5 -268.5t66.5 -326.5t-66.5 -326.5t-179.5 -268t-269 -179.5t-327 -67t-327 67t-268.5 179.5t-179 268t-66.5 326.5t66.5 326.5t179 268.5t268.5 180t327 67zM958 96q186 0 343 91t248 248t91 343q0 187 -91 344t-248 248.5
t-343 91.5t-343 -91.5t-248 -248.5t-91 -344q0 -186 91 -343t248 -248t343 -91zM1354 961q0 -99 -54.5 -168.5t-154.5 -100.5l229 -395h-194l-207 375h-185v-375h-172v956h371q170 0 268.5 -78.5t98.5 -213.5zM985 1112h-197v-299h197q90 0 141.5 38.5t51.5 109.5t-51.5 111
t-141.5 40z" />
    <glyph glyph-name="macron" unicode="&#xaf;" horiz-adv-x="813" 
d="M762 1319h-711v151h711v-151z" />
    <glyph glyph-name="degree" unicode="&#xb0;" horiz-adv-x="835" 
d="M418 915q-136 0 -234 97.5t-98 234.5t98 234.5t234 97.5t234 -97.5t98 -234.5t-98 -234.5t-234 -97.5zM418 1069q74 0 126 52.5t52 125.5t-52 125.5t-126 52.5t-126 -52.5t-52 -125.5t52 -125.5t126 -52.5z" />
    <glyph glyph-name="plusminus" unicode="&#xb1;" horiz-adv-x="1339" 
d="M750 1098v-340h469v-156h-469v-352h-160v352h-469v156h469v340h160zM1219 0h-1098v156h1098v-156z" />
    <glyph glyph-name="uni00B2" unicode="&#xb2;" horiz-adv-x="716" 
d="M514 1329l-254 -196h410v-134h-619v168l340 269q47 36 68.5 63.5t21.5 65.5q0 43 -32.5 71.5t-90.5 28.5q-59 0 -93.5 -30t-37.5 -81h-172q6 104 88 171t215 67q134 0 214.5 -65.5t80.5 -157.5q0 -73 -33 -128.5t-106 -111.5z" />
    <glyph glyph-name="uni00B3" unicode="&#xb3;" horiz-adv-x="724" 
d="M451 1407q57 -7 104.5 -26t84 -62.5t36.5 -104.5q0 -112 -86 -170.5t-236 -58.5q-141 0 -221 63t-92 175h172q5 -52 41.5 -81.5t99.5 -29.5t106.5 31t43.5 84q0 59 -52 85.5t-126 26.5h-50v134h50q70 0 112.5 27.5t42.5 70.5q0 41 -35.5 67.5t-91.5 26.5q-55 0 -88.5 -28
t-36.5 -72h-172q6 97 88 162t209 65q128 0 213.5 -56t85.5 -145q0 -154 -202 -184z" />
    <glyph glyph-name="acute" unicode="&#xb4;" horiz-adv-x="616" 
d="M238 1247h-187l238 309h276z" />
    <glyph glyph-name="uni00B5" unicode="&#xb5;" horiz-adv-x="1351" 
d="M1217 152h69v-152h-104q-127 0 -192 42.5t-89 137.5l-6 41q-39 -106 -124 -175t-214 -69q-99 0 -176 50v-428h-201v1499h201v-652v-4q0 -160 67.5 -238.5t190.5 -78.5t189.5 80t66.5 244v649h201v-832v-4q0 -60 28.5 -85t92.5 -25z" />
    <glyph glyph-name="paragraph" unicode="&#xb6;" horiz-adv-x="1361" 
d="M676 -190h-189v890q-179 0 -302.5 125.5t-123.5 304.5t123 302.5t303 123.5h666v-1746h-188v1587h-289v-1587z" />
    <glyph glyph-name="periodcentered" unicode="&#xb7;" horiz-adv-x="516" 
d="M379 481h-242v246h242v-246z" />
    <glyph glyph-name="cedilla" unicode="&#xb8;" horiz-adv-x="415" 
d="M205 0v-72q73 -9 116.5 -54.5t43.5 -113.5q0 -76 -54.5 -123t-148.5 -47h-111v117h92q86 0 86 66q0 31 -21.5 48t-55.5 17h-70v162h123z" />
    <glyph glyph-name="uni00B9" unicode="&#xb9;" horiz-adv-x="458" 
d="M221 1761l6 17h131v-779h-168v537h-170v133h29q81 0 117 20.5t55 71.5z" />
    <glyph glyph-name="ordmasculine" unicode="&#xba;" horiz-adv-x="696" 
d="M348 985q-134 0 -216.5 81.5t-82.5 211.5t82.5 211.5t216.5 81.5t216.5 -81.5t82.5 -211.5t-82.5 -211.5t-216.5 -81.5zM348 1100q64 0 97.5 47t33.5 131t-33.5 131t-97.5 47t-97.5 -47t-33.5 -131t33.5 -131t97.5 -47z" />
    <glyph glyph-name="guillemotright" unicode="&#xbb;" horiz-adv-x="1255" 
d="M92 1012h238l350 -449l-350 -471h-238l350 471zM571 1012h238l350 -449l-350 -471h-238l351 471z" />
    <glyph glyph-name="onequarter" unicode="&#xbc;" horiz-adv-x="1511" 
d="M412 778h-168v537h-170v133h28q81 0 117 20.5t55 71.5l7 16h131v-778zM84 0l981 1556h201l-981 -1556h-201zM1337 336h109v-133h-109v-203h-168v203h-393v168l238 407h323v-442zM1169 758l-241 -422h241v422z" />
    <glyph glyph-name="onehalf" unicode="&#xbd;" horiz-adv-x="1544" 
d="M408 778h-168v537h-170v133h28q81 0 117 20.5t55 71.5l6 16h132v-778zM80 0l981 1556h201l-981 -1556h-201zM1319 330l-254 -197h410v-133h-619v168l340 268q47 36 68.5 63.5t21.5 65.5q0 43 -32.5 72t-90.5 29q-59 0 -93.5 -30t-37.5 -81h-172q6 104 88 171t215 67
q134 0 214.5 -66t80.5 -158q0 -73 -33 -128t-106 -111z" />
    <glyph glyph-name="threequarters" unicode="&#xbe;" horiz-adv-x="1720" 
d="M705 993q0 -112 -86 -170.5t-236 -58.5q-142 0 -221.5 63t-91.5 174h172q5 -52 41 -81t100 -29q63 0 106 31t43 84q0 59 -52 85.5t-126 26.5h-49v133h49q70 0 113 28t43 71q0 41 -35.5 67.5t-91.5 26.5q-55 0 -88.5 -28.5t-36.5 -72.5h-172q6 97 88.5 162.5t208.5 65.5
q128 0 213.5 -56t85.5 -145q0 -153 -203 -184q57 -7 105 -26t84.5 -63t36.5 -104zM293 0l981 1556h201l-981 -1556h-201zM1546 336h109v-133h-109v-203h-168v203h-393v168l238 407h323v-442zM1378 758l-241 -422h241v422z" />
    <glyph glyph-name="questiondown" unicode="&#xbf;" horiz-adv-x="1126" 
d="M717 852h-242v246h242v-246zM561 -424q-225 0 -360 97t-135 257q0 44 11 83.5t25.5 67t43 59t48 49t56.5 47.5l96 77q93 75 124.5 127.5t31.5 141.5h200q0 -114 -42.5 -191.5t-133.5 -150.5l-94 -76q-87 -70 -122.5 -116t-35.5 -111q0 -89 74 -147t209 -58
q133 0 218 71.5t91 186.5h205q-9 -192 -155 -303t-355 -111z" />
    <glyph glyph-name="Agrave" unicode="&#xc0;" horiz-adv-x="1554" 
d="M625 1956l252 -270h-199l-342 270h289zM1548 0h-221l-168 471h-764l-168 -471h-221l559 1556h424zM778 1548l-317 -893h633z" />
    <glyph glyph-name="Aacute" unicode="&#xc1;" horiz-adv-x="1554" 
d="M930 1956h289l-342 -270h-199zM1548 0h-221l-168 471h-764l-168 -471h-221l559 1556h424zM778 1548l-317 -893h633z" />
    <glyph glyph-name="Acircumflex" unicode="&#xc2;" horiz-adv-x="1554" 
d="M979 1686l-203 176l-203 -176h-192l256 270h278l256 -270h-192zM1548 0h-221l-168 471h-764l-168 -471h-221l559 1556h424zM778 1548l-317 -893h633z" />
    <glyph glyph-name="Atilde" unicode="&#xc3;" horiz-adv-x="1554" 
d="M637 1786q-101 0 -127 -76h-80q4 105 61.5 164t139.5 59t162 -41q66 -32 122 -32q101 0 127 75h80q-4 -105 -61 -164t-139 -59t-162 41q-68 33 -123 33zM1548 0h-221l-168 471h-764l-168 -471h-221l559 1556h424zM778 1548l-317 -893h633z" />
    <glyph glyph-name="Adieresis" unicode="&#xc4;" horiz-adv-x="1554" 
d="M453 1956h223v-270h-223v270zM877 1956h223v-270h-223v270zM1548 0h-221l-168 471h-764l-168 -471h-221l559 1556h424zM778 1548l-317 -893h633z" />
    <glyph glyph-name="Aring" unicode="&#xc5;" horiz-adv-x="1554" 
d="M776 1673q-109 0 -185.5 77.5t-76.5 186.5t76.5 185t185.5 76t184.5 -76t75.5 -185t-76 -186.5t-184 -77.5zM776 2056q-50 0 -85.5 -35t-35.5 -84q0 -50 36 -86t85 -36t84 36t35 86q0 49 -34.5 84t-84.5 35zM1548 0h-221l-168 471h-764l-168 -471h-221l559 1556h424z
M778 1548l-317 -893h633z" />
    <glyph glyph-name="AE" unicode="&#xc6;" horiz-adv-x="2078" 
d="M1292 711l191 -527h479v-184h-635l-168 471h-764l-168 -471h-221l559 1556h1379v-184h-889l172 -477h702v-184h-637zM778 1548l-317 -893h633z" />
    <glyph glyph-name="Ccedilla" unicode="&#xc7;" horiz-adv-x="1597" 
d="M1317 508h215q-71 -241 -233 -374t-398 -154v-50q75 -10 117.5 -56t42.5 -114q0 -77 -56.5 -123.5t-152.5 -46.5h-115v123h90q84 0 84 62q0 29 -22 45t-55 16h-66v144q-143 10 -265.5 72t-211 164.5t-139 247.5t-50.5 314q0 177 55 327t151 253.5t230.5 162t290.5 58.5
q262 0 446 -145t245 -383h-215q-59 162 -178 258t-298 96q-230 0 -371 -174.5t-141 -452.5q0 -277 142.5 -451.5t363.5 -174.5q186 0 310 92t184 264z" />
    <glyph glyph-name="Egrave" unicode="&#xc8;" horiz-adv-x="1343" 
d="M588 1956l252 -270h-199l-342 270h289zM401 711v-527h826v-184h-1032v1556h1013v-184h-807v-477h793v-184h-793z" />
    <glyph glyph-name="Eacute" unicode="&#xc9;" horiz-adv-x="1343" 
d="M817 1956h289l-342 -270h-199zM401 711v-527h826v-184h-1032v1556h1013v-184h-807v-477h793v-184h-793z" />
    <glyph glyph-name="Ecircumflex" unicode="&#xca;" horiz-adv-x="1343" 
d="M905 1686l-203 176l-202 -176h-193l256 270h279l256 -270h-193zM401 711v-527h826v-184h-1032v1556h1013v-184h-807v-477h793v-184h-793z" />
    <glyph glyph-name="Edieresis" unicode="&#xcb;" horiz-adv-x="1343" 
d="M379 1956h223v-270h-223v270zM803 1956h223v-270h-223v270zM401 711v-527h826v-184h-1032v1556h1013v-184h-807v-477h793v-184h-793z" />
    <glyph glyph-name="Igrave" unicode="&#xcc;" horiz-adv-x="595" 
d="M383 1686h-199l-342 270h289zM401 0h-206v1556h206v-1556z" />
    <glyph glyph-name="Iacute" unicode="&#xcd;" horiz-adv-x="595" 
d="M408 1686h-199l252 270h289zM401 0h-206v1556h206v-1556z" />
    <glyph glyph-name="Icircumflex" unicode="&#xce;" horiz-adv-x="595" 
d="M160 1956h278l256 -270h-192l-203 176l-203 -176h-192zM401 0h-206v1556h206v-1556z" />
    <glyph glyph-name="Idieresis" unicode="&#xcf;" horiz-adv-x="595" 
d="M199 1686h-224v270h224v-270zM623 1686h-224v270h224v-270zM401 0h-206v1556h206v-1556z" />
    <glyph glyph-name="Eth" unicode="&#xd0;" horiz-adv-x="1601" 
d="M195 1556h530q234 0 406.5 -88t269 -264.5t96.5 -425.5t-96.5 -425.5t-269 -264.5t-406.5 -88h-530v715h-183v180h183v661zM401 184h330q262 0 406.5 154t144.5 440q0 285 -144.5 439.5t-406.5 154.5h-330v-477h404v-180h-404v-531z" />
    <glyph glyph-name="Ntilde" unicode="&#xd1;" horiz-adv-x="1726" 
d="M770 1786q-101 0 -127 -76h-80q4 105 61.5 164t139.5 59t162 -41q66 -32 123 -32q101 0 127 75h79q-4 -105 -61 -164t-139 -59t-162 41q-68 33 -123 33zM1325 8v1548h207v-1556h-428l-703 1548v-1548h-206v1556h428z" />
    <glyph glyph-name="Ograve" unicode="&#xd2;" horiz-adv-x="1687" 
d="M981 1686h-199l-342 270h289zM844 -23q-162 0 -300 58.5t-235.5 163t-152 253.5t-54.5 326t54.5 326t152 253.5t235.5 163t300 58.5t300 -58.5t235 -163t151.5 -253.5t54.5 -326t-54.5 -326t-151.5 -253.5t-235 -163t-300 -58.5zM844 152q234 0 380 174.5t146 451.5
t-146 452t-380 175t-380.5 -175t-146.5 -452t146.5 -451.5t380.5 -174.5z" />
    <glyph glyph-name="Oacute" unicode="&#xd3;" horiz-adv-x="1687" 
d="M905 1686h-198l251 270h289zM844 -23q-162 0 -300 58.5t-235.5 163t-152 253.5t-54.5 326t54.5 326t152 253.5t235.5 163t300 58.5t300 -58.5t235 -163t151.5 -253.5t54.5 -326t-54.5 -326t-151.5 -253.5t-235 -163t-300 -58.5zM844 152q234 0 380 174.5t146 451.5
t-146 452t-380 175t-380.5 -175t-146.5 -452t146.5 -451.5t380.5 -174.5z" />
    <glyph glyph-name="Ocircumflex" unicode="&#xd4;" horiz-adv-x="1687" 
d="M1047 1686l-203 176l-203 -176h-192l256 270h278l256 -270h-192zM844 1579q162 0 300 -58.5t235 -163t151.5 -253.5t54.5 -326t-54.5 -326t-151.5 -253.5t-235 -163t-300 -58.5t-300 58.5t-235.5 163t-152 253.5t-54.5 326t54.5 326t152 253.5t235.5 163t300 58.5z
M844 152q234 0 380 174.5t146 451.5t-146 452t-380 175t-380.5 -175t-146.5 -452t146.5 -451.5t380.5 -174.5z" />
    <glyph glyph-name="Otilde" unicode="&#xd5;" horiz-adv-x="1687" 
d="M578 1710h-80q4 105 61 164t139 59t162 -41q66 -32 123 -32q101 0 127 75h80q-4 -105 -61.5 -164t-139.5 -59t-162 41q-68 33 -122 33q-101 0 -127 -76zM844 -23q-162 0 -300 58.5t-235.5 163t-152 253.5t-54.5 326t54.5 326t152 253.5t235.5 163t300 58.5t300 -58.5
t235 -163t151.5 -253.5t54.5 -326t-54.5 -326t-151.5 -253.5t-235 -163t-300 -58.5zM844 152q234 0 380 174.5t146 451.5t-146 452t-380 175t-380.5 -175t-146.5 -452t146.5 -451.5t380.5 -174.5z" />
    <glyph glyph-name="Odieresis" unicode="&#xd6;" horiz-adv-x="1687" 
d="M743 1686h-223v270h223v-270zM1167 1686h-223v270h223v-270zM844 -23q-162 0 -300 58.5t-235.5 163t-152 253.5t-54.5 326t54.5 326t152 253.5t235.5 163t300 58.5t300 -58.5t235 -163t151.5 -253.5t54.5 -326t-54.5 -326t-151.5 -253.5t-235 -163t-300 -58.5zM844 152
q234 0 380 174.5t146 451.5t-146 452t-380 175t-380.5 -175t-146.5 -452t146.5 -451.5t380.5 -174.5z" />
    <glyph glyph-name="multiply" unicode="&#xd7;" horiz-adv-x="1171" 
d="M963 1034l108 -106l-377 -377l377 -379l-108 -106l-377 376l-377 -376l-109 106l379 379l-379 377l109 106l377 -377z" />
    <glyph glyph-name="Oslash" unicode="&#xd8;" horiz-adv-x="1687" 
d="M1454 1556h268l-274 -286q137 -204 137 -492q0 -177 -54.5 -326t-151.5 -253.5t-235 -163t-300 -58.5q-279 0 -475 166l-138 -143h-268l277 289q-138 205 -138 489q0 177 54.5 326t152 253.5t235.5 163t300 58.5q278 0 475 -164zM317 778q0 -190 72 -334l795 830
q-140 131 -340 131q-234 0 -380.5 -175t-146.5 -452zM1370 778q0 192 -72 336l-794 -829q136 -133 340 -133q234 0 380 174.5t146 451.5z" />
    <glyph glyph-name="Ugrave" unicode="&#xd9;" horiz-adv-x="1579" 
d="M928 1686h-199l-342 270h289zM791 -23q-613 0 -613 644v4v931h207v-944v-4q0 -231 101.5 -343.5t304.5 -112.5q202 0 302.5 113.5t100.5 346.5v944h207v-931q0 -316 -146.5 -482t-463.5 -166z" />
    <glyph glyph-name="Uacute" unicode="&#xda;" horiz-adv-x="1579" 
d="M852 1686h-199l252 270h289zM791 -23q-613 0 -613 644v4v931h207v-944v-4q0 -231 101.5 -343.5t304.5 -112.5q202 0 302.5 113.5t100.5 346.5v944h207v-931q0 -316 -146.5 -482t-463.5 -166z" />
    <glyph glyph-name="Ucircumflex" unicode="&#xdb;" horiz-adv-x="1579" 
d="M993 1686l-202 176l-203 -176h-193l256 270h279l256 -270h-193zM1194 612v944h207v-931q0 -316 -146.5 -482t-463.5 -166q-613 0 -613 644v4v931h207v-944v-4q0 -231 101.5 -343.5t304.5 -112.5q202 0 302.5 113.5t100.5 346.5z" />
    <glyph glyph-name="Udieresis" unicode="&#xdc;" horiz-adv-x="1579" 
d="M690 1686h-223v270h223v-270zM1114 1686h-223v270h223v-270zM791 -23q-613 0 -613 644v4v931h207v-944v-4q0 -231 101.5 -343.5t304.5 -112.5q202 0 302.5 113.5t100.5 346.5v944h207v-931q0 -316 -146.5 -482t-463.5 -166z" />
    <glyph glyph-name="Yacute" unicode="&#xdd;" horiz-adv-x="1382" 
d="M805 1956h289l-342 -270h-199zM1149 1556h237l-591 -888v-668h-207v668l-592 888h235l459 -690z" />
    <glyph glyph-name="Thorn" unicode="&#xde;" horiz-adv-x="1449" 
d="M401 1290h367q279 0 435.5 -127t156.5 -360t-156.5 -360.5t-435.5 -127.5h-367v-315h-206v1556h206v-266zM401 500h373q371 0 371 303t-371 303h-373v-606z" />
    <glyph glyph-name="germandbls" unicode="&#xdf;" horiz-adv-x="1277" 
d="M788 868q77 -11 146 -40.5t127.5 -79.5t93.5 -128t35 -174q0 -214 -116 -341.5t-324 -127.5q-128 0 -244 43v152q107 -47 196 -47q143 0 213 90.5t70 245.5q0 150 -97.5 241t-273.5 91h-20v147h22q291 0 291 258q0 115 -72.5 174.5t-181.5 59.5q-152 0 -223.5 -94.5
t-71.5 -256.5v-1081h-198v1065q0 245 132 379.5t361 134.5q203 0 331 -104.5t128 -270.5q0 -141 -83.5 -219.5t-240.5 -116.5z" />
    <glyph glyph-name="agrave" unicode="&#xe0;" horiz-adv-x="1193" 
d="M467 1556l238 -309h-187l-328 309h277zM592 1120q97 0 175 -23.5t129.5 -62.5t86 -93t49.5 -112t15 -122v-5v-702h-201v225q-62 -127 -145.5 -187.5t-233.5 -60.5q-155 0 -262 101t-107 252q0 53 15 97.5t39.5 75.5t62 56t75 40.5t86 27t87.5 17.5t88 11l295 31v19v4
q0 114 -65 189t-189 75q-110 0 -176.5 -57.5t-77.5 -141.5h-205q19 157 143 251.5t316 94.5zM541 111q146 0 225.5 100.5t79.5 255.5v82l-219 -23q-50 -5 -78 -9t-72.5 -13t-70 -22t-52 -33t-39 -50t-12.5 -69q0 -102 69 -160.5t169 -58.5z" />
    <glyph glyph-name="aacute" unicode="&#xe1;" horiz-adv-x="1193" 
d="M717 1556h276l-327 -309h-187zM592 1120q97 0 175 -23.5t129.5 -62.5t86 -93t49.5 -112t15 -122v-5v-702h-201v225q-62 -127 -145.5 -187.5t-233.5 -60.5q-155 0 -262 101t-107 252q0 53 15 97.5t39.5 75.5t62 56t75 40.5t86 27t87.5 17.5t88 11l295 31v19v4
q0 114 -65 189t-189 75q-110 0 -176.5 -57.5t-77.5 -141.5h-205q19 157 143 251.5t316 94.5zM541 111q146 0 225.5 100.5t79.5 255.5v82l-219 -23q-50 -5 -78 -9t-72.5 -13t-70 -22t-52 -33t-39 -50t-12.5 -69q0 -102 69 -160.5t169 -58.5z" />
    <glyph glyph-name="acircumflex" unicode="&#xe2;" horiz-adv-x="1193" 
d="M803 1247l-211 217l-211 -217h-184l262 309h266l262 -309h-184zM592 1120q97 0 175 -23.5t129.5 -62.5t86 -93t49.5 -112t15 -122v-5v-702h-201v225q-62 -127 -145.5 -187.5t-233.5 -60.5q-155 0 -262 101t-107 252q0 53 15 97.5t39.5 75.5t62 56t75 40.5t86 27
t87.5 17.5t88 11l295 31v19v4q0 114 -65 189t-189 75q-110 0 -176.5 -57.5t-77.5 -141.5h-205q19 157 143 251.5t316 94.5zM541 111q146 0 225.5 100.5t79.5 255.5v82l-219 -23q-50 -5 -78 -9t-72.5 -13t-70 -22t-52 -33t-39 -50t-12.5 -69q0 -102 69 -160.5t169 -58.5z" />
    <glyph glyph-name="atilde" unicode="&#xe3;" horiz-adv-x="1193" 
d="M459 1374q-101 0 -125 -84h-72q4 106 58 164.5t133 58.5q59 0 151 -45q66 -32 119 -32q101 0 125 84h72q-4 -106 -58 -165t-133 -59q-59 0 -151 45q-68 33 -119 33zM592 1120q97 0 175 -23.5t129.5 -62.5t86 -93t49.5 -112t15 -122v-5v-702h-201v225
q-62 -127 -145.5 -187.5t-233.5 -60.5q-155 0 -262 101t-107 252q0 53 15 97.5t39.5 75.5t62 56t75 40.5t86 27t87.5 17.5t88 11l295 31v19v4q0 114 -65 189t-189 75q-110 0 -176.5 -57.5t-77.5 -141.5h-205q19 157 143 251.5t316 94.5zM541 111q146 0 225.5 100.5
t79.5 255.5v82l-219 -23q-50 -5 -78 -9t-72.5 -13t-70 -22t-52 -33t-39 -50t-12.5 -69q0 -102 69 -160.5t169 -58.5z" />
    <glyph glyph-name="adieresis" unicode="&#xe4;" horiz-adv-x="1193" 
d="M268 1556h217v-270h-217v270zM696 1556h217v-270h-217v270zM592 1120q97 0 175 -23.5t129.5 -62.5t86 -93t49.5 -112t15 -122v-5v-702h-201v225q-62 -127 -145.5 -187.5t-233.5 -60.5q-155 0 -262 101t-107 252q0 53 15 97.5t39.5 75.5t62 56t75 40.5t86 27t87.5 17.5
t88 11l295 31v19v4q0 114 -65 189t-189 75q-110 0 -176.5 -57.5t-77.5 -141.5h-205q19 157 143 251.5t316 94.5zM541 111q146 0 225.5 100.5t79.5 255.5v82l-219 -23q-50 -5 -78 -9t-72.5 -13t-70 -22t-52 -33t-39 -50t-12.5 -69q0 -102 69 -160.5t169 -58.5z" />
    <glyph glyph-name="aring" unicode="&#xe5;" horiz-adv-x="1193" 
d="M592 1239q-95 0 -162.5 69t-67.5 165q0 95 67 161t163 66t163.5 -66t67.5 -161q0 -96 -68 -165t-163 -69zM592 1571q-41 0 -70.5 -28.5t-29.5 -69.5q0 -42 29.5 -73.5t70.5 -31.5t71.5 31.5t30.5 73.5q0 41 -30 69.5t-72 28.5zM592 1120q97 0 175 -23.5t129.5 -62.5
t86 -93t49.5 -112t15 -122v-5v-702h-201v225q-62 -127 -145.5 -187.5t-233.5 -60.5q-155 0 -262 101t-107 252q0 53 15 97.5t39.5 75.5t62 56t75 40.5t86 27t87.5 17.5t88 11l295 31v19v4q0 114 -65 189t-189 75q-110 0 -176.5 -57.5t-77.5 -141.5h-205q19 157 143 251.5
t316 94.5zM541 111q146 0 225.5 100.5t79.5 255.5v82l-219 -23q-50 -5 -78 -9t-72.5 -13t-70 -22t-52 -33t-39 -50t-12.5 -69q0 -102 69 -160.5t169 -58.5z" />
    <glyph glyph-name="ae" unicode="&#xe6;" horiz-adv-x="1970" 
d="M1880 565q0 -22 -4 -76h-829q12 -176 96.5 -270t222.5 -94q116 0 184.5 50.5t100.5 146.5h204q-46 -172 -172.5 -258.5t-316.5 -86.5q-161 0 -273.5 70t-168.5 193q-48 -118 -164.5 -190.5t-272.5 -72.5q-175 0 -282 97.5t-107 232.5q0 92 36 157.5t105 103.5t159.5 55.5
t209.5 17.5h238v64v4q0 114 -65.5 189t-188.5 75q-110 0 -177 -58t-77 -141h-205q17 156 142 251t317 95q141 0 235 -56t140 -142q134 198 397 198q232 0 374 -151t142 -404zM1364 973q-132 0 -214 -85t-101 -247h624q-9 150 -92.5 241t-216.5 91zM532 125q152 0 233 95
t81 269h-209q-166 0 -250 -42.5t-84 -139.5q0 -85 62 -133.5t167 -48.5z" />
    <glyph glyph-name="ccedilla" unicode="&#xe7;" horiz-adv-x="1200" 
d="M928 367h205q-40 -178 -167.5 -279.5t-308.5 -110.5v-49q73 -9 116.5 -54.5t43.5 -113.5q0 -76 -54.5 -123t-148.5 -47h-110v117h92q86 0 86 66q0 31 -22 48t-56 17h-69v146q-205 29 -325 181.5t-120 383.5q0 256 146 413.5t389 157.5q198 0 328.5 -108.5t166.5 -286.5
h-205q-25 109 -98.5 178.5t-191.5 69.5q-155 0 -242.5 -114.5t-87.5 -309.5t87.5 -309.5t242.5 -114.5q233 0 303 242z" />
    <glyph glyph-name="egrave" unicode="&#xe8;" horiz-adv-x="1218" 
d="M487 1556l238 -309h-186l-328 309h276zM1128 565q0 -22 -4 -76h-829q12 -176 96.5 -270t222.5 -94q116 0 184.5 50.5t100.5 146.5h205q-46 -172 -173 -258.5t-317 -86.5q-162 0 -281.5 74.5t-180 203t-60.5 294.5q0 167 61.5 296t180 202t278.5 73q232 0 374 -151.5
t142 -403.5zM612 973q-132 0 -214 -85t-101 -247h627q-9 149 -93.5 240.5t-218.5 91.5z" />
    <glyph glyph-name="eacute" unicode="&#xe9;" horiz-adv-x="1218" 
d="M737 1556h277l-328 -309h-186zM1128 565q0 -22 -4 -76h-829q12 -176 96.5 -270t222.5 -94q116 0 184.5 50.5t100.5 146.5h205q-46 -172 -173 -258.5t-317 -86.5q-162 0 -281.5 74.5t-180 203t-60.5 294.5q0 167 61.5 296t180 202t278.5 73q232 0 374 -151.5t142 -403.5z
M612 973q-132 0 -214 -85t-101 -247h627q-9 149 -93.5 240.5t-218.5 91.5z" />
    <glyph glyph-name="ecircumflex" unicode="&#xea;" horiz-adv-x="1218" 
d="M823 1247l-211 217l-211 -217h-184l262 309h266l263 -309h-185zM1128 565q0 -22 -4 -76h-829q12 -176 96.5 -270t222.5 -94q116 0 184.5 50.5t100.5 146.5h205q-46 -172 -173 -258.5t-317 -86.5q-162 0 -281.5 74.5t-180 203t-60.5 294.5q0 167 61.5 296t180 202
t278.5 73q232 0 374 -151.5t142 -403.5zM612 973q-132 0 -214 -85t-101 -247h627q-9 149 -93.5 240.5t-218.5 91.5z" />
    <glyph glyph-name="edieresis" unicode="&#xeb;" horiz-adv-x="1218" 
d="M289 1556h217v-270h-217v270zM717 1556h217v-270h-217v270zM1128 565q0 -22 -4 -76h-829q12 -176 96.5 -270t222.5 -94q116 0 184.5 50.5t100.5 146.5h205q-46 -172 -173 -258.5t-317 -86.5q-162 0 -281.5 74.5t-180 203t-60.5 294.5q0 167 61.5 296t180 202t278.5 73
q232 0 374 -151.5t142 -403.5zM612 973q-132 0 -214 -85t-101 -247h627q-9 149 -93.5 240.5t-218.5 91.5z" />
    <glyph glyph-name="igrave" unicode="&#xec;" horiz-adv-x="520" 
d="M344 1247h-186l-328 309h276zM360 0h-200v1098h200v-1098z" />
    <glyph glyph-name="iacute" unicode="&#xed;" horiz-adv-x="520" 
d="M362 1247h-186l238 309h276zM360 0h-200v1098h200v-1098z" />
    <glyph glyph-name="icircumflex" unicode="&#xee;" horiz-adv-x="520" 
d="M127 1556h266l262 -309h-184l-211 217l-211 -217h-184zM360 0h-200v1098h200v-1098z" />
    <glyph glyph-name="idieresis" unicode="&#xef;" horiz-adv-x="520" 
d="M154 1286h-217v270h217v-270zM582 1286h-217v270h217v-270zM360 0h-200v1098h200v-1098z" />
    <glyph glyph-name="eth" unicode="&#xf0;" horiz-adv-x="1255" 
d="M1057 1399l-187 -62q144 -152 215.5 -337t71.5 -422q0 -279 -143.5 -440t-388.5 -161q-243 0 -389 157.5t-146 414.5q0 255 133 413t346 158q124 0 220 -72t139 -184q-28 209 -232 416l-245 -82l-41 121l176 57q-125 101 -291 180h309q115 -78 162 -120l250 84zM625 125
q155 0 241 114t86 310t-86 310t-241 114t-242.5 -114.5t-87.5 -309.5t87.5 -309.5t242.5 -114.5z" />
    <glyph glyph-name="ntilde" unicode="&#xf1;" horiz-adv-x="1232" 
d="M506 1374q-101 0 -125 -84h-72q4 106 58 164.5t133 58.5q59 0 151 -45q66 -32 119 -32q101 0 125 84h72q-4 -106 -58 -165t-133 -59q-59 0 -151 45q-68 33 -119 33zM705 1120q180 0 280 -122t100 -314v-4v-680h-200v649v4q0 162 -69 241t-193 79t-193.5 -80t-69.5 -244
v-649h-200v1098h200v-224q41 108 127.5 177t217.5 69z" />
    <glyph glyph-name="ograve" unicode="&#xf2;" horiz-adv-x="1247" 
d="M737 1247h-186l-328 309h277zM625 -23q-243 0 -389 157.5t-146 414.5q0 256 146 413.5t389 157.5t387.5 -157t144.5 -414t-144.5 -414.5t-387.5 -157.5zM625 125q155 0 241 114t86 310t-86 310t-241 114t-242.5 -114.5t-87.5 -309.5t87.5 -309.5t242.5 -114.5z" />
    <glyph glyph-name="oacute" unicode="&#xf3;" horiz-adv-x="1247" 
d="M698 1247h-186l238 309h276zM625 -23q-243 0 -389 157.5t-146 414.5q0 256 146 413.5t389 157.5t387.5 -157t144.5 -414t-144.5 -414.5t-387.5 -157.5zM625 125q155 0 241 114t86 310t-86 310t-241 114t-242.5 -114.5t-87.5 -309.5t87.5 -309.5t242.5 -114.5z" />
    <glyph glyph-name="ocircumflex" unicode="&#xf4;" horiz-adv-x="1247" 
d="M836 1247l-211 217l-211 -217h-185l263 309h266l262 -309h-184zM625 1120q243 0 387.5 -157t144.5 -414t-144.5 -414.5t-387.5 -157.5t-389 157.5t-146 414.5q0 256 146 413.5t389 157.5zM625 125q155 0 241 114t86 310t-86 310t-241 114t-242.5 -114.5t-87.5 -309.5
t87.5 -309.5t242.5 -114.5z" />
    <glyph glyph-name="otilde" unicode="&#xf5;" horiz-adv-x="1247" 
d="M367 1290h-72q4 106 57.5 164.5t132.5 58.5q60 0 152 -45q66 -32 119 -32q101 0 125 84h71q-4 -106 -58 -165t-132 -59q-60 0 -152 45q-68 33 -118 33q-101 0 -125 -84zM625 -23q-243 0 -389 157.5t-146 414.5q0 256 146 413.5t389 157.5t387.5 -157t144.5 -414
t-144.5 -414.5t-387.5 -157.5zM625 125q155 0 241 114t86 310t-86 310t-241 114t-242.5 -114.5t-87.5 -309.5t87.5 -309.5t242.5 -114.5z" />
    <glyph glyph-name="odieresis" unicode="&#xf6;" horiz-adv-x="1247" 
d="M518 1286h-217v270h217v-270zM946 1286h-217v270h217v-270zM625 -23q-243 0 -389 157.5t-146 414.5q0 256 146 413.5t389 157.5t387.5 -157t144.5 -414t-144.5 -414.5t-387.5 -157.5zM625 125q155 0 241 114t86 310t-86 310t-241 114t-242.5 -114.5t-87.5 -309.5
t87.5 -309.5t242.5 -114.5z" />
    <glyph glyph-name="divide" unicode="&#xf7;" horiz-adv-x="1339" 
d="M778 838h-217v260h217v-260zM1219 475h-1098v156h1098v-156zM778 0h-217v260h217v-260z" />
    <glyph glyph-name="oslash" unicode="&#xf8;" horiz-adv-x="1247" 
d="M1028 1098h232l-195 -205q92 -143 92 -344q0 -257 -144.5 -414.5t-387.5 -157.5q-194 0 -328 103l-76 -80h-231l192 205q-92 143 -92 344q0 256 146 413.5t389 157.5q194 0 327 -102zM295 549q0 -105 29 -197l512 541q-83 80 -211 80q-155 0 -242.5 -114.5t-87.5 -309.5z
M952 549q0 108 -28 194l-510 -538q83 -80 211 -80q155 0 241 114t86 310z" />
    <glyph glyph-name="ugrave" unicode="&#xf9;" horiz-adv-x="1222" 
d="M479 1556l238 -309h-187l-327 309h276zM862 449v649h201v-1098h-201v219q-39 -104 -125 -173t-213 -69q-180 0 -278.5 122.5t-98.5 314.5v4v680h201v-649v-5q0 -162 67 -240.5t191 -78.5q123 0 189.5 80t66.5 244z" />
    <glyph glyph-name="uacute" unicode="&#xfa;" horiz-adv-x="1222" 
d="M729 1556h277l-328 -309h-186zM862 449v649h201v-1098h-201v219q-39 -104 -125 -173t-213 -69q-180 0 -278.5 122.5t-98.5 314.5v4v680h201v-649v-5q0 -162 67 -240.5t191 -78.5q123 0 189.5 80t66.5 244z" />
    <glyph glyph-name="ucircumflex" unicode="&#xfb;" horiz-adv-x="1222" 
d="M815 1247l-211 217l-211 -217h-184l262 309h266l262 -309h-184zM862 449v649h201v-1098h-201v219q-39 -104 -125 -173t-213 -69q-180 0 -278.5 122.5t-98.5 314.5v4v680h201v-649v-5q0 -162 67 -240.5t191 -78.5q123 0 189.5 80t66.5 244z" />
    <glyph glyph-name="udieresis" unicode="&#xfc;" horiz-adv-x="1222" 
d="M281 1556h217v-270h-217v270zM709 1556h217v-270h-217v270zM862 449v649h201v-1098h-201v219q-39 -104 -125 -173t-213 -69q-180 0 -278.5 122.5t-98.5 314.5v4v680h201v-649v-5q0 -162 67 -240.5t191 -78.5q123 0 189.5 80t66.5 244z" />
    <glyph glyph-name="yacute" unicode="&#xfd;" horiz-adv-x="1146" 
d="M688 1556h277l-328 -309h-186zM590 139l321 959h209l-504 -1499h-208l176 522h-195l-381 977h207z" />
    <glyph glyph-name="thorn" unicode="&#xfe;" horiz-adv-x="1306" 
d="M748 1120q200 0 333 -160t133 -411t-132.5 -411.5t-333.5 -160.5q-123 0 -230 72.5t-158 190.5v-641h-200v1957h200v-725q42 122 143 205.5t245 83.5zM682 125q155 0 241.5 114t86.5 310t-86.5 310t-241.5 114t-242.5 -114.5t-87.5 -309.5t87.5 -309.5t242.5 -114.5z" />
    <glyph glyph-name="ydieresis" unicode="&#xff;" horiz-adv-x="1146" 
d="M240 1556h217v-270h-217v270zM668 1556h217v-270h-217v270zM590 139l321 959h209l-504 -1499h-208l176 522h-195l-381 977h207z" />
    <glyph glyph-name="Amacron" unicode="&#x100;" horiz-adv-x="1554" 
d="M387 1905h776v-166h-776v166zM1548 0h-221l-168 471h-764l-168 -471h-221l559 1556h424zM778 1548l-317 -893h633z" />
    <glyph glyph-name="amacron" unicode="&#x101;" horiz-adv-x="1193" 
d="M236 1470h710v-151h-710v151zM592 1120q97 0 175 -23.5t129.5 -62.5t86 -93t49.5 -112t15 -122v-5v-702h-201v225q-62 -127 -145.5 -187.5t-233.5 -60.5q-155 0 -262 101t-107 252q0 53 15 97.5t39.5 75.5t62 56t75 40.5t86 27t87.5 17.5t88 11l295 31v19v4
q0 114 -65 189t-189 75q-110 0 -176.5 -57.5t-77.5 -141.5h-205q19 157 143 251.5t316 94.5zM541 111q146 0 225.5 100.5t79.5 255.5v82l-219 -23q-50 -5 -78 -9t-72.5 -13t-70 -22t-52 -33t-39 -50t-12.5 -69q0 -102 69 -160.5t169 -58.5z" />
    <glyph glyph-name="Abreve" unicode="&#x102;" horiz-adv-x="1554" 
d="M776 1677q-152 0 -244 82t-92 197h166q0 -69 47.5 -112.5t122.5 -43.5t122.5 43.5t47.5 112.5h166q0 -115 -92 -197t-244 -82zM1548 0h-221l-168 471h-764l-168 -471h-221l559 1556h424zM778 1548l-317 -893h633z" />
    <glyph glyph-name="abreve" unicode="&#x103;" horiz-adv-x="1193" 
d="M592 1239q-149 0 -237.5 91t-88.5 226h162q0 -87 42.5 -131.5t121.5 -44.5t121.5 44.5t42.5 131.5h162q0 -135 -88.5 -226t-237.5 -91zM592 1120q97 0 175 -23.5t129.5 -62.5t86 -93t49.5 -112t15 -122v-5v-702h-201v225q-62 -127 -145.5 -187.5t-233.5 -60.5
q-155 0 -262 101t-107 252q0 53 15 97.5t39.5 75.5t62 56t75 40.5t86 27t87.5 17.5t88 11l295 31v19v4q0 114 -65 189t-189 75q-110 0 -176.5 -57.5t-77.5 -141.5h-205q19 157 143 251.5t316 94.5zM541 111q146 0 225.5 100.5t79.5 255.5v82l-219 -23q-50 -5 -78 -9
t-72.5 -13t-70 -22t-52 -33t-39 -50t-12.5 -69q0 -102 69 -160.5t169 -58.5z" />
    <glyph glyph-name="Aogonek" unicode="&#x104;" horiz-adv-x="1554" 
d="M1374 -180q0 -84 119 -84h55v-144h-73q-130 0 -207.5 47.5t-77.5 137.5q0 120 137 223l-168 471h-764l-168 -471h-221l559 1556h424l559 -1556q-174 -73 -174 -180zM778 1548l-317 -893h633z" />
    <glyph glyph-name="aogonek" unicode="&#x105;" horiz-adv-x="1193" 
d="M592 1120q97 0 175 -23.5t129.5 -62.5t86 -93t49.5 -112t15 -122v-5v-702q-179 -76 -179 -180q0 -44 33.5 -66t91.5 -22h54v-140h-72q-130 0 -206.5 47.5t-76.5 137.5q0 128 154 223v225q-62 -127 -145.5 -187.5t-233.5 -60.5q-155 0 -262 101t-107 252q0 53 15 97.5
t39.5 75.5t62 56t75 40.5t86 27t87.5 17.5t88 11l295 31v19v4q0 114 -65 189t-189 75q-110 0 -176.5 -57.5t-77.5 -141.5h-205q19 157 143 251.5t316 94.5zM541 111q146 0 225.5 100.5t79.5 255.5v82l-219 -23q-50 -5 -78 -9t-72.5 -13t-70 -22t-52 -33t-39 -50t-12.5 -69
q0 -102 69 -160.5t169 -58.5z" />
    <glyph glyph-name="Cacute" unicode="&#x106;" horiz-adv-x="1597" 
d="M891 1686h-199l252 270h289zM823 -23q-153 0 -285.5 58t-229 161.5t-151.5 254t-55 327.5t55 327t151 253.5t230.5 162t290.5 58.5q262 0 446 -145t245 -383h-215q-59 162 -178 258t-298 96q-230 0 -371 -174.5t-141 -452.5q0 -277 142.5 -451.5t363.5 -174.5
q186 0 310 92t184 264h215q-77 -262 -259.5 -396.5t-449.5 -134.5z" />
    <glyph glyph-name="cacute" unicode="&#x107;" horiz-adv-x="1200" 
d="M698 1247h-186l238 309h276zM625 -23q-243 0 -389 157.5t-146 414.5q0 256 146 413.5t389 157.5q198 0 328.5 -108.5t166.5 -286.5h-205q-25 109 -98.5 178.5t-191.5 69.5q-155 0 -242.5 -114.5t-87.5 -309.5t87.5 -309.5t242.5 -114.5q233 0 303 242h205
q-42 -185 -179.5 -287.5t-328.5 -102.5z" />
    <glyph glyph-name="Ccircumflex" unicode="&#x108;" horiz-adv-x="1597" 
d="M1032 1686l-203 176l-202 -176h-193l256 270h279l256 -270h-193zM1317 508h215q-77 -262 -259.5 -396.5t-449.5 -134.5q-153 0 -285.5 58t-229 161.5t-151.5 254t-55 327.5t55 327t151 253.5t230.5 162t290.5 58.5q262 0 446 -145t245 -383h-215q-59 162 -178 258
t-298 96q-230 0 -371 -174.5t-141 -452.5q0 -277 142.5 -451.5t363.5 -174.5q186 0 310 92t184 264z" />
    <glyph glyph-name="ccircumflex" unicode="&#x109;" horiz-adv-x="1200" 
d="M836 1247l-211 217l-211 -217h-185l263 309h266l262 -309h-184zM928 367h205q-42 -185 -179.5 -287.5t-328.5 -102.5q-243 0 -389 157.5t-146 414.5q0 256 146 413.5t389 157.5q198 0 328.5 -108.5t166.5 -286.5h-205q-25 109 -98.5 178.5t-191.5 69.5
q-155 0 -242.5 -114.5t-87.5 -309.5t87.5 -309.5t242.5 -114.5q233 0 303 242z" />
    <glyph glyph-name="Cdotaccent" unicode="&#x10a;" horiz-adv-x="1597" 
d="M940 1686h-223v270h223v-270zM823 -23q-153 0 -285.5 58t-229 161.5t-151.5 254t-55 327.5t55 327t151 253.5t230.5 162t290.5 58.5q262 0 446 -145t245 -383h-215q-59 162 -178 258t-298 96q-230 0 -371 -174.5t-141 -452.5q0 -277 142.5 -451.5t363.5 -174.5
q186 0 310 92t184 264h215q-77 -262 -259.5 -396.5t-449.5 -134.5z" />
    <glyph glyph-name="cdotaccent" unicode="&#x10b;" horiz-adv-x="1200" 
d="M733 1286h-217v270h217v-270zM625 -23q-243 0 -389 157.5t-146 414.5q0 256 146 413.5t389 157.5q198 0 328.5 -108.5t166.5 -286.5h-205q-25 109 -98.5 178.5t-191.5 69.5q-155 0 -242.5 -114.5t-87.5 -309.5t87.5 -309.5t242.5 -114.5q233 0 303 242h205
q-42 -185 -179.5 -287.5t-328.5 -102.5z" />
    <glyph glyph-name="Ccaron" unicode="&#x10c;" horiz-adv-x="1597" 
d="M1225 1956l-256 -270h-279l-256 270h193l202 -176l203 176h193zM1317 508h215q-77 -262 -259.5 -396.5t-449.5 -134.5q-153 0 -285.5 58t-229 161.5t-151.5 254t-55 327.5t55 327t151 253.5t230.5 162t290.5 58.5q262 0 446 -145t245 -383h-215q-59 162 -178 258t-298 96
q-230 0 -371 -174.5t-141 -452.5q0 -277 142.5 -451.5t363.5 -174.5q186 0 310 92t184 264z" />
    <glyph glyph-name="ccaron" unicode="&#x10d;" horiz-adv-x="1200" 
d="M1020 1556l-262 -309h-266l-263 309h185l211 -217l211 217h184zM928 367h205q-42 -185 -179.5 -287.5t-328.5 -102.5q-243 0 -389 157.5t-146 414.5q0 256 146 413.5t389 157.5q198 0 328.5 -108.5t166.5 -286.5h-205q-25 109 -98.5 178.5t-191.5 69.5
q-155 0 -242.5 -114.5t-87.5 -309.5t87.5 -309.5t242.5 -114.5q233 0 303 242z" />
    <glyph glyph-name="Dcaron" unicode="&#x10e;" horiz-adv-x="1601" 
d="M1135 1956l-256 -270h-279l-256 270h193l202 -176l203 176h193zM195 1556h530q234 0 406.5 -88t269 -264.5t96.5 -425.5t-96.5 -425.5t-269 -264.5t-406.5 -88h-530v1556zM401 184h330q262 0 406.5 154t144.5 440q0 285 -144.5 439.5t-406.5 154.5h-330v-1188z" />
    <glyph glyph-name="dcaron" unicode="&#x10f;" horiz-adv-x="1306" 
d="M946 831v725h201v-1556h-201v240q-51 -118 -157.5 -190.5t-229.5 -72.5q-201 0 -334 160.5t-133 411.5t133.5 411t333.5 160q144 0 244.5 -83.5t142.5 -205.5zM1264 1188l28 368h189l-68 -368h-149zM625 125q155 0 242 114t87 310t-87 310t-242 114t-241.5 -114
t-86.5 -310t86.5 -310t241.5 -114z" />
    <glyph glyph-name="Dcroat" unicode="&#x110;" horiz-adv-x="1601" 
d="M195 1556h530q234 0 406.5 -88t269 -264.5t96.5 -425.5t-96.5 -425.5t-269 -264.5t-406.5 -88h-530v715h-183v180h183v661zM401 184h330q262 0 406.5 154t144.5 440q0 285 -144.5 439.5t-406.5 154.5h-330v-477h404v-180h-404v-531z" />
    <glyph glyph-name="dcroat" unicode="&#x111;" horiz-adv-x="1306" 
d="M1147 1403h131v-152h-131v-1251h-201v240q-51 -118 -157.5 -190.5t-229.5 -72.5q-201 0 -334 160.5t-133 411.5t133.5 411t333.5 160q144 0 244.5 -83.5t142.5 -205.5v420h-192v152h192v153h201v-153zM625 125q155 0 242 114t87 310t-87 310t-242 114t-241.5 -114
t-86.5 -310t86.5 -310t241.5 -114z" />
    <glyph glyph-name="Emacron" unicode="&#x112;" horiz-adv-x="1343" 
d="M313 1905h777v-166h-777v166zM401 711v-527h826v-184h-1032v1556h1013v-184h-807v-477h793v-184h-793z" />
    <glyph glyph-name="emacron" unicode="&#x113;" horiz-adv-x="1218" 
d="M256 1470h711v-151h-711v151zM1128 565q0 -22 -4 -76h-829q12 -176 96.5 -270t222.5 -94q116 0 184.5 50.5t100.5 146.5h205q-46 -172 -173 -258.5t-317 -86.5q-162 0 -281.5 74.5t-180 203t-60.5 294.5q0 167 61.5 296t180 202t278.5 73q232 0 374 -151.5t142 -403.5z
M612 973q-132 0 -214 -85t-101 -247h627q-9 149 -93.5 240.5t-218.5 91.5z" />
    <glyph glyph-name="Ebreve" unicode="&#x114;" horiz-adv-x="1343" 
d="M702 1677q-152 0 -243.5 82t-91.5 197h165q0 -69 47.5 -112.5t122.5 -43.5t122.5 43.5t47.5 112.5h166q0 -115 -92 -197t-244 -82zM401 711v-527h826v-184h-1032v1556h1013v-184h-807v-477h793v-184h-793z" />
    <glyph glyph-name="ebreve" unicode="&#x115;" horiz-adv-x="1218" 
d="M612 1239q-149 0 -237 91t-88 226h162q0 -87 42 -131.5t121 -44.5t121.5 44.5t42.5 131.5h162q0 -135 -88.5 -226t-237.5 -91zM1128 565q0 -22 -4 -76h-829q12 -176 96.5 -270t222.5 -94q116 0 184.5 50.5t100.5 146.5h205q-46 -172 -173 -258.5t-317 -86.5
q-162 0 -281.5 74.5t-180 203t-60.5 294.5q0 167 61.5 296t180 202t278.5 73q232 0 374 -151.5t142 -403.5zM612 973q-132 0 -214 -85t-101 -247h627q-9 149 -93.5 240.5t-218.5 91.5z" />
    <glyph glyph-name="Edotaccent" unicode="&#x116;" horiz-adv-x="1343" 
d="M590 1956h223v-270h-223v270zM401 711v-527h826v-184h-1032v1556h1013v-184h-807v-477h793v-184h-793z" />
    <glyph glyph-name="edotaccent" unicode="&#x117;" horiz-adv-x="1218" 
d="M504 1556h217v-270h-217v270zM1128 565q0 -22 -4 -76h-829q12 -176 96.5 -270t222.5 -94q116 0 184.5 50.5t100.5 146.5h205q-46 -172 -173 -258.5t-317 -86.5q-162 0 -281.5 74.5t-180 203t-60.5 294.5q0 167 61.5 296t180 202t278.5 73q232 0 374 -151.5t142 -403.5z
M612 973q-132 0 -214 -85t-101 -247h627q-9 149 -93.5 240.5t-218.5 91.5z" />
    <glyph glyph-name="Eogonek" unicode="&#x118;" horiz-adv-x="1343" 
d="M1227 184v-184q-174 -73 -174 -180q0 -84 118 -84h56v-144h-74q-130 0 -207.5 47.5t-77.5 137.5q0 128 152 223h-825v1556h1013v-184h-807v-477h793v-184h-793v-527h826z" />
    <glyph glyph-name="eogonek" unicode="&#x119;" horiz-adv-x="1218" 
d="M1128 565q0 -22 -4 -76h-829q12 -176 96.5 -270t222.5 -94q116 0 184.5 50.5t100.5 146.5h205q-46 -166 -166 -254q-89 -74 -123.5 -128.5t-34.5 -111.5q0 -96 125 -96h56v-140h-74q-130 0 -205.5 47.5t-75.5 137.5q0 112 96 205q-72 -5 -88 -5q-162 0 -281.5 74.5
t-180 203t-60.5 294.5q0 167 61.5 296t180 202t278.5 73q232 0 374 -151.5t142 -403.5zM612 973q-132 0 -214 -85t-101 -247h627q-9 149 -93.5 240.5t-218.5 91.5z" />
    <glyph glyph-name="Ecaron" unicode="&#x11a;" horiz-adv-x="1343" 
d="M1098 1956l-256 -270h-279l-256 270h193l202 -176l203 176h193zM401 711v-527h826v-184h-1032v1556h1013v-184h-807v-477h793v-184h-793z" />
    <glyph glyph-name="ecaron" unicode="&#x11b;" horiz-adv-x="1218" 
d="M1008 1556l-263 -309h-266l-262 309h184l211 -217l211 217h185zM1128 565q0 -22 -4 -76h-829q12 -176 96.5 -270t222.5 -94q116 0 184.5 50.5t100.5 146.5h205q-46 -172 -173 -258.5t-317 -86.5q-162 0 -281.5 74.5t-180 203t-60.5 294.5q0 167 61.5 296t180 202
t278.5 73q232 0 374 -151.5t142 -403.5zM612 973q-132 0 -214 -85t-101 -247h627q-9 149 -93.5 240.5t-218.5 91.5z" />
    <glyph glyph-name="Gcircumflex" unicode="&#x11c;" horiz-adv-x="1691" 
d="M1036 1686l-202 176l-203 -176h-193l256 270h279l256 -270h-193zM774 653v185h768v-838h-180v393q-25 -83 -68.5 -154.5t-108.5 -132t-159.5 -95t-208.5 -34.5q-150 0 -281.5 58.5t-227 162.5t-151 254.5t-55.5 325.5q0 235 93.5 418t260 283t378.5 100q268 0 446.5 -134
t239.5 -370h-215q-55 154 -173.5 242t-297.5 88q-231 0 -374 -174.5t-143 -452.5q0 -279 145.5 -452.5t379.5 -173.5q219 0 354 131.5t139 369.5h-561z" />
    <glyph glyph-name="gcircumflex" unicode="&#x11d;" horiz-adv-x="1306" 
d="M838 1247l-211 217l-211 -217h-185l263 309h266l262 -309h-184zM950 838v260h201v-1102q0 -106 -42 -188.5t-113.5 -132t-159.5 -74.5t-187 -25q-134 0 -240.5 40.5t-175.5 124t-81 200.5h204q13 -103 95.5 -160t197.5 -57q132 0 216.5 69t84.5 199v270
q-51 -116 -157 -186t-230 -70q-203 0 -335 153.5t-132 403.5q0 249 133 403t334 154q145 0 245 -81t142 -201zM629 154q156 0 242.5 107.5t86.5 301.5t-86.5 302t-242.5 108t-242 -108t-86 -302t86 -301.5t242 -107.5z" />
    <glyph glyph-name="Gbreve" unicode="&#x11e;" horiz-adv-x="1691" 
d="M834 1677q-152 0 -244 82t-92 197h166q0 -69 47.5 -112.5t122.5 -43.5t122.5 43.5t47.5 112.5h165q0 -115 -91.5 -197t-243.5 -82zM774 653v185h768v-838h-180v393q-25 -83 -68.5 -154.5t-108.5 -132t-159.5 -95t-208.5 -34.5q-150 0 -281.5 58.5t-227 162.5t-151 254.5
t-55.5 325.5q0 235 93.5 418t260 283t378.5 100q268 0 446.5 -134t239.5 -370h-215q-55 154 -173.5 242t-297.5 88q-231 0 -374 -174.5t-143 -452.5q0 -279 145.5 -452.5t379.5 -173.5q219 0 354 131.5t139 369.5h-561z" />
    <glyph glyph-name="gbreve" unicode="&#x11f;" horiz-adv-x="1306" 
d="M627 1239q-149 0 -237.5 91t-88.5 226h162q0 -87 42.5 -131.5t121.5 -44.5t121.5 44.5t42.5 131.5h161q0 -135 -88 -226t-237 -91zM950 838v260h201v-1102q0 -106 -42 -188.5t-113.5 -132t-159.5 -74.5t-187 -25q-134 0 -240.5 40.5t-175.5 124t-81 200.5h204
q13 -103 95.5 -160t197.5 -57q132 0 216.5 69t84.5 199v270q-51 -116 -157 -186t-230 -70q-203 0 -335 153.5t-132 403.5q0 249 133 403t334 154q145 0 245 -81t142 -201zM629 154q156 0 242.5 107.5t86.5 301.5t-86.5 302t-242.5 108t-242 -108t-86 -302t86 -301.5
t242 -107.5z" />
    <glyph glyph-name="Gdotaccent" unicode="&#x120;" horiz-adv-x="1691" 
d="M721 1956h223v-270h-223v270zM774 653v185h768v-838h-180v393q-25 -83 -68.5 -154.5t-108.5 -132t-159.5 -95t-208.5 -34.5q-150 0 -281.5 58.5t-227 162.5t-151 254.5t-55.5 325.5q0 235 93.5 418t260 283t378.5 100q268 0 446.5 -134t239.5 -370h-215
q-55 154 -173.5 242t-297.5 88q-231 0 -374 -174.5t-143 -452.5q0 -279 145.5 -452.5t379.5 -173.5q219 0 354 131.5t139 369.5h-561z" />
    <glyph glyph-name="gdotaccent" unicode="&#x121;" horiz-adv-x="1306" 
d="M518 1556h217v-270h-217v270zM950 838v260h201v-1102q0 -106 -42 -188.5t-113.5 -132t-159.5 -74.5t-187 -25q-134 0 -240.5 40.5t-175.5 124t-81 200.5h204q13 -103 95.5 -160t197.5 -57q132 0 216.5 69t84.5 199v270q-51 -116 -157 -186t-230 -70q-203 0 -335 153.5
t-132 403.5q0 249 133 403t334 154q145 0 245 -81t142 -201zM629 154q156 0 242.5 107.5t86.5 301.5t-86.5 302t-242.5 108t-242 -108t-86 -302t86 -301.5t242 -107.5z" />
    <glyph glyph-name="uni0122" unicode="&#x122;" horiz-adv-x="1691" 
d="M774 653v185h768v-838h-180v393q-25 -83 -68.5 -154.5t-108.5 -132t-159.5 -95t-208.5 -34.5q-150 0 -281.5 58.5t-227 162.5t-151 254.5t-55.5 325.5q0 235 93.5 418t260 283t378.5 100q268 0 446.5 -134t239.5 -370h-215q-55 154 -173.5 242t-297.5 88
q-231 0 -374 -174.5t-143 -452.5q0 -279 145.5 -452.5t379.5 -173.5q219 0 354 131.5t139 369.5h-561zM793 -401h-70v270h223v-287l-115 -178h-135z" />
    <glyph glyph-name="uni0123" unicode="&#x123;" horiz-adv-x="1306" 
d="M666 1556h69v-270h-217v287l115 178h129zM950 838v260h201v-1102q0 -106 -42 -188.5t-113.5 -132t-159.5 -74.5t-187 -25q-134 0 -240.5 40.5t-175.5 124t-81 200.5h204q13 -103 95.5 -160t197.5 -57q132 0 216.5 69t84.5 199v270q-51 -116 -157 -186t-230 -70
q-203 0 -335 153.5t-132 403.5q0 249 133 403t334 154q145 0 245 -81t142 -201zM629 154q156 0 242.5 107.5t86.5 301.5t-86.5 302t-242.5 108t-242 -108t-86 -302t86 -301.5t242 -107.5z" />
    <glyph glyph-name="Hcircumflex" unicode="&#x124;" horiz-adv-x="1617" 
d="M1012 1686l-203 176l-203 -176h-192l256 270h278l256 -270h-192zM1217 895v661h206v-1556h-206v711h-816v-711h-206v1556h206v-661h816z" />
    <glyph glyph-name="hcircumflex" unicode="&#x125;" horiz-adv-x="1232" 
d="M655 1686h-192l-203 176l-203 -176h-192l256 270h278zM705 1120q180 0 280 -122t100 -314v-4v-680h-200v649v4q0 162 -69 241t-193 79t-193.5 -80t-69.5 -244v-649h-200v1556h200v-682q41 108 127.5 177t217.5 69z" />
    <glyph glyph-name="Hbar" unicode="&#x126;" horiz-adv-x="1617" 
d="M1423 1278h197v-180h-197v-1098h-206v711h-816v-711h-206v1098h-197v180h197v278h206v-278h816v278h206v-278zM401 895h816v203h-816v-203z" />
    <glyph glyph-name="hbar" unicode="&#x127;" horiz-adv-x="1232" 
d="M705 1120q180 0 280 -122t100 -314v-4v-680h-200v649v4q0 162 -69 241t-193 79t-193.5 -80t-69.5 -244v-649h-200v1251h-131v152h131v153h200v-153h193v-152h-193v-377q41 108 127.5 177t217.5 69z" />
    <glyph glyph-name="Itilde" unicode="&#x128;" horiz-adv-x="595" 
d="M33 1710h-80q4 105 61.5 164t139.5 59q81 0 161 -41q66 -32 123 -32q101 0 127 75h80q-4 -105 -61.5 -164t-139.5 -59q-81 0 -161 41q-68 33 -123 33q-101 0 -127 -76zM401 0h-206v1556h206v-1556z" />
    <glyph glyph-name="itilde" unicode="&#x129;" horiz-adv-x="520" 
d="M2 1290h-72q4 106 58 164.5t133 58.5q59 0 151 -45q66 -32 119 -32q101 0 125 84h72q-4 -106 -58 -165t-133 -59q-59 0 -151 45q-68 33 -119 33q-101 0 -125 -84zM360 0h-200v1098h200v-1098z" />
    <glyph glyph-name="Imacron" unicode="&#x12a;" horiz-adv-x="595" 
d="M686 1739h-776v166h776v-166zM401 0h-206v1556h206v-1556z" />
    <glyph glyph-name="imacron" unicode="&#x12b;" horiz-adv-x="520" 
d="M614 1319h-710v151h710v-151zM360 0h-200v1098h200v-1098z" />
    <glyph glyph-name="Ibreve" unicode="&#x12c;" horiz-adv-x="595" 
d="M299 1677q-152 0 -244 82t-92 197h166q0 -69 47.5 -112.5t122.5 -43.5t122.5 43.5t47.5 112.5h166q0 -115 -92 -197t-244 -82zM401 0h-206v1556h206v-1556z" />
    <glyph glyph-name="ibreve" unicode="&#x12d;" horiz-adv-x="520" 
d="M260 1239q-149 0 -237.5 91t-88.5 226h162q0 -87 42.5 -131.5t121.5 -44.5t121.5 44.5t42.5 131.5h162q0 -135 -88.5 -226t-237.5 -91zM360 0h-200v1098h200v-1098z" />
    <glyph glyph-name="Iogonek" unicode="&#x12e;" horiz-adv-x="595" 
d="M401 1556v-1556q-174 -73 -174 -180q0 -84 119 -84h55v-144h-73q-130 0 -207.5 47.5t-77.5 137.5q0 128 152 223v1556h206z" />
    <glyph glyph-name="iogonek" unicode="&#x12f;" horiz-adv-x="520" 
d="M152 1286v270h217v-270h-217zM160 0v1098h200v-1098q-178 -76 -178 -180q0 -44 33.5 -66t91.5 -22h53v-140h-71q-130 0 -205.5 47.5t-75.5 137.5q0 127 152 223z" />
    <glyph glyph-name="Idotaccent" unicode="&#x130;" horiz-adv-x="595" 
d="M410 1686h-224v270h224v-270zM401 0h-206v1556h206v-1556z" />
    <glyph glyph-name="dotlessi" unicode="&#x131;" horiz-adv-x="520" 
d="M360 0h-200v1098h200v-1098z" />
    <glyph glyph-name="Jcircumflex" unicode="&#x134;" horiz-adv-x="768" 
d="M342 1956h279l256 -270h-193l-203 176l-202 -176h-193zM377 342v1214h207v-1245q0 -153 -91.5 -232t-259.5 -79h-192v184h166q88 0 129 39t41 119z" />
    <glyph glyph-name="jcircumflex" unicode="&#x135;" horiz-adv-x="520" 
d="M127 1556h266l262 -309h-184l-211 217l-211 -217h-184zM160 -96v1194h200v-1194q0 -152 -93.5 -228.5t-246.5 -76.5h-75v151h55q80 0 120 34t40 120z" />
    <glyph glyph-name="uni0136" unicode="&#x136;" horiz-adv-x="1423" 
d="M1372 1556l-721 -737l799 -819h-274l-775 797v-797h-206v1556h206v-718l703 718h268zM723 -401h-70v270h224v-287l-115 -178h-135z" />
    <glyph glyph-name="uni0137" unicode="&#x137;" horiz-adv-x="1128" 
d="M1110 1098l-518 -486l538 -612h-249l-521 592v-592h-200v1556h200v-927l500 469h250zM563 -401h-69v270h217v-287l-115 -178h-129z" />
    <glyph glyph-name="kgreenlandic" unicode="&#x138;" horiz-adv-x="1140" 
d="M578 588l567 -588h-248l-539 559v-559h-198v1098h198v-482l512 482h250z" />
    <glyph glyph-name="Lacute" unicode="&#x139;" horiz-adv-x="1150" 
d="M461 1956h289l-342 -270h-199zM401 1556v-1372h713v-184h-919v1556h206z" />
    <glyph glyph-name="lacute" unicode="&#x13a;" horiz-adv-x="520" 
d="M375 1686h-199l252 270h289zM360 0h-200v1556h200v-1556z" />
    <glyph glyph-name="uni013B" unicode="&#x13b;" horiz-adv-x="1150" 
d="M401 1556v-1372h713v-184h-919v1556h206zM614 -401h-69v270h223v-287l-115 -178h-135z" />
    <glyph glyph-name="uni013C" unicode="&#x13c;" horiz-adv-x="520" 
d="M160 1556h200v-1556h-200v1556zM152 -401v270h217v-287l-115 -178h-129l96 195h-69z" />
    <glyph glyph-name="Lcaron" unicode="&#x13d;" horiz-adv-x="1150" 
d="M401 1556v-1372h713v-184h-919v1556h206zM655 1556h215l-100 -512h-156z" />
    <glyph glyph-name="lcaron" unicode="&#x13e;" horiz-adv-x="520" 
d="M360 0h-200v1556h200v-1556zM627 1188h-150l29 368h188z" />
    <glyph glyph-name="Ldot" unicode="&#x13f;" horiz-adv-x="1171" 
d="M401 1556v-1372h713v-184h-919v1556h206zM764 977h242v-246h-242v246z" />
    <glyph glyph-name="ldot" unicode="&#x140;" horiz-adv-x="720" 
d="M360 0h-200v1556h200v-1556zM741 686h-241v246h241v-246z" />
    <glyph glyph-name="Lslash" unicode="&#x141;" horiz-adv-x="1150" 
d="M401 717v-533h713v-184h-919v594l-181 -107v185l181 106v778h206v-655l349 205v-184z" />
    <glyph glyph-name="lslash" unicode="&#x142;" horiz-adv-x="665" 
d="M432 942l164 107v-187l-164 -106v-756h-201v625l-151 -99v187l151 98v745h201v-614z" />
    <glyph glyph-name="Nacute" unicode="&#x143;" horiz-adv-x="1726" 
d="M1024 1956h289l-342 -270h-199zM1325 8v1548h207v-1556h-428l-703 1548v-1548h-206v1556h428z" />
    <glyph glyph-name="nacute" unicode="&#x144;" horiz-adv-x="1232" 
d="M764 1556h276l-327 -309h-187zM705 1120q180 0 280 -122t100 -314v-4v-680h-200v649v4q0 162 -69 241t-193 79t-193.5 -80t-69.5 -244v-649h-200v1098h200v-224q41 108 127.5 177t217.5 69z" />
    <glyph glyph-name="uni0145" unicode="&#x145;" horiz-adv-x="1726" 
d="M1325 8v1548h207v-1556h-428l-703 1548v-1548h-206v1556h428zM799 -401h-70v270h223v-287l-114 -178h-136z" />
    <glyph glyph-name="uni0146" unicode="&#x146;" horiz-adv-x="1232" 
d="M705 1120q180 0 280 -122t100 -314v-4v-680h-200v649v4q0 162 -69 241t-193 79t-193.5 -80t-69.5 -244v-649h-200v1098h200v-224q41 108 127.5 177t217.5 69zM584 -401h-70v270h217v-287l-115 -178h-129z" />
    <glyph glyph-name="Ncaron" unicode="&#x147;" horiz-adv-x="1726" 
d="M1305 1956l-256 -270h-279l-256 270h193l202 -176l203 176h193zM1325 8v1548h207v-1556h-428l-703 1548v-1548h-206v1556h428z" />
    <glyph glyph-name="ncaron" unicode="&#x148;" horiz-adv-x="1232" 
d="M1034 1556l-262 -309h-266l-262 309h184l211 -217l211 217h184zM705 1120q180 0 280 -122t100 -314v-4v-680h-200v649v4q0 162 -69 241t-193 79t-193.5 -80t-69.5 -244v-649h-200v1098h200v-224q41 108 127.5 177t217.5 69z" />
    <glyph glyph-name="Eng" unicode="&#x14a;" horiz-adv-x="1726" 
d="M1325 8v1548h207v-1646q0 -153 -91 -232t-259 -79h-193v184h166q88 0 129 39t41 119v59h-221l-703 1548v-1548h-206v1556h428z" />
    <glyph glyph-name="eng" unicode="&#x14b;" horiz-adv-x="1232" 
d="M705 1120q180 0 280 -122t100 -314v-4v-776q0 -152 -93.5 -228.5t-246.5 -76.5h-75v151h55q80 0 120 34t40 120v745v4q0 162 -69 241t-193 79t-193.5 -80t-69.5 -244v-649h-200v1098h200v-224q41 108 127.5 177t217.5 69z" />
    <glyph glyph-name="Omacron" unicode="&#x14c;" horiz-adv-x="1687" 
d="M1231 1739h-776v166h776v-166zM844 -23q-162 0 -300 58.5t-235.5 163t-152 253.5t-54.5 326t54.5 326t152 253.5t235.5 163t300 58.5t300 -58.5t235 -163t151.5 -253.5t54.5 -326t-54.5 -326t-151.5 -253.5t-235 -163t-300 -58.5zM844 152q234 0 380 174.5t146 451.5
t-146 452t-380 175t-380.5 -175t-146.5 -452t146.5 -451.5t380.5 -174.5z" />
    <glyph glyph-name="omacron" unicode="&#x14d;" horiz-adv-x="1247" 
d="M979 1319h-711v151h711v-151zM625 -23q-243 0 -389 157.5t-146 414.5q0 256 146 413.5t389 157.5t387.5 -157t144.5 -414t-144.5 -414.5t-387.5 -157.5zM625 125q155 0 241 114t86 310t-86 310t-241 114t-242.5 -114.5t-87.5 -309.5t87.5 -309.5t242.5 -114.5z" />
    <glyph glyph-name="Obreve" unicode="&#x14e;" horiz-adv-x="1687" 
d="M844 1677q-152 0 -244 82t-92 197h166q0 -69 47.5 -112.5t122.5 -43.5t122.5 43.5t47.5 112.5h166q0 -115 -92 -197t-244 -82zM844 -23q-162 0 -300 58.5t-235.5 163t-152 253.5t-54.5 326t54.5 326t152 253.5t235.5 163t300 58.5t300 -58.5t235 -163t151.5 -253.5
t54.5 -326t-54.5 -326t-151.5 -253.5t-235 -163t-300 -58.5zM844 152q234 0 380 174.5t146 451.5t-146 452t-380 175t-380.5 -175t-146.5 -452t146.5 -451.5t380.5 -174.5z" />
    <glyph glyph-name="obreve" unicode="&#x14f;" horiz-adv-x="1247" 
d="M625 1239q-149 0 -237.5 91t-88.5 226h162q0 -87 42.5 -131.5t121.5 -44.5t121 44.5t42 131.5h162q0 -135 -88 -226t-237 -91zM625 -23q-243 0 -389 157.5t-146 414.5q0 256 146 413.5t389 157.5t387.5 -157t144.5 -414t-144.5 -414.5t-387.5 -157.5zM625 125
q155 0 241 114t86 310t-86 310t-241 114t-242.5 -114.5t-87.5 -309.5t87.5 -309.5t242.5 -114.5z" />
    <glyph glyph-name="Ohungarumlaut" unicode="&#x150;" horiz-adv-x="1687" 
d="M717 1686h-199l275 270h280zM1102 1686h-199l275 270h280zM844 -23q-162 0 -300 58.5t-235.5 163t-152 253.5t-54.5 326t54.5 326t152 253.5t235.5 163t300 58.5t300 -58.5t235 -163t151.5 -253.5t54.5 -326t-54.5 -326t-151.5 -253.5t-235 -163t-300 -58.5zM844 152
q234 0 380 174.5t146 451.5t-146 452t-380 175t-380.5 -175t-146.5 -452t146.5 -451.5t380.5 -174.5z" />
    <glyph glyph-name="ohungarumlaut" unicode="&#x151;" horiz-adv-x="1247" 
d="M528 1247h-186l254 309h268zM911 1247h-186l254 309h268zM625 -23q-243 0 -389 157.5t-146 414.5q0 256 146 413.5t389 157.5t387.5 -157t144.5 -414t-144.5 -414.5t-387.5 -157.5zM625 125q155 0 241 114t86 310t-86 310t-241 114t-242.5 -114.5t-87.5 -309.5
t87.5 -309.5t242.5 -114.5z" />
    <glyph glyph-name="OE" unicode="&#x152;" horiz-adv-x="2347" 
d="M1405 711v-527h825v-184h-1325q-164 0 -310 53t-256 150.5t-174.5 246t-64.5 328.5t64.5 328.5t174.5 246t256 150.5t310 53h1307v-184h-807v-477h793v-184h-793zM905 184h293v1188h-293q-119 0 -224 -38t-187.5 -109.5t-130.5 -187t-48 -259.5q0 -117 31.5 -215
t86.5 -167t130 -117.5t161.5 -71.5t180.5 -23z" />
    <glyph glyph-name="oe" unicode="&#x153;" horiz-adv-x="2064" 
d="M1974 565q0 -22 -4 -76h-829q12 -176 96.5 -270t222.5 -94q116 0 184.5 50.5t100.5 146.5h205q-46 -172 -173 -258.5t-317 -86.5q-139 0 -243.5 63t-169.5 171q-67 -109 -174.5 -171.5t-247.5 -62.5q-243 0 -389 157.5t-146 414.5q0 256 146 413.5t389 157.5
q140 0 247.5 -62t174.5 -171q64 108 169 170.5t242 62.5q232 0 374 -151.5t142 -403.5zM625 125q155 0 241 114t86 310t-86 310t-241 114t-242.5 -114.5t-87.5 -309.5t87.5 -309.5t242.5 -114.5zM1458 973q-132 0 -214 -85t-101 -247h626q-9 149 -93 240.5t-218 91.5z" />
    <glyph glyph-name="Racute" unicode="&#x154;" horiz-adv-x="1456" 
d="M805 1956h289l-342 -270h-199zM993 666l398 -666h-242l-375 635h-6h-367v-635h-206v1556h573q258 0 408.5 -124.5t150.5 -335.5q0 -159 -88 -271.5t-246 -158.5zM772 1372h-371v-553h371q160 0 250 72.5t90 204.5t-90 204t-250 72z" />
    <glyph glyph-name="racute" unicode="&#x155;" horiz-adv-x="763" 
d="M594 1556h276l-327 -309h-187zM360 1098v-236q82 258 361 258v-198h-62q-156 0 -227.5 -58t-71.5 -202v-662h-200v1098h200z" />
    <glyph glyph-name="uni0156" unicode="&#x156;" horiz-adv-x="1456" 
d="M993 666l398 -666h-242l-375 635h-6h-367v-635h-206v1556h573q258 0 408.5 -124.5t150.5 -335.5q0 -159 -88 -271.5t-246 -158.5zM772 1372h-371v-553h371q160 0 250 72.5t90 204.5t-90 204t-250 72zM702 -401h-69v270h223v-287l-115 -178h-135z" />
    <glyph glyph-name="uni0157" unicode="&#x157;" horiz-adv-x="763" 
d="M360 1098v-236q82 258 361 258v-198h-62q-156 0 -227.5 -58t-71.5 -202v-662h-200v1098h200zM219 -401h-69v270h217v-287l-115 -178h-129z" />
    <glyph glyph-name="Rcaron" unicode="&#x158;" horiz-adv-x="1456" 
d="M1085 1956l-256 -270h-278l-256 270h192l203 -176l203 176h192zM993 666l398 -666h-242l-375 635h-6h-367v-635h-206v1556h573q258 0 408.5 -124.5t150.5 -335.5q0 -159 -88 -271.5t-246 -158.5zM772 1372h-371v-553h371q160 0 250 72.5t90 204.5t-90 204t-250 72z" />
    <glyph glyph-name="rcaron" unicode="&#x159;" horiz-adv-x="763" 
d="M864 1556l-262 -309h-266l-262 309h184l211 -217l211 217h184zM360 1098v-236q82 258 361 258v-198h-62q-156 0 -227.5 -58t-71.5 -202v-662h-200v1098h200z" />
    <glyph glyph-name="Sacute" unicode="&#x15a;" horiz-adv-x="1417" 
d="M750 1686h-199l252 270h289zM692 -23q-248 0 -413.5 132t-200.5 360h215q21 -154 129 -235.5t270 -81.5q201 0 312.5 75.5t111.5 200.5q0 42 -9.5 74.5t-33 58t-50.5 43.5t-74.5 34.5t-92 28t-115.5 27.5l-194 43q-195 42 -307.5 143t-112.5 267q0 122 74.5 221t203 155
t283.5 56q243 0 402.5 -117t193.5 -311h-215q-36 129 -135 191.5t-246 62.5q-150 0 -251 -66t-101 -172t75 -156.5t265 -92.5l194 -44q241 -54 348 -149t107 -274q0 -210 -174.5 -342t-458.5 -132z" />
    <glyph glyph-name="sacute" unicode="&#x15b;" horiz-adv-x="1085" 
d="M604 1247h-186l237 309h277zM541 -23q-188 0 -315 90t-150 255h205q21 -107 92.5 -152t167.5 -45q126 0 193 44.5t67 121.5q0 74 -49 114t-172 66l-154 33q-322 69 -322 295q0 143 124.5 232t308.5 89q166 0 287 -76.5t157 -220.5h-205q-23 70 -90 110t-149 40
q-95 0 -164.5 -42t-69.5 -112q0 -62 50 -93t169 -56l154 -33q170 -36 246.5 -114.5t76.5 -207.5q0 -156 -126.5 -247t-331.5 -91z" />
    <glyph glyph-name="Scircumflex" unicode="&#x15c;" horiz-adv-x="1417" 
d="M891 1686l-203 176l-203 -176h-192l256 270h278l256 -270h-192zM676 918l194 -44q241 -54 348 -149t107 -274q0 -210 -174.5 -342t-458.5 -132q-248 0 -413.5 132t-200.5 360h215q21 -154 129 -235.5t270 -81.5q201 0 312.5 75.5t111.5 200.5q0 42 -9.5 74.5t-33 58
t-50.5 43.5t-74.5 34.5t-92 28t-115.5 27.5l-194 43q-195 42 -307.5 143t-112.5 267q0 122 74.5 221t203 155t283.5 56q243 0 402.5 -117t193.5 -311h-215q-36 129 -135 191.5t-246 62.5q-150 0 -251 -66t-101 -172t75 -156.5t265 -92.5z" />
    <glyph glyph-name="scircumflex" unicode="&#x15d;" horiz-adv-x="1085" 
d="M741 1247l-211 217l-211 -217h-184l262 309h267l262 -309h-185zM522 670l154 -33q170 -36 246.5 -114.5t76.5 -207.5q0 -156 -126.5 -247t-331.5 -91q-188 0 -315 90t-150 255h205q21 -107 92.5 -152t167.5 -45q126 0 193 44.5t67 121.5q0 74 -49 114t-172 66l-154 33
q-322 69 -322 295q0 143 124.5 232t308.5 89q166 0 287 -76.5t157 -220.5h-205q-23 70 -90 110t-149 40q-95 0 -164.5 -42t-69.5 -112q0 -62 50 -93t169 -56z" />
    <glyph glyph-name="Scedilla" unicode="&#x15e;" horiz-adv-x="1417" 
d="M1325 451q0 -195 -151 -323.5t-404 -147.5v-50q75 -10 117.5 -56t42.5 -114q0 -77 -56.5 -123.5t-152.5 -46.5h-115v123h90q84 0 84 62q0 29 -22.5 45t-55.5 16h-65v144q-227 15 -376 144.5t-183 344.5h215q21 -154 129 -235.5t270 -81.5q201 0 312.5 75.5t111.5 200.5
q0 42 -9.5 74.5t-33 58t-50.5 43.5t-74.5 34.5t-92 28t-115.5 27.5l-194 43q-195 42 -307.5 143t-112.5 267q0 122 74.5 221t203 155t283.5 56q243 0 402.5 -117t193.5 -311h-215q-36 129 -135 191.5t-246 62.5q-150 0 -251 -66t-101 -172t75 -156.5t265 -92.5l194 -44
q241 -54 348 -149t107 -274z" />
    <glyph glyph-name="scedilla" unicode="&#x15f;" horiz-adv-x="1085" 
d="M999 315q0 -147 -113 -236.5t-300 -98.5v-52q73 -9 116 -54.5t43 -113.5q0 -76 -54 -123t-148 -47h-111v117h92q86 0 86 66q0 31 -22 48t-56 17h-69v144q-159 18 -263 105.5t-124 234.5h205q21 -107 92.5 -152t167.5 -45q126 0 193 44.5t67 121.5q0 74 -49 114t-172 66
l-154 33q-322 69 -322 295q0 143 124.5 232t308.5 89q166 0 287 -76.5t157 -220.5h-205q-23 70 -90 110t-149 40q-95 0 -164.5 -42t-69.5 -112q0 -62 50 -93t169 -56l154 -33q170 -36 246.5 -114.5t76.5 -207.5z" />
    <glyph glyph-name="Scaron" unicode="&#x160;" horiz-adv-x="1417" 
d="M1083 1956l-256 -270h-278l-256 270h192l203 -176l203 176h192zM676 918l194 -44q241 -54 348 -149t107 -274q0 -210 -174.5 -342t-458.5 -132q-248 0 -413.5 132t-200.5 360h215q21 -154 129 -235.5t270 -81.5q201 0 312.5 75.5t111.5 200.5q0 42 -9.5 74.5t-33 58
t-50.5 43.5t-74.5 34.5t-92 28t-115.5 27.5l-194 43q-195 42 -307.5 143t-112.5 267q0 122 74.5 221t203 155t283.5 56q243 0 402.5 -117t193.5 -311h-215q-36 129 -135 191.5t-246 62.5q-150 0 -251 -66t-101 -172t75 -156.5t265 -92.5z" />
    <glyph glyph-name="scaron" unicode="&#x161;" horiz-adv-x="1085" 
d="M926 1556l-262 -309h-267l-262 309h184l211 -217l211 217h185zM522 670l154 -33q170 -36 246.5 -114.5t76.5 -207.5q0 -156 -126.5 -247t-331.5 -91q-188 0 -315 90t-150 255h205q21 -107 92.5 -152t167.5 -45q126 0 193 44.5t67 121.5q0 74 -49 114t-172 66l-154 33
q-322 69 -322 295q0 143 124.5 232t308.5 89q166 0 287 -76.5t157 -220.5h-205q-23 70 -90 110t-149 40q-95 0 -164.5 -42t-69.5 -112q0 -62 50 -93t169 -56z" />
    <glyph glyph-name="uni0162" unicode="&#x162;" horiz-adv-x="1316" 
d="M37 1372v184h1243v-184h-518v-1372h-207v1372h-518zM616 -401h-69v270h223v-287l-115 -178h-135z" />
    <glyph glyph-name="uni0163" unicode="&#x163;" horiz-adv-x="794" 
d="M618 152h123v-152h-143q-151 0 -245.5 75.5t-94.5 225.5v4v641h-231v152h231v260h201v-260h278v-152h-278v-641v-4q0 -84 39.5 -116.5t119.5 -32.5zM420 -401h-70v270h217v-287l-114 -178h-129z" />
    <glyph glyph-name="Tcaron" unicode="&#x164;" horiz-adv-x="1316" 
d="M1053 1956l-256 -270h-279l-256 270h193l202 -176l203 176h193zM37 1556h1243v-184h-518v-1372h-207v1372h-518v184z" />
    <glyph glyph-name="tcaron" unicode="&#x165;" horiz-adv-x="794" 
d="M604 1556h189l-68 -368h-150zM459 301q0 -84 39.5 -116.5t119.5 -32.5h123v-152h-143q-151 0 -245.5 75.5t-94.5 225.5v4v641h-231v152h231v260h201v-260h278v-152h-278v-641v-4z" />
    <glyph glyph-name="Tbar" unicode="&#x166;" horiz-adv-x="1382" 
d="M1313 1556v-184h-518v-500h393v-180h-393v-692h-207v692h-393v180h393v500h-518v184h1243z" />
    <glyph glyph-name="tbar" unicode="&#x167;" horiz-adv-x="794" 
d="M618 152h123v-152h-143q-151 0 -245.5 75.5t-94.5 225.5v4v275h-156v151h156v215h-231v152h231v260h201v-260h278v-152h-278v-215h168v-151h-168v-275v-4q0 -84 39.5 -116.5t119.5 -32.5z" />
    <glyph glyph-name="Utilde" unicode="&#x168;" horiz-adv-x="1579" 
d="M524 1710h-80q4 105 61.5 164t139.5 59t162 -41q66 -32 123 -32q101 0 127 75h80q-4 -105 -61.5 -164t-139.5 -59t-162 41q-68 33 -123 33q-101 0 -127 -76zM791 -23q-613 0 -613 644v4v931h207v-944v-4q0 -231 101.5 -343.5t304.5 -112.5q202 0 302.5 113.5t100.5 346.5
v944h207v-931q0 -316 -146.5 -482t-463.5 -166z" />
    <glyph glyph-name="utilde" unicode="&#x169;" horiz-adv-x="1222" 
d="M471 1374q-101 0 -125 -84h-72q4 106 58 164.5t133 58.5q59 0 151 -45q66 -32 119 -32q101 0 125 84h72q-4 -106 -58 -165t-133 -59q-59 0 -151 45q-68 33 -119 33zM862 449v649h201v-1098h-201v219q-39 -104 -125 -173t-213 -69q-180 0 -278.5 122.5t-98.5 314.5v4v680
h201v-649v-5q0 -162 67 -240.5t191 -78.5q123 0 189.5 80t66.5 244z" />
    <glyph glyph-name="Umacron" unicode="&#x16a;" horiz-adv-x="1579" 
d="M1178 1739h-777v166h777v-166zM791 -23q-613 0 -613 644v4v931h207v-944v-4q0 -231 101.5 -343.5t304.5 -112.5q202 0 302.5 113.5t100.5 346.5v944h207v-931q0 -316 -146.5 -482t-463.5 -166z" />
    <glyph glyph-name="umacron" unicode="&#x16b;" horiz-adv-x="1222" 
d="M248 1470h710v-151h-710v151zM862 449v649h201v-1098h-201v219q-39 -104 -125 -173t-213 -69q-180 0 -278.5 122.5t-98.5 314.5v4v680h201v-649v-5q0 -162 67 -240.5t191 -78.5q123 0 189.5 80t66.5 244z" />
    <glyph glyph-name="Ubreve" unicode="&#x16c;" horiz-adv-x="1579" 
d="M791 1677q-152 0 -244 82t-92 197h166q0 -69 47.5 -112.5t122.5 -43.5t122.5 43.5t47.5 112.5h165q0 -115 -91.5 -197t-243.5 -82zM791 -23q-613 0 -613 644v4v931h207v-944v-4q0 -231 101.5 -343.5t304.5 -112.5q202 0 302.5 113.5t100.5 346.5v944h207v-931
q0 -316 -146.5 -482t-463.5 -166z" />
    <glyph glyph-name="ubreve" unicode="&#x16d;" horiz-adv-x="1222" 
d="M604 1239q-149 0 -237 91t-88 226h161q0 -87 42.5 -131.5t121.5 -44.5t121.5 44.5t42.5 131.5h162q0 -135 -88.5 -226t-237.5 -91zM862 449v649h201v-1098h-201v219q-39 -104 -125 -173t-213 -69q-180 0 -278.5 122.5t-98.5 314.5v4v680h201v-649v-5q0 -162 67 -240.5
t191 -78.5q123 0 189.5 80t66.5 244z" />
    <glyph glyph-name="Uring" unicode="&#x16e;" horiz-adv-x="1579" 
d="M791 1673q-109 0 -186 77.5t-77 186.5t77 185t186 76t184.5 -76t75.5 -185t-76 -186.5t-184 -77.5zM791 1815q49 0 83.5 36t34.5 86t-34.5 84.5t-83.5 34.5q-50 0 -85.5 -35t-35.5 -84q0 -50 36 -86t85 -36zM791 -23q-613 0 -613 644v4v931h207v-944v-4
q0 -231 101.5 -343.5t304.5 -112.5q202 0 302.5 113.5t100.5 346.5v944h207v-931q0 -316 -146.5 -482t-463.5 -166z" />
    <glyph glyph-name="uring" unicode="&#x16f;" horiz-adv-x="1222" 
d="M604 1239q-95 0 -162 69t-67 165q0 95 67 161t162 66q96 0 164 -66t68 -161t-68.5 -164.5t-163.5 -69.5zM604 1571q-41 0 -70.5 -28.5t-29.5 -69.5q0 -42 29.5 -73.5t70.5 -31.5t72 32t31 73t-30.5 69.5t-72.5 28.5zM862 449v649h201v-1098h-201v219q-39 -104 -125 -173
t-213 -69q-180 0 -278.5 122.5t-98.5 314.5v4v680h201v-649v-5q0 -162 67 -240.5t191 -78.5q123 0 189.5 80t66.5 244z" />
    <glyph glyph-name="Uhungarumlaut" unicode="&#x170;" horiz-adv-x="1579" 
d="M664 1686h-199l274 270h281zM1049 1686h-199l274 270h281zM791 -23q-613 0 -613 644v4v931h207v-944v-4q0 -231 101.5 -343.5t304.5 -112.5q202 0 302.5 113.5t100.5 346.5v944h207v-931q0 -316 -146.5 -482t-463.5 -166z" />
    <glyph glyph-name="uhungarumlaut" unicode="&#x171;" horiz-adv-x="1222" 
d="M575 1556h269l-336 -309h-186zM1227 1556l-336 -309h-186l253 309h269zM862 449v649h201v-1098h-201v219q-39 -104 -125 -173t-213 -69q-180 0 -278.5 122.5t-98.5 314.5v4v680h201v-649v-5q0 -162 67 -240.5t191 -78.5q123 0 189.5 80t66.5 244z" />
    <glyph glyph-name="Uogonek" unicode="&#x172;" horiz-adv-x="1579" 
d="M1194 612v944h207v-931q0 -404 -234 -555q-91 -68 -125 -122.5t-34 -113.5q0 -98 118 -98h56v-144h-72q-131 0 -209 47.5t-78 137.5q0 115 105 209q-64 -9 -137 -9q-613 0 -613 644v4v931h207v-944v-4q0 -231 101.5 -343.5t304.5 -112.5q202 0 302.5 113.5t100.5 346.5z
" />
    <glyph glyph-name="uogonek" unicode="&#x173;" horiz-adv-x="1222" 
d="M1063 1098v-1098q-178 -76 -178 -180q0 -44 33.5 -66t91.5 -22h53v-140h-72q-130 0 -206 47.5t-76 137.5q0 129 153 223v219q-39 -104 -125 -173t-213 -69q-180 0 -278.5 122.5t-98.5 314.5v4v680h201v-649v-5q0 -162 67 -240.5t191 -78.5q123 0 189.5 80t66.5 244v649
h201z" />
    <glyph glyph-name="Wcircumflex" unicode="&#x174;" horiz-adv-x="2318" 
d="M1362 1686l-203 176l-203 -176h-192l256 270h278l256 -270h-192zM1679 8l381 1548h219l-383 -1556h-430l-307 1546l-307 -1546h-430l-383 1556h219l381 -1548l307 1548h426z" />
    <glyph glyph-name="wcircumflex" unicode="&#x175;" horiz-adv-x="1822" 
d="M1122 1247l-211 217l-211 -217h-184l262 309h266l263 -309h-185zM1315 10l268 1088h195l-271 -1098h-383l-213 1087l-213 -1087h-383l-270 1098h195l268 -1088l213 1088h381z" />
    <glyph glyph-name="Ycircumflex" unicode="&#x176;" horiz-adv-x="1382" 
d="M893 1686l-203 176l-203 -176h-192l256 270h278l256 -270h-192zM1149 1556h237l-591 -888v-668h-207v668l-592 888h235l459 -690z" />
    <glyph glyph-name="ycircumflex" unicode="&#x177;" horiz-adv-x="1146" 
d="M774 1247l-211 217l-211 -217h-184l262 309h266l262 -309h-184zM590 139l321 959h209l-504 -1499h-208l176 522h-195l-381 977h207z" />
    <glyph glyph-name="Ydieresis" unicode="&#x178;" horiz-adv-x="1382" 
d="M367 1956h223v-270h-223v270zM791 1956h223v-270h-223v270zM1149 1556h237l-591 -888v-668h-207v668l-592 888h235l459 -690z" />
    <glyph glyph-name="Zacute" unicode="&#x179;" horiz-adv-x="1411" 
d="M817 1956h289l-342 -270h-199zM1307 1311l-1004 -1127h1043v-184h-1262v246l1003 1126h-989v184h1209v-245z" />
    <glyph glyph-name="zacute" unicode="&#x17a;" horiz-adv-x="1054" 
d="M647 1556h277l-328 -309h-186zM948 895l-653 -743h696v-152h-905v203l653 743h-641v152h850v-203z" />
    <glyph glyph-name="Zdotaccent" unicode="&#x17b;" horiz-adv-x="1411" 
d="M590 1956h223v-270h-223v270zM1307 1311l-1004 -1127h1043v-184h-1262v246l1003 1126h-989v184h1209v-245z" />
    <glyph glyph-name="zdotaccent" unicode="&#x17c;" horiz-adv-x="1054" 
d="M414 1556h217v-270h-217v270zM948 895l-653 -743h696v-152h-905v203l653 743h-641v152h850v-203z" />
    <glyph glyph-name="Zcaron" unicode="&#x17d;" horiz-adv-x="1411" 
d="M1098 1956l-256 -270h-279l-256 270h193l202 -176l203 176h193zM1307 1311l-1004 -1127h1043v-184h-1262v246l1003 1126h-989v184h1209v-245z" />
    <glyph glyph-name="zcaron" unicode="&#x17e;" horiz-adv-x="1054" 
d="M918 1556l-263 -309h-266l-262 309h184l211 -217l211 217h185zM948 895l-653 -743h696v-152h-905v203l653 743h-641v152h850v-203z" />
    <glyph glyph-name="uni018F" unicode="&#x18f;" horiz-adv-x="1673" 
d="M823 1579q156 0 292.5 -55t237.5 -156t159.5 -253t58.5 -337q0 -182 -59 -334.5t-160.5 -253.5t-238 -157t-290.5 -56q-219 0 -385 109.5t-254 302t-88 438.5v43h1256q-12 134 -59.5 238.5t-119.5 168t-161 96t-189 32.5q-172 0 -294 -83.5t-177 -231.5h-215
q68 236 248 362.5t438 126.5zM823 152q98 0 186.5 32.5t161.5 95.5t121 167.5t60 238.5h-1035q10 -108 50 -204.5t104 -170t155.5 -116.5t196.5 -43z" />
    <glyph glyph-name="florin" unicode="&#x192;" horiz-adv-x="1177" 
d="M1110 1389h-123q-107 0 -163.5 -50.5t-73.5 -158.5l-37 -246h331v-168h-356l-63 -420q-25 -169 -129.5 -257.5t-288.5 -88.5h-144v168h123q107 0 165 51t73 158l57 389h-303v168h330l41 276q25 169 129.5 257.5t288.5 88.5h143v-167z" />
    <glyph glyph-name="uni019D" unicode="&#x19d;" horiz-adv-x="1726" 
d="M1325 8v1548h207v-1556h-428l-703 1548v-1638q0 -153 -91 -232t-259 -79h-192v184h166q88 0 129 39t41 119v1615h428z" />
    <glyph glyph-name="uni01B5" unicode="&#x1b5;" horiz-adv-x="1447" 
d="M788 711l-469 -527h1043v-184h-1262v246l414 465h-371v180h533l428 481h-989v184h1208v-245l-375 -420h369v-180h-529z" />
    <glyph glyph-name="uni01B6" unicode="&#x1b6;" horiz-adv-x="1081" 
d="M604 494l-301 -342h696v-152h-905v203l256 291h-213v151h346l265 301h-642v152h850v-203l-219 -250h246v-151h-379z" />
    <glyph glyph-name="uni01E2" unicode="&#x1e2;" horiz-adv-x="2078" 
d="M745 1905h777v-166h-777v166zM1292 711l191 -527h479v-184h-635l-168 471h-764l-168 -471h-221l559 1556h1379v-184h-889l172 -477h702v-184h-637zM778 1548l-317 -893h633z" />
    <glyph glyph-name="uni01E3" unicode="&#x1e3;" horiz-adv-x="1970" 
d="M631 1470h710v-151h-710v151zM1880 565q0 -22 -4 -76h-829q12 -176 96.5 -270t222.5 -94q116 0 184.5 50.5t100.5 146.5h204q-46 -172 -172.5 -258.5t-316.5 -86.5q-161 0 -273.5 70t-168.5 193q-48 -118 -164.5 -190.5t-272.5 -72.5q-175 0 -282 97.5t-107 232.5
q0 92 36 157.5t105 103.5t159.5 55.5t209.5 17.5h238v64v4q0 114 -65.5 189t-188.5 75q-110 0 -177 -58t-77 -141h-205q17 156 142 251t317 95q141 0 235 -56t140 -142q134 198 397 198q232 0 374 -151t142 -404zM1364 973q-132 0 -214 -85t-101 -247h624q-9 150 -92.5 241
t-216.5 91zM532 125q152 0 233 95t81 269h-209q-166 0 -250 -42.5t-84 -139.5q0 -85 62 -133.5t167 -48.5z" />
    <glyph glyph-name="Gcaron" unicode="&#x1e6;" horiz-adv-x="1691" 
d="M1229 1956l-256 -270h-279l-256 270h193l203 -176l202 176h193zM774 653v185h768v-838h-180v393q-25 -83 -68.5 -154.5t-108.5 -132t-159.5 -95t-208.5 -34.5q-150 0 -281.5 58.5t-227 162.5t-151 254.5t-55.5 325.5q0 235 93.5 418t260 283t378.5 100q268 0 446.5 -134
t239.5 -370h-215q-55 154 -173.5 242t-297.5 88q-231 0 -374 -174.5t-143 -452.5q0 -279 145.5 -452.5t379.5 -173.5q219 0 354 131.5t139 369.5h-561z" />
    <glyph glyph-name="gcaron" unicode="&#x1e7;" horiz-adv-x="1306" 
d="M1022 1556l-262 -309h-266l-263 309h185l211 -217l211 217h184zM950 838v260h201v-1102q0 -106 -42 -188.5t-113.5 -132t-159.5 -74.5t-187 -25q-134 0 -240.5 40.5t-175.5 124t-81 200.5h204q13 -103 95.5 -160t197.5 -57q132 0 216.5 69t84.5 199v270
q-51 -116 -157 -186t-230 -70q-203 0 -335 153.5t-132 403.5q0 249 133 403t334 154q145 0 245 -81t142 -201zM629 154q156 0 242.5 107.5t86.5 301.5t-86.5 302t-242.5 108t-242 -108t-86 -302t86 -301.5t242 -107.5z" />
    <glyph glyph-name="uni01EA" unicode="&#x1ea;" horiz-adv-x="1687" 
d="M1231 80q-98 -72 -135 -129t-37 -117q0 -98 119 -98h55v-144h-72q-131 0 -209 47.5t-78 137.5q0 117 107 211q-82 -11 -137 -11q-162 0 -300 58.5t-235.5 163t-152 253.5t-54.5 326t54.5 326t152 253.5t235.5 163t300 58.5t300 -58.5t235 -163t151.5 -253.5t54.5 -326
q0 -235 -94 -416.5t-260 -281.5zM317 778q0 -277 146.5 -451.5t380.5 -174.5t380 174.5t146 451.5t-146 452t-380 175t-380.5 -175t-146.5 -452z" />
    <glyph glyph-name="uni01EB" unicode="&#x1eb;" horiz-adv-x="1247" 
d="M934 68q-88 -76 -122 -130t-34 -110q0 -96 125 -96h55v-140h-73q-130 0 -205.5 47.5t-75.5 137.5q0 111 94 205q-58 -5 -73 -5q-243 0 -389 157.5t-146 414.5q0 256 146 413.5t389 157.5t387.5 -157t144.5 -414q0 -159 -58.5 -284t-164.5 -197zM295 549
q0 -195 87.5 -309.5t242.5 -114.5t241 114t86 310t-86 310t-241 114t-242.5 -114.5t-87.5 -309.5z" />
    <glyph glyph-name="AEacute" unicode="&#x1fc;" horiz-adv-x="2078" 
d="M1249 1956h289l-342 -270h-199zM1292 711l191 -527h479v-184h-635l-168 471h-764l-168 -471h-221l559 1556h1379v-184h-889l172 -477h702v-184h-637zM778 1548l-317 -893h633z" />
    <glyph glyph-name="aeacute" unicode="&#x1fd;" horiz-adv-x="1970" 
d="M1112 1556h277l-328 -309h-187zM1880 565q0 -22 -4 -76h-829q12 -176 96.5 -270t222.5 -94q116 0 184.5 50.5t100.5 146.5h204q-46 -172 -172.5 -258.5t-316.5 -86.5q-161 0 -273.5 70t-168.5 193q-48 -118 -164.5 -190.5t-272.5 -72.5q-175 0 -282 97.5t-107 232.5
q0 92 36 157.5t105 103.5t159.5 55.5t209.5 17.5h238v64v4q0 114 -65.5 189t-188.5 75q-110 0 -177 -58t-77 -141h-205q17 156 142 251t317 95q141 0 235 -56t140 -142q134 198 397 198q232 0 374 -151t142 -404zM1364 973q-132 0 -214 -85t-101 -247h624q-9 150 -92.5 241
t-216.5 91zM532 125q152 0 233 95t81 269h-209q-166 0 -250 -42.5t-84 -139.5q0 -85 62 -133.5t167 -48.5z" />
    <glyph glyph-name="Oslashacute" unicode="&#x1fe;" horiz-adv-x="1687" 
d="M958 1956h289l-342 -270h-198zM1454 1556h268l-274 -286q137 -204 137 -492q0 -177 -54.5 -326t-151.5 -253.5t-235 -163t-300 -58.5q-279 0 -475 166l-138 -143h-268l277 289q-138 205 -138 489q0 177 54.5 326t152 253.5t235.5 163t300 58.5q278 0 475 -164zM317 778
q0 -190 72 -334l795 830q-140 131 -340 131q-234 0 -380.5 -175t-146.5 -452zM1370 778q0 192 -72 336l-794 -829q136 -133 340 -133q234 0 380 174.5t146 451.5z" />
    <glyph glyph-name="oslashacute" unicode="&#x1ff;" horiz-adv-x="1247" 
d="M750 1556h276l-328 -309h-186zM1028 1098h232l-195 -205q92 -143 92 -344q0 -257 -144.5 -414.5t-387.5 -157.5q-194 0 -328 103l-76 -80h-231l192 205q-92 143 -92 344q0 256 146 413.5t389 157.5q194 0 327 -102zM295 549q0 -105 29 -197l512 541q-83 80 -211 80
q-155 0 -242.5 -114.5t-87.5 -309.5zM952 549q0 108 -28 194l-510 -538q83 -80 211 -80q155 0 241 114t86 310z" />
    <glyph glyph-name="uni0218" unicode="&#x218;" horiz-adv-x="1417" 
d="M676 918l194 -44q241 -54 348 -149t107 -274q0 -210 -174.5 -342t-458.5 -132q-248 0 -413.5 132t-200.5 360h215q21 -154 129 -235.5t270 -81.5q201 0 312.5 75.5t111.5 200.5q0 42 -9.5 74.5t-33 58t-50.5 43.5t-74.5 34.5t-92 28t-115.5 27.5l-194 43
q-195 42 -307.5 143t-112.5 267q0 122 74.5 221t203 155t283.5 56q243 0 402.5 -117t193.5 -311h-215q-36 129 -135 191.5t-246 62.5q-150 0 -251 -66t-101 -172t75 -156.5t265 -92.5zM700 -401h-69v270h223v-287l-115 -178h-135z" />
    <glyph glyph-name="uni0219" unicode="&#x219;" horiz-adv-x="1085" 
d="M522 670l154 -33q170 -36 246.5 -114.5t76.5 -207.5q0 -156 -126.5 -247t-331.5 -91q-188 0 -315 90t-150 255h205q21 -107 92.5 -152t167.5 -45q126 0 193 44.5t67 121.5q0 74 -49 114t-172 66l-154 33q-322 69 -322 295q0 143 124.5 232t308.5 89q166 0 287 -76.5
t157 -220.5h-205q-23 70 -90 110t-149 40q-95 0 -164.5 -42t-69.5 -112q0 -62 50 -93t169 -56zM522 -401h-69v270h217v-287l-115 -178h-129z" />
    <glyph glyph-name="uni021A" unicode="&#x21a;" horiz-adv-x="1316" 
d="M37 1372v184h1243v-184h-518v-1372h-207v1372h-518zM616 -401h-69v270h223v-287l-115 -178h-135z" />
    <glyph glyph-name="uni021B" unicode="&#x21b;" horiz-adv-x="794" 
d="M618 152h123v-152h-143q-151 0 -245.5 75.5t-94.5 225.5v4v641h-231v152h231v260h201v-260h278v-152h-278v-641v-4q0 -84 39.5 -116.5t119.5 -32.5zM420 -401h-70v270h217v-287l-114 -178h-129z" />
    <glyph glyph-name="uni022E" unicode="&#x22e;" horiz-adv-x="1687" 
d="M954 1686h-223v270h223v-270zM844 -23q-162 0 -300 58.5t-235.5 163t-152 253.5t-54.5 326t54.5 326t152 253.5t235.5 163t300 58.5t300 -58.5t235 -163t151.5 -253.5t54.5 -326t-54.5 -326t-151.5 -253.5t-235 -163t-300 -58.5zM844 152q234 0 380 174.5t146 451.5
t-146 452t-380 175t-380.5 -175t-146.5 -452t146.5 -451.5t380.5 -174.5z" />
    <glyph glyph-name="uni022F" unicode="&#x22f;" horiz-adv-x="1247" 
d="M733 1286h-217v270h217v-270zM625 -23q-243 0 -389 157.5t-146 414.5q0 256 146 413.5t389 157.5t387.5 -157t144.5 -414t-144.5 -414.5t-387.5 -157.5zM625 125q155 0 241 114t86 310t-86 310t-241 114t-242.5 -114.5t-87.5 -309.5t87.5 -309.5t242.5 -114.5z" />
    <glyph glyph-name="uni0232" unicode="&#x232;" horiz-adv-x="1382" 
d="M301 1905h776v-166h-776v166zM1149 1556h237l-591 -888v-668h-207v668l-592 888h235l459 -690z" />
    <glyph glyph-name="uni0233" unicode="&#x233;" horiz-adv-x="1146" 
d="M207 1470h711v-151h-711v151zM590 139l321 959h209l-504 -1499h-208l176 522h-195l-381 977h207z" />
    <glyph glyph-name="uni0237" unicode="&#x237;" horiz-adv-x="520" 
d="M20 -401h-75v151h55q80 0 120 34t40 120v1194h200v-1194q0 -152 -93.5 -228.5t-246.5 -76.5z" />
    <glyph glyph-name="uni0259" unicode="&#x259;" horiz-adv-x="1218" 
d="M604 1120q162 0 281.5 -74t180 -202.5t60.5 -294.5q0 -167 -61.5 -296t-180 -202.5t-278.5 -73.5q-232 0 -374 151.5t-142 403.5q0 22 4 76h830q-12 176 -97 270.5t-223 94.5q-116 0 -184.5 -50.5t-100.5 -146.5h-204q46 172 172.5 258t316.5 86zM606 125q132 0 214.5 85
t101.5 247h-627q9 -149 93 -240.5t218 -91.5z" />
    <glyph glyph-name="uni0272" unicode="&#x272;" horiz-adv-x="1232" 
d="M705 1120q180 0 280 -122t100 -314v-4v-680h-200v649v4q0 162 -69 241t-193 79t-193.5 -80t-69.5 -244v-745q0 -152 -93.5 -228.5t-246.5 -76.5h-75v151h55q80 0 120 34t40 120v1194h200v-224q41 108 127.5 177t217.5 69z" />
    <glyph glyph-name="circumflex" unicode="&#x2c6;" horiz-adv-x="892" 
d="M580 1556l262 -309h-185l-211 217l-210 -217h-185l262 309h267z" />
    <glyph glyph-name="caron" unicode="&#x2c7;" horiz-adv-x="892" 
d="M446 1339l211 217h185l-262 -309h-267l-262 309h185z" />
    <glyph glyph-name="breve" unicode="&#x2d8;" horiz-adv-x="753" 
d="M377 1239q-149 0 -237.5 91t-88.5 226h162q0 -87 42.5 -131.5t121.5 -44.5t121.5 44.5t42.5 131.5h161q0 -135 -88 -226t-237 -91z" />
    <glyph glyph-name="dotaccent" unicode="&#x2d9;" horiz-adv-x="319" 
d="M268 1286h-217v270h217v-270z" />
    <glyph glyph-name="ring" unicode="&#x2da;" horiz-adv-x="563" 
d="M281 1239q-95 0 -162.5 69t-67.5 165q0 95 67 161t163 66t163.5 -66t67.5 -161q0 -96 -68 -165t-163 -69zM281 1368q41 0 71.5 31.5t30.5 73.5q0 41 -30 69.5t-72 28.5t-71.5 -28.5t-29.5 -69.5q0 -42 30 -73.5t71 -31.5z" />
    <glyph glyph-name="ogonek" unicode="&#x2db;" horiz-adv-x="456" 
d="M406 -408h-72q-130 0 -206.5 47.5t-76.5 137.5q0 128 154 223h201q-179 -76 -179 -180q0 -44 33.5 -66t91.5 -22h54v-140z" />
    <glyph glyph-name="tilde" unicode="&#x2dc;" horiz-adv-x="759" 
d="M123 1290h-72q4 106 58 164.5t133 58.5q59 0 151 -45q66 -32 119 -32q101 0 125 84h72q-4 -106 -58 -165t-133 -59q-59 0 -151 45q-68 33 -119 33q-101 0 -125 -84z" />
    <glyph glyph-name="hungarumlaut" unicode="&#x2dd;" horiz-adv-x="1007" 
d="M238 1247h-187l254 309h268zM621 1247h-187l254 309h268z" />
    <glyph glyph-name="gravecomb" unicode="&#x300;" horiz-adv-x="0" 
d="M-51 1247h-187l-327 309h276z" />
    <glyph glyph-name="acutecomb" unicode="&#x301;" horiz-adv-x="0" 
d="M-379 1247h-186l237 309h277z" />
    <glyph glyph-name="uni0302" unicode="&#x302;" horiz-adv-x="0" 
d="M-313 1556l262 -309h-185l-210 217l-211 -217h-185l262 309h267z" />
    <glyph glyph-name="tildecomb" unicode="&#x303;" horiz-adv-x="0" 
d="M-637 1290h-72q4 106 58 164.5t133 58.5q59 0 151 -45q66 -32 119 -32q101 0 125 84h72q-4 -106 -58 -165t-133 -59q-59 0 -151 45q-68 33 -119 33q-101 0 -125 -84z" />
    <glyph glyph-name="uni0304" unicode="&#x304;" horiz-adv-x="0" 
d="M-51 1319h-711v151h711v-151z" />
    <glyph glyph-name="uni0306" unicode="&#x306;" horiz-adv-x="0" 
d="M-377 1239q-149 0 -237 91t-88 226h161q0 -87 42.5 -131.5t121.5 -44.5t121.5 44.5t42.5 131.5h162q0 -135 -88.5 -226t-237.5 -91z" />
    <glyph glyph-name="uni0307" unicode="&#x307;" horiz-adv-x="0" 
d="M-51 1286h-217v270h217v-270z" />
    <glyph glyph-name="uni0308" unicode="&#x308;" horiz-adv-x="0" 
d="M-479 1286h-217v270h217v-270zM-51 1286h-217v270h217v-270z" />
    <glyph glyph-name="uni030A" unicode="&#x30a;" horiz-adv-x="0" 
d="M-283 1239q-95 0 -162 69t-67 165q0 95 67 161t162 66q96 0 164 -66t68 -161t-68.5 -164.5t-163.5 -69.5zM-283 1368q41 0 72 32t31 73t-30.5 69.5t-72.5 28.5q-41 0 -70.5 -28.5t-29.5 -69.5q0 -42 29.5 -73.5t70.5 -31.5z" />
    <glyph glyph-name="uni030B" unicode="&#x30b;" horiz-adv-x="0" 
d="M-770 1247h-186l254 309h268zM-387 1247h-186l254 309h268z" />
    <glyph glyph-name="uni030C" unicode="&#x30c;" horiz-adv-x="0" 
d="M-446 1339l210 217h185l-262 -309h-267l-262 309h185z" />
    <glyph glyph-name="uni0312" unicode="&#x312;" horiz-adv-x="0" 
d="M-154 1751h129l-96 -195h70v-270h-217v287z" />
    <glyph glyph-name="dotbelowcomb" unicode="&#x323;" horiz-adv-x="0" 
d="M-51 -401h-217v270h217v-270z" />
    <glyph glyph-name="uni0326" unicode="&#x326;" horiz-adv-x="0" 
d="M-268 -401v270h217v-287l-115 -178h-129l96 195h-69z" />
    <glyph glyph-name="uni0327" unicode="&#x327;" horiz-adv-x="0" 
d="M-211 0v-72q73 -9 116.5 -54.5t43.5 -113.5q0 -76 -54.5 -123t-148.5 -47h-111v117h93q86 0 86 66q0 31 -22 48t-56 17h-70v162h123z" />
    <glyph glyph-name="uni0328" unicode="&#x328;" horiz-adv-x="0" 
d="M-51 -408h-72q-130 0 -206.5 47.5t-76.5 137.5q0 128 154 223h201q-178 -76 -178 -180q0 -44 33.5 -66t91.5 -22h53v-140z" />
    <glyph glyph-name="uni0335" unicode="&#x335;" horiz-adv-x="0" 
d="M-700 1251h-525v152h525v-152z" />
    <glyph glyph-name="uni0336" unicode="&#x336;" horiz-adv-x="0" 
d="M-51 1104h-1622v180h1622v-180z" />
    <glyph glyph-name="uni0337" unicode="&#x337;" horiz-adv-x="0" 
d="M-51 862l-516 -336v187l516 336v-187z" />
    <glyph glyph-name="uni0338" unicode="&#x338;" horiz-adv-x="0" 
d="M-1090 0h-231l1038 1098h232z" />
    <glyph glyph-name="uni0394" unicode="&#x394;" horiz-adv-x="1554" 
d="M989 1556l559 -1556h-1542l559 1556h424zM1262 184l-484 1364l-485 -1364h969z" />
    <glyph glyph-name="uni03A9" unicode="&#x3a9;" horiz-adv-x="1732" 
d="M1616 870q0 -108 -32 -200t-100 -175t-159 -156.5t-223 -154.5h510v-184h-645v246q220 152 327 300t107 324q0 132 -42 235.5t-116 168t-169.5 98t-207.5 33.5t-207.5 -33.5t-169 -98t-115.5 -168t-42 -235.5q0 -176 107 -324t327 -300v-246h-645v184h510
q-132 81 -223 154.5t-159 156.5t-100 175t-32 200q0 166 60 302t162.5 224t238 135.5t288.5 47.5t288.5 -47.5t238.5 -135.5t163 -224t60 -302z" />
    <glyph glyph-name="uni03BC" unicode="&#x3bc;" horiz-adv-x="1304" 
d="M1196 152h70v-152h-105q-127 0 -191.5 42.5t-88.5 137.5l-7 41q-39 -106 -123.5 -175t-213.5 -69q-100 0 -177 50v-428h-200v1499h200v-652v-4q0 -160 67.5 -238.5t190.5 -78.5t189.5 80t66.5 244v649h201v-832v-4q0 -60 28.5 -85t92.5 -25z" />
    <glyph glyph-name="pi" unicode="&#x3c0;" horiz-adv-x="1349" 
d="M1266 946h-205v-641v-4q0 -83 40 -116t120 -33h45v-152h-66q-151 0 -245.5 75.5t-94.5 225.5v4v641h-418v-946h-200v946h-205v152h1229v-152z" />
    <glyph glyph-name="uni0E3F" unicode="&#xe3f;" horiz-adv-x="1413" 
d="M1298 428q0 -191 -132 -299.5t-371 -126.5v-270h-189v268h-399v1556h399v259h189v-261q229 -18 343.5 -128.5t114.5 -270.5q0 -82 -31 -147.5t-86 -108t-123 -67.5t-147 -33q89 -3 166 -28.5t137 -70.5t94.5 -115t34.5 -157zM412 883h194v506h-194v-506zM1044 1135
q0 104 -66.5 168t-182.5 79v-493q116 15 182.5 78.5t66.5 167.5zM412 715v-547h194v547h-194zM795 711v-539q141 19 218 89.5t77 180.5q0 112 -77 182t-218 87z" />
    <glyph glyph-name="Wgrave" unicode="&#x1e80;" horiz-adv-x="2318" 
d="M1016 1956l252 -270h-199l-342 270h289zM1679 8l381 1548h219l-383 -1556h-430l-307 1546l-307 -1546h-430l-383 1556h219l381 -1548l307 1548h426z" />
    <glyph glyph-name="wgrave" unicode="&#x1e81;" horiz-adv-x="1822" 
d="M762 1556l237 -309h-186l-328 309h277zM1315 10l268 1088h195l-271 -1098h-383l-213 1087l-213 -1087h-383l-270 1098h195l268 -1088l213 1088h381z" />
    <glyph glyph-name="Wacute" unicode="&#x1e82;" horiz-adv-x="2318" 
d="M1300 1956h289l-342 -270h-198zM1679 8l381 1548h219l-383 -1556h-430l-307 1546l-307 -1546h-430l-383 1556h219l381 -1548l307 1548h426z" />
    <glyph glyph-name="wacute" unicode="&#x1e83;" horiz-adv-x="1822" 
d="M1061 1556h276l-327 -309h-187zM1315 10l268 1088h195l-271 -1098h-383l-213 1087l-213 -1087h-383l-270 1098h195l268 -1088l213 1088h381z" />
    <glyph glyph-name="Wdieresis" unicode="&#x1e84;" horiz-adv-x="2318" 
d="M836 1956h223v-270h-223v270zM1260 1956h223v-270h-223v270zM1679 8l381 1548h219l-383 -1556h-430l-307 1546l-307 -1546h-430l-383 1556h219l381 -1548l307 1548h426z" />
    <glyph glyph-name="wdieresis" unicode="&#x1e85;" horiz-adv-x="1822" 
d="M588 1556h217v-270h-217v270zM1016 1556h217v-270h-217v270zM1315 10l268 1088h195l-271 -1098h-383l-213 1087l-213 -1087h-383l-270 1098h195l268 -1088l213 1088h381z" />
    <glyph glyph-name="uni1E9E" unicode="&#x1e9e;" horiz-adv-x="1576" 
d="M1329 1327l-354 -385q105 -7 195.5 -39.5t163 -88.5t114 -144.5t41.5 -198.5q0 -229 -151.5 -361.5t-389.5 -132.5q-141 0 -274 46v178q115 -49 252 -49q156 0 252 87t96 232q0 107 -61.5 180.5t-159.5 106.5t-224 33h-63v198l352 383h-717v-1372h-206v1556h1134v-229z
" />
    <glyph glyph-name="uni1EA0" unicode="&#x1ea0;" horiz-adv-x="1554" 
d="M989 1556l559 -1556h-221l-168 471h-764l-168 -471h-221l559 1556h424zM778 1548l-317 -893h633zM887 -401h-223v270h223v-270z" />
    <glyph glyph-name="uni1EA1" unicode="&#x1ea1;" horiz-adv-x="1193" 
d="M592 1120q97 0 175 -23.5t129.5 -62.5t86 -93t49.5 -112t15 -122v-5v-702h-201v225q-62 -127 -145.5 -187.5t-233.5 -60.5q-155 0 -262 101t-107 252q0 53 15 97.5t39.5 75.5t62 56t75 40.5t86 27t87.5 17.5t88 11l295 31v19v4q0 114 -65 189t-189 75
q-110 0 -176.5 -57.5t-77.5 -141.5h-205q19 157 143 251.5t316 94.5zM541 111q146 0 225.5 100.5t79.5 255.5v82l-219 -23q-50 -5 -78 -9t-72.5 -13t-70 -22t-52 -33t-39 -50t-12.5 -69q0 -102 69 -160.5t169 -58.5zM721 -401h-217v270h217v-270z" />
    <glyph glyph-name="uni1EB8" unicode="&#x1eb8;" horiz-adv-x="1343" 
d="M401 711v-527h826v-184h-1032v1556h1013v-184h-807v-477h793v-184h-793zM821 -401h-223v270h223v-270z" />
    <glyph glyph-name="uni1EB9" unicode="&#x1eb9;" horiz-adv-x="1218" 
d="M1128 565q0 -22 -4 -76h-829q12 -176 96.5 -270t222.5 -94q116 0 184.5 50.5t100.5 146.5h205q-46 -172 -173 -258.5t-317 -86.5q-162 0 -281.5 74.5t-180 203t-60.5 294.5q0 167 61.5 296t180 202t278.5 73q232 0 374 -151.5t142 -403.5zM612 973q-132 0 -214 -85
t-101 -247h627q-9 149 -93.5 240.5t-218.5 91.5zM723 -401h-217v270h217v-270z" />
    <glyph glyph-name="uni1EBC" unicode="&#x1ebc;" horiz-adv-x="1343" 
d="M563 1786q-101 0 -127 -76h-80q4 105 61.5 164t139.5 59t162 -41q66 -32 123 -32q101 0 127 75h80q-4 -105 -61.5 -164t-139.5 -59t-162 41q-68 33 -123 33zM401 711v-527h826v-184h-1032v1556h1013v-184h-807v-477h793v-184h-793z" />
    <glyph glyph-name="uni1EBD" unicode="&#x1ebd;" horiz-adv-x="1218" 
d="M479 1374q-101 0 -125 -84h-71q4 106 57.5 164.5t132.5 58.5q60 0 152 -45q66 -32 118 -32q101 0 125 84h72q-4 -106 -58 -165t-132 -59q-60 0 -152 45q-68 33 -119 33zM1128 565q0 -22 -4 -76h-829q12 -176 96.5 -270t222.5 -94q116 0 184.5 50.5t100.5 146.5h205
q-46 -172 -173 -258.5t-317 -86.5q-162 0 -281.5 74.5t-180 203t-60.5 294.5q0 167 61.5 296t180 202t278.5 73q232 0 374 -151.5t142 -403.5zM612 973q-132 0 -214 -85t-101 -247h627q-9 149 -93.5 240.5t-218.5 91.5z" />
    <glyph glyph-name="uni1ECA" unicode="&#x1eca;" horiz-adv-x="595" 
d="M401 0h-206v1556h206v-1556zM410 -401h-224v270h224v-270z" />
    <glyph glyph-name="uni1ECB" unicode="&#x1ecb;" horiz-adv-x="520" 
d="M369 1286h-217v270h217v-270zM360 0h-200v1098h200v-1098zM369 -401h-217v270h217v-270z" />
    <glyph glyph-name="uni1ECC" unicode="&#x1ecc;" horiz-adv-x="1687" 
d="M844 -23q-162 0 -300 58.5t-235.5 163t-152 253.5t-54.5 326t54.5 326t152 253.5t235.5 163t300 58.5t300 -58.5t235 -163t151.5 -253.5t54.5 -326t-54.5 -326t-151.5 -253.5t-235 -163t-300 -58.5zM844 152q234 0 380 174.5t146 451.5t-146 452t-380 175t-380.5 -175
t-146.5 -452t146.5 -451.5t380.5 -174.5zM954 -401h-223v270h223v-270z" />
    <glyph glyph-name="uni1ECD" unicode="&#x1ecd;" horiz-adv-x="1247" 
d="M625 -23q-243 0 -389 157.5t-146 414.5q0 256 146 413.5t389 157.5t387.5 -157t144.5 -414t-144.5 -414.5t-387.5 -157.5zM625 125q155 0 241 114t86 310t-86 310t-241 114t-242.5 -114.5t-87.5 -309.5t87.5 -309.5t242.5 -114.5zM733 -401h-217v270h217v-270z" />
    <glyph glyph-name="uni1EE4" unicode="&#x1ee4;" horiz-adv-x="1579" 
d="M791 -23q-613 0 -613 644v4v931h207v-944v-4q0 -231 101.5 -343.5t304.5 -112.5q202 0 302.5 113.5t100.5 346.5v944h207v-931q0 -316 -146.5 -482t-463.5 -166zM901 -401h-223v270h223v-270z" />
    <glyph glyph-name="uni1EE5" unicode="&#x1ee5;" horiz-adv-x="1222" 
d="M862 449v649h201v-1098h-201v219q-39 -104 -125 -173t-213 -69q-180 0 -278.5 122.5t-98.5 314.5v4v680h201v-649v-5q0 -162 67 -240.5t191 -78.5q123 0 189.5 80t66.5 244zM725 -401h-217v270h217v-270z" />
    <glyph glyph-name="Ygrave" unicode="&#x1ef2;" horiz-adv-x="1382" 
d="M575 1956l252 -270h-198l-342 270h288zM1149 1556h237l-591 -888v-668h-207v668l-592 888h235l459 -690z" />
    <glyph glyph-name="ygrave" unicode="&#x1ef3;" horiz-adv-x="1146" 
d="M438 1556l238 -309h-187l-327 309h276zM590 139l321 959h209l-504 -1499h-208l176 522h-195l-381 977h207z" />
    <glyph glyph-name="uni1EF8" unicode="&#x1ef8;" horiz-adv-x="1382" 
d="M551 1786q-101 0 -127 -76h-80q4 105 61.5 164t139.5 59t162 -41q66 -32 122 -32q101 0 127 75h80q-4 -105 -61 -164t-139 -59t-162 41q-68 33 -123 33zM1149 1556h237l-591 -888v-668h-207v668l-592 888h235l459 -690z" />
    <glyph glyph-name="uni1EF9" unicode="&#x1ef9;" horiz-adv-x="1146" 
d="M430 1374q-101 0 -125 -84h-72q4 106 58 164.5t133 58.5q59 0 151 -45q66 -32 119 -32q101 0 125 84h72q-4 -106 -58 -165t-133 -59q-59 0 -151 45q-68 33 -119 33zM590 139l321 959h209l-504 -1499h-208l176 522h-195l-381 977h207z" />
    <glyph glyph-name="uni2009" unicode="&#x2009;" horiz-adv-x="256" 
 />
    <glyph glyph-name="uni2011" unicode="&#x2011;" horiz-adv-x="921" 
d="M784 496h-647v168h647v-168z" />
    <glyph glyph-name="endash" unicode="&#x2013;" horiz-adv-x="1153" 
d="M1016 496h-879v168h879v-168z" />
    <glyph glyph-name="emdash" unicode="&#x2014;" horiz-adv-x="1755" 
d="M1618 496h-1481v168h1481v-168z" />
    <glyph glyph-name="quoteleft" unicode="&#x2018;" horiz-adv-x="499" 
d="M264 1556h139l-120 -272h77v-246h-241v271z" />
    <glyph glyph-name="quoteright" unicode="&#x2019;" horiz-adv-x="489" 
d="M150 1311v245h241v-270l-145 -248h-140l121 273h-77z" />
    <glyph glyph-name="quotesinglbase" unicode="&#x201a;" horiz-adv-x="552" 
d="M156 0v246h241v-271l-145 -247h-139l120 272h-77z" />
    <glyph glyph-name="quotedblleft" unicode="&#x201c;" horiz-adv-x="880" 
d="M98 1309l146 247h139l-121 -272h78v-246h-242v271zM625 1556h139l-121 -272h78v-246h-242v271z" />
    <glyph glyph-name="quotedblright" unicode="&#x201d;" horiz-adv-x="870" 
d="M248 1311h-78v245h242v-270l-146 -248h-139zM551 1311v245h242v-270l-146 -248h-139l121 273h-78z" />
    <glyph glyph-name="quotedblbase" unicode="&#x201e;" horiz-adv-x="933" 
d="M233 0h-77v246h241v-271l-145 -247h-139zM537 0v246h241v-271l-145 -247h-139l120 272h-77z" />
    <glyph glyph-name="dagger" unicode="&#x2020;" horiz-adv-x="1232" 
d="M717 1120h397v-164h-397v-956h-201v956h-397v164h397v436h201v-436z" />
    <glyph glyph-name="daggerdbl" unicode="&#x2021;" horiz-adv-x="1232" 
d="M1114 1120v-164h-397v-299h397v-163h-397v-494h-201v494h-397v163h397v299h-397v164h397v436h201v-436h397z" />
    <glyph glyph-name="bullet" unicode="&#x2022;" horiz-adv-x="860" 
d="M428 330q-105 0 -178.5 75t-73.5 181t73 180t179 74t181 -74t75 -180t-75 -181t-181 -75z" />
    <glyph glyph-name="ellipsis" unicode="&#x2026;" horiz-adv-x="1658" 
d="M397 0h-241v246h241v-246zM950 0h-241v246h241v-246zM1503 0h-241v246h241v-246z" />
    <glyph glyph-name="perthousand" unicode="&#x2030;" horiz-adv-x="2422" 
d="M768 1139q0 -212 -91.5 -325.5t-258.5 -113.5t-258.5 113.5t-91.5 325.5t91.5 326t258.5 114t258.5 -114t91.5 -326zM408 0l878 1556h199l-879 -1556h-198zM238 1139q0 -312 180 -312t180 312q0 313 -180 313t-180 -313zM2005 856q167 0 258.5 -114t91.5 -326
t-91.5 -325.5t-258.5 -113.5q-81 0 -149.5 36.5t-114.5 103.5q-48 -67 -116.5 -103.5t-149.5 -36.5q-167 0 -259 113.5t-92 325.5t92 326t259 114t266 -141q46 68 114.5 104.5t149.5 36.5zM1475 104q180 0 180 312q0 313 -180 313q-88 0 -134.5 -78.5t-46.5 -234.5
q0 -312 181 -312zM2005 104q180 0 180 312q0 313 -180 313t-180 -313q0 -312 180 -312z" />
    <glyph glyph-name="minute" unicode="&#x2032;" horiz-adv-x="466" 
d="M264 1008h-151l69 548h213z" />
    <glyph glyph-name="second" unicode="&#x2033;" horiz-adv-x="788" 
d="M264 1008h-151l69 548h213zM586 1008h-152l70 548h213z" />
    <glyph glyph-name="guilsinglleft" unicode="&#x2039;" horiz-adv-x="776" 
d="M446 1012h238l-350 -449l350 -471h-238l-350 471z" />
    <glyph glyph-name="guilsinglright" unicode="&#x203a;" horiz-adv-x="776" 
d="M92 1012h238l350 -449l-350 -471h-238l350 471z" />
    <glyph glyph-name="uni2042" unicode="&#x2042;" horiz-adv-x="1763" 
d="M709 840l-113 82l170 231l-266 86l41 135l270 -86v268h141v-268l271 86l41 -135l-267 -86l170 -231l-112 -82l-172 235zM471 449l270 86l41 -136l-266 -86l170 -231l-113 -82l-172 236l-174 -236l-112 82l170 231l-267 86l41 136l271 -86v268h141v-268zM1704 535l41 -136
l-266 -86l170 -231l-113 -82l-172 236l-174 -236l-113 82l170 231l-266 86l41 136l270 -86v268h142v-268z" />
    <glyph glyph-name="fraction" unicode="&#x2044;" horiz-adv-x="348" 
d="M-217 0h-201l981 1556h201z" />
    <glyph glyph-name="uni2070" unicode="&#x2070;" horiz-adv-x="761" 
d="M381 985q-156 0 -242 104.5t-86 299.5t86 299t242 104t242 -104t86 -299t-86 -299.5t-242 -104.5zM381 1112q156 0 156 277q0 276 -156 276t-156 -276q0 -277 156 -277z" />
    <glyph glyph-name="uni2074" unicode="&#x2074;" horiz-adv-x="743" 
d="M594 1335h108v-133h-108v-203h-168v203h-393v168l237 408h324v-443zM426 1757l-242 -422h242v422z" />
    <glyph glyph-name="uni2075" unicode="&#x2075;" horiz-adv-x="745" 
d="M442 1534q115 0 185.5 -73t70.5 -199q0 -129 -88 -203t-231 -74q-129 0 -219.5 65t-102.5 177h172q9 -52 49 -83.5t101 -31.5q65 0 106 42t41 108q0 67 -40 106t-107 39q-53 0 -92 -25t-58 -67l-166 14l41 449h543v-133h-387l-20 -234q23 50 76.5 86.5t125.5 36.5z" />
    <glyph glyph-name="uni2076" unicode="&#x2076;" horiz-adv-x="761" 
d="M438 1520q121 0 196 -72.5t75 -194.5q0 -117 -89.5 -192.5t-234.5 -75.5q-153 0 -241.5 101t-88.5 303q0 201 91 302t239 101q128 0 204.5 -61t100.5 -154h-172q-31 88 -129 88q-60 0 -100.5 -41t-56.5 -107t-11 -149q21 66 79.5 109t137.5 43zM385 1112q67 0 109.5 40
t42.5 101q0 63 -40.5 101.5t-111.5 38.5q-66 0 -109 -40t-43 -96q0 -60 41 -102.5t111 -42.5z" />
    <glyph glyph-name="uni2077" unicode="&#x2077;" horiz-adv-x="600" 
d="M31 1645v133h542v-168l-305 -611h-207l347 646h-377z" />
    <glyph glyph-name="uni2078" unicode="&#x2078;" horiz-adv-x="765" 
d="M512 1407q36 -6 69 -18.5t65 -34t51.5 -58.5t19.5 -84q0 -102 -92 -164.5t-242 -62.5t-242 62.5t-92 164.5q0 47 19.5 84t51.5 58.5t65 34t69 18.5q-77 18 -129.5 63t-52.5 123q0 87 86.5 143t224.5 56t224.5 -56t86.5 -143q0 -78 -52.5 -123t-129.5 -63zM383 1665
q-65 0 -102 -28.5t-37 -71.5q0 -45 35.5 -73t103.5 -28t103.5 28t35.5 73q0 43 -37 71.5t-102 28.5zM383 1112q70 0 116 30.5t46 84.5t-46.5 82t-115.5 28t-115.5 -28t-46.5 -82t46 -84.5t116 -30.5z" />
    <glyph glyph-name="uni2079" unicode="&#x2079;" horiz-adv-x="761" 
d="M377 1792q153 0 241.5 -100.5t88.5 -302.5q0 -201 -91 -302.5t-239 -101.5q-128 0 -204.5 61t-100.5 154h172q31 -88 129 -88q60 0 100.5 41t56.5 107t11 149q-21 -66 -79.5 -109t-137.5 -43q-121 0 -196 72.5t-75 194.5q0 117 89.5 192.5t234.5 75.5zM377 1384
q66 0 108.5 40t42.5 96q0 60 -40.5 102.5t-110.5 42.5q-67 0 -109.5 -40t-42.5 -101q0 -63 40.5 -101.5t111.5 -38.5z" />
    <glyph glyph-name="uni207A" unicode="&#x207a;" horiz-adv-x="671" 
d="M399 1440h215v-123h-215v-221h-127v221h-215v123h215v213h127v-213z" />
    <glyph glyph-name="uni207B" unicode="&#x207b;" horiz-adv-x="653" 
d="M575 1317h-497v123h497v-123z" />
    <glyph glyph-name="uni207C" unicode="&#x207c;" horiz-adv-x="671" 
d="M596 1427h-520v123h520v-123zM596 1206h-520v123h520v-123z" />
    <glyph glyph-name="uni207D" unicode="&#x207d;" horiz-adv-x="452" 
d="M408 895h-170q-164 236 -164 494q0 249 164 485h170q-162 -233 -162 -485q0 -266 162 -494z" />
    <glyph glyph-name="uni207E" unicode="&#x207e;" horiz-adv-x="454" 
d="M215 895h-168q162 234 162 494q0 253 -162 485h168q166 -237 166 -485q0 -258 -166 -494z" />
    <glyph glyph-name="uni2080" unicode="&#x2080;" horiz-adv-x="761" 
d="M381 -248q-156 0 -242 104.5t-86 299.5t86 299t242 104t242 -104t86 -299t-86 -299.5t-242 -104.5zM381 -121q156 0 156 277q0 276 -156 276t-156 -276q0 -277 156 -277z" />
    <glyph glyph-name="uni2081" unicode="&#x2081;" horiz-adv-x="458" 
d="M221 528l6 17h131v-778h-168v536h-170v133h29q81 0 117 20.5t55 71.5z" />
    <glyph glyph-name="uni2082" unicode="&#x2082;" horiz-adv-x="716" 
d="M514 96l-254 -196h410v-133h-619v167l340 269q47 36 68.5 63.5t21.5 65.5q0 43 -32.5 71.5t-90.5 28.5q-59 0 -93.5 -30t-37.5 -80h-172q6 104 88 170.5t215 66.5q134 0 214.5 -65.5t80.5 -157.5q0 -73 -33 -128.5t-106 -111.5z" />
    <glyph glyph-name="uni2083" unicode="&#x2083;" horiz-adv-x="724" 
d="M451 174q41 -5 78.5 -17.5t71.5 -34.5t54.5 -58t20.5 -82q0 -112 -86 -171t-236 -59q-141 0 -221 63t-92 175h172q5 -52 41.5 -81.5t99.5 -29.5t106.5 31t43.5 84q0 59 -52 85.5t-126 26.5h-50v134h50q70 0 112.5 27.5t42.5 70.5q0 41 -35.5 67.5t-91.5 26.5
q-55 0 -88.5 -28t-36.5 -72h-172q6 97 88 162t209 65q128 0 213.5 -56t85.5 -145q0 -154 -202 -184z" />
    <glyph glyph-name="uni2084" unicode="&#x2084;" horiz-adv-x="743" 
d="M594 102h108v-133h-108v-202h-168v202h-393v168l237 408h324v-443zM426 524l-242 -422h242v422z" />
    <glyph glyph-name="uni2085" unicode="&#x2085;" horiz-adv-x="745" 
d="M442 301q115 0 185.5 -73t70.5 -199q0 -129 -88 -203t-231 -74q-129 0 -219.5 65t-102.5 177h172q9 -52 49 -83.5t101 -31.5q65 0 106 42t41 108q0 67 -40 106t-107 39q-53 0 -92 -25t-58 -67l-166 14l41 449h543v-133h-387l-20 -234q23 50 76.5 86.5t125.5 36.5z" />
    <glyph glyph-name="uni2086" unicode="&#x2086;" horiz-adv-x="761" 
d="M438 287q121 0 196 -72.5t75 -194.5q0 -117 -89.5 -192.5t-234.5 -75.5q-153 0 -241.5 101t-88.5 303q0 201 91 302t239 101q128 0 204.5 -61t100.5 -154h-172q-31 88 -129 88q-60 0 -100.5 -41t-56.5 -107t-11 -149q21 66 79.5 109t137.5 43zM385 -121q67 0 109.5 40
t42.5 101q0 63 -40.5 101.5t-111.5 38.5q-66 0 -109 -40t-43 -95q0 -60 41 -103t111 -43z" />
    <glyph glyph-name="uni2087" unicode="&#x2087;" horiz-adv-x="600" 
d="M31 412v133h542v-168l-305 -610h-207l347 645h-377z" />
    <glyph glyph-name="uni2088" unicode="&#x2088;" horiz-adv-x="765" 
d="M512 174q28 -5 54.5 -13t54.5 -23.5t48.5 -36t34 -52t13.5 -69.5q0 -102 -92 -165t-242 -63t-242 63t-92 165q0 38 13.5 69.5t34 52t48.5 36t54.5 23.5t54.5 13q-77 18 -129.5 63t-52.5 123q0 87 86.5 143t224.5 56t224.5 -56t86.5 -143q0 -78 -52.5 -123t-129.5 -63z
M383 432q-65 0 -102 -28.5t-37 -71.5q0 -45 35.5 -73t103.5 -28t103.5 28t35.5 73q0 43 -37 71.5t-102 28.5zM383 -121q70 0 116 30.5t46 84.5t-46.5 82t-115.5 28t-115.5 -28t-46.5 -82t46 -84.5t116 -30.5z" />
    <glyph glyph-name="uni2089" unicode="&#x2089;" horiz-adv-x="761" 
d="M377 559q153 0 241.5 -100.5t88.5 -302.5q0 -201 -91 -302.5t-239 -101.5q-128 0 -204.5 61t-100.5 154h172q31 -88 129 -88q60 0 100.5 41t56.5 107t11 149q-21 -66 -79.5 -108.5t-137.5 -42.5q-121 0 -196 72t-75 194q0 117 89.5 192.5t234.5 75.5zM377 152
q66 0 108.5 39.5t42.5 95.5q0 60 -40.5 102.5t-110.5 42.5q-67 0 -109.5 -40t-42.5 -101q0 -63 40.5 -101t111.5 -38z" />
    <glyph glyph-name="uni208A" unicode="&#x208a;" horiz-adv-x="671" 
d="M399 207h215v-123h-215v-221h-127v221h-215v123h215v213h127v-213z" />
    <glyph glyph-name="uni208B" unicode="&#x208b;" horiz-adv-x="653" 
d="M575 84h-497v123h497v-123z" />
    <glyph glyph-name="uni208C" unicode="&#x208c;" horiz-adv-x="671" 
d="M596 195h-520v122h520v-122zM596 -27h-520v123h520v-123z" />
    <glyph glyph-name="uni208D" unicode="&#x208d;" horiz-adv-x="452" 
d="M406 -338h-170q-164 236 -164 494q0 249 164 485h170q-162 -233 -162 -485q0 -266 162 -494z" />
    <glyph glyph-name="uni208E" unicode="&#x208e;" horiz-adv-x="454" 
d="M215 -338h-168q162 234 162 494q0 253 -162 485h168q166 -237 166 -485q0 -258 -166 -494z" />
    <glyph glyph-name="uni20A9" unicode="&#x20a9;" horiz-adv-x="2021" 
d="M1935 1047v-168h-227l-27 -209h209v-168h-229l-62 -502h-389l-194 1548l-197 -1548h-389l-61 502h-238v168h217l-26 209h-236v168h215l-63 509h196l193 -1548l194 1548h387l195 -1548l192 1548h197l-63 -509h206z" />
    <glyph glyph-name="Euro" unicode="&#x20ac;" horiz-adv-x="1667" 
d="M1350 434h209q-68 -207 -221 -332t-363 -125q-230 0 -397.5 154t-225.5 408h-262l60 168h178q-2 23 -2 71q0 49 2 74h-211l59 168h176q58 254 223 406.5t394 152.5q210 0 362.5 -125t222.5 -332h-208q-54 140 -154 217.5t-223 77.5q-152 0 -259.5 -105t-150.5 -292h653
l-59 -168h-616q-2 -25 -2 -74q0 -48 2 -71h565l-60 -168h-483q44 -189 154 -294.5t262 -105.5q124 0 223.5 77.5t151.5 217.5z" />
    <glyph glyph-name="uni20B8" unicode="&#x20b8;" horiz-adv-x="1294" 
d="M68 1389v167h1159v-167h-1159zM545 1075h-477v168h1159v-168h-477v-1075h-205v1075z" />
    <glyph glyph-name="uni20B9" unicode="&#x20b9;" horiz-adv-x="1382" 
d="M1307 1556v-167h-332q82 -85 102 -197h230v-168h-230q-30 -171 -179.5 -268t-365.5 -97h-151l766 -659h-303l-707 608v219h393q131 0 218.5 51.5t115.5 145.5h-727v168h727q-28 94 -115.5 145.5t-218.5 51.5h-393v167h1170z" />
    <glyph glyph-name="uni20BA" unicode="&#x20ba;" horiz-adv-x="1384" 
d="M1090 649h204q0 -337 -165.5 -493t-485.5 -156h-336v575l-180 -55v172l180 53v152l-180 -55v172l180 53v489h205v-428l442 134v-170l-442 -134v-151l442 133v-170l-442 -133v-469h121q231 0 344 117t113 364z" />
    <glyph glyph-name="uni20BD" unicode="&#x20bd;" horiz-adv-x="1480" 
d="M762 647h-236v-145h406v-168h-406v-334h-204v334h-199v168h199v145h-199v168h199v741h440q297 0 460.5 -112.5t163.5 -341.5t-163.5 -342t-460.5 -113zM768 1389h-242v-574h242q410 0 410 287t-410 287z" />
    <glyph glyph-name="uni20BF" unicode="&#x20bf;" horiz-adv-x="1413" 
d="M1298 428q0 -162 -96 -265.5t-274 -142.5v-288h-176v268h-45h-99v-268h-176v268h-225v1556h225v259h176v-259h107h37v259h176v-283q163 -39 244 -140.5t81 -236.5q0 -82 -31 -147.5t-86 -108t-123 -67.5t-147 -33q89 -3 166 -28.5t137 -70.5t94.5 -115t34.5 -157z
M1044 1135q0 121 -90 187.5t-239 66.5h-303v-506h303q150 0 239.5 65t89.5 187zM412 168h295q182 0 282.5 73t100.5 201q0 129 -100 201t-283 72h-295v-547z" />
    <glyph glyph-name="uni2113" unicode="&#x2113;" horiz-adv-x="1015" 
d="M473 272q0 -147 139 -147q121 0 236 92v-151q-114 -89 -266 -89q-310 0 -310 312v4v80l-118 -82l-95 139l213 148v573q0 89 22.5 165.5t66 135.5t113 93t157.5 34q334 0 334 -365q0 -180 -108 -345t-308 -304l-76 -53v-236v-4zM631 1432q-67 0 -112.5 -72.5t-45.5 -202.5
v-436q287 236 287 500q0 211 -129 211z" />
    <glyph glyph-name="uni2116" unicode="&#x2116;" horiz-adv-x="2564" 
d="M2118 1579q174 0 278.5 -106.5t104.5 -284.5t-104.5 -284.5t-278.5 -106.5t-279.5 106.5t-105.5 284.5t105.5 284.5t279.5 106.5zM633 1556l702 -1548v1548h207v-1556h-428l-702 1548v-1548h-207v1556h428zM2118 930q92 0 143 68t51 190t-51 190t-143 68t-144.5 -68.5
t-52.5 -189.5t52.5 -189.5t144.5 -68.5z" />
    <glyph glyph-name="uni2117" unicode="&#x2117;" horiz-adv-x="1916" 
d="M958 1620q171 0 327 -67t269 -180t179.5 -268.5t66.5 -326.5t-66.5 -326.5t-179.5 -268t-269 -179.5t-327 -67t-327 67t-268.5 179.5t-179 268t-66.5 326.5t66.5 326.5t179 268.5t268.5 180t327 67zM958 96q186 0 343 91t248 248t91 343q0 187 -91 344t-248 248.5
t-343 91.5t-343 -91.5t-248 -248.5t-91 -344q0 -186 91 -343t248 -248t343 -91zM645 1253h361q179 0 286 -85t107 -222q0 -138 -107.5 -223.5t-285.5 -85.5h-189v-340h-172v956zM817 778h180q226 0 226 168q0 166 -226 166h-180v-334z" />
    <glyph glyph-name="uni2120" unicode="&#x2120;" horiz-adv-x="1757" 
d="M410 1276l100 -23q110 -24 157.5 -74t47.5 -135q0 -106 -82 -167.5t-217 -61.5q-128 0 -211 66.5t-94 169.5h143q7 -61 52.5 -96t115.5 -35q71 0 113.5 31t42.5 79q0 46 -38.5 69.5t-111.5 39.5l-98 20q-100 22 -152.5 68t-52.5 129q0 91 78.5 151t199.5 60
q130 0 207.5 -56.5t89.5 -148.5h-143q-13 48 -56 74t-102 26t-99 -27.5t-40 -68.5q0 -35 33.5 -53t116.5 -37zM1599 1556v-737h-133v719l-153 -719h-242l-151 709v-709h-134v737h254l152 -708l149 708h258z" />
    <glyph glyph-name="trademark" unicode="&#x2122;" horiz-adv-x="1708" 
d="M305 1446h-242v110h617v-110h-242v-627h-133v627zM1542 1556v-737h-133v719l-154 -719h-241l-152 709v-709h-133v737h254l152 -708l149 708h258z" />
    <glyph glyph-name="uni2150" unicode="&#x2150;" horiz-adv-x="1521" 
d="M414 778h-168v537h-170v133h28q81 0 117 20.5t55 71.5l7 16h131v-778zM86 0l981 1556h201l-981 -1556h-201zM911 645v133h543v-168l-305 -610h-207l346 645h-377z" />
    <glyph glyph-name="uni2151" unicode="&#x2151;" horiz-adv-x="1560" 
d="M412 778h-168v537h-170v133h28q81 0 117 20.5t55 71.5l7 16h131v-778zM84 0l981 1556h201l-981 -1556h-201zM1167 793q153 0 241.5 -101t88.5 -303q0 -201 -91 -302t-239 -101q-128 0 -204.5 61t-100.5 154h172q31 -88 129 -88q60 0 100.5 41t56.5 107t11 149
q-21 -66 -79.5 -109t-137.5 -43q-121 0 -195.5 72t-74.5 194q0 117 89.5 193t233.5 76zM1167 385q66 0 109 40t43 95q0 60 -41 103t-111 43q-67 0 -109 -40.5t-42 -101.5q0 -63 40 -101t111 -38z" />
    <glyph glyph-name="uni2152" unicode="&#x2152;" horiz-adv-x="2033" 
d="M416 778h-168v537h-170v133h28q81 0 117.5 20.5t55.5 71.5l6 16h131v-778zM289 0h-201l981 1556h201zM1640 793q156 0 242 -104.5t86 -299.5t-86 -299t-242 -104t-241.5 104t-85.5 299t85.5 299.5t241.5 104.5zM1087 762l7 16h131v-778h-168v537h-170v133h28
q81 0 117 20.5t55 71.5zM1640 113q156 0 156 276q0 277 -156 277q-155 0 -155 -277q0 -276 155 -276z" />
    <glyph glyph-name="uni2153" unicode="&#x2153;" horiz-adv-x="1523" 
d="M410 778h-168v537h-170v133h28q81 0 117 20.5t55 71.5l7 16h131v-778zM82 0l981 1556h201l-981 -1556h-201zM1229 408q57 -7 104.5 -26t84 -62.5t36.5 -104.5q0 -112 -85.5 -170.5t-235.5 -58.5q-142 0 -222 63t-92 174h172q5 -52 41.5 -81t100.5 -29q63 0 106 30.5
t43 83.5q0 59 -52.5 86t-125.5 27h-49v133h49q70 0 113 27.5t43 70.5q0 41 -36 68t-91 27t-88.5 -28.5t-36.5 -72.5h-172q6 97 88.5 162.5t208.5 65.5q128 0 213.5 -56t85.5 -145q0 -153 -203 -184z" />
    <glyph glyph-name="uni2154" unicode="&#x2154;" horiz-adv-x="1771" 
d="M293 911h409v-133h-618v168l340 268q47 36 68.5 63.5t21.5 65.5q0 43 -32.5 72t-90.5 29q-59 0 -93.5 -30t-37.5 -81h-172q6 104 88 171t215 67q134 0 214.5 -65.5t80.5 -157.5q0 -73 -33 -128.5t-106 -111.5zM330 0l981 1556h200l-981 -1556h-200zM1477 408
q57 -7 104.5 -26t84 -62.5t36.5 -104.5q0 -112 -86 -170.5t-236 -58.5q-142 0 -221.5 63t-91.5 174h172q5 -52 41 -81t100 -29q63 0 106.5 30.5t43.5 83.5q0 59 -52.5 86t-125.5 27h-49v133h49q70 0 112.5 27.5t42.5 70.5q0 41 -36 68t-91 27t-88.5 -28.5t-36.5 -72.5h-172
q6 97 88.5 162.5t208.5 65.5q128 0 213.5 -56t85.5 -145q0 -154 -202 -184z" />
    <glyph glyph-name="uni2155" unicode="&#x2155;" horiz-adv-x="1595" 
d="M410 778h-168v537h-170v133h28q81 0 117 20.5t55 71.5l7 16h131v-778zM82 0l981 1556h201l-981 -1556h-201zM1270 535q115 0 185.5 -73.5t70.5 -199.5q0 -128 -88 -202t-232 -74q-129 0 -219 64.5t-102 176.5h172q9 -52 48.5 -83t100.5 -31q65 0 106.5 41.5t41.5 107.5
q0 67 -40.5 106.5t-107.5 39.5q-52 0 -91 -25t-58 -68l-166 15l41 448h543v-133h-388l-20 -233q23 50 77 86.5t126 36.5z" />
    <glyph glyph-name="uni2156" unicode="&#x2156;" horiz-adv-x="1843" 
d="M293 911h409v-133h-618v168l340 268q47 36 68.5 63.5t21.5 65.5q0 43 -32.5 72t-90.5 29q-59 0 -93.5 -30t-37.5 -81h-172q6 104 88 171t215 67q134 0 214.5 -65.5t80.5 -157.5q0 -73 -33 -128.5t-106 -111.5zM330 0l981 1556h200l-981 -1556h-200zM1518 535
q115 0 185.5 -73.5t70.5 -199.5q0 -128 -88 -202t-232 -74q-129 0 -219 64.5t-102 176.5h172q9 -52 48.5 -83t100.5 -31q65 0 106.5 41.5t41.5 107.5q0 67 -40.5 106.5t-107.5 39.5q-52 0 -91 -25t-58 -68l-166 15l41 448h542v-133h-387l-20 -233q23 50 77 86.5t126 36.5z
" />
    <glyph glyph-name="uni2157" unicode="&#x2157;" horiz-adv-x="1804" 
d="M702 993q0 -112 -85.5 -170.5t-235.5 -58.5q-142 0 -221.5 63t-91.5 174h172q5 -52 41 -81t100 -29q63 0 106 31t43 84q0 59 -52 85.5t-126 26.5h-49v133h49q70 0 113 28t43 71q0 41 -35.5 67.5t-91.5 26.5q-55 0 -88.5 -28.5t-36.5 -72.5h-172q6 97 88.5 162.5
t208.5 65.5q128 0 213.5 -56t85.5 -145q0 -153 -203 -184q57 -7 104.5 -26t84 -62.5t36.5 -104.5zM291 0l981 1556h201l-981 -1556h-201zM1479 535q115 0 185.5 -73.5t70.5 -199.5q0 -128 -88 -202t-232 -74q-129 0 -219 64.5t-102 176.5h172q9 -52 48.5 -83t100.5 -31
q65 0 106.5 41.5t41.5 107.5q0 67 -40.5 106.5t-107.5 39.5q-52 0 -91 -25t-58 -68l-166 15l41 448h542v-133h-387l-20 -233q23 50 77 86.5t126 36.5z" />
    <glyph glyph-name="uni2158" unicode="&#x2158;" horiz-adv-x="1837" 
d="M625 778h-168v203h-394v168l238 407h324v-442h108v-133h-108v-203zM315 0l981 1556h201l-981 -1556h-201zM457 1536l-242 -422h242v422zM1503 535q115 0 185.5 -73.5t70.5 -199.5q0 -128 -88 -202t-231 -74q-129 0 -219.5 64.5t-102.5 176.5h172q9 -52 49 -83t101 -31
q65 0 106 41.5t41 107.5q0 67 -40.5 106.5t-106.5 39.5q-53 0 -92 -25t-58 -68l-166 15l41 448h543v-133h-387l-21 -233q23 50 77 86.5t126 36.5z" />
    <glyph glyph-name="uni2159" unicode="&#x2159;" horiz-adv-x="1570" 
d="M412 778h-168v537h-170v133h28q81 0 117 20.5t55 71.5l7 16h131v-778zM84 0l981 1556h201l-981 -1556h-201zM1231 520q121 0 195.5 -72t74.5 -194q0 -117 -89 -192.5t-234 -75.5q-153 0 -241.5 100.5t-88.5 302.5q0 201 91 302.5t239 101.5q128 0 204.5 -61t100.5 -154
h-172q-31 88 -129 88q-60 0 -100.5 -41t-56.5 -107t-11 -149q21 66 79.5 108.5t137.5 42.5zM1178 113q67 0 109 40t42 101q0 63 -40 101t-111 38q-66 0 -109 -40t-43 -95q0 -60 41 -102.5t111 -42.5z" />
    <glyph glyph-name="uni215A" unicode="&#x215a;" horiz-adv-x="1765" 
d="M713 1040q0 -128 -88 -202t-232 -74q-129 0 -219 65t-102 177h172q9 -52 49 -83.5t100 -31.5q65 0 106.5 41.5t41.5 107.5q0 67 -40.5 106.5t-107.5 39.5q-53 0 -91.5 -24.5t-57.5 -67.5l-166 14l41 448h543v-133h-388l-20 -233q23 50 77 86.5t126 36.5
q115 0 185.5 -73.5t70.5 -199.5zM279 0l981 1556h200l-981 -1556h-200zM1425 520q121 0 196 -72t75 -194q0 -117 -89.5 -192.5t-234.5 -75.5q-153 0 -241.5 100.5t-88.5 302.5q0 201 91 302.5t239 101.5q128 0 204.5 -61t100.5 -154h-172q-31 88 -129 88q-60 0 -100.5 -41
t-56.5 -107t-11 -149q21 66 79.5 108.5t137.5 42.5zM1372 113q67 0 109.5 40t42.5 101q0 63 -40.5 101t-111.5 38q-66 0 -108.5 -39.5t-42.5 -95.5q0 -60 40.5 -102.5t110.5 -42.5z" />
    <glyph glyph-name="oneeighth" unicode="&#x215b;" horiz-adv-x="1574" 
d="M410 778h-168v537h-170v133h28q81 0 117 20.5t55 71.5l7 16h131v-778zM82 0l981 1556h201l-981 -1556h-201zM1303 408q36 -6 68.5 -18.5t65 -34t51.5 -58.5t19 -84q0 -102 -91.5 -164.5t-241.5 -62.5t-242 62.5t-92 164.5q0 47 19 84t51.5 58.5t65 34t68.5 18.5
q-77 18 -129.5 63t-52.5 123q0 87 87 143t225 56t224.5 -56t86.5 -143q0 -78 -52.5 -123t-129.5 -63zM1174 666q-65 0 -102.5 -29t-37.5 -72q0 -45 36 -72.5t104 -27.5t103.5 27.5t35.5 72.5q0 43 -37 72t-102 29zM1174 113q70 0 115.5 30t45.5 84t-46 82.5t-115 28.5
t-115.5 -28.5t-46.5 -82.5t46 -84t116 -30z" />
    <glyph glyph-name="threeeighths" unicode="&#x215c;" horiz-adv-x="1785" 
d="M702 993q0 -112 -85.5 -170.5t-235.5 -58.5q-142 0 -221.5 63t-91.5 174h172q5 -52 41 -81t100 -29q63 0 106 31t43 84q0 59 -52 85.5t-126 26.5h-49v133h49q70 0 113 28t43 71q0 41 -35.5 67.5t-91.5 26.5q-55 0 -88.5 -28.5t-36.5 -72.5h-172q6 97 88.5 162.5
t208.5 65.5q128 0 213.5 -56t85.5 -145q0 -153 -203 -184q57 -7 104.5 -26t84 -62.5t36.5 -104.5zM291 0l981 1556h201l-981 -1556h-201zM1511 408q36 -6 69 -18.5t65 -34t51.5 -58.5t19.5 -84q0 -102 -92 -164.5t-242 -62.5t-241.5 62.5t-91.5 164.5q0 47 19 84t51.5 58.5
t65 34t68.5 18.5q-77 18 -129.5 63t-52.5 123q0 87 86.5 143t224.5 56t225 -56t87 -143q0 -78 -53 -123t-130 -63zM1382 666q-65 0 -102 -29t-37 -72q0 -45 35.5 -72.5t103.5 -27.5t104 27.5t36 72.5q0 43 -37.5 72t-102.5 29zM1382 113q70 0 116 30t46 84t-46.5 82.5
t-115.5 28.5t-115 -28.5t-46 -82.5t45.5 -84t115.5 -30z" />
    <glyph glyph-name="fiveeighths" unicode="&#x215d;" horiz-adv-x="1771" 
d="M713 1040q0 -128 -88 -202t-232 -74q-129 0 -219 65t-102 177h172q9 -52 49 -83.5t100 -31.5q65 0 106.5 41.5t41.5 107.5q0 67 -40.5 106.5t-107.5 39.5q-53 0 -91.5 -24.5t-57.5 -67.5l-166 14l41 448h543v-133h-388l-20 -233q23 50 77 86.5t126 36.5
q115 0 185.5 -73.5t70.5 -199.5zM279 0l981 1556h200l-981 -1556h-200zM1499 408q36 -6 69 -18.5t65 -34t51.5 -58.5t19.5 -84q0 -102 -92 -164.5t-242 -62.5t-242 62.5t-92 164.5q0 47 19.5 84t51.5 58.5t65 34t69 18.5q-77 18 -129.5 63t-52.5 123q0 87 86.5 143t224.5 56
t224.5 -56t86.5 -143q0 -78 -52.5 -123t-129.5 -63zM1370 666q-65 0 -102 -29t-37 -72q0 -45 35.5 -72.5t103.5 -27.5t103.5 27.5t35.5 72.5q0 43 -37 72t-102 29zM1370 113q70 0 116 30t46 84t-46.5 82.5t-115.5 28.5t-115.5 -28.5t-46.5 -82.5t46 -84t116 -30z" />
    <glyph glyph-name="seveneighths" unicode="&#x215e;" horiz-adv-x="1609" 
d="M324 778h-207l346 645h-377v133h543v-167zM117 0l981 1556h200l-981 -1556h-200zM1337 408q36 -6 69 -18.5t65 -34t51.5 -58.5t19.5 -84q0 -102 -92 -164.5t-242 -62.5t-242 62.5t-92 164.5q0 47 19.5 84t51.5 58.5t65 34t69 18.5q-77 18 -129.5 63t-52.5 123
q0 87 86.5 143t224.5 56t225 -56t87 -143q0 -78 -53 -123t-130 -63zM1208 666q-65 0 -102 -29t-37 -72q0 -45 35.5 -72.5t103.5 -27.5t104 27.5t36 72.5q0 43 -37.5 72t-102.5 29zM1208 113q70 0 116 30t46 84t-46.5 82.5t-115.5 28.5t-115 -28.5t-46 -82.5t45.5 -84
t115.5 -30z" />
    <glyph glyph-name="uni215F" unicode="&#x215f;" horiz-adv-x="1343" 
d="M449 778h-168v537h-170v133h28q81 0 117 20.5t55 71.5l6 16h132v-778zM121 0l981 1556h201l-981 -1556h-201z" />
    <glyph glyph-name="uni2189" unicode="&#x2189;" horiz-adv-x="1708" 
d="M725 1167q0 -195 -86 -299t-242 -104t-241.5 104t-85.5 299t85.5 299.5t241.5 104.5t242 -104.5t86 -299.5zM264 0l981 1556h201l-981 -1556h-201zM242 1167q0 -276 155 -276q156 0 156 276q0 277 -156 277q-155 0 -155 -277zM1411 408q57 -7 104.5 -26t84 -62.5
t36.5 -104.5q0 -112 -85.5 -170.5t-235.5 -58.5q-142 0 -222 63t-92 174h173q5 -52 41 -81t100 -29q63 0 106 30.5t43 83.5q0 59 -52.5 86t-125.5 27h-49v133h49q70 0 113 27.5t43 70.5q0 41 -36 68t-91 27t-88.5 -28.5t-36.5 -72.5h-172q6 97 88.5 162.5t208.5 65.5
q128 0 213.5 -56t85.5 -145q0 -153 -203 -184z" />
    <glyph glyph-name="arrowleft" unicode="&#x2190;" horiz-adv-x="1576" 
d="M434 868h1059v-182h-1057l465 -477h-248l-516 569l516 570h248z" />
    <glyph glyph-name="arrowup" unicode="&#x2191;" horiz-adv-x="1576" 
d="M788 1456l570 -516v-248l-477 465v-1057h-183v1059l-479 -467v248z" />
    <glyph glyph-name="arrowright" unicode="&#x2192;" horiz-adv-x="1576" 
d="M676 1348h248l516 -570l-516 -569h-248l465 477h-1057v182h1059z" />
    <glyph glyph-name="arrowdown" unicode="&#x2193;" horiz-adv-x="1576" 
d="M881 1456v-1057l477 465v-248l-570 -516l-569 516v248l479 -467v1059h183z" />
    <glyph glyph-name="uni2196" unicode="&#x2196;" horiz-adv-x="1576" 
d="M588 1124l811 -813l-127 -127l-811 811v-682l-172 170v813h813l170 -172h-684z" />
    <glyph glyph-name="uni2197" unicode="&#x2197;" horiz-adv-x="1576" 
d="M305 1124l170 172h813v-813l-172 -170v682l-811 -811l-127 127l811 813h-684z" />
    <glyph glyph-name="uni2198" unicode="&#x2198;" horiz-adv-x="1576" 
d="M1116 561v682l172 -170v-813h-813l-170 172h684l-811 813l127 127z" />
    <glyph glyph-name="uni2199" unicode="&#x2199;" horiz-adv-x="1576" 
d="M1272 1372l127 -127l-811 -813h684l-170 -172h-813v813l172 170v-682z" />
    <glyph glyph-name="uni21A4" unicode="&#x21a4;" horiz-adv-x="1576" 
d="M1227 868v480h182v-1139h-182v477h-875l465 -477h-248l-516 569l516 570h248l-467 -480h877z" />
    <glyph glyph-name="uni21A5" unicode="&#x21a5;" horiz-adv-x="1576" 
d="M1358 1022v-248l-477 465v-917h477v-183h-1139v183h479v919l-479 -467v248l569 516z" />
    <glyph glyph-name="uni21A6" unicode="&#x21a6;" horiz-adv-x="1576" 
d="M760 1348h248l516 -570l-516 -569h-248l465 477h-875v-477h-182v1139h182v-480h877z" />
    <glyph glyph-name="uni21A7" unicode="&#x21a7;" horiz-adv-x="1576" 
d="M1358 1417v-182h-477v-918l477 465v-247l-570 -517l-569 517v247l479 -467v920h-479v182h1139z" />
    <glyph glyph-name="uni21B0" unicode="&#x21b0;" horiz-adv-x="1576" 
d="M336 868h1059v-868h-178v686h-879l465 -477h-248l-516 569l516 570h248z" />
    <glyph glyph-name="uni21B1" unicode="&#x21b1;" horiz-adv-x="1576" 
d="M774 1348h248l516 -570l-516 -569h-248l465 477h-879v-686h-178v868h1059z" />
    <glyph glyph-name="uni21B2" unicode="&#x21b2;" horiz-adv-x="1576" 
d="M1217 870v686h178v-868h-1059l467 -479h-248l-516 569l516 570h248l-465 -478h879z" />
    <glyph glyph-name="uni21B3" unicode="&#x21b3;" horiz-adv-x="1576" 
d="M774 1348h248l516 -570l-516 -569h-248l467 479h-1059v868h178v-686h879z" />
    <glyph glyph-name="partialdiff" unicode="&#x2202;" horiz-adv-x="1265" 
d="M281 1419v154q190 -20 339 -75.5t249.5 -137t166 -191.5t94.5 -234.5t29 -270.5q0 -336 -140.5 -511.5t-420.5 -175.5q-144 0 -264 60.5t-194 180t-74 276.5q0 158 68 273.5t181.5 172.5t257.5 57q82 0 153.5 -24.5t122 -65.5t85 -85.5t55.5 -92.5q-1 138 -43 254
t-126 208.5t-221 152t-318 75.5zM608 125q146 0 240 104.5t94 270.5q0 164 -93 257t-241 93t-243 -96t-95 -260q0 -165 95.5 -267t242.5 -102z" />
    <glyph glyph-name="product" unicode="&#x220f;" horiz-adv-x="1894" 
d="M1839 1556v-184h-299v-1648h-207v1648h-772v-1648h-207v1648h-299v184h1784z" />
    <glyph glyph-name="summation" unicode="&#x2211;" horiz-adv-x="1396" 
d="M1032 664l-698 -756h995v-184h-1241v245l643 693l-643 649v245h1221v-184h-973z" />
    <glyph glyph-name="minus" unicode="&#x2212;" horiz-adv-x="1200" 
d="M1092 475h-983v156h983v-156z" />
    <glyph glyph-name="radical" unicode="&#x221a;" horiz-adv-x="1376" 
d="M674 -131l497 1687h211l-540 -1832h-332l-236 698h-258v184h410z" />
    <glyph glyph-name="infinity" unicode="&#x221e;" horiz-adv-x="2293" 
d="M1679 1063q142 0 256.5 -67.5t178 -184t63.5 -256.5q0 -215 -141.5 -361.5t-356.5 -146.5q-85 0 -163 27t-142.5 76.5t-116 105.5t-100.5 127l-10 14l-10 -14q-234 -336 -523 -336q-142 0 -256 67.5t-177.5 183.5t-63.5 257q0 140 63.5 256.5t177.5 184t256 67.5
q289 0 523 -338l10 -14l10 14q234 338 522 338zM991 485l47 70l-47 70q-38 55 -73 96.5t-82 85t-102 67t-113 23.5q-136 0 -226 -94t-90 -248t90 -248t226 -94q184 0 370 272zM1673 213q136 0 226 94t90 248t-90 248t-226 94q-58 0 -113 -23.5t-102 -67t-82 -85t-73 -96.5
l-48 -70l48 -70q186 -272 370 -272z" />
    <glyph glyph-name="integral" unicode="&#x222b;" horiz-adv-x="808" 
d="M137 -401h-143v151h123q101 0 143.5 49.5t42.5 167.5v1241q0 348 365 348h143v-151h-123q-101 0 -142.5 -49t-41.5 -168v-1241q0 -348 -367 -348z" />
    <glyph glyph-name="approxequal" unicode="&#x2248;" horiz-adv-x="1425" 
d="M238 618l-103 103q149 194 328 194q55 0 107 -12.5t141 -48.5q153 -63 237 -63q68 0 121 33t117 100l102 -103q-151 -194 -327 -194q-56 0 -107.5 12.5t-140.5 48.5q-159 64 -240 64q-67 0 -121 -33.5t-114 -100.5zM238 195l-103 102q150 195 328 195q55 0 106.5 -13
t141.5 -49q153 -63 237 -63q68 0 121 33t117 100l102 -103q-151 -194 -327 -194q-56 0 -107.5 12.5t-140.5 48.5q-159 64 -240 64q-67 0 -121 -33t-114 -100z" />
    <glyph glyph-name="notequal" unicode="&#x2260;" horiz-adv-x="1318" 
d="M1174 846v-156h-336l-156 -268h492v-156h-582l-156 -266h-194l155 266h-252v156h342l156 268h-498v156h588l148 252h194l-147 -252h246z" />
    <glyph glyph-name="lessequal" unicode="&#x2264;" horiz-adv-x="1224" 
d="M127 803l960 291v-162l-837 -252l837 -252v-160l-960 291v244zM1087 0h-960v156h960v-156z" />
    <glyph glyph-name="greaterequal" unicode="&#x2265;" horiz-adv-x="1224" 
d="M137 932v162l961 -291v-244l-961 -291v160l838 252zM1098 0h-961v156h961v-156z" />
    <glyph glyph-name="uni2300" unicode="&#x2300;" horiz-adv-x="1366" 
d="M1153 1141l119 -119l-131 -131q114 -152 114 -342q0 -155 -76.5 -287t-208 -209.5t-286.5 -77.5q-189 0 -340 113l-131 -133l-119 119l131 133q-112 154 -112 342q0 155 76.5 286.5t208 208t286.5 76.5q190 0 338 -110zM283 549q0 -119 65 -219l553 557q-97 63 -217 63
q-166 0 -283.5 -117.5t-117.5 -283.5zM1085 549q0 119 -65 219l-553 -557q98 -64 217 -64q166 0 283.5 118t117.5 284z" />
    <glyph glyph-name="uni2460" unicode="&#x2460;" horiz-adv-x="1912" 
d="M956 1636q175 0 334 -68t274 -182.5t183 -273.5t68 -334t-68 -334t-183 -273.5t-274 -182.5t-334 -68t-334 68t-273.5 182.5t-182.5 273.5t-68 334t68 334t182.5 273.5t273.5 182.5t334 68zM956 76q143 0 273.5 55.5t224.5 149.5t149.5 224t55.5 273q0 191 -94 353
t-256 256t-353 94q-143 0 -273 -55.5t-224 -149.5t-149.5 -224.5t-55.5 -273.5t55.5 -273t149.5 -224t224 -149.5t273 -55.5zM903 1229l4 16h162v-934h-195v643h-200v156h39q85 0 130 28t60 91z" />
    <glyph glyph-name="uni2461" unicode="&#x2461;" horiz-adv-x="1912" 
d="M956 1636q175 0 334 -68t274 -182.5t183 -273.5t68 -334t-68 -334t-183 -273.5t-274 -182.5t-334 -68t-334 68t-273.5 182.5t-182.5 273.5t-68 334t68 334t182.5 273.5t273.5 182.5t334 68zM956 76q143 0 273.5 55.5t224.5 149.5t149.5 224t55.5 273q0 191 -94 353
t-256 256t-353 94q-143 0 -273 -55.5t-224 -149.5t-149.5 -224.5t-55.5 -273.5t55.5 -273t149.5 -224t224 -149.5t273 -55.5zM1133 715l-322 -248h514v-156h-735v199l416 324q50 39 75 74.5t25 76.5q0 55 -42 91t-112 36t-113.5 -35.5t-47.5 -103.5h-199q7 132 107 210.5
t253 78.5q157 0 255 -77.5t98 -195.5q0 -58 -24 -109t-58.5 -86.5t-89.5 -78.5z" />
    <glyph glyph-name="uni2462" unicode="&#x2462;" horiz-adv-x="1912" 
d="M956 1636q175 0 334 -68t274 -182.5t183 -273.5t68 -334t-68 -334t-183 -273.5t-274 -182.5t-334 -68t-334 68t-273.5 182.5t-182.5 273.5t-68 334t68 334t182.5 273.5t273.5 182.5t334 68zM956 76q143 0 273.5 55.5t224.5 149.5t149.5 224t55.5 273q0 191 -94 353
t-256 256t-353 94q-143 0 -273 -55.5t-224 -149.5t-149.5 -224.5t-55.5 -273.5t55.5 -273t149.5 -224t224 -149.5t273 -55.5zM1067 799q47 -5 90 -19.5t82.5 -40.5t63.5 -69.5t24 -98.5q0 -133 -104 -204.5t-275 -71.5q-165 0 -258.5 75.5t-107.5 209.5h198
q5 -63 48.5 -99.5t119.5 -36.5q72 0 126 36.5t54 103.5q0 137 -213 137h-61v156h61q95 0 141 33.5t46 86.5q0 52 -43 83.5t-111 31.5q-70 0 -107 -34t-42 -87h-199q9 119 106.5 195t241.5 76q149 0 250.5 -67.5t101.5 -174.5q0 -181 -233 -221z" />
    <glyph glyph-name="uni2463" unicode="&#x2463;" horiz-adv-x="1912" 
d="M956 1636q175 0 334 -68t274 -182.5t183 -273.5t68 -334t-68 -334t-183 -273.5t-274 -182.5t-334 -68t-334 68t-273.5 182.5t-182.5 273.5t-68 334t68 334t182.5 273.5t273.5 182.5t334 68zM956 76q143 0 273.5 55.5t224.5 149.5t149.5 224t55.5 273q0 191 -94 353
t-256 256t-353 94q-143 0 -273 -55.5t-224 -149.5t-149.5 -224.5t-55.5 -273.5t55.5 -273t149.5 -224t224 -149.5t273 -55.5zM1178 1245v-534h131v-156h-131v-244h-195v244h-471v195l305 495h361zM983 1208l-305 -497h305v497z" />
    <glyph glyph-name="uni2464" unicode="&#x2464;" horiz-adv-x="1912" 
d="M956 1636q175 0 334 -68t274 -182.5t183 -273.5t68 -334t-68 -334t-183 -273.5t-274 -182.5t-334 -68t-334 68t-273.5 182.5t-182.5 273.5t-68 334t68 334t182.5 273.5t273.5 182.5t334 68zM956 76q143 0 273.5 55.5t224.5 149.5t149.5 224t55.5 273q0 191 -94 353
t-256 256t-353 94q-143 0 -273 -55.5t-224 -149.5t-149.5 -224.5t-55.5 -273.5t55.5 -273t149.5 -224t224 -149.5t273 -55.5zM1028 954q128 0 214.5 -88t86.5 -239q0 -157 -104.5 -244.5t-266.5 -87.5q-153 0 -256 77t-116 210h198q8 -62 54.5 -100t119.5 -38q75 0 123.5 49
t48.5 134q0 84 -49.5 131t-122.5 47q-126 0 -174 -111l-190 17l47 534h629v-155h-451l-24 -289q25 63 85.5 108t147.5 45z" />
    <glyph glyph-name="uni2465" unicode="&#x2465;" horiz-adv-x="1912" 
d="M956 1636q175 0 334 -68t274 -182.5t183 -273.5t68 -334t-68 -334t-183 -273.5t-274 -182.5t-334 -68t-334 68t-273.5 182.5t-182.5 273.5t-68 334t68 334t182.5 273.5t273.5 182.5t334 68zM956 76q143 0 273.5 55.5t224.5 149.5t149.5 224t55.5 273q0 191 -94 353
t-256 256t-353 94q-143 0 -273 -55.5t-224 -149.5t-149.5 -224.5t-55.5 -273.5t55.5 -273t149.5 -224t224 -149.5t273 -55.5zM1008 936q147 0 236 -87t89 -233q0 -141 -107 -231t-274 -90q-182 0 -288.5 121t-106.5 362q0 237 109.5 360.5t287.5 123.5q148 0 239.5 -71
t117.5 -187h-199q-32 108 -158 108q-109 0 -158.5 -100t-43.5 -256q24 77 93.5 128.5t162.5 51.5zM952 444q79 0 131 48t52 124q0 77 -49.5 123.5t-133.5 46.5t-135 -47.5t-51 -120.5t49 -123.5t137 -50.5z" />
    <glyph glyph-name="uni2466" unicode="&#x2466;" horiz-adv-x="1912" 
d="M956 1636q175 0 334 -68t274 -182.5t183 -273.5t68 -334t-68 -334t-183 -273.5t-274 -182.5t-334 -68t-334 68t-273.5 182.5t-182.5 273.5t-68 334t68 334t182.5 273.5t273.5 182.5t334 68zM956 76q143 0 273.5 55.5t224.5 149.5t149.5 224t55.5 273q0 191 -94 353
t-256 256t-353 94q-143 0 -273 -55.5t-224 -149.5t-149.5 -224.5t-55.5 -273.5t55.5 -273t149.5 -224t224 -149.5t273 -55.5zM1090 1090h-455v155h647v-198l-375 -736h-235z" />
    <glyph glyph-name="uni2467" unicode="&#x2467;" horiz-adv-x="1912" 
d="M956 1636q175 0 334 -68t274 -182.5t183 -273.5t68 -334t-68 -334t-183 -273.5t-274 -182.5t-334 -68t-334 68t-273.5 182.5t-182.5 273.5t-68 334t68 334t182.5 273.5t273.5 182.5t334 68zM956 76q143 0 273.5 55.5t224.5 149.5t149.5 224t55.5 273q0 191 -94 353
t-256 256t-353 94q-143 0 -273 -55.5t-224 -149.5t-149.5 -224.5t-55.5 -273.5t55.5 -273t149.5 -224t224 -149.5t273 -55.5zM1104 803q45 -7 84.5 -23t76.5 -42.5t59 -69.5t22 -97q0 -126 -107.5 -201t-282.5 -75t-282 75t-107 201q0 54 22 97t59 69.5t76.5 42.5t84.5 23
q-213 52 -213 215q0 110 99 177t261 67t261.5 -67t99.5 -177q0 -163 -213 -215zM956 1112q-79 0 -120 -35t-41 -86q0 -49 40 -83t121 -34t121.5 34t40.5 83q0 51 -41.5 86t-120.5 35zM956 444q79 0 135 38t56 106q0 64 -55 100.5t-136 36.5t-135.5 -36.5t-54.5 -100.5
q0 -68 55.5 -106t134.5 -38z" />
    <glyph glyph-name="uni2468" unicode="&#x2468;" horiz-adv-x="1912" 
d="M956 1636q175 0 334 -68t274 -182.5t183 -273.5t68 -334t-68 -334t-183 -273.5t-274 -182.5t-334 -68t-334 68t-273.5 182.5t-182.5 273.5t-68 334t68 334t182.5 273.5t273.5 182.5t334 68zM956 76q143 0 273.5 55.5t224.5 149.5t149.5 224t55.5 273q0 191 -94 353
t-256 256t-353 94q-143 0 -273 -55.5t-224 -149.5t-149.5 -224.5t-55.5 -273.5t55.5 -273t149.5 -224t224 -149.5t273 -55.5zM961 1262q182 0 288.5 -121.5t106.5 -362.5q0 -237 -110 -360t-288 -123q-148 0 -239 71t-117 187h199q32 -109 157 -109q109 0 159 100.5
t44 256.5q-24 -77 -93.5 -128.5t-162.5 -51.5q-147 0 -236 86.5t-89 232.5q0 141 107 231.5t274 90.5zM961 770q84 0 135 47.5t51 120.5t-49 123.5t-137 50.5q-79 0 -131 -48t-52 -124q0 -77 49.5 -123.5t133.5 -46.5z" />
    <glyph glyph-name="uni24EA" unicode="&#x24ea;" horiz-adv-x="1912" 
d="M956 -80q-175 0 -334 68t-273.5 182.5t-182.5 273.5t-68 334t68 334t182.5 273.5t273.5 182.5t334 68t334 -68t274 -182.5t183 -273.5t68 -334t-68 -334t-183 -273.5t-274 -182.5t-334 -68zM956 76q143 0 273.5 55.5t224.5 149.5t149.5 224t55.5 273q0 191 -94 353
t-256 256t-353 94q-143 0 -273 -55.5t-224 -149.5t-149.5 -224.5t-55.5 -273.5t55.5 -273t149.5 -224t224 -149.5t273 -55.5zM956 295q-185 0 -287 124.5t-102 358.5t102 359t287 125t287.5 -125t102.5 -359t-102.5 -358.5t-287.5 -124.5zM956 444q191 0 191 334t-191 334
q-190 0 -190 -334t190 -334z" />
    <glyph glyph-name="uni24FF" unicode="&#x24ff;" horiz-adv-x="1912" 
d="M956 -80q-175 0 -334 68t-273.5 182.5t-182.5 273.5t-68 334t68 334t182.5 273.5t273.5 182.5t334 68t334 -68t274 -182.5t183 -273.5t68 -334t-68 -334t-183 -273.5t-274 -182.5t-334 -68zM956 295q185 0 287.5 124.5t102.5 358.5t-102.5 359t-287.5 125t-287 -125
t-102 -359t102 -358.5t287 -124.5zM956 444q-190 0 -190 334t190 334q191 0 191 -334t-191 -334z" />
    <glyph glyph-name="filledbox" unicode="&#x25a0;" horiz-adv-x="1458" 
d="M1278 0h-1098v1098h1098v-1098z" />
    <glyph glyph-name="uni25A1" unicode="&#x25a1;" horiz-adv-x="1458" 
d="M1278 0h-1098v1098h1098v-1098zM348 930v-762h762v762h-762z" />
    <glyph glyph-name="lozenge" unicode="&#x25ca;" horiz-adv-x="1374" 
d="M555 1556h264l455 -778l-455 -778h-264l-455 778zM297 778l391 -669l389 669l-389 670z" />
    <glyph glyph-name="circle" unicode="&#x25cb;" horiz-adv-x="1398" 
d="M698 -37q-159 0 -294 78.5t-213 213.5t-78 294t78 294t213 213.5t294 78.5t294.5 -78.5t214.5 -213.5t79 -294t-79 -294t-214.5 -213.5t-294.5 -78.5zM698 137q172 0 293 121t121 291t-121 291t-293 121q-171 0 -291 -120.5t-120 -291.5t120 -291.5t291 -120.5z" />
    <glyph glyph-name="uni25CF" unicode="&#x25cf;" horiz-adv-x="1398" 
d="M698 -37q-159 0 -294 78.5t-213 213.5t-78 294t78 294t213 213.5t294 78.5t294.5 -78.5t214.5 -213.5t79 -294t-79 -294t-214.5 -213.5t-294.5 -78.5z" />
    <glyph glyph-name="uni2776" unicode="&#x2776;" horiz-adv-x="1912" 
d="M956 -80q-175 0 -334 68t-273.5 182.5t-182.5 273.5t-68 334t68 334t182.5 273.5t273.5 182.5t334 68t334 -68t274 -182.5t183 -273.5t68 -334t-68 -334t-183 -273.5t-274 -182.5t-334 -68zM874 954v-643h195v934h-162l-4 -16q-15 -63 -60 -91t-130 -28h-39v-156h200z
" />
    <glyph glyph-name="uni2777" unicode="&#x2777;" horiz-adv-x="1912" 
d="M956 -80q-175 0 -334 68t-273.5 182.5t-182.5 273.5t-68 334t68 334t182.5 273.5t273.5 182.5t334 68t334 -68t274 -182.5t183 -273.5t68 -334t-68 -334t-183 -273.5t-274 -182.5t-334 -68zM590 510v-199h735v156h-514l322 248q55 43 89.5 78.5t58.5 86.5t24 109
q0 118 -98 195.5t-255 77.5q-153 0 -253 -78.5t-107 -210.5h199q4 68 47.5 103.5t113.5 35.5t112 -36t42 -91q0 -41 -25 -76.5t-75 -74.5z" />
    <glyph glyph-name="uni2778" unicode="&#x2778;" horiz-adv-x="1912" 
d="M956 -80q-175 0 -334 68t-273.5 182.5t-182.5 273.5t-68 334t68 334t182.5 273.5t273.5 182.5t334 68t334 -68t274 -182.5t183 -273.5t68 -334t-68 -334t-183 -273.5t-274 -182.5t-334 -68zM948 295q171 0 275 71.5t104 204.5q0 55 -24 98.5t-63.5 69.5t-82.5 40.5
t-90 19.5q233 40 233 221q0 107 -101.5 174.5t-250.5 67.5q-144 0 -241.5 -76t-106.5 -195h199q5 53 42 87t107 34q68 0 111 -31.5t43 -83.5q0 -53 -46 -86.5t-141 -33.5h-61v-156h61q213 0 213 -137q0 -67 -54 -103.5t-126 -36.5q-76 0 -119.5 36.5t-48.5 99.5h-198
q14 -134 107.5 -209.5t258.5 -75.5z" />
    <glyph glyph-name="uni2779" unicode="&#x2779;" horiz-adv-x="1912" 
d="M956 -80q-175 0 -334 68t-273.5 182.5t-182.5 273.5t-68 334t68 334t182.5 273.5t273.5 182.5t334 68t334 -68t274 -182.5t183 -273.5t68 -334t-68 -334t-183 -273.5t-274 -182.5t-334 -68zM512 750v-195h471v-244h195v244h131v156h-131v534h-363zM983 711h-305l305 497
v-497z" />
    <glyph glyph-name="uni277A" unicode="&#x277a;" horiz-adv-x="1912" 
d="M956 -80q-175 0 -334 68t-273.5 182.5t-182.5 273.5t-68 334t68 334t182.5 273.5t273.5 182.5t334 68t334 -68t274 -182.5t183 -273.5t68 -334t-68 -334t-183 -273.5t-274 -182.5t-334 -68zM958 295q162 0 266.5 87.5t104.5 244.5q0 151 -86.5 239t-214.5 88
q-87 0 -147.5 -45t-85.5 -108l24 289h451v155h-629l-47 -534l190 -17q48 111 174 111q73 0 122.5 -47t49.5 -131q0 -85 -48.5 -134t-123.5 -49q-73 0 -119.5 38t-54.5 100h-198q13 -133 116 -210t256 -77z" />
    <glyph glyph-name="uni277B" unicode="&#x277b;" horiz-adv-x="1912" 
d="M956 -80q-175 0 -334 68t-273.5 182.5t-182.5 273.5t-68 334t68 334t182.5 273.5t273.5 182.5t334 68t334 -68t274 -182.5t183 -273.5t68 -334t-68 -334t-183 -273.5t-274 -182.5t-334 -68zM952 295q167 0 274 90t107 231q0 146 -89 233t-236 87q-93 0 -162.5 -51.5
t-93.5 -128.5q-6 156 43.5 256t158.5 100q126 0 158 -108h199q-26 116 -117.5 187t-239.5 71q-179 0 -288 -122.5t-109 -361.5q0 -241 106.5 -362t288.5 -121zM952 444q-88 0 -137 50.5t-49 123.5t51 120.5t135 47.5t133.5 -46.5t49.5 -123.5q0 -76 -52 -124t-131 -48z" />
    <glyph glyph-name="uni277C" unicode="&#x277c;" horiz-adv-x="1912" 
d="M956 -80q-175 0 -334 68t-273.5 182.5t-182.5 273.5t-68 334t68 334t182.5 273.5t273.5 182.5t334 68t334 -68t274 -182.5t183 -273.5t68 -334t-68 -334t-183 -273.5t-274 -182.5t-334 -68zM1090 1090l-418 -779h235l375 736v198h-647v-155h455z" />
    <glyph glyph-name="uni277D" unicode="&#x277d;" horiz-adv-x="1912" 
d="M956 -80q-175 0 -334 68t-273.5 182.5t-182.5 273.5t-68 334t68 334t182.5 273.5t273.5 182.5t334 68t334 -68t274 -182.5t183 -273.5t68 -334t-68 -334t-183 -273.5t-274 -182.5t-334 -68zM956 295q175 0 282.5 75t107.5 201q0 54 -22 97t-59 69.5t-76.5 42.5t-84.5 23
q213 52 213 215q0 110 -99.5 177t-261.5 67t-261 -67t-99 -177q0 -163 213 -215q-45 -7 -84.5 -23t-76.5 -42.5t-59 -69.5t-22 -97q0 -126 107 -201t282 -75zM956 874q-81 0 -121 34t-40 83q0 51 41 86t120 35t120.5 -35t41.5 -86q0 -49 -40.5 -83t-121.5 -34zM956 444
q-79 0 -134.5 38t-55.5 106q0 64 54.5 100.5t135.5 36.5t136 -36.5t55 -100.5q0 -68 -56 -106t-135 -38z" />
    <glyph glyph-name="uni277E" unicode="&#x277e;" horiz-adv-x="1912" 
d="M956 -80q-175 0 -334 68t-273.5 182.5t-182.5 273.5t-68 334t68 334t182.5 273.5t273.5 182.5t334 68t334 -68t274 -182.5t183 -273.5t68 -334t-68 -334t-183 -273.5t-274 -182.5t-334 -68zM961 1262q-167 0 -274 -90.5t-107 -231.5q0 -146 89 -232.5t236 -86.5
q93 0 162.5 51.5t93.5 128.5q6 -156 -44 -256.5t-159 -100.5q-125 0 -157 109h-199q26 -116 117 -187t239 -71q178 0 288 123t110 360q0 241 -106.5 362.5t-288.5 121.5zM961 1112q88 0 137 -50.5t49 -123.5t-51 -120.5t-135 -47.5t-133.5 46.5t-49.5 123.5q0 76 52 124
t131 48z" />
    <glyph glyph-name="uniF8FF" unicode="&#xf8ff;" horiz-adv-x="1714" 
d="M1100 827h559v-100h-551l506 -211l-35 -90l-516 213l393 -395l-65 -66l-400 400l215 -523l-88 -37l-211 510v-551h-100v560l-215 -519l-88 37l215 523l-400 -400l-65 66l393 395l-516 -213l-35 90l506 211h-547v100h555l-514 213l39 93l514 -215l-395 395l72 69l391 -393
l-213 512l92 35l211 -512v555h100v-545l207 502l92 -35l-213 -512l391 393l72 -69l-395 -395l514 215l39 -93z" />
    <glyph glyph-name="uniFEFF" unicode="&#xfeff;" horiz-adv-x="0" 
 />
    <glyph glyph-name="NULL" horiz-adv-x="0" 
 />
    <glyph glyph-name="uni004A0301" horiz-adv-x="768" 
d="M592 1686h-199l252 270h289zM233 0h-192v184h166q88 0 129 39t41 119v1214h207v-1245q0 -153 -91.5 -232t-259.5 -79z" />
    <glyph glyph-name="G.ss03" horiz-adv-x="1646" 
d="M774 653v185h768v-133q0 -332 -193.5 -530t-514.5 -198q-162 0 -298 58.5t-231.5 163t-149 253.5t-53.5 326q0 235 93.5 418t260 283t378.5 100q268 0 446.5 -134t239.5 -370h-215q-55 154 -173.5 242t-297.5 88q-231 0 -374 -174.5t-143 -452.5t143 -452t374 -174
q220 0 358.5 135.5t142.5 365.5h-561z" />
    <glyph glyph-name="Gbreve.ss03" horiz-adv-x="1646" 
d="M834 1677q-152 0 -244 82t-92 197h166q0 -69 47.5 -112.5t122.5 -43.5t122.5 43.5t47.5 112.5h165q0 -115 -91.5 -197t-243.5 -82zM774 653v185h768v-133q0 -332 -193.5 -530t-514.5 -198q-162 0 -298 58.5t-231.5 163t-149 253.5t-53.5 326q0 235 93.5 418t260 283
t378.5 100q268 0 446.5 -134t239.5 -370h-215q-55 154 -173.5 242t-297.5 88q-231 0 -374 -174.5t-143 -452.5t143 -452t374 -174q220 0 358.5 135.5t142.5 365.5h-561z" />
    <glyph glyph-name="Gcaron.ss03" horiz-adv-x="1646" 
d="M1229 1956l-256 -270h-279l-256 270h193l203 -176l202 176h193zM774 653v185h768v-133q0 -332 -193.5 -530t-514.5 -198q-162 0 -298 58.5t-231.5 163t-149 253.5t-53.5 326q0 235 93.5 418t260 283t378.5 100q268 0 446.5 -134t239.5 -370h-215q-55 154 -173.5 242
t-297.5 88q-231 0 -374 -174.5t-143 -452.5t143 -452t374 -174q220 0 358.5 135.5t142.5 365.5h-561z" />
    <glyph glyph-name="Gcircumflex.ss03" horiz-adv-x="1646" 
d="M1036 1686l-202 176l-203 -176h-193l256 270h279l256 -270h-193zM774 653v185h768v-133q0 -332 -193.5 -530t-514.5 -198q-162 0 -298 58.5t-231.5 163t-149 253.5t-53.5 326q0 235 93.5 418t260 283t378.5 100q268 0 446.5 -134t239.5 -370h-215q-55 154 -173.5 242
t-297.5 88q-231 0 -374 -174.5t-143 -452.5t143 -452t374 -174q220 0 358.5 135.5t142.5 365.5h-561z" />
    <glyph glyph-name="uni0122.ss03" horiz-adv-x="1646" 
d="M774 653v185h768v-133q0 -332 -193.5 -530t-514.5 -198q-162 0 -298 58.5t-231.5 163t-149 253.5t-53.5 326q0 235 93.5 418t260 283t378.5 100q268 0 446.5 -134t239.5 -370h-215q-55 154 -173.5 242t-297.5 88q-231 0 -374 -174.5t-143 -452.5t143 -452t374 -174
q220 0 358.5 135.5t142.5 365.5h-561zM799 -401h-70v270h223v-287l-114 -178h-136z" />
    <glyph glyph-name="Gdotaccent.ss03" horiz-adv-x="1646" 
d="M721 1956h223v-270h-223v270zM774 653v185h768v-133q0 -332 -193.5 -530t-514.5 -198q-162 0 -298 58.5t-231.5 163t-149 253.5t-53.5 326q0 235 93.5 418t260 283t378.5 100q268 0 446.5 -134t239.5 -370h-215q-55 154 -173.5 242t-297.5 88q-231 0 -374 -174.5
t-143 -452.5t143 -452t374 -174q220 0 358.5 135.5t142.5 365.5h-561z" />
    <glyph glyph-name="Adieresis.titl" horiz-adv-x="1554" 
d="M1548 0h-221l-168 471h-764l-168 -471h-221l559 1556h424zM154 1556h223v-270h-223v270zM1198 1556h223v-270h-223v270zM778 1548l-317 -893h633z" />
    <glyph glyph-name="Odieresis.titl" horiz-adv-x="1687" 
d="M844 -23q-162 0 -300 58.5t-235.5 163t-152 253.5t-54.5 326t54.5 326t152 253.5t235.5 163t300 58.5t300 -58.5t235 -163t151.5 -253.5t54.5 -326t-54.5 -326t-151.5 -253.5t-235 -163t-300 -58.5zM176 1286h-223v270h223v-270zM1735 1286h-224v270h224v-270zM844 152
q234 0 380 174.5t146 451.5t-146 452t-380 175t-380.5 -175t-146.5 -452t146.5 -451.5t380.5 -174.5z" />
    <glyph glyph-name="Udieresis.titl" horiz-adv-x="1576" 
d="M791 -23q-613 0 -613 644v4v931h207v-944v-4q0 -231 101.5 -343.5t304.5 -112.5q202 0 302.5 113.5t100.5 346.5v944h207v-931q0 -316 -146.5 -482t-463.5 -166zM729 1286h-223v270h223v-270zM1073 1286h-223v270h223v-270z" />
    <glyph glyph-name="I_J.loclNLD" horiz-adv-x="1198" 
d="M664 0h-469v184h442q88 0 129 39t41 119v1214h207v-1245q0 -153 -91 -232t-259 -79zM401 481h-206v1075h206v-1075z" />
    <glyph glyph-name="A.inferior" horiz-adv-x="839" 
d="M829 -233h-176l-63 206h-340l-64 -206h-176l246 778h328zM420 524l-127 -413h254z" />
    <glyph glyph-name="B.inferior" horiz-adv-x="802" 
d="M524 164q96 -3 162 -52t66 -135q0 -97 -82.5 -153.5t-239.5 -56.5h-328v778h322q143 0 222 -55.5t79 -145.5q0 -149 -201 -180zM551 317q0 43 -34.5 67t-94.5 24h-150v-175h150q129 0 129 84zM272 -96h160q146 0 146 100q0 92 -146 92h-160v-192z" />
    <glyph glyph-name="C.inferior" horiz-adv-x="856" 
d="M440 -248q-165 0 -276 110t-111 294t110.5 293.5t276.5 109.5q141 0 242 -74t133 -206h-174q-49 149 -201 149q-92 0 -152.5 -74t-60.5 -198t61 -198.5t152 -74.5q155 0 205 152h174q-37 -142 -136.5 -212.5t-242.5 -70.5z" />
    <glyph glyph-name="D.inferior" horiz-adv-x="854" 
d="M102 545h295q185 0 293.5 -98.5t108.5 -290.5t-108.5 -290.5t-293.5 -98.5h-295v778zM272 -96h127q104 0 165 65t61 187t-61 187t-165 65h-127v-504z" />
    <glyph glyph-name="E.inferior" horiz-adv-x="716" 
d="M272 96v-192h379v-137h-549v778h541v-137h-371v-175h363v-137h-363z" />
    <glyph glyph-name="F.inferior" horiz-adv-x="684" 
d="M629 545v-137h-357v-187h351v-137h-351v-317h-170v778h527z" />
    <glyph glyph-name="G.inferior" horiz-adv-x="909" 
d="M420 78v137h409v-448h-137v190q-71 -205 -278 -205q-67 0 -131 27t-115.5 76.5t-83 127.5t-31.5 173q0 183 110 293t283 110q141 0 237 -66t136 -192h-174q-56 127 -199 127q-96 0 -157.5 -74t-61.5 -198q0 -125 64 -199t166 -74q89 0 146.5 53.5t60.5 141.5h-244z" />
    <glyph glyph-name="H.inferior" horiz-adv-x="866" 
d="M594 242v303h170v-778h-170v321h-322v-321h-170v778h170v-303h322z" />
    <glyph glyph-name="I.inferior" horiz-adv-x="374" 
d="M272 -233h-170v778h170v-778z" />
    <glyph glyph-name="J.inferior" horiz-adv-x="454" 
d="M145 -233h-114v137h65q30 0 47.5 4t31 23.5t13.5 56.5v557h170v-592q0 -91 -49.5 -138.5t-163.5 -47.5z" />
    <glyph glyph-name="K.inferior" horiz-adv-x="806" 
d="M463 180l354 -413h-215l-328 385v-385h-170v778h170v-350l301 350h203z" />
    <glyph glyph-name="L.inferior" horiz-adv-x="630" 
d="M272 545v-641h330v-137h-500v778h170z" />
    <glyph glyph-name="M.inferior" horiz-adv-x="1167" 
d="M1065 545v-778h-164v759l-160 -759h-315l-160 759v-759h-164v778h322l160 -760l159 760h322z" />
    <glyph glyph-name="N.inferior" horiz-adv-x="935" 
d="M670 -215v760h164v-778h-328l-240 759v-759h-164v778h328z" />
    <glyph glyph-name="O.inferior" horiz-adv-x="903" 
d="M453 -248q-176 0 -288 109.5t-112 294.5q0 184 112 293.5t288 109.5t286.5 -109t110.5 -294t-110.5 -294.5t-286.5 -109.5zM453 -117q101 0 162 73.5t61 199.5t-61 199t-162 73t-163.5 -73t-62.5 -199t62.5 -199.5t163.5 -73.5z" />
    <glyph glyph-name="P.inferior" horiz-adv-x="768" 
d="M102 545h297q159 0 246.5 -67.5t87.5 -188.5t-87.5 -188.5t-246.5 -67.5h-127v-266h-170v778zM272 170h127q75 0 117.5 31t42.5 88t-42.5 88t-117.5 31h-127v-238z" />
    <glyph glyph-name="Q.inferior" horiz-adv-x="907" 
d="M776 -94l148 -139h-195l-49 47q-95 -62 -227 -62q-176 0 -288 109.5t-112 294.5q0 184 112 293.5t288 109.5t286.5 -109t110.5 -294q0 -146 -74 -250zM453 -117q60 0 118 33l-161 154h194l49 -47q23 64 23 133q0 126 -61 199t-162 73t-163.5 -73t-62.5 -199t62.5 -199.5
t163.5 -73.5z" />
    <glyph glyph-name="R.inferior" horiz-adv-x="808" 
d="M784 -233h-192l-178 286h-142v-286h-170v778h314q142 0 226.5 -66.5t84.5 -179.5q0 -74 -38.5 -129.5t-108.5 -85.5zM414 408h-142v-218h142q65 0 102 28.5t37 80.5t-37 80.5t-102 28.5z" />
    <glyph glyph-name="S.inferior" horiz-adv-x="770" 
d="M377 -248q-137 0 -228.5 68.5t-103.5 185.5h174q8 -63 54.5 -93t113.5 -30q76 0 118 27.5t42 75.5q0 36 -34 60t-116 42l-112 25q-105 24 -162 75t-57 142q0 101 87 165t220 64q145 0 229 -60t98 -161h-174q-6 44 -48.5 67t-104.5 23t-99.5 -22t-37.5 -60q0 -39 32.5 -58
t116.5 -38l113 -25q107 -23 163 -79t56 -142q0 -120 -91.5 -186t-248.5 -66z" />
    <glyph glyph-name="T.inferior" horiz-adv-x="700" 
d="M29 545h643v-137h-236v-641h-170v641h-237v137z" />
    <glyph glyph-name="U.inferior" horiz-adv-x="851" 
d="M426 -248q-167 0 -249.5 84t-82.5 240v4v465h170v-486v-4q0 -82 42 -127t120 -45q79 0 120.5 46t41.5 130v486h170v-465q0 -157 -81.5 -242.5t-250.5 -85.5z" />
    <glyph glyph-name="V.inferior" horiz-adv-x="817" 
d="M410 -215l213 760h180l-228 -778h-333l-228 778h181z" />
    <glyph glyph-name="W.inferior" horiz-adv-x="1224" 
d="M885 -215l137 760h172l-141 -778h-336l-105 763l-104 -763h-336l-141 778h172l137 -760l104 760h336z" />
    <glyph glyph-name="X.inferior" horiz-adv-x="847" 
d="M541 180l303 -413h-207l-213 292l-215 -292h-205l303 413l-270 365h203l184 -252l184 252h203z" />
    <glyph glyph-name="Y.inferior" horiz-adv-x="763" 
d="M567 545h193l-293 -471v-307h-170v305l-293 473h191l186 -314z" />
    <glyph glyph-name="Z.inferior" horiz-adv-x="749" 
d="M686 371l-426 -467h445v-137h-652v174l426 467h-420v137h627v-174z" />
    <glyph glyph-name="G.ss03.inferior" horiz-adv-x="884" 
d="M420 78v137h409v-82q0 -173 -103.5 -277t-276.5 -104q-175 0 -285.5 109.5t-110.5 294.5q0 183 110 293t283 110q141 0 237 -66t136 -192h-174q-56 127 -199 127q-96 0 -157.5 -74t-61.5 -198q0 -125 63.5 -199t162.5 -74q91 0 147 55.5t59 139.5h-239z" />
    <glyph glyph-name="A.superior" horiz-adv-x="839" 
d="M829 778h-176l-63 207h-340l-64 -207h-176l246 778h328zM420 1536l-127 -414h254z" />
    <glyph glyph-name="B.superior" horiz-adv-x="802" 
d="M524 1176q96 -3 162 -52t66 -135q0 -97 -82.5 -154t-239.5 -57h-328v778h322q143 0 222 -55t79 -145q0 -149 -201 -180zM551 1329q0 43 -34.5 66.5t-94.5 23.5h-150v-174h150q129 0 129 84zM272 915h160q146 0 146 101q0 92 -146 92h-160v-193z" />
    <glyph glyph-name="C.superior" horiz-adv-x="856" 
d="M440 764q-165 0 -276 109.5t-111 293.5t110.5 294t276.5 110q141 0 242 -74.5t133 -206.5h-174q-49 150 -201 150q-92 0 -152.5 -74.5t-60.5 -198.5t61 -198t152 -74q155 0 205 152h174q-37 -142 -136.5 -212.5t-242.5 -70.5z" />
    <glyph glyph-name="D.superior" horiz-adv-x="854" 
d="M102 1556h295q185 0 293.5 -98.5t108.5 -290.5t-108.5 -290.5t-293.5 -98.5h-295v778zM272 915h127q104 0 165 65t61 187t-61 187t-165 65h-127v-504z" />
    <glyph glyph-name="E.superior" horiz-adv-x="716" 
d="M272 1108v-193h379v-137h-549v778h541v-137h-371v-174h363v-137h-363z" />
    <glyph glyph-name="F.superior" horiz-adv-x="684" 
d="M629 1556v-137h-357v-186h351v-137h-351v-318h-170v778h527z" />
    <glyph glyph-name="G.superior" horiz-adv-x="909" 
d="M420 1090v137h409v-449h-137v191q-71 -205 -278 -205q-67 0 -131 26.5t-115.5 76t-83 127.5t-31.5 173q0 183 110 293.5t283 110.5q141 0 237 -66t136 -192h-174q-56 127 -199 127q-96 0 -157.5 -74.5t-61.5 -198.5q0 -125 63.5 -198.5t166.5 -73.5q89 0 146.5 53.5
t60.5 141.5h-244z" />
    <glyph glyph-name="H.superior" horiz-adv-x="866" 
d="M594 1253v303h170v-778h-170v322h-322v-322h-170v778h170v-303h322z" />
    <glyph glyph-name="I.superior" horiz-adv-x="374" 
d="M272 778h-170v778h170v-778z" />
    <glyph glyph-name="J.superior" horiz-adv-x="454" 
d="M145 778h-114v137h65q30 0 47.5 4t31 23.5t13.5 56.5v557h170v-591q0 -91 -49.5 -139t-163.5 -48z" />
    <glyph glyph-name="K.superior" horiz-adv-x="806" 
d="M461 1192l354 -414h-215l-328 385v-385h-170v778h170v-350l301 350h203z" />
    <glyph glyph-name="L.superior" horiz-adv-x="630" 
d="M272 1556v-641h330v-137h-500v778h170z" />
    <glyph glyph-name="M.superior" horiz-adv-x="1167" 
d="M1065 1556v-778h-164v760l-160 -760h-315l-160 760v-760h-164v778h322l160 -757l159 757h322z" />
    <glyph glyph-name="N.superior" horiz-adv-x="935" 
d="M670 799v757h164v-778h-328l-240 760v-760h-164v778h328z" />
    <glyph glyph-name="O.superior" horiz-adv-x="903" 
d="M453 764q-176 0 -288 109.5t-112 293.5q0 185 112 294.5t288 109.5t286.5 -109.5t110.5 -294.5t-110.5 -294t-286.5 -109zM453 895q101 0 162 73t61 199t-61 199.5t-162 73.5t-163.5 -73.5t-62.5 -199.5t62.5 -199t163.5 -73z" />
    <glyph glyph-name="P.superior" horiz-adv-x="768" 
d="M102 1556h297q159 0 246.5 -67.5t87.5 -188.5t-87.5 -188.5t-246.5 -67.5h-127v-266h-170v778zM272 1182h127q76 0 118 30.5t42 87.5t-42.5 88t-117.5 31h-127v-237z" />
    <glyph glyph-name="Q.superior" horiz-adv-x="907" 
d="M776 918l148 -140h-195l-49 47q-94 -61 -227 -61q-176 0 -288 109.5t-112 293.5q0 185 112 294.5t288 109.5t286.5 -109.5t110.5 -294.5q0 -145 -74 -249zM453 895q60 0 118 33l-161 153h194l49 -47q23 64 23 133q0 126 -61 199.5t-162 73.5t-163.5 -73.5t-62.5 -199.5
t62.5 -199t163.5 -73z" />
    <glyph glyph-name="R.superior" horiz-adv-x="808" 
d="M784 778h-192l-178 287h-142v-287h-170v778h314q143 0 227 -66.5t84 -178.5q0 -74 -38.5 -129.5t-108.5 -85.5zM414 1419h-142v-217h142q65 0 102 28.5t37 80.5t-37 80t-102 28z" />
    <glyph glyph-name="S.superior" horiz-adv-x="770" 
d="M377 764q-137 0 -228.5 68.5t-103.5 185.5h174q8 -63 54.5 -93t113.5 -30q76 0 118 27t42 75q0 36 -34 60.5t-116 42.5l-112 24q-105 24 -162 75t-57 142q0 101 87 165.5t220 64.5q145 0 229 -60t98 -161h-174q-6 44 -48.5 67t-104.5 23t-99.5 -22t-37.5 -60
q0 -39 32.5 -58t116.5 -38l113 -25q107 -23 163 -79t56 -142q0 -120 -91.5 -186t-248.5 -66z" />
    <glyph glyph-name="T.superior" horiz-adv-x="700" 
d="M29 1556h643v-137h-236v-641h-170v641h-237v137z" />
    <glyph glyph-name="U.superior" horiz-adv-x="851" 
d="M426 764q-167 0 -249.5 83.5t-82.5 239.5v5v464h170v-485v-4q0 -82 42 -127t120 -45q79 0 120.5 46t41.5 130v485h170v-464q0 -157 -81.5 -242.5t-250.5 -85.5z" />
    <glyph glyph-name="V.superior" horiz-adv-x="817" 
d="M410 797l213 759h180l-228 -778h-333l-228 778h181z" />
    <glyph glyph-name="W.superior" horiz-adv-x="1224" 
d="M885 797l137 759h172l-141 -778h-336l-105 764l-104 -764h-336l-141 778h172l137 -759l104 759h336z" />
    <glyph glyph-name="X.superior" horiz-adv-x="847" 
d="M541 1192l303 -414h-207l-213 293l-215 -293h-205l303 414l-270 364h203l184 -251l184 251h203z" />
    <glyph glyph-name="Y.superior" horiz-adv-x="763" 
d="M567 1556h193l-293 -471v-307h-170v305l-293 473h191l186 -313z" />
    <glyph glyph-name="Z.superior" horiz-adv-x="749" 
d="M686 1382l-426 -467h445v-137h-652v174l426 467h-420v137h627v-174z" />
    <glyph glyph-name="G.ss03.superior" horiz-adv-x="884" 
d="M420 1090v137h409v-82q0 -173 -103.5 -277t-276.5 -104q-175 0 -285.5 109t-110.5 294q0 183 110 293.5t283 110.5q141 0 237 -66t136 -192h-174q-56 127 -199 127q-96 0 -157.5 -74.5t-61.5 -198.5q0 -125 63.5 -198.5t162.5 -73.5q91 0 147 55.5t59 139.5h-239z" />
    <glyph glyph-name="i.loclTRK" horiz-adv-x="520" 
d="M369 1286h-217v270h217v-270zM360 0h-200v1098h200v-1098z" />
    <glyph glyph-name="uni006A0301" horiz-adv-x="520" 
d="M362 1247h-186l238 309h276zM20 -401h-75v151h55q80 0 120 34t40 120v1194h200v-1194q0 -152 -93.5 -228.5t-246.5 -76.5z" />
    <glyph glyph-name="germandbls.calt" horiz-adv-x="1576" 
d="M1329 1327l-354 -385q105 -7 195.5 -39.5t163 -88.5t114 -144.5t41.5 -198.5q0 -229 -151.5 -361.5t-389.5 -132.5q-141 0 -274 46v178q115 -49 252 -49q156 0 252 87t96 232q0 107 -61.5 180.5t-159.5 106.5t-224 33h-63v198l352 383h-717v-1372h-206v1556h1134v-229z
" />
    <glyph glyph-name="a.ss04" horiz-adv-x="1306" 
d="M946 831v267h201v-1098h-201v240q-51 -118 -157.5 -190.5t-229.5 -72.5q-201 0 -334 160.5t-133 411.5t133.5 411t333.5 160q144 0 244.5 -83.5t142.5 -205.5zM625 125q155 0 242 114t87 310t-87 310t-242 114t-241.5 -114t-86.5 -310t86.5 -310t241.5 -114z" />
    <glyph glyph-name="aacute.ss04" horiz-adv-x="1306" 
d="M729 1556h277l-328 -309h-186zM946 831v267h201v-1098h-201v240q-51 -118 -157.5 -190.5t-229.5 -72.5q-201 0 -334 160.5t-133 411.5t133.5 411t333.5 160q144 0 244.5 -83.5t142.5 -205.5zM625 125q155 0 242 114t87 310t-87 310t-242 114t-241.5 -114t-86.5 -310
t86.5 -310t241.5 -114z" />
    <glyph glyph-name="abreve.ss04" horiz-adv-x="1306" 
d="M604 1239q-149 0 -237 91t-88 226h161q0 -87 42.5 -131.5t121.5 -44.5t121.5 44.5t42.5 131.5h162q0 -135 -88.5 -226t-237.5 -91zM946 831v267h201v-1098h-201v240q-51 -118 -157.5 -190.5t-229.5 -72.5q-201 0 -334 160.5t-133 411.5t133.5 411t333.5 160
q144 0 244.5 -83.5t142.5 -205.5zM625 125q155 0 242 114t87 310t-87 310t-242 114t-241.5 -114t-86.5 -310t86.5 -310t241.5 -114z" />
    <glyph glyph-name="acircumflex.ss04" horiz-adv-x="1306" 
d="M815 1247l-211 217l-211 -217h-184l262 309h266l262 -309h-184zM946 831v267h201v-1098h-201v240q-51 -118 -157.5 -190.5t-229.5 -72.5q-201 0 -334 160.5t-133 411.5t133.5 411t333.5 160q144 0 244.5 -83.5t142.5 -205.5zM625 125q155 0 242 114t87 310t-87 310
t-242 114t-241.5 -114t-86.5 -310t86.5 -310t241.5 -114z" />
    <glyph glyph-name="adieresis.ss04" horiz-adv-x="1306" 
d="M281 1556h217v-270h-217v270zM709 1556h217v-270h-217v270zM946 831v267h201v-1098h-201v240q-51 -118 -157.5 -190.5t-229.5 -72.5q-201 0 -334 160.5t-133 411.5t133.5 411t333.5 160q144 0 244.5 -83.5t142.5 -205.5zM625 125q155 0 242 114t87 310t-87 310t-242 114
t-241.5 -114t-86.5 -310t86.5 -310t241.5 -114z" />
    <glyph glyph-name="uni1EA1.ss04" horiz-adv-x="1306" 
d="M946 831v267h201v-1098h-201v240q-51 -118 -157.5 -190.5t-229.5 -72.5q-201 0 -334 160.5t-133 411.5t133.5 411t333.5 160q144 0 244.5 -83.5t142.5 -205.5zM625 125q155 0 242 114t87 310t-87 310t-242 114t-241.5 -114t-86.5 -310t86.5 -310t241.5 -114zM756 -401
h-217v270h217v-270z" />
    <glyph glyph-name="agrave.ss04" horiz-adv-x="1306" 
d="M479 1556l238 -309h-187l-327 309h276zM946 831v267h201v-1098h-201v240q-51 -118 -157.5 -190.5t-229.5 -72.5q-201 0 -334 160.5t-133 411.5t133.5 411t333.5 160q144 0 244.5 -83.5t142.5 -205.5zM625 125q155 0 242 114t87 310t-87 310t-242 114t-241.5 -114
t-86.5 -310t86.5 -310t241.5 -114z" />
    <glyph glyph-name="amacron.ss04" horiz-adv-x="1306" 
d="M248 1470h710v-151h-710v151zM946 831v267h201v-1098h-201v240q-51 -118 -157.5 -190.5t-229.5 -72.5q-201 0 -334 160.5t-133 411.5t133.5 411t333.5 160q144 0 244.5 -83.5t142.5 -205.5zM625 125q155 0 242 114t87 310t-87 310t-242 114t-241.5 -114t-86.5 -310
t86.5 -310t241.5 -114z" />
    <glyph glyph-name="aogonek.ss04" horiz-adv-x="1306" 
d="M1147 1098v-1098q-178 -76 -178 -180q0 -44 33.5 -66t91.5 -22h53v-140h-72q-130 0 -206 47.5t-76 137.5q0 129 153 223v240q-51 -118 -157.5 -190.5t-229.5 -72.5q-201 0 -334 160.5t-133 411.5t133.5 411t333.5 160q144 0 244.5 -83.5t142.5 -205.5v267h201zM625 125
q155 0 242 114t87 310t-87 310t-242 114t-241.5 -114t-86.5 -310t86.5 -310t241.5 -114z" />
    <glyph glyph-name="aring.ss04" horiz-adv-x="1306" 
d="M604 1239q-95 0 -162 69t-67 165q0 95 67 161t162 66q96 0 164 -66t68 -161t-68.5 -164.5t-163.5 -69.5zM604 1571q-41 0 -70.5 -28.5t-29.5 -69.5q0 -42 29.5 -73.5t70.5 -31.5t72 32t31 73t-30.5 69.5t-72.5 28.5zM946 831v267h201v-1098h-201v240
q-51 -118 -157.5 -190.5t-229.5 -72.5q-201 0 -334 160.5t-133 411.5t133.5 411t333.5 160q144 0 244.5 -83.5t142.5 -205.5zM625 125q155 0 242 114t87 310t-87 310t-242 114t-241.5 -114t-86.5 -310t86.5 -310t241.5 -114z" />
    <glyph glyph-name="atilde.ss04" horiz-adv-x="1306" 
d="M471 1374q-101 0 -125 -84h-72q4 106 58 164.5t133 58.5q59 0 151 -45q66 -32 119 -32q101 0 125 84h72q-4 -106 -58 -165t-133 -59q-59 0 -151 45q-68 33 -119 33zM946 831v267h201v-1098h-201v240q-51 -118 -157.5 -190.5t-229.5 -72.5q-201 0 -334 160.5t-133 411.5
t133.5 411t333.5 160q144 0 244.5 -83.5t142.5 -205.5zM625 125q155 0 242 114t87 310t-87 310t-242 114t-241.5 -114t-86.5 -310t86.5 -310t241.5 -114z" />
    <glyph glyph-name="y.ss05" horiz-adv-x="1146" 
d="M598 248l330 850h205l-582 -1499h-205l160 409l-508 1090h221z" />
    <glyph glyph-name="yacute.ss05" horiz-adv-x="1146" 
d="M698 1556h277l-328 -309h-186zM598 248l330 850h205l-582 -1499h-205l160 409l-508 1090h221z" />
    <glyph glyph-name="ycircumflex.ss05" horiz-adv-x="1146" 
d="M784 1247l-211 217l-211 -217h-184l262 309h267l262 -309h-185zM598 248l330 850h205l-582 -1499h-205l160 409l-508 1090h221z" />
    <glyph glyph-name="ydieresis.ss05" horiz-adv-x="1146" 
d="M250 1556h217v-270h-217v270zM678 1556h217v-270h-217v270zM598 248l330 850h205l-582 -1499h-205l160 409l-508 1090h221z" />
    <glyph glyph-name="ygrave.ss05" horiz-adv-x="1146" 
d="M449 1556l237 -309h-186l-328 309h277zM598 248l330 850h205l-582 -1499h-205l160 409l-508 1090h221z" />
    <glyph glyph-name="uni0233.ss05" horiz-adv-x="1146" 
d="M217 1470h711v-151h-711v151zM598 248l330 850h205l-582 -1499h-205l160 409l-508 1090h221z" />
    <glyph glyph-name="uni1EF9.ss05" horiz-adv-x="1146" 
d="M440 1374q-101 0 -125 -84h-71q4 106 57.5 164.5t132.5 58.5q60 0 152 -45q66 -32 119 -32q100 0 124 84h72q-4 -106 -58 -165t-132 -59q-60 0 -152 45q-68 33 -119 33zM598 248l330 850h205l-582 -1499h-205l160 409l-508 1090h221z" />
    <glyph glyph-name="i_j.loclNLD" horiz-adv-x="1028" 
d="M369 1286h-217v270h217v-270zM877 1286h-218v270h218v-270zM528 -401h-368v151h348q80 0 120 35t40 121v1192h200v-1194q0 -152 -93.5 -228.5t-246.5 -76.5zM360 0h-200v1098h200v-1098z" />
    <glyph glyph-name="a.inferior" horiz-adv-x="688" 
d="M342 338q133 0 198.5 -62.5t65.5 -154.5v-4v-350h-160v102q-22 -49 -69.5 -83t-120.5 -34q-85 0 -142 50t-57 132q0 150 238 172l147 15v6v4q0 48 -29 70t-71 22q-40 0 -66 -19.5t-28 -47.5h-168q9 85 80.5 133.5t181.5 48.5zM322 -145q57 0 88.5 40t31.5 107v14l-86 -8
q-131 -12 -131 -80q0 -33 27 -53t70 -20z" />
    <glyph glyph-name="b.inferior" horiz-adv-x="724" 
d="M442 338q106 0 169 -83.5t63 -209.5q0 -128 -63 -210.5t-169 -82.5q-72 0 -122.5 38.5t-71.5 100.5v-124h-160v778h160v-355q22 65 72 106.5t122 41.5zM375 -133q64 0 97.5 47t33.5 131t-33.5 131t-97.5 47t-97.5 -47t-33.5 -131t33.5 -131t97.5 -47z" />
    <glyph glyph-name="c.inferior" horiz-adv-x="669" 
d="M346 -248q-130 0 -213.5 81t-83.5 212q0 130 83.5 211.5t211.5 81.5q113 0 187.5 -58.5t93.5 -162.5h-168q-25 106 -113 106q-60 0 -93.5 -47.5t-33.5 -130.5q0 -87 34 -132.5t95 -45.5q89 0 115 106h168q-18 -103 -96 -162t-187 -59z" />
    <glyph glyph-name="d.inferior" horiz-adv-x="724" 
d="M477 190v355h160v-778h-160v124q-20 -61 -69.5 -100t-122.5 -39q-107 0 -170.5 83t-63.5 210t63.5 210t170.5 83q71 0 120.5 -41t71.5 -107zM350 -133q64 0 97.5 47t33.5 131t-33.5 131t-97.5 47t-97.5 -47t-33.5 -131t33.5 -131t97.5 -47z" />
    <glyph glyph-name="e.inferior" horiz-adv-x="671" 
d="M623 35q0 -29 -2 -41h-406q17 -127 123 -127q83 0 106 67h168q-63 -182 -274 -182q-124 0 -206.5 80t-82.5 213q0 131 83 212t204 81q122 0 204.5 -79.5t82.5 -223.5zM336 223q-101 0 -121 -119h242q-6 58 -39 88.5t-82 30.5z" />
    <glyph glyph-name="f.inferior" horiz-adv-x="442" 
d="M416 426h-51q-36 0 -54 -14t-18 -50v-38h123v-119h-123v-438h-164v438h-98v119h98v57q0 76 50.5 120t135.5 44h101v-119z" />
    <glyph glyph-name="g.inferior" horiz-adv-x="724" 
d="M481 190v134h160v-547q0 -61 -24.5 -106.5t-66.5 -70.5t-89.5 -37t-100.5 -12q-68 0 -127 18.5t-103 62t-52 104.5h168q19 -70 114 -70q55 0 88 27t33 80v137q-20 -60 -70 -98.5t-122 -38.5q-108 0 -171 77.5t-63 202.5q0 127 63 206t171 79q71 0 121.5 -42t70.5 -106z
M354 -113q63 0 97 44t34 122q0 80 -34 125t-97 45t-97 -45t-34 -125q0 -78 34 -122t97 -44z" />
    <glyph glyph-name="h.inferior" horiz-adv-x="700" 
d="M434 338q91 0 137.5 -57t46.5 -154v-4v-356h-163v313v4q0 65 -28 102t-73 37q-47 0 -74.5 -37t-27.5 -106v-313h-164v778h160v-340q52 133 186 133z" />
    <glyph glyph-name="i.inferior" horiz-adv-x="339" 
d="M252 393h-164v152h164v-152zM252 -233h-164v557h164v-557z" />
    <glyph glyph-name="j.inferior" horiz-adv-x="339" 
d="M252 393h-164v152h164v-152zM66 -434h-72v119h22q36 0 54 15t18 52v572h164v-594q0 -77 -50.5 -120.5t-135.5 -43.5z" />
    <glyph glyph-name="k.inferior" horiz-adv-x="653" 
d="M416 76l237 -309h-192l-207 276v-276h-164v778h164v-443l199 222h188z" />
    <glyph glyph-name="l.inferior" horiz-adv-x="339" 
d="M252 -233h-164v778h164v-778z" />
    <glyph glyph-name="m.inferior" horiz-adv-x="1036" 
d="M776 338q86 0 132 -57t46 -154v-4v-356h-163v313v4q0 63 -25.5 101t-69.5 38q-43 0 -68.5 -37.5t-25.5 -105.5v-313h-164v313v4q0 65 -24.5 102t-67.5 37q-44 0 -69 -38t-25 -105v-313h-164v557h160v-119q23 61 68.5 97t111.5 36q68 0 111 -38.5t59 -98.5
q20 60 66.5 98.5t111.5 38.5z" />
    <glyph glyph-name="n.inferior" horiz-adv-x="700" 
d="M434 338q91 0 137.5 -57t46.5 -154v-4v-356h-163v313v4q0 65 -28 102t-73 37q-47 0 -74.5 -37t-27.5 -106v-313h-164v557h160v-119q52 133 186 133z" />
    <glyph glyph-name="o.inferior" horiz-adv-x="696" 
d="M348 -248q-134 0 -216.5 81.5t-82.5 211.5t82.5 211.5t216.5 81.5t216.5 -81.5t82.5 -211.5t-82.5 -211.5t-216.5 -81.5zM348 -133q64 0 97.5 47t33.5 131t-33.5 131t-97.5 47t-97.5 -47t-33.5 -131t33.5 -131t97.5 -47z" />
    <glyph glyph-name="p.inferior" horiz-adv-x="724" 
d="M442 338q106 0 169 -83.5t63 -209.5q0 -128 -63 -210.5t-169 -82.5q-72 0 -122.5 38.5t-71.5 100.5v-325h-160v758h160v-134q22 65 72 106.5t122 41.5zM375 -133q64 0 97.5 47t33.5 131t-33.5 131t-97.5 47t-97.5 -47t-33.5 -131t33.5 -131t97.5 -47z" />
    <glyph glyph-name="q.inferior" horiz-adv-x="724" 
d="M477 190v134h160v-758h-160v325q-20 -61 -69.5 -100t-122.5 -39q-107 0 -170.5 83t-63.5 210t63.5 210t170.5 83q71 0 120.5 -41t71.5 -107zM350 -133q64 0 97.5 47t33.5 131t-33.5 131t-97.5 47t-97.5 -47t-33.5 -131t33.5 -131t97.5 -47z" />
    <glyph glyph-name="r.inferior" horiz-adv-x="479" 
d="M248 324v-170q15 78 65.5 131t135.5 53v-160h-35q-77 0 -119.5 -40.5t-42.5 -117.5v-253h-164v557h160z" />
    <glyph glyph-name="s.inferior" horiz-adv-x="628" 
d="M311 -248q-110 0 -179.5 47t-88.5 138h168q15 -70 111 -70q47 0 74.5 14t27.5 39t-23.5 38t-81.5 26l-100 22q-162 38 -162 160q0 76 71.5 124t172.5 48q104 0 177.5 -43.5t86.5 -124.5h-168q-3 27 -30.5 40t-65.5 13q-39 0 -62.5 -12.5t-23.5 -34.5t20 -32.5t66 -20.5
l100 -23q181 -42 181 -170q0 -83 -79 -130.5t-192 -47.5z" />
    <glyph glyph-name="t.inferior" horiz-adv-x="464" 
d="M408 205h-121v-250v-4q0 -66 71 -66h50v-118h-99q-86 0 -136 42.5t-50 118.5v4v273h-100v119h100v131h164v-131h121v-119z" />
    <glyph glyph-name="u.inferior" horiz-adv-x="696" 
d="M444 10v314h164v-557h-159v110q-49 -125 -183 -125q-90 0 -137 57.5t-47 155.5v4v355h164v-312v-4q0 -66 27.5 -103.5t72.5 -37.5q46 0 72 38.5t26 104.5z" />
    <glyph glyph-name="v.inferior" horiz-adv-x="665" 
d="M334 -215l147 539h162l-158 -557h-305l-157 557h161z" />
    <glyph glyph-name="w.inferior" horiz-adv-x="972" 
d="M705 -213l86 537h151l-94 -557h-295l-66 532l-67 -532h-295l-94 557h151l86 -537l76 537h285z" />
    <glyph glyph-name="x.inferior" horiz-adv-x="651" 
d="M426 61l211 -294h-178l-133 188l-133 -188h-179l211 294l-194 263h176l119 -164l118 164h177z" />
    <glyph glyph-name="y.inferior" horiz-adv-x="663" 
d="M334 -154l141 478h168l-225 -758h-168l76 254h-144l-164 504h166z" />
    <glyph glyph-name="z.inferior" horiz-adv-x="622" 
d="M555 172l-303 -287h321v-118h-516v151l303 287h-297v119h492v-152z" />
    <glyph glyph-name="a.ss04.inferior" horiz-adv-x="724" 
d="M477 190v134h160v-557h-160v124q-20 -61 -69.5 -100t-122.5 -39q-107 0 -170.5 83t-63.5 210t63.5 210t170.5 83q71 0 120.5 -41t71.5 -107zM350 -133q64 0 97.5 47t33.5 131t-33.5 131t-97.5 47t-97.5 -47t-33.5 -131t33.5 -131t97.5 -47z" />
    <glyph glyph-name="y.ss05.inferior" horiz-adv-x="645" 
d="M326 -63l137 387h170l-281 -758h-170l64 172l-236 586h176z" />
    <glyph glyph-name="a.superior" horiz-adv-x="688" 
d="M342 1571q133 0 198.5 -62.5t65.5 -154.5v-4v-351h-160v103q-22 -49 -69.5 -83t-120.5 -34q-85 0 -142 50t-57 132q0 150 238 172l147 15v6v4q0 48 -29 70t-71 22q-40 0 -66 -19.5t-28 -47.5h-168q9 85 80.5 133.5t181.5 48.5zM322 1087q57 0 88.5 40t31.5 108v14l-86 -8
q-131 -12 -131 -80q0 -33 27 -53.5t70 -20.5z" />
    <glyph glyph-name="b.superior" horiz-adv-x="724" 
d="M442 1571q106 0 169 -83.5t63 -209.5q0 -128 -63 -210.5t-169 -82.5q-72 0 -122.5 38.5t-71.5 100.5v-125h-160v779h160v-355q22 65 72 106.5t122 41.5zM375 1100q64 0 97.5 47t33.5 131t-33.5 131t-97.5 47t-97.5 -47t-33.5 -131t33.5 -131t97.5 -47z" />
    <glyph glyph-name="c.superior" horiz-adv-x="669" 
d="M346 985q-130 0 -213.5 81t-83.5 212q0 130 83.5 211.5t211.5 81.5q113 0 187.5 -58.5t93.5 -162.5h-168q-25 106 -113 106q-60 0 -93.5 -47.5t-33.5 -130.5q0 -87 34 -132.5t95 -45.5q89 0 115 106h168q-18 -103 -96 -162t-187 -59z" />
    <glyph glyph-name="d.superior" horiz-adv-x="724" 
d="M477 1423v355h160v-779h-160v125q-20 -61 -69.5 -100t-122.5 -39q-107 0 -170.5 83t-63.5 210t63.5 210t170.5 83q71 0 120.5 -41t71.5 -107zM350 1100q64 0 97.5 47t33.5 131t-33.5 131t-97.5 47t-97.5 -47t-33.5 -131t33.5 -131t97.5 -47z" />
    <glyph glyph-name="e.superior" horiz-adv-x="671" 
d="M623 1268q0 -29 -2 -41h-406q17 -127 123 -127q83 0 106 67h168q-63 -182 -274 -182q-124 0 -206.5 80t-82.5 213q0 131 83 212t204 81q122 0 204.5 -79.5t82.5 -223.5zM336 1456q-101 0 -121 -119h242q-6 58 -39 88.5t-82 30.5z" />
    <glyph glyph-name="f.superior" horiz-adv-x="442" 
d="M416 1659h-51q-36 0 -54 -14t-18 -50v-39h123v-118h-123v-439h-164v439h-98v118h98v58q0 76 50.5 120t135.5 44h101v-119z" />
    <glyph glyph-name="g.superior" horiz-adv-x="724" 
d="M481 1423v133h160v-546q0 -61 -24.5 -106.5t-66.5 -70.5t-89.5 -37t-100.5 -12q-68 0 -127 18.5t-103 62t-52 104.5h168q19 -70 114 -70q55 0 88 27t33 80v137q-20 -60 -70 -98.5t-122 -38.5q-108 0 -171 77.5t-63 202.5q0 127 63 206t171 79q71 0 121.5 -42t70.5 -106z
M354 1120q63 0 97 44t34 122q0 80 -34 125t-97 45t-97 -45t-34 -125q0 -78 34 -122t97 -44z" />
    <glyph glyph-name="h.superior" horiz-adv-x="700" 
d="M434 1571q91 0 137.5 -57t46.5 -154v-4v-357h-163v314v4q0 65 -28 102t-73 37q-47 0 -74.5 -37t-27.5 -106v-314h-164v779h160v-340q52 133 186 133z" />
    <glyph glyph-name="i.superior" horiz-adv-x="339" 
d="M252 1626h-164v152h164v-152zM252 999h-164v557h164v-557z" />
    <glyph glyph-name="j.superior" horiz-adv-x="339" 
d="M252 1626h-164v152h164v-152zM66 799h-72v119h22q36 0 54 15t18 52v571h164v-593q0 -77 -50.5 -120.5t-135.5 -43.5z" />
    <glyph glyph-name="k.superior" horiz-adv-x="653" 
d="M414 1309l237 -310h-192l-207 277v-277h-164v779h164v-443l199 221h188z" />
    <glyph glyph-name="l.superior" horiz-adv-x="339" 
d="M252 999h-164v779h164v-779z" />
    <glyph glyph-name="m.superior" horiz-adv-x="1036" 
d="M776 1571q86 0 132 -57t46 -154v-4v-357h-163v314v4q0 63 -25.5 101t-69.5 38q-43 0 -68.5 -37.5t-25.5 -105.5v-314h-164v314v4q0 65 -24.5 102t-67.5 37q-44 0 -69 -38t-25 -105v-314h-164v557h160v-118q23 61 68.5 97t111.5 36q68 0 111 -38.5t59 -98.5
q20 60 66.5 98.5t111.5 38.5z" />
    <glyph glyph-name="n.superior" horiz-adv-x="700" 
d="M434 1571q91 0 137.5 -57t46.5 -154v-4v-357h-163v314v4q0 65 -28 102t-73 37q-47 0 -74.5 -37t-27.5 -106v-314h-164v557h160v-118q52 133 186 133z" />
    <glyph glyph-name="o.superior" horiz-adv-x="696" 
d="M348 985q-134 0 -216.5 81.5t-82.5 211.5t82.5 211.5t216.5 81.5t216.5 -81.5t82.5 -211.5t-82.5 -211.5t-216.5 -81.5zM348 1100q64 0 97.5 47t33.5 131t-33.5 131t-97.5 47t-97.5 -47t-33.5 -131t33.5 -131t97.5 -47z" />
    <glyph glyph-name="p.superior" horiz-adv-x="724" 
d="M442 1571q106 0 169 -83.5t63 -209.5q0 -128 -63 -210.5t-169 -82.5q-72 0 -122.5 38.5t-71.5 100.5v-325h-160v757h160v-133q22 65 72 106.5t122 41.5zM375 1100q64 0 97.5 47t33.5 131t-33.5 131t-97.5 47t-97.5 -47t-33.5 -131t33.5 -131t97.5 -47z" />
    <glyph glyph-name="q.superior" horiz-adv-x="724" 
d="M477 1423v133h160v-757h-160v325q-20 -61 -69.5 -100t-122.5 -39q-107 0 -170.5 83t-63.5 210t63.5 210t170.5 83q71 0 120.5 -41t71.5 -107zM350 1100q64 0 97.5 47t33.5 131t-33.5 131t-97.5 47t-97.5 -47t-33.5 -131t33.5 -131t97.5 -47z" />
    <glyph glyph-name="r.superior" horiz-adv-x="479" 
d="M248 1556v-170q15 78 65.5 131.5t135.5 53.5v-160h-35q-77 0 -119.5 -40.5t-42.5 -117.5v-254h-164v557h160z" />
    <glyph glyph-name="s.superior" horiz-adv-x="628" 
d="M311 985q-110 0 -180 46.5t-88 137.5h168q15 -69 111 -69q47 0 74.5 14t27.5 39t-23.5 38t-81.5 26l-100 22q-162 38 -162 160q0 76 71.5 124t172.5 48q104 0 177.5 -43.5t86.5 -124.5h-168q-3 27 -30.5 40t-65.5 13q-39 0 -62.5 -12.5t-23.5 -34.5t20 -32.5t66 -20.5
l100 -23q181 -42 181 -170q0 -83 -79 -130.5t-192 -47.5z" />
    <glyph glyph-name="a.ss04.superior" horiz-adv-x="724" 
d="M477 1423v133h160v-557h-160v125q-20 -61 -69.5 -100t-122.5 -39q-107 0 -170.5 83t-63.5 210t63.5 210t170.5 83q71 0 120.5 -41t71.5 -107zM350 1100q64 0 97.5 47t33.5 131t-33.5 131t-97.5 47t-97.5 -47t-33.5 -131t33.5 -131t97.5 -47z" />
    <glyph glyph-name="y.ss05.superior" horiz-adv-x="647" 
d="M326 1169l137 387h170l-281 -757h-170l64 172l-236 585h176z" />
    <glyph glyph-name="t.superior" horiz-adv-x="464" 
d="M408 1438h-121v-250v-4q0 -66 71 -66h50v-119h-99q-85 0 -135.5 43t-50.5 119v4v273h-100v118h100v132h164v-132h121v-118z" />
    <glyph glyph-name="u.superior" horiz-adv-x="696" 
d="M444 1243v313h164v-557h-159v111q-49 -125 -183 -125q-90 0 -137 57.5t-47 155.5v4v354h164v-311v-4q0 -66 27.5 -103.5t72.5 -37.5q46 0 72 38.5t26 104.5z" />
    <glyph glyph-name="v.superior" horiz-adv-x="665" 
d="M334 1018l147 538h162l-158 -557h-305l-157 557h161z" />
    <glyph glyph-name="w.superior" horiz-adv-x="972" 
d="M705 1020l86 536h151l-94 -557h-295l-66 533l-67 -533h-295l-94 557h151l86 -536l76 536h285z" />
    <glyph glyph-name="x.superior" horiz-adv-x="651" 
d="M426 1294l211 -295h-178l-133 189l-133 -189h-179l211 295l-194 262h176l119 -163l118 163h177z" />
    <glyph glyph-name="y.superior" horiz-adv-x="663" 
d="M334 1079l141 477h168l-225 -757h-168l76 254h-144l-164 503h166z" />
    <glyph glyph-name="z.superior" horiz-adv-x="622" 
d="M555 1405l-303 -287h321v-119h-516v152l303 287h-297v118h492v-151z" />
    <glyph glyph-name="zero.zero" horiz-adv-x="1449" 
d="M725 1579q288 0 448 -207.5t160 -593.5t-160 -593.5t-448 -207.5t-448 207.5t-160 593.5t160 593.5t448 207.5zM725 1417q-192 0 -295.5 -162t-103.5 -477q0 -208 43 -344l602 885q-94 98 -246 98zM725 139q192 0 295.5 162t103.5 477q0 210 -45 346l-602 -884
q98 -101 248 -101z" />
    <glyph glyph-name="one.ss01" horiz-adv-x="1048" 
d="M686 1556v-1388h332v-168h-918v168h381v993h-368v168h108q99 0 161.5 21t93 58.5t46.5 100.5l13 47h151z" />
    <glyph glyph-name="one.ss01.dnom" horiz-adv-x="606" 
d="M418 778v-645h172v-133h-533v133h193v404h-191v133h50q81 0 117 20.5t55 71.5l6 16h131z" />
    <glyph glyph-name="one.ss01.inferior" horiz-adv-x="606" 
d="M418 545v-645h172v-133h-533v133h193v403h-191v133h50q81 0 117 20.5t55 71.5l6 17h131z" />
    <glyph glyph-name="one.ss01.numr" horiz-adv-x="606" 
d="M418 1556v-645h172v-133h-533v133h193v404h-191v133h50q81 0 117 20.5t55 71.5l6 16h131z" />
    <glyph glyph-name="one.ss01.superior" horiz-adv-x="606" 
d="M418 1778v-645h172v-134h-533v134h193v403h-191v133h50q81 0 117 20.5t55 71.5l6 17h131z" />
    <glyph glyph-name="one.ss02" horiz-adv-x="950" 
d="M752 1556v-1556h-205v1548l-481 -653v317l253 344h433z" />
    <glyph glyph-name="one.ss02.dnom" horiz-adv-x="567" 
d="M469 778v-778h-168v760l-262 -395v256l104 157h326z" />
    <glyph glyph-name="one.ss02.inferior" horiz-adv-x="567" 
d="M469 545v-778h-168v759l-262 -395v256l104 158h326z" />
    <glyph glyph-name="one.ss02.numr" horiz-adv-x="567" 
d="M469 1556v-778h-168v760l-262 -395v256l104 157h326z" />
    <glyph glyph-name="one.ss02.superior" horiz-adv-x="567" 
d="M469 1778v-779h-168v760l-262 -395v256l104 158h326z" />
    <glyph glyph-name="one.ss02.tf" 
d="M1044 1556v-1556h-204v1548l-482 -653v317l254 344h432z" />
    <glyph glyph-name="zero.tf" 
d="M768 -23q-288 0 -448 207.5t-160 593.5t160 593.5t448 207.5t448 -207.5t160 -593.5t-160 -593.5t-448 -207.5zM768 139q192 0 295.5 162t103.5 477t-103.5 477t-295.5 162t-295.5 -162t-103.5 -477t103.5 -477t295.5 -162z" />
    <glyph glyph-name="one.tf" 
d="M930 1556v-1388h332v-168h-918v168h381v993h-369v168h109q99 0 161.5 21t93 58.5t46.5 100.5l12 47h152z" />
    <glyph glyph-name="two.tf" 
d="M1040 686l-608 -518h918v-168h-1149v225l680 580q106 89 163.5 167t57.5 161q0 124 -90.5 204t-247.5 80q-154 0 -245 -75t-103 -220h-209q7 112 54.5 201t125 144t173.5 83.5t204 28.5q156 0 279.5 -53.5t195.5 -156t72 -236.5q0 -123 -66.5 -226.5t-204.5 -220.5z" />
    <glyph glyph-name="three.tf" 
d="M915 823q55 -6 108 -21.5t110 -46.5t99 -72t69.5 -105t27.5 -140q0 -112 -47.5 -201t-129.5 -145t-187.5 -85.5t-225.5 -29.5q-241 0 -386 116.5t-167 318.5h209q14 -125 101 -199t243 -74q52 0 103.5 10t102 33.5t89 58t62.5 87.5t24 118q0 95 -55.5 162.5t-145.5 99
t-204 31.5h-97v168h97q161 0 257.5 74t96.5 186q0 110 -90 180t-242 70q-139 0 -219.5 -68t-91.5 -184h-209q12 126 87 221.5t188 144t245 48.5q148 0 270.5 -47.5t196.5 -138.5t74 -209q0 -69 -22.5 -126t-57.5 -95t-84 -67t-97 -45.5t-102 -27.5z" />
    <glyph glyph-name="four.tf" 
d="M1163 623h232v-168h-232v-455h-205v455h-819v225l609 876h415v-933zM958 1548l-641 -925h641v925z" />
    <glyph glyph-name="five.tf" 
d="M840 1061q75 0 146.5 -21.5t135 -66.5t111.5 -108t76 -152t28 -193q0 -129 -45.5 -234t-123.5 -171.5t-178 -102t-212 -35.5q-229 0 -381 115t-178 320h209q12 -122 106 -197.5t240 -75.5q154 0 254 99t100 282q0 94 -30 168.5t-80 119t-111.5 68t-128.5 23.5
q-125 0 -216 -60.5t-136 -166.5l-197 20l78 864h938v-167h-753l-52 -576q48 106 153.5 177t246.5 71z" />
    <glyph glyph-name="six.tf" 
d="M838 1028q247 0 392.5 -142t145.5 -384q0 -155 -76 -275.5t-207 -185t-294 -64.5q-290 0 -456.5 203t-166.5 598q0 380 168.5 590.5t452.5 210.5q216 0 357 -104.5t185 -296.5h-209q-32 108 -114 173.5t-219 65.5q-91 0 -163.5 -37t-120.5 -101t-78.5 -154t-42 -193.5
t-7.5 -220.5q43 141 169 229t284 88zM795 139q162 0 267 100.5t105 262.5q0 165 -99 264.5t-273 99.5t-280.5 -98.5t-106.5 -247.5q0 -169 100.5 -275t286.5 -106z" />
    <glyph glyph-name="seven.tf" 
d="M258 1389v167h1022v-225l-700 -1331h-236l741 1389h-827z" />
    <glyph glyph-name="eight.tf" 
d="M971 831q71 -13 135.5 -40t123 -72.5t93.5 -117.5t35 -161q0 -145 -79.5 -251.5t-211.5 -159t-299 -52.5t-299 52.5t-211.5 159t-79.5 251.5q0 89 35 161t93.5 117.5t123 72.5t135.5 40q-70 17 -124.5 41t-106.5 63.5t-80.5 101t-28.5 141.5q0 184 150.5 292.5
t392.5 108.5t392.5 -108.5t150.5 -292.5q0 -80 -28.5 -141.5t-80.5 -101t-106.5 -63.5t-124.5 -41zM434 1165q0 -112 81.5 -182t252.5 -70t252.5 70t81.5 182q0 113 -85.5 182.5t-248.5 69.5t-248.5 -69.5t-85.5 -182.5zM768 139q72 0 137.5 18t121.5 54t89 98t33 142
q0 139 -108 220t-273 81t-273 -81t-108 -220q0 -80 33 -142t89 -98t121.5 -54t137.5 -18z" />
    <glyph glyph-name="nine.tf" 
d="M737 1579q290 0 456.5 -203t166.5 -598q0 -380 -168.5 -590.5t-452.5 -210.5q-216 0 -357 105t-185 297h209q32 -108 114 -174t219 -66q113 0 197 56t131.5 154.5t68 223.5t15.5 273q-43 -141 -169 -229.5t-284 -88.5q-247 0 -392.5 142.5t-145.5 384.5q0 117 44.5 215.5
t121.5 166t183.5 105t227.5 37.5zM741 690q174 0 280.5 98.5t106.5 247.5q0 169 -100.5 275t-286.5 106q-162 0 -267 -100t-105 -262q0 -165 99 -265t273 -100z" />
    <glyph glyph-name="zero.tf.zero" 
d="M768 1579q288 0 448 -207.5t160 -593.5t-160 -593.5t-448 -207.5t-448 207.5t-160 593.5t160 593.5t448 207.5zM768 1417q-192 0 -295.5 -162t-103.5 -477q0 -208 43 -344l602 885q-94 98 -246 98zM768 139q192 0 295.5 162t103.5 477q0 210 -45 346l-602 -884
q98 -101 248 -101z" />
    <glyph glyph-name="zero.dnom" horiz-adv-x="761" 
d="M381 -14q-156 0 -242 104t-86 299t86 299.5t242 104.5t242 -104.5t86 -299.5t-86 -299t-242 -104zM381 113q156 0 156 276q0 277 -156 277t-156 -277q0 -276 156 -276z" />
    <glyph glyph-name="one.dnom" horiz-adv-x="458" 
d="M221 762l6 16h131v-778h-168v537h-170v133h29q81 0 117 20.5t55 71.5z" />
    <glyph glyph-name="two.dnom" horiz-adv-x="716" 
d="M514 330l-254 -197h410v-133h-619v168l340 268q47 36 68.5 63.5t21.5 65.5q0 43 -32.5 72t-90.5 29q-59 0 -93.5 -30t-37.5 -81h-172q6 104 88 171t215 67q134 0 214.5 -66t80.5 -158q0 -73 -33 -128t-106 -111z" />
    <glyph glyph-name="three.dnom" horiz-adv-x="724" 
d="M451 408q57 -7 104.5 -26t84 -62.5t36.5 -104.5q0 -112 -86 -170.5t-236 -58.5q-142 0 -221.5 63t-91.5 174h172q5 -52 41 -81t100 -29q63 0 106.5 30.5t43.5 83.5q0 59 -52.5 86t-125.5 27h-50v133h50q70 0 112.5 27.5t42.5 70.5q0 41 -36 68t-91 27t-88.5 -28.5
t-36.5 -72.5h-172q6 97 88.5 162.5t208.5 65.5q128 0 213.5 -56t85.5 -145q0 -154 -202 -184z" />
    <glyph glyph-name="four.dnom" horiz-adv-x="743" 
d="M594 336h108v-133h-108v-203h-168v203h-393v168l237 407h324v-442zM426 758l-242 -422h242v422z" />
    <glyph glyph-name="five.dnom" horiz-adv-x="745" 
d="M442 535q115 0 185.5 -73.5t70.5 -199.5q0 -128 -88 -202t-231 -74q-129 0 -219.5 64.5t-102.5 176.5h172q9 -52 49 -83t101 -31q65 0 106 41.5t41 107.5q0 67 -40.5 106.5t-106.5 39.5q-53 0 -92 -25t-58 -68l-166 15l41 448h543v-133h-387l-20 -233q23 50 76.5 86.5
t125.5 36.5z" />
    <glyph glyph-name="six.dnom" horiz-adv-x="761" 
d="M438 520q121 0 196 -72t75 -194q0 -117 -89.5 -192.5t-234.5 -75.5q-153 0 -241.5 100.5t-88.5 302.5q0 201 91 302.5t239 101.5q128 0 204.5 -61t100.5 -154h-172q-31 88 -129 88q-60 0 -100.5 -41t-56.5 -107t-11 -149q21 66 79.5 108.5t137.5 42.5zM385 113
q67 0 109.5 40t42.5 101q0 63 -40.5 101t-111.5 38q-66 0 -109 -40t-43 -95q0 -60 41 -102.5t111 -42.5z" />
    <glyph glyph-name="seven.dnom" horiz-adv-x="600" 
d="M31 645v133h542v-168l-305 -610h-207l347 645h-377z" />
    <glyph glyph-name="eight.dnom" horiz-adv-x="765" 
d="M512 408q36 -6 69 -18.5t65 -34t51.5 -58.5t19.5 -84q0 -102 -92 -164.5t-242 -62.5t-242 62.5t-92 164.5q0 47 19.5 84t51.5 58.5t65 34t69 18.5q-77 18 -129.5 63t-52.5 123q0 87 86.5 143t224.5 56t224.5 -56t86.5 -143q0 -78 -52.5 -123t-129.5 -63zM383 666
q-65 0 -102 -29t-37 -72q0 -45 35.5 -72.5t103.5 -27.5t103.5 27.5t35.5 72.5q0 43 -37 72t-102 29zM383 113q70 0 116 30t46 84t-46.5 82.5t-115.5 28.5t-115.5 -28.5t-46.5 -82.5t46 -84t116 -30z" />
    <glyph glyph-name="nine.dnom" horiz-adv-x="761" 
d="M377 793q153 0 241.5 -101t88.5 -303q0 -201 -91 -302t-239 -101q-128 0 -204.5 61t-100.5 154h172q31 -88 129 -88q60 0 100.5 41t56.5 107t11 149q-21 -66 -79.5 -109t-137.5 -43q-121 0 -196 72t-75 194q0 117 89.5 193t234.5 76zM377 385q66 0 108.5 39.5t42.5 95.5
q0 60 -40.5 103t-110.5 43q-67 0 -109.5 -40.5t-42.5 -101.5q0 -63 40.5 -101t111.5 -38z" />
    <glyph glyph-name="zero.numr" horiz-adv-x="761" 
d="M381 764q-156 0 -242 104t-86 299t86 299.5t242 104.5t242 -104.5t86 -299.5t-86 -299t-242 -104zM381 891q156 0 156 276q0 277 -156 277t-156 -277q0 -276 156 -276z" />
    <glyph glyph-name="one.numr" horiz-adv-x="458" 
d="M221 1540l6 16h131v-778h-168v537h-170v133h29q81 0 117 20.5t55 71.5z" />
    <glyph glyph-name="two.numr" horiz-adv-x="716" 
d="M514 1108l-254 -197h410v-133h-619v168l340 268q47 36 68.5 63.5t21.5 65.5q0 43 -32.5 72t-90.5 29q-59 0 -93.5 -30t-37.5 -81h-172q6 104 88 171t215 67q134 0 214.5 -65.5t80.5 -157.5q0 -73 -33 -128.5t-106 -111.5z" />
    <glyph glyph-name="three.numr" horiz-adv-x="724" 
d="M451 1186q57 -7 104.5 -26t84 -62.5t36.5 -104.5q0 -112 -86 -170.5t-236 -58.5q-142 0 -221.5 63t-91.5 174h172q5 -52 41 -81t100 -29q63 0 106.5 31t43.5 84q0 59 -52 85.5t-126 26.5h-50v133h50q70 0 112.5 28t42.5 71q0 41 -35.5 67.5t-91.5 26.5q-55 0 -88.5 -28.5
t-36.5 -72.5h-172q6 97 88.5 162.5t208.5 65.5q128 0 213.5 -56t85.5 -145q0 -154 -202 -184z" />
    <glyph glyph-name="four.numr" horiz-adv-x="743" 
d="M594 1114h108v-133h-108v-203h-168v203h-393v168l237 407h324v-442zM426 1536l-242 -422h242v422z" />
    <glyph glyph-name="five.numr" horiz-adv-x="745" 
d="M442 1313q115 0 185.5 -73.5t70.5 -199.5q0 -128 -88 -202t-231 -74q-129 0 -219.5 65t-102.5 177h172q9 -52 49 -83.5t101 -31.5q65 0 106 41.5t41 107.5q0 67 -40.5 106.5t-106.5 39.5q-53 0 -92 -25t-58 -67l-166 14l41 448h543v-133h-387l-20 -233q23 50 76.5 86.5
t125.5 36.5z" />
    </font>
</defs>
</svg>
