<?xml version="1.0" standalone="no"?>
<!DOCTYPE svg PUBLIC "-//W3C//DTD SVG 1.1//EN" "http://www.w3.org/Graphics/SVG/1.1/DTD/svg11.dtd" >
<svg xmlns="http://www.w3.org/2000/svg" xmlns:xlink="http://www.w3.org/1999/xlink" version="1.1">
<metadata>
Created by FontForge 20170731 at Thu Jun  8 00:20:16 2023
 By Aleksey,,,
(c) 2014-2020. Copyright by TYPE.WELTKERN. All rights reserved.
</metadata>
<defs>
<font id="TWKEverett-Bold" horiz-adv-x="1536" >
  <font-face 
    font-family="TWK Everett"
    font-weight="700"
    font-stretch="normal"
    units-per-em="2048"
    panose-1="2 11 2 4 0 0 0 0 0 0"
    ascent="1638"
    descent="-410"
    x-height="1112"
    cap-height="1556"
    bbox="-1876 -633 6803 2241"
    underline-thickness="223"
    underline-position="-703"
    unicode-range="U+000D-FEFF"
  />
<missing-glyph horiz-adv-x="1527" 
d="M1360 0h-1192v1556h1192v-1556zM487 1300v-1044h553v1044h-553z" />
    <glyph glyph-name="fi" unicode="fi" horiz-adv-x="1409" 
d="M551 1112h725v-1112h-313v883h-412v-883h-313v883h-201v229h201v111q0 162 106 247.5t277 85.5h180v-223h-111q-72 0 -105.5 -28.5t-33.5 -100.5v-92zM958 1262v294h324v-294h-324z" />
    <glyph glyph-name="fl" unicode="fl" horiz-adv-x="1406" 
d="M1276 1556v-1556h-313v1333h-273q-72 0 -105.5 -28.5t-33.5 -100.5v-92h250v-229h-250v-883h-313v883h-201v229h201v111q0 162 106 247.5t277 85.5h655z" />
    <glyph glyph-name="W_W_W" unicode="WWW" horiz-adv-x="6834" 
d="M6199 57l291 1499h313l-311 -1556h-596l-227 1489l-227 -1489h-596l-299 1501l-301 -1501h-599l-225 1495l-227 -1495h-598l-299 1501l-301 -1501h-596l-227 1489l-228 -1489h-596l-311 1556h313l291 -1499l236 1499h589l236 -1499l291 1499h606l291 -1493l233 1493h592
l234 -1493l290 1493h607l290 -1499l236 1499h590z" />
    <glyph glyph-name="f_f" unicode="ff" horiz-adv-x="1660" 
d="M1632 1333h-112q-71 0 -104.5 -28.5t-33.5 -100.5v-92h250v-229h-250v-883h-313v883h-518v-883h-313v883h-201v229h201v111q0 162 106 247.5t277 85.5h180v-223h-111q-72 0 -105.5 -28.5t-33.5 -100.5v-92h518v111q0 162 105.5 247.5t277.5 85.5h180v-223z" />
    <glyph glyph-name="f_f_i" unicode="ffi" horiz-adv-x="2238" 
d="M1382 1112h725v-1112h-313v883h-412v-883h-313v883h-518v-883h-313v883h-201v229h201v111q0 162 106 247.5t277 85.5h180v-223h-111q-72 0 -105.5 -28.5t-33.5 -100.5v-92h518v111q0 162 105.5 247.5t277.5 85.5h180v-223h-112q-71 0 -104.5 -28.5t-33.5 -100.5v-92z
M1790 1262v294h324v-294h-324z" />
    <glyph glyph-name="f_f_l" unicode="ffl" horiz-adv-x="2238" 
d="M1794 1112v444h313v-1556h-313v883h-412v-883h-313v883h-518v-883h-313v883h-201v229h201v111q0 162 106 247.5t277 85.5h180v-223h-111q-72 0 -105.5 -28.5t-33.5 -100.5v-92h518v111q0 162 105.5 247.5t277.5 85.5h180v-223h-112q-71 0 -104.5 -28.5t-33.5 -100.5v-92
h412z" />
    <glyph glyph-name="f_j" unicode="fj" horiz-adv-x="1409" 
d="M551 1112h725v-1180q0 -162 -106 -247.5t-277 -85.5h-123v229h53q72 0 106 28.5t34 100.5v926h-412v-883h-313v883h-201v229h201v111q0 162 106 247.5t277 85.5h180v-223h-111q-72 0 -105.5 -28.5t-33.5 -100.5v-92zM958 1262v294h324v-294h-324z" />
    <glyph glyph-name="f_t" unicode="ft" horiz-adv-x="1683" 
d="M1518 229h108v-229h-178q-170 0 -276.5 85t-106.5 245v4v549h-514v-883h-313v883h-201v229h201v111q0 162 106 247.5t277 85.5h180v-223h-111q-72 0 -105.5 -28.5t-33.5 -100.5v-92h514v262h313v-262h246v-229h-246v-525v-4q0 -69 34.5 -97t105.5 -28z" />
    <glyph glyph-name="t_f" unicode="tf" horiz-adv-x="1683" 
d="M1653 1333h-111q-72 0 -105.5 -28.5t-33.5 -100.5v-92h250v-229h-250v-883h-313v883h-541v-525v-4q0 -69 33 -97t104 -28h109v-229h-177q-171 0 -276.5 85t-105.5 245v4v549h-207v229h207v262h313v-262h541v111q0 162 106 247.5t277 85.5h180v-223z" />
    <glyph glyph-name="t_t" unicode="tt" horiz-adv-x="1703" 
d="M1401 883v-525v-4q0 -69 33 -97t104 -28h109v-229h-179q-170 0 -275.5 85t-105.5 245v4v549h-538v-525v-4q0 -69 33 -97t104 -28h109v-229h-177q-171 0 -276.5 85t-105.5 245v4v549h-207v229h207v262h313v-262h538v262h314v-262h246v-229h-246z" />
    <glyph glyph-name="w_w_w" unicode="www" horiz-adv-x="5400" 
d="M4893 57l190 1055h287l-207 -1112h-543l-147 1061l-148 -1061h-542l-193 1040l-192 -1040h-543l-148 1061l-147 -1061h-543l-192 1040l-195 -1040h-543l-147 1061l-147 -1061h-543l-207 1112h287l192 -1061l152 1061h534l152 -1055l192 1055h543l193 -1055l151 1055h535
l151 -1061l193 1061h545l192 -1061l152 1061h534z" />
    <glyph glyph-name=".notdef" horiz-adv-x="1527" 
d="M1360 0h-1192v1556h1192v-1556zM487 1300v-1044h553v1044h-553z" />
    <glyph glyph-name=".null" horiz-adv-x="0" 
 />
    <glyph glyph-name="nonmarkingreturn" horiz-adv-x="682" 
 />
    <glyph glyph-name="CR" unicode="&#xd;" horiz-adv-x="475" 
 />
    <glyph glyph-name="space" unicode=" " horiz-adv-x="475" 
 />
    <glyph glyph-name="exclam" unicode="!" horiz-adv-x="626" 
d="M446 528h-264l-49 1028h363zM483 0h-340v313h340v-313z" />
    <glyph glyph-name="quotedbl" unicode="&#x22;" horiz-adv-x="917" 
d="M371 926h-232l-43 630h318zM778 926h-231l-43 630h317z" />
    <glyph glyph-name="numbersign" unicode="#" horiz-adv-x="1656" 
d="M1579 1112v-205h-334l-65 -309h293v-205h-334l-82 -393h-242l82 393h-322l-81 -393h-242l82 393h-256v205h297l65 309h-256v205h297l92 444h242l-92 -444h321l93 444h241l-92 -444h293zM616 598h322l66 309h-322z" />
    <glyph glyph-name="dollar" unicode="$" horiz-adv-x="1400" 
d="M1313 461q0 -185 -122.5 -311.5t-334.5 -161.5v-256h-309v258q-192 39 -316 168.5t-147 320.5h326q15 -124 96.5 -195t206.5 -71q134 0 208 57.5t74 159.5q0 81 -62.5 129t-205.5 86l-201 53q-75 20 -135 44.5t-113 61t-88.5 81.5t-56 106.5t-20.5 134.5
q0 171 119.5 290.5t314.5 152.5v246h309v-250q184 -35 296 -146t140 -278h-325q-23 98 -96.5 150t-186.5 52q-115 0 -185.5 -52.5t-70.5 -131.5q0 -27 7.5 -49t27 -39.5t39 -30.5t58 -26.5t68 -22.5t83.5 -24l202 -56q199 -56 299.5 -163.5t100.5 -286.5z" />
    <glyph glyph-name="percent" unicode="%" horiz-adv-x="1968" 
d="M434 698q-177 0 -276 114t-99 327q0 214 99 328t276 114t275 -114t98 -328q0 -213 -98 -327t-275 -114zM682 0h-283l887 1556h283zM434 872q70 0 104.5 64.5t34.5 202.5q0 270 -139 270q-71 0 -105 -65.5t-34 -204.5q0 -138 34 -202.5t105 -64.5zM1536 -25
q-177 0 -276 113.5t-99 327.5t99 328t276 114t275 -114t98 -328t-98 -327.5t-275 -113.5zM1536 147q139 0 139 269q0 268 -139 268q-71 0 -105 -64.5t-34 -203.5t34 -204t105 -65z" />
    <glyph glyph-name="ampersand" unicode="&#x26;" horiz-adv-x="1603" 
d="M1280 356l315 -356h-368l-129 147q-207 -172 -463 -172q-259 0 -414 117.5t-155 331.5q0 86 27.5 158.5t80 130.5t114.5 102t144 86q-93 107 -133.5 177t-40.5 151q0 146 131 249t340 103q208 0 333.5 -102t125.5 -246q0 -116 -85 -201t-257 -170l-10 -4l280 -317
l174 293h277l-256 -431q-18 -29 -31 -47zM727 1368q-65 0 -110.5 -38t-45.5 -105q0 -45 26 -85.5t85 -107.5l4 -4q95 48 143 94t48 107q0 66 -42.5 102.5t-107.5 36.5zM659 188q167 0 293 123l-366 418q-102 -62 -151.5 -128.5t-49.5 -156.5q0 -119 76 -187.5t198 -68.5z
" />
    <glyph glyph-name="quotesingle" unicode="'" horiz-adv-x="507" 
d="M371 926h-232l-43 630h318z" />
    <glyph glyph-name="parenleft" unicode="(" horiz-adv-x="718" 
d="M721 -401h-318q-325 478 -325 987q0 149 26.5 289.5t75 262t101.5 219.5t122 199h318q-69 -102 -121 -199t-101 -219.5t-75.5 -262.5t-26.5 -289q0 -505 324 -987z" />
    <glyph glyph-name="parenright" unicode=")" horiz-adv-x="718" 
d="M315 -401h-317q324 482 324 987q0 149 -26.5 289t-75.5 262.5t-101 219.5t-121 199h317q69 -102 122 -199t102 -219t75.5 -262.5t26.5 -289.5q0 -508 -326 -987z" />
    <glyph glyph-name="asterisk" unicode="*" horiz-adv-x="927" 
d="M799 1628l59 -180l-235 -76l153 -207l-155 -112l-158 209l-158 -209l-155 112l155 205l-237 78l61 180l236 -76v234h196v-234z" />
    <glyph glyph-name="plus" unicode="+" horiz-adv-x="1286" 
d="M766 678h434v-236h-434v-442h-246v442h-432v236h432v434h246v-434z" />
    <glyph glyph-name="comma" unicode="," horiz-adv-x="604" 
d="M133 0v313h338v-350l-156 -250h-206l133 287h-109z" />
    <glyph glyph-name="hyphen" unicode="-" horiz-adv-x="913" 
d="M797 457h-678v258h678v-258z" />
    <glyph glyph-name="period" unicode="." horiz-adv-x="604" 
d="M471 0h-338v313h338v-313z" />
    <glyph glyph-name="slash" unicode="/" horiz-adv-x="1103" 
d="M377 0h-336l688 1556h336z" />
    <glyph glyph-name="zero" unicode="0" horiz-adv-x="1486" 
d="M743 -25q-309 0 -478 206t-169 597q0 390 169 596.5t478 206.5t478.5 -206.5t169.5 -596.5q0 -391 -169.5 -597t-478.5 -206zM743 219q320 0 320 559t-320 559q-319 0 -319 -559t319 -559z" />
    <glyph glyph-name="one" unicode="1" horiz-adv-x="858" 
d="M422 1522l10 34h262v-1556h-321v1073h-334v258h49q152 0 226 46.5t108 144.5z" />
    <glyph glyph-name="two" unicode="2" horiz-adv-x="1390" 
d="M1001 678l-538 -422h848v-256h-1221v330l688 540q85 70 128.5 128.5t43.5 123.5q0 94 -69.5 154.5t-188.5 60.5q-122 0 -193.5 -61t-78.5 -176h-326q12 223 178 352t420 129q260 0 423 -126t163 -327q0 -131 -67.5 -235.5t-209.5 -214.5z" />
    <glyph glyph-name="three" unicode="3" horiz-adv-x="1390" 
d="M874 813q60 -6 117 -22t114 -46t99.5 -71.5t69 -103.5t26.5 -136q0 -148 -81.5 -253t-221.5 -155.5t-325 -50.5q-275 0 -428.5 125t-177.5 346h325q9 -105 81 -166t200 -61q55 0 106.5 13.5t96.5 40.5t72.5 73.5t27.5 106.5q0 80 -49.5 133.5t-127.5 76.5t-180 23h-104
v256h104q147 0 228.5 57.5t81.5 145.5q0 87 -70 139.5t-186 52.5q-114 0 -178.5 -55t-73.5 -149h-324q17 201 179.5 324.5t396.5 123.5q161 0 293.5 -48.5t211 -141t78.5 -211.5q0 -297 -381 -367z" />
    <glyph glyph-name="four" unicode="4" horiz-adv-x="1431" 
d="M1155 666h221v-256h-221v-410h-319v410h-785v327l510 819h594v-890zM836 1493l-512 -827h512v827z" />
    <glyph glyph-name="five" unicode="5" horiz-adv-x="1392" 
d="M817 1065q100 0 189.5 -35.5t159 -101.5t110.5 -170.5t41 -233.5q0 -132 -48 -238t-131.5 -173t-193.5 -102.5t-237 -35.5q-255 0 -424.5 127t-192.5 349h326q12 -103 88.5 -167.5t197.5 -64.5q125 0 206 80.5t81 224.5q0 145 -83.5 224t-203.5 79q-102 0 -176 -50
t-110 -138l-312 29l78 888h1035v-256h-740l-41 -477q40 101 140.5 171.5t240.5 70.5z" />
    <glyph glyph-name="six" unicode="6" horiz-adv-x="1462" 
d="M838 1034q246 0 394 -141.5t148 -384.5q0 -155 -79.5 -276.5t-223 -189t-325.5 -67.5q-148 0 -267.5 48.5t-207 145.5t-135.5 252t-48 357q0 198 48.5 352t137 252t208 148.5t264.5 50.5q245 0 397.5 -116t193.5 -310h-325q-25 83 -90 132.5t-172 49.5q-94 0 -164 -47.5
t-109.5 -131t-56.5 -188t-12 -227.5q40 126 155 208.5t269 82.5zM750 219q133 0 218 80t85 209q0 131 -81 210t-222 79t-227.5 -78.5t-86.5 -198.5q0 -134 83 -217.5t231 -83.5z" />
    <glyph glyph-name="seven" unicode="7" horiz-adv-x="1167" 
d="M45 1300v256h1077v-329l-630 -1227h-383l702 1300h-766z" />
    <glyph glyph-name="eight" unicode="8" horiz-adv-x="1466" 
d="M977 819q60 -11 114 -29t107.5 -50t91.5 -73.5t62 -101.5t24 -131q0 -212 -176.5 -335.5t-466.5 -123.5t-467.5 123.5t-177.5 335.5q0 88 35 158.5t95 115.5t126.5 72t142.5 39q-352 87 -352 359q0 184 165 293.5t433 109.5q267 0 431.5 -109.5t164.5 -293.5
q0 -271 -352 -359zM733 1337q-135 0 -206.5 -54t-71.5 -146q0 -89 69.5 -144t208.5 -55t208 55t69 144q0 92 -71 146t-206 54zM733 219q133 0 224.5 61t91.5 179q0 108 -88.5 170.5t-227.5 62.5q-140 0 -228.5 -62.5t-88.5 -170.5q0 -80 46 -136t115.5 -80t155.5 -24z" />
    <glyph glyph-name="nine" unicode="9" horiz-adv-x="1462" 
d="M711 1581q148 0 267 -48.5t207 -145.5t135.5 -251.5t47.5 -357.5q0 -198 -48.5 -352t-136.5 -252t-207.5 -148.5t-264.5 -50.5q-245 0 -398 116.5t-194 309.5h325q25 -83 90.5 -132.5t172.5 -49.5q94 0 164 47.5t109.5 131t56.5 188t12 227.5q-40 -126 -155 -208.5
t-269 -82.5q-246 0 -394.5 142t-148.5 385q0 155 80 276t223.5 188.5t325.5 67.5zM713 760q141 0 227 78t86 198q0 134 -82.5 217.5t-230.5 83.5q-133 0 -218 -79.5t-85 -208.5q0 -131 81 -210t222 -79z" />
    <glyph glyph-name="colon" unicode=":" horiz-adv-x="604" 
d="M471 694h-338v314h338v-314zM471 0h-338v313h338v-313z" />
    <glyph glyph-name="semicolon" unicode=";" horiz-adv-x="604" 
d="M133 694v314h338v-314h-338zM242 0h-109v313h338v-350l-156 -250h-206z" />
    <glyph glyph-name="less" unicode="&#x3c;" horiz-adv-x="1212" 
d="M100 756l996 317v-252l-844 -262l844 -264v-250l-996 317v394z" />
    <glyph glyph-name="equal" unicode="=" horiz-adv-x="1312" 
d="M1184 666h-1055v237h1055v-237zM1184 223h-1055v238h1055v-238z" />
    <glyph glyph-name="greater" unicode="&#x3e;" horiz-adv-x="1212" 
d="M117 821v252l995 -317v-394l-995 -317v250l844 264z" />
    <glyph glyph-name="question" unicode="?" horiz-adv-x="1214" 
d="M731 528h-315q0 116 38 201t121 158l107 94q77 69 108 111t31 94q0 67 -57 111t-158 44q-99 0 -162 -51.5t-69 -136.5h-322q7 133 81 231t196 147.5t276 49.5q252 0 397.5 -104.5t145.5 -278.5q0 -54 -13.5 -100t-41.5 -85.5t-54 -67t-67 -64.5l-107 -97
q-77 -67 -106 -121t-29 -135zM748 0h-338v313h338v-313z" />
    <glyph glyph-name="at" unicode="@" horiz-adv-x="1957" 
d="M973 1380q184 0 351.5 -71.5t289 -192t193 -288t71.5 -351.5q0 -107 -23.5 -190.5t-61.5 -135.5t-91 -86t-106.5 -47.5t-112.5 -13.5q-121 0 -205 53t-121 142q-41 -83 -120 -139t-197 -56q-138 0 -235 84t-97 219q0 59 20.5 105t55.5 76.5t87 52.5t107 34t125 19l238 24
v27v4q0 76 -46.5 117t-121.5 41q-71 0 -115 -36t-53 -97h-262q18 147 136 227t294 80q204 0 315 -94t111 -258v-4v-273v-4q0 -67 33 -106t90 -39q74 0 114.5 62t40.5 212q0 190 -94.5 352.5t-257 257.5t-352.5 95q-191 0 -353 -95t-256 -257t-94 -353q0 -143 55.5 -272.5
t149 -224t224 -150t274.5 -55.5q187 0 342 84l102 -168q-207 -117 -444 -117q-184 0 -351 71.5t-288 192t-192.5 288t-71.5 351.5t71.5 351.5t192.5 288t288 192t351 71.5zM930 174q93 0 152 67.5t59 172.5v45l-144 -15q-110 -12 -167.5 -42.5t-57.5 -98.5q0 -61 45 -95
t113 -34z" />
    <glyph glyph-name="A" unicode="A" horiz-adv-x="1622" 
d="M1624 0h-340l-133 420h-680l-133 -420h-340l516 1556h594zM811 1491l-254 -801h508z" />
    <glyph glyph-name="B" unicode="B" horiz-adv-x="1503" 
d="M987 797q206 -11 322 -102t116 -261q0 -205 -158.5 -319.5t-457.5 -114.5h-647v1556h641q146 0 258 -32.5t178.5 -89.5t99.5 -129.5t33 -157.5q0 -153 -105 -241t-280 -109zM815 1286h-330v-352h330q223 0 223 174q0 88 -58 133t-165 45zM485 270h344q129 0 196 51
t67 146t-67 146t-196 51h-344v-394z" />
    <glyph glyph-name="C" unicode="C" horiz-adv-x="1634" 
d="M842 -25q-161 0 -300 56.5t-241 158.5t-160.5 254t-58.5 334t58 333.5t160 254t242 159t302 56.5q278 0 475 -147.5t258 -407.5h-338q-105 299 -395 299q-194 0 -311 -149t-117 -398q0 -248 118.5 -397.5t309.5 -149.5q152 0 254.5 78t150.5 226h338q-50 -188 -158 -315
t-255.5 -186t-331.5 -59z" />
    <glyph glyph-name="D" unicode="D" horiz-adv-x="1611" 
d="M162 1556h573q179 0 323.5 -48.5t250 -143.5t162.5 -244t57 -342t-57 -342t-162.5 -244t-250 -143.5t-323.5 -48.5h-573v1556zM485 270h258q215 0 333 131t118 377q0 245 -118 376.5t-333 131.5h-258v-1016z" />
    <glyph glyph-name="E" unicode="E" horiz-adv-x="1355" 
d="M485 664v-394h766v-270h-1089v1556h1071v-270h-748v-352h734v-270h-734z" />
    <glyph glyph-name="F" unicode="F" horiz-adv-x="1294" 
d="M1208 1556v-270h-723v-377h711v-270h-711v-639h-323v1556h1046z" />
    <glyph glyph-name="G" unicode="G" horiz-adv-x="1726" 
d="M791 623v258h813v-881h-269v369q-20 -61 -48.5 -114.5t-74 -106t-101.5 -90t-135 -60.5t-171 -23q-142 0 -272 55.5t-230.5 155.5t-160.5 254t-60 338q0 241 98 424t273 281t401 98q284 0 471 -131.5t256 -380.5h-338q-97 256 -389 256q-199 0 -318.5 -149t-119.5 -398
q0 -250 123 -398.5t329 -148.5q184 0 297 104t119 288h-493z" />
    <glyph glyph-name="H" unicode="H" horiz-adv-x="1628" 
d="M1143 942v614h323v-1556h-323v651h-658v-651h-323v1556h323v-614h658z" />
    <glyph glyph-name="I" unicode="I" horiz-adv-x="647" 
d="M485 0h-323v1556h323v-1556z" />
    <glyph glyph-name="J" unicode="J" horiz-adv-x="829" 
d="M274 0h-237v270h164q84 0 118.5 34.5t34.5 113.5v1138h324v-1198q0 -177 -101.5 -267.5t-302.5 -90.5z" />
    <glyph glyph-name="K" unicode="K" horiz-adv-x="1492" 
d="M846 817l686 -817h-408l-639 772v-772h-323v1556h323v-700l582 700h395z" />
    <glyph glyph-name="L" unicode="L" horiz-adv-x="1193" 
d="M485 1556v-1286h674v-270h-997v1556h323z" />
    <glyph glyph-name="M" unicode="M" horiz-adv-x="2226" 
d="M2064 1556v-1556h-321v1503l-342 -1503h-576l-340 1493v-1493h-323v1556h626l326 -1505l324 1505h626z" />
    <glyph glyph-name="N" unicode="N" horiz-adv-x="1783" 
d="M1300 53v1503h322v-1556h-625l-514 1503v-1503h-321v1556h626z" />
    <glyph glyph-name="O" unicode="O" horiz-adv-x="1720" 
d="M860 -25q-171 0 -315 57t-246.5 160.5t-159.5 254t-57 331.5t57 331.5t159.5 254t246.5 160.5t315 57t315 -57t246.5 -160.5t159.5 -254t57 -331.5t-57 -331.5t-159.5 -254t-246.5 -160.5t-315 -57zM860 231q201 0 323 149t122 398t-122 398t-323 149t-322.5 -149
t-121.5 -398t121.5 -398t322.5 -149z" />
    <glyph glyph-name="P" unicode="P" horiz-adv-x="1460" 
d="M162 1556h614q303 0 468 -134t165 -375q0 -239 -165 -373.5t-468 -134.5h-291v-539h-323v1556zM485 809h297q142 0 217.5 61t75.5 177q0 117 -75 178t-218 61h-297v-477z" />
    <glyph glyph-name="Q" unicode="Q" horiz-adv-x="1734" 
d="M1503 293l309 -293h-393l-108 102q-191 -127 -451 -127q-171 0 -315 57t-246.5 160.5t-159.5 254t-57 331.5t57 331.5t159.5 254t246.5 160.5t315 57t315 -57t246.5 -160.5t159.5 -254t57 -331.5q0 -282 -135 -485zM860 231q136 0 240 72l-297 281h393l66 -64
q43 113 43 258q0 249 -122 398t-323 149t-322.5 -149t-121.5 -398t121.5 -398t322.5 -149z" />
    <glyph glyph-name="R" unicode="R" horiz-adv-x="1511" 
d="M1477 0h-369l-338 580h-285v-580h-323v1556h618q280 0 444.5 -133t164.5 -356q0 -151 -77 -263t-220 -171zM788 1286h-303v-436h303q126 0 197.5 58t71.5 159q0 103 -71.5 161t-197.5 58z" />
    <glyph glyph-name="S" unicode="S" horiz-adv-x="1464" 
d="M715 -25q-268 0 -446 134.5t-208 369.5h338q17 -121 106.5 -184.5t221.5 -63.5q161 0 251.5 54.5t90.5 146.5q0 87 -68.5 129t-240.5 80l-221 49q-433 92 -433 432q0 132 79.5 237.5t217 163.5t306.5 58q279 0 443.5 -119t199.5 -321h-338q-58 184 -305 184
q-121 0 -202 -47.5t-81 -126.5q0 -80 64 -119t235 -78l221 -49q225 -48 335 -153t110 -287q0 -228 -184 -359t-492 -131z" />
    <glyph glyph-name="T" unicode="T" horiz-adv-x="1359" 
d="M35 1556h1290v-270h-483v-1286h-324v1286h-483v270z" />
    <glyph glyph-name="U" unicode="U" horiz-adv-x="1587" 
d="M795 -25q-650 0 -650 646v4v931h324v-960v-4q0 -361 326 -361q323 0 323 365v960h324v-931q0 -650 -647 -650z" />
    <glyph glyph-name="V" unicode="V" horiz-adv-x="1562" 
d="M782 61l428 1495h349l-474 -1556h-610l-471 1556h348z" />
    <glyph glyph-name="W" unicode="W" horiz-adv-x="2347" 
d="M1704 57l291 1499h313l-311 -1556h-596l-227 1489l-228 -1489h-596l-311 1556h313l291 -1499l236 1499h589z" />
    <glyph glyph-name="X" unicode="X" horiz-adv-x="1581" 
d="M1001 827l596 -827h-387l-419 592l-420 -592h-387l594 825l-531 731h385l359 -505l358 505h385z" />
    <glyph glyph-name="Y" unicode="Y" horiz-adv-x="1443" 
d="M1098 1556h368l-581 -923v-633h-324v629l-581 927h364l377 -622z" />
    <glyph glyph-name="Z" unicode="Z" horiz-adv-x="1439" 
d="M1339 1206l-893 -936h932v-270h-1298v350l891 936h-879v270h1247v-350z" />
    <glyph glyph-name="bracketleft" unicode="[" horiz-adv-x="751" 
d="M696 1556v-229h-229v-1499h229v-229h-542v1957h542z" />
    <glyph glyph-name="backslash" unicode="\" horiz-adv-x="1103" 
d="M1065 0h-336l-688 1556h336z" />
    <glyph glyph-name="bracketright" unicode="]" horiz-adv-x="751" 
d="M55 1327v229h541v-1957h-541v229h228v1499h-228z" />
    <glyph glyph-name="asciicircum" unicode="^" horiz-adv-x="1179" 
d="M813 1556l299 -808h-299l-223 682l-225 -682h-297l299 808h446z" />
    <glyph glyph-name="underscore" unicode="_" horiz-adv-x="1189" 
d="M1108 -229h-1028v229h1028v-229z" />
    <glyph glyph-name="grave" unicode="`" horiz-adv-x="735" 
d="M694 1237h-291l-362 319h424z" />
    <glyph glyph-name="a" unicode="a" horiz-adv-x="1261" 
d="M631 1137q250 0 381 -120.5t131 -316.5v-4v-696h-309v209q-52 -111 -139 -172.5t-232 -61.5q-164 0 -275.5 102t-111.5 261q0 62 18.5 112t53 84.5t76.5 60t97 41.5t105.5 25.5t110.5 14.5l292 29v14v4q0 89 -51 145t-147 56q-87 0 -139 -43.5t-62 -106.5h-315
q22 169 162 266t354 97zM586 164q116 0 179.5 86.5t63.5 222.5v45l-178 -18q-45 -5 -76 -10t-68 -17t-59 -28t-37.5 -43.5t-15.5 -63.5q0 -80 54.5 -127t136.5 -47z" />
    <glyph glyph-name="b" unicode="b" horiz-adv-x="1345" 
d="M811 1137q135 0 240 -75.5t162 -208t57 -298.5t-57 -298t-162 -207t-240 -75q-126 0 -224.5 69t-144.5 179v-223h-311v1556h311v-694q40 118 135.5 196.5t233.5 78.5zM690 188q126 0 193 97.5t67 269.5q0 173 -67 271t-193 98t-193 -98t-67 -271q0 -172 67 -269.5
t193 -97.5z" />
    <glyph glyph-name="c" unicode="c" horiz-adv-x="1251" 
d="M647 -25q-258 0 -416.5 160t-158.5 422q0 260 159.5 420t415.5 160q218 0 363 -114t180 -310h-316q-22 95 -78.5 153t-148.5 58q-123 0 -189.5 -98t-66.5 -269q0 -175 67.5 -272t188.5 -97q182 0 238 207h315q-39 -200 -189 -310t-364 -110z" />
    <glyph glyph-name="d" unicode="d" horiz-adv-x="1345" 
d="M903 858v698h309v-1556h-309v225q-45 -112 -143.5 -181t-224.5 -69q-135 0 -240 75t-162 207t-57 298t57 298.5t162 208t240 75.5q139 0 234 -80t134 -199zM653 188q126 0 194 98t68 269q0 173 -68 271t-194 98q-125 0 -191.5 -98t-66.5 -271q0 -172 66.5 -269.5
t191.5 -97.5z" />
    <glyph glyph-name="e" unicode="e" horiz-adv-x="1269" 
d="M1198 551q0 -41 -6 -88h-801q17 -136 82.5 -205.5t165.5 -69.5q87 0 137.5 35.5t81.5 106.5h316q-55 -174 -194.5 -264.5t-342.5 -90.5q-257 0 -411 161.5t-154 420.5q0 257 156 418.5t409 161.5q256 0 408.5 -161t152.5 -425zM637 924q-97 0 -160.5 -62.5t-83.5 -189.5
h486q-12 118 -77.5 185t-164.5 67z" />
    <glyph glyph-name="f" unicode="f" horiz-adv-x="831" 
d="M801 1333h-111q-72 0 -105.5 -28.5t-33.5 -100.5v-92h250v-229h-250v-883h-313v883h-201v229h201v111q0 162 106 247.5t277 85.5h180v-223z" />
    <glyph glyph-name="g" unicode="g" horiz-adv-x="1345" 
d="M907 866v246h312v-1092q0 -97 -32.5 -175t-85.5 -127.5t-125.5 -83t-147.5 -47t-156 -13.5q-101 0 -191.5 22t-165.5 66t-124 116t-60 165h315q17 -76 78.5 -116t147.5 -40q105 0 170 57.5t65 169.5v238q-47 -108 -145 -175t-223 -67q-205 0 -332 156t-127 407
t127.5 407.5t331.5 156.5q139 0 233.5 -76.5t134.5 -194.5zM659 223q125 0 193 92.5t68 257.5q0 166 -68 258.5t-193 92.5q-126 0 -193 -92.5t-67 -258.5t67 -258t193 -92z" />
    <glyph glyph-name="h" unicode="h" horiz-adv-x="1288" 
d="M797 1137q186 0 278 -118t92 -314v-5v-700h-313v633v4q0 281 -205 281t-205 -285v-633h-313v1556h311v-671q42 114 129.5 183t225.5 69z" />
    <glyph glyph-name="i" unicode="i" horiz-adv-x="577" 
d="M451 1262h-324v294h324v-294zM444 0h-313v1112h313v-1112z" />
    <glyph glyph-name="j" unicode="j" horiz-adv-x="577" 
d="M451 1262h-324v294h324v-294zM63 -401h-124v229h55q71 0 104 28.5t33 100.5v1155h313v-1180q0 -162 -105 -247.5t-276 -85.5z" />
    <glyph glyph-name="k" unicode="k" horiz-adv-x="1226" 
d="M772 618l465 -618h-375l-418 563v-563h-313v1556h313v-892l402 448h371z" />
    <glyph glyph-name="l" unicode="l" horiz-adv-x="577" 
d="M444 0h-313v1556h313v-1556z" />
    <glyph glyph-name="m" unicode="m" horiz-adv-x="1951" 
d="M1473 1137q92 0 161 -32t111 -90.5t63 -136t21 -173.5v-5v-700h-313v633v4q0 145 -46 213t-143 68t-143.5 -69t-46.5 -216v-633h-314v633v4q0 145 -45.5 213t-142.5 68t-144 -69t-47 -216v-633h-313v1112h311v-227q97 252 342 252q135 0 220.5 -77t117.5 -194
q20 54 49 100t71 85.5t101.5 62.5t129.5 23z" />
    <glyph glyph-name="n" unicode="n" horiz-adv-x="1288" 
d="M797 1137q186 0 278 -118t92 -314v-5v-700h-313v633v4q0 281 -205 281t-205 -285v-633h-313v1112h311v-227q42 114 129.5 183t225.5 69z" />
    <glyph glyph-name="o" unicode="o" horiz-adv-x="1302" 
d="M651 -25q-264 0 -421.5 161t-157.5 419q0 259 157.5 420.5t421.5 161.5t422 -161.5t158 -420.5q0 -258 -158 -419t-422 -161zM651 188q126 0 193 97.5t67 269.5q0 173 -67 271t-193 98t-193 -98t-67 -271q0 -172 67 -269.5t193 -97.5z" />
    <glyph glyph-name="p" unicode="p" horiz-adv-x="1345" 
d="M811 1137q135 0 240 -75.5t162 -208t57 -298.5t-57 -298t-162 -207t-240 -75q-126 0 -224.5 69t-144.5 179v-624h-311v1513h311v-250q40 118 135.5 196.5t233.5 78.5zM690 188q126 0 193 97.5t67 269.5q0 173 -67 271t-193 98t-193 -98t-67 -271q0 -172 67 -269.5
t193 -97.5z" />
    <glyph glyph-name="q" unicode="q" horiz-adv-x="1345" 
d="M903 858v254h309v-1513h-309v626q-45 -112 -143.5 -181t-224.5 -69q-135 0 -240 75t-162 207t-57 298t57 298.5t162 208t240 75.5q139 0 234 -80t134 -199zM653 188q126 0 194 98t68 269q0 173 -68 271t-194 98q-125 0 -191.5 -98t-66.5 -271q0 -172 66.5 -269.5
t191.5 -97.5z" />
    <glyph glyph-name="r" unicode="r" horiz-adv-x="849" 
d="M442 1112v-291q35 142 127 229t244 87v-308h-80q-150 0 -219.5 -58t-69.5 -196v-575h-313v1112h311z" />
    <glyph glyph-name="s" unicode="s" horiz-adv-x="1169" 
d="M580 -25q-139 0 -247.5 38.5t-180.5 121t-91 201.5h316q16 -79 74.5 -113.5t140.5 -34.5q101 0 156 31t55 86q0 51 -42 80t-155 55l-196 43q-326 70 -326 310q0 103 65.5 182t175 120.5t242.5 41.5q129 0 234 -34.5t179.5 -107.5t98.5 -178h-315q-18 51 -71.5 79
t-123.5 28q-79 0 -132.5 -28.5t-53.5 -78.5q0 -44 41.5 -67.5t136.5 -44.5l197 -43q176 -39 260 -118.5t84 -213.5q0 -111 -69 -192t-186 -122t-267 -41z" />
    <glyph glyph-name="t" unicode="t" horiz-adv-x="851" 
d="M686 229h109v-229h-177q-171 0 -276.5 85t-105.5 245v4v549h-207v229h207v262h313v-262h244v-229h-244v-525v-4q0 -69 33 -97t104 -28z" />
    <glyph glyph-name="u" unicode="u" horiz-adv-x="1280" 
d="M834 479v633h313v-1112h-309v219q-94 -244 -351 -244q-125 0 -209 58t-120.5 153t-36.5 222v4v700h313v-633v-4q0 -280 201 -280q199 0 199 284z" />
    <glyph glyph-name="v" unicode="v" horiz-adv-x="1247" 
d="M625 55l290 1057h312l-318 -1112h-571l-318 1112h314z" />
    <glyph glyph-name="w" unicode="w" horiz-adv-x="1880" 
d="M1360 57l192 1055h285l-207 -1112h-543l-147 1061l-147 -1061h-543l-207 1112h287l192 -1061l152 1061h534z" />
    <glyph glyph-name="x" unicode="x" horiz-adv-x="1202" 
d="M797 592l407 -592h-334l-268 399l-270 -399h-336l410 592l-375 520h334l237 -344l236 344h331z" />
    <glyph glyph-name="y" unicode="y" horiz-adv-x="1230" 
d="M614 178l267 934h329l-438 -1513h-321l147 516h-264l-328 997h316z" />
    <glyph glyph-name="z" unicode="z" horiz-adv-x="1134" 
d="M1034 815l-602 -586h641v-229h-993v297l602 586h-590v229h942v-297z" />
    <glyph glyph-name="braceleft" unicode="{" horiz-adv-x="800" 
d="M567 1176v-232q0 -89 -21.5 -151.5t-66 -101.5t-99 -60.5t-134.5 -36.5q79 -14 133 -35t99.5 -59t67 -100t21.5 -150v-4v-266v-5q0 -147 135 -147h29v-229h-98q-190 0 -284.5 90.5t-94.5 247.5v4v252v4q0 76 -11.5 124t-39.5 75t-62.5 38t-91.5 17v288q58 6 92.5 17
t62 38.5t39 76t11.5 126.5v217q0 159 94 250.5t285 91.5h98v-229h-29q-135 0 -135 -151z" />
    <glyph glyph-name="bar" unicode="|" horiz-adv-x="608" 
d="M455 -463h-301v2142h301v-2142z" />
    <glyph glyph-name="braceright" unicode="}" horiz-adv-x="800" 
d="M547 993q0 -76 11.5 -124t39.5 -75t62.5 -38t91.5 -17v-288q-57 -6 -91.5 -17t-62.5 -38.5t-39.5 -76.5t-11.5 -126v-252q0 -159 -94 -250.5t-285 -91.5h-98v229h28q135 0 135 152v266q0 89 22 152t67 101.5t99.5 60t133.5 36.5q-80 14 -134 35t-99 59t-67 100t-22 150v4
v232v4q0 147 -135 147h-28v229h98q190 0 284.5 -90t94.5 -247v-5v-217v-4z" />
    <glyph glyph-name="asciitilde" unicode="~" horiz-adv-x="1386" 
d="M238 399l-150 152q75 108 165.5 167.5t188.5 59.5q59 0 110 -12t138 -47q152 -64 234 -64q65 0 117 33t106 94l149 -151q-74 -106 -165 -165.5t-189 -59.5q-61 0 -112 11.5t-136 47.5q-148 61 -233 61q-118 0 -223 -127z" />
    <glyph glyph-name="uni00A0" unicode="&#xa0;" horiz-adv-x="475" 
 />
    <glyph glyph-name="exclamdown" unicode="&#xa1;" horiz-adv-x="593" 
d="M467 799h-340v313h340v-313zM477 -401h-360l47 985h266z" />
    <glyph glyph-name="cent" unicode="&#xa2;" horiz-adv-x="1323" 
d="M924 395h315q-32 -162 -139 -266t-266 -139v-258h-304v260q-194 46 -306.5 196t-112.5 369q0 218 113.5 367t305.5 194v254h304v-250q161 -35 264 -141.5t131 -267.5h-316q-20 94 -77.5 152.5t-149.5 58.5q-123 0 -189.5 -98t-66.5 -269q0 -175 67.5 -272t188.5 -97
q182 0 238 207z" />
    <glyph glyph-name="sterling" unicode="&#xa3;" horiz-adv-x="1312" 
d="M332 256h905v-256h-1118v319q152 79 222.5 151t70.5 169v8h-316v230h199q-73 73 -112.5 142.5t-39.5 162.5q0 119 72.5 211t195 140t273.5 48q235 0 379.5 -110t163.5 -295h-326q-12 81 -67.5 124t-145.5 43q-92 0 -155.5 -53t-63.5 -141q0 -59 29.5 -109.5t91.5 -113.5
q17 -17 45 -49h436v-230h-352q-3 -123 -102.5 -216.5t-284.5 -174.5z" />
    <glyph glyph-name="currency" unicode="&#xa4;" horiz-adv-x="1363" 
d="M1190 762q0 -140 -70 -258l140 -139l-187 -185l-139 139q-118 -67 -252 -67q-135 0 -250 67l-139 -139l-189 185l140 139q-72 122 -72 258t72 258l-140 137l189 184l139 -137q119 66 250 66t250 -66l141 137l187 -184l-140 -139q70 -115 70 -256zM420 762
q0 -112 76.5 -187t185.5 -75q110 0 185 74.5t75 187.5t-75 187.5t-185 74.5q-109 0 -185.5 -75t-76.5 -187z" />
    <glyph glyph-name="yen" unicode="&#xa5;" horiz-adv-x="1570" 
d="M1159 1556h359l-453 -696h301v-229h-420v-125h420v-230h-420v-276h-319v276h-424v230h424v125h-424v229h303l-453 696h361l372 -632z" />
    <glyph glyph-name="brokenbar" unicode="&#xa6;" horiz-adv-x="624" 
d="M463 825h-301v854h301v-854zM463 -463h-301v854h301v-854z" />
    <glyph glyph-name="section" unicode="&#xa7;" horiz-adv-x="1298" 
d="M1034 346q105 -88 105 -215q0 -150 -131.5 -247t-352.5 -97q-223 0 -364.5 99t-165.5 257h324q13 -68 70 -107.5t134 -39.5q78 0 124 33t46 84q0 48 -41 81.5t-135 77.5l-311 144q-139 66 -199.5 142t-60.5 177q0 85 46.5 153t139.5 134q-102 88 -102 215
q0 150 130.5 247t350.5 97q225 0 366.5 -98.5t166.5 -257.5h-326q-13 68 -70.5 107.5t-134.5 39.5q-78 0 -123 -33t-45 -84q0 -49 40.5 -82.5t133.5 -76.5l312 -144q141 -66 200.5 -142t59.5 -177q0 -85 -46.5 -153t-140.5 -134zM541 600l293 -135q71 59 71 129
q0 56 -32.5 95.5t-116.5 78.5l-293 135q-72 -60 -72 -127q0 -57 33.5 -97t116.5 -79z" />
    <glyph glyph-name="dieresis" unicode="&#xa8;" horiz-adv-x="886" 
d="M365 1262h-324v294h324v-294zM846 1262h-324v294h324v-294z" />
    <glyph glyph-name="copyright" unicode="&#xa9;" horiz-adv-x="1890" 
d="M944 -63q-171 0 -327 67t-269 179.5t-179.5 268t-66.5 326.5t66.5 326.5t179.5 268.5t269 180t327 67t327 -67t269 -180t179.5 -268.5t66.5 -326.5t-66.5 -326.5t-179.5 -268t-269 -179.5t-327 -67zM944 121q135 0 256.5 51.5t209.5 139.5t140 210t52 256q0 135 -52 257
t-140 210.5t-210 140.5t-256 52q-179 0 -330 -88.5t-238 -240t-87 -331.5q0 -135 51.5 -256.5t139 -209.5t209 -139.5t255.5 -51.5zM954 305q-203 0 -332.5 129t-129.5 344q0 214 128.5 343.5t329.5 129.5q163 0 286 -90t153 -252h-259q-42 146 -180 146q-91 0 -145.5 -71
t-54.5 -206q0 -134 56 -205t148 -71q67 0 116 35.5t65 109.5h258q-31 -162 -152 -252t-287 -90z" />
    <glyph glyph-name="ordfeminine" unicode="&#xaa;" horiz-adv-x="700" 
d="M350 1571q144 0 212.5 -63.5t68.5 -161.5v-5v-348h-201v88q-23 -44 -69 -73t-113 -29q-84 0 -143.5 52.5t-59.5 135.5q0 155 236 174l145 13v6v4q0 38 -21.5 57t-54.5 19q-31 0 -50 -16.5t-21 -41.5h-209q10 88 86.5 138.5t193.5 50.5zM330 1100q46 0 71 36t25 95l-70 -6
q-102 -10 -102 -66q0 -27 21 -43t55 -16z" />
    <glyph glyph-name="guillemotleft" unicode="&#xab;" horiz-adv-x="1429" 
d="M401 1016h373l-323 -449l323 -471h-373l-317 471zM979 1016h371l-324 -449l324 -471h-371l-320 471z" />
    <glyph glyph-name="logicalnot" unicode="&#xac;" horiz-adv-x="1234" 
d="M1102 213h-244v453h-774v237h1018v-690z" />
    <glyph glyph-name="uni00AD" unicode="&#xad;" horiz-adv-x="913" 
d="M797 457h-678v258h678v-258z" />
    <glyph glyph-name="registered" unicode="&#xae;" horiz-adv-x="1890" 
d="M944 1620q171 0 327 -67t269 -180t179.5 -268.5t66.5 -326.5t-66.5 -326.5t-179.5 -268t-269 -179.5t-327 -67t-327 67t-269 179.5t-179.5 268t-66.5 326.5t66.5 326.5t179.5 268.5t269 180t327 67zM944 121q135 0 256.5 51.5t209.5 139.5t140 210t52 256q0 135 -52 257
t-140 210.5t-210 140.5t-256 52q-179 0 -330 -88.5t-238 -240t-87 -331.5q0 -135 51.5 -256.5t139 -209.5t209 -139.5t255.5 -51.5zM1352 940q0 -92 -47.5 -160t-135.5 -102l203 -367h-260l-170 332h-119v-332h-229v926h379q176 0 277.5 -80t101.5 -217zM969 1051h-146v-222
h146q68 0 106.5 29t38.5 82t-38.5 82t-106.5 29z" />
    <glyph glyph-name="macron" unicode="&#xaf;" horiz-adv-x="864" 
d="M823 1282h-782v219h782v-219z" />
    <glyph glyph-name="degree" unicode="&#xb0;" horiz-adv-x="870" 
d="M436 840q-154 0 -263.5 108.5t-109.5 261.5q0 154 109.5 262.5t263.5 108.5t262.5 -108.5t108.5 -262.5t-108.5 -262t-262.5 -108zM436 1059q63 0 107.5 44t44.5 107t-44.5 108.5t-107.5 45.5q-64 0 -108.5 -45.5t-44.5 -108.5t44.5 -107t108.5 -44z" />
    <glyph glyph-name="plusminus" unicode="&#xb1;" horiz-adv-x="1333" 
d="M788 1112v-276h435v-230h-435v-287h-243v287h-434v230h434v276h243zM1223 0h-1112v229h1112v-229z" />
    <glyph glyph-name="uni00B2" unicode="&#xb2;" horiz-adv-x="731" 
d="M535 1329l-240 -170h391v-166h-639v211l346 254q35 25 51.5 45.5t16.5 48.5q0 33 -25.5 54.5t-68.5 21.5q-46 0 -73.5 -25.5t-29.5 -64.5h-215q5 109 93 178.5t223 69.5q140 0 224.5 -65t84.5 -165q0 -71 -34 -124.5t-105 -102.5z" />
    <glyph glyph-name="uni00B3" unicode="&#xb3;" horiz-adv-x="731" 
d="M469 1397q41 -5 78.5 -18t70 -34.5t51.5 -57t19 -79.5q0 -111 -88 -170t-242 -59q-150 0 -232 67t-93 185h213q3 -42 31 -68t81 -26q49 0 82 24.5t33 65.5q0 88 -154 88h-57v164h57q65 0 99.5 21.5t34.5 55.5q0 31 -27 51.5t-68 20.5q-43 0 -69 -23.5t-29 -60.5h-213
q8 106 94 174t215 68q136 0 224 -56.5t88 -148.5q0 -151 -199 -184z" />
    <glyph glyph-name="acute" unicode="&#xb4;" horiz-adv-x="735" 
d="M334 1237h-293l229 319h424z" />
    <glyph glyph-name="uni00B5" unicode="&#xb5;" horiz-adv-x="1417" 
d="M1307 229h49v-229h-111q-162 0 -249.5 39.5t-118.5 140.5q-9 27 -9 41q-41 -110 -127 -178t-223 -68q-24 0 -55 7v-383h-313v1513h313v-635v-4q0 -276 201 -276q198 0 198 282v633h314v-772v-4q0 -62 29.5 -84.5t101.5 -22.5z" />
    <glyph glyph-name="paragraph" unicode="&#xb6;" horiz-adv-x="1501" 
d="M782 -190h-286v864q-186 0 -313.5 128.5t-127.5 313.5t127.5 312.5t313.5 127.5h823v-1746h-287v1505h-250v-1505z" />
    <glyph glyph-name="periodcentered" unicode="&#xb7;" horiz-adv-x="530" 
d="M406 446h-289v316h289v-316z" />
    <glyph glyph-name="cedilla" unicode="&#xb8;" horiz-adv-x="442" 
d="M233 0v-66q75 -9 121.5 -56t46.5 -118q0 -80 -59.5 -128t-157.5 -48h-143v142h92q72 0 72 53q0 25 -19.5 39t-48.5 14h-61v168h157z" />
    <glyph glyph-name="uni00B9" unicode="&#xb9;" horiz-adv-x="481" 
d="M225 1757l4 15h168v-779h-209v500h-170v166h23q82 0 122.5 23t61.5 75z" />
    <glyph glyph-name="ordmasculine" unicode="&#xba;" horiz-adv-x="702" 
d="M352 979q-142 0 -226.5 83t-84.5 214t84 213t227 82q141 0 225.5 -82t84.5 -213t-84.5 -214t-225.5 -83zM352 1120q101 0 101 156t-101 156q-102 0 -102 -156t102 -156z" />
    <glyph glyph-name="guillemotright" unicode="&#xbb;" horiz-adv-x="1429" 
d="M80 1016h371l319 -449l-319 -471h-371l323 471zM655 1016h373l318 -449l-318 -471h-373l324 471z" />
    <glyph glyph-name="onequarter" unicode="&#xbc;" horiz-adv-x="1622" 
d="M442 778h-209v500h-170v166h23q82 0 123.5 23.5t60.5 74.5l6 14h166v-778zM111 0l970 1556h267l-971 -1556h-266zM1458 350h105v-164h-105v-186h-211v186h-375v209l197 383h389v-428zM1247 727l-192 -377h192v377z" />
    <glyph glyph-name="onehalf" unicode="&#xbd;" horiz-adv-x="1640" 
d="M440 778h-209v500h-170v166h23q82 0 123.5 23.5t60.5 74.5l6 14h166v-778zM109 0l970 1556h267l-973 -1556h-264zM1423 336l-239 -170h391v-166h-641v209l348 254q35 28 50.5 48t15.5 48q0 32 -25.5 54t-69.5 22q-46 0 -72.5 -25t-29.5 -65h-213q3 109 90.5 178.5
t222.5 69.5q142 0 227 -65t85 -167q0 -69 -34.5 -122.5t-105.5 -102.5z" />
    <glyph glyph-name="threequarters" unicode="&#xbe;" horiz-adv-x="1800" 
d="M717 993q0 -111 -88 -170t-242 -59q-150 0 -232.5 67t-93.5 185h213q3 -42 31.5 -68t81.5 -26q49 0 82 24.5t33 65.5q0 88 -154 88h-57v164h57q65 0 99 21.5t34 55.5q0 31 -26.5 51.5t-67.5 20.5q-43 0 -69 -23.5t-29 -60.5h-213q8 106 94 174t215 68q136 0 223.5 -56.5
t87.5 -148.5q0 -151 -198 -184q41 -5 78.5 -18t70 -34.5t51.5 -57t19 -79.5zM291 0l971 1556h266l-973 -1556h-264zM1636 350h107v-164h-107v-186h-209v186h-376v209l196 383h389v-428zM1427 727l-194 -377h194v377z" />
    <glyph glyph-name="questiondown" unicode="&#xbf;" horiz-adv-x="1202" 
d="M799 799h-340v313h340v-313zM600 -426q-251 0 -396 103.5t-145 273.5q0 52 12.5 95.5t40 81t52.5 62.5t67 62l111 94q78 67 106.5 114.5t28.5 123.5h316q0 -110 -38.5 -188t-121.5 -148l-109 -92q-81 -67 -110 -104t-29 -89q0 -66 56 -108.5t159 -42.5q99 0 163 52.5
t71 139.5h321q-12 -199 -166 -314.5t-389 -115.5z" />
    <glyph glyph-name="Agrave" unicode="&#xc0;" horiz-adv-x="1622" 
d="M735 1970l246 -297h-309l-379 297h442zM1624 0h-340l-133 420h-680l-133 -420h-340l516 1556h594zM811 1491l-254 -801h508z" />
    <glyph glyph-name="Aacute" unicode="&#xc1;" horiz-adv-x="1622" 
d="M903 1970h440l-378 -297h-310zM1624 0h-340l-133 420h-680l-133 -420h-340l516 1556h594zM811 1491l-254 -801h508z" />
    <glyph glyph-name="Acircumflex" unicode="&#xc2;" horiz-adv-x="1622" 
d="M989 1673l-178 158l-178 -158h-291l262 297h412l262 -297h-289zM1624 0h-340l-133 420h-680l-133 -420h-340l516 1556h594zM811 1491l-254 -801h508z" />
    <glyph glyph-name="Atilde" unicode="&#xc3;" horiz-adv-x="1622" 
d="M666 1767q-48 0 -81 -21t-44 -56h-107q3 138 64 213t159 75q77 0 170 -41q66 -32 127 -32q47 0 79.5 20.5t43.5 56.5h107q-3 -139 -63.5 -214.5t-159.5 -75.5q-72 0 -170 43q-66 32 -125 32zM1624 0h-340l-133 420h-680l-133 -420h-340l516 1556h594zM811 1491l-254 -801
h508z" />
    <glyph glyph-name="Adieresis" unicode="&#xc4;" horiz-adv-x="1622" 
d="M401 1970h334v-297h-334v297zM883 1970h334v-297h-334v297zM1624 0h-340l-133 420h-680l-133 -420h-340l516 1556h594zM811 1491l-254 -801h508z" />
    <glyph glyph-name="Aring" unicode="&#xc5;" horiz-adv-x="1622" 
d="M809 1663q-120 0 -204.5 84.5t-84.5 204.5t84.5 204.5t204.5 84.5t203.5 -84.5t83.5 -204.5t-83.5 -204.5t-203.5 -84.5zM809 2056q-43 0 -73.5 -30.5t-30.5 -73.5q0 -42 31 -73.5t73 -31.5t72 31.5t30 73.5q0 43 -29.5 73.5t-72.5 30.5zM1624 0h-340l-133 420h-680
l-133 -420h-340l516 1556h594zM811 1491l-254 -801h508z" />
    <glyph glyph-name="AE" unicode="&#xc6;" horiz-adv-x="2148" 
d="M1405 664l129 -394h512v-270h-762l-133 420h-680l-133 -420h-340l516 1556h1514v-270h-830l117 -352h698v-270h-608zM811 1491l-254 -801h508z" />
    <glyph glyph-name="Ccedilla" unicode="&#xc7;" horiz-adv-x="1634" 
d="M1249 535h338q-69 -259 -240.5 -397.5t-420.5 -157.5v-43q76 -11 121 -58.5t45 -118.5q0 -81 -61 -129.5t-161 -48.5h-149v152h90q70 0 70 47q0 23 -19.5 36t-46.5 13h-59v150q-145 15 -268.5 77t-213.5 162.5t-141 244.5t-51 314q0 182 58 333.5t160 254t242 159
t302 56.5q278 0 475 -147.5t258 -407.5h-338q-105 299 -395 299q-194 0 -311 -149t-117 -398q0 -248 118.5 -397.5t309.5 -149.5q152 0 254.5 78t150.5 226z" />
    <glyph glyph-name="Egrave" unicode="&#xc8;" horiz-adv-x="1355" 
d="M643 1970l246 -297h-309l-379 297h442zM485 664v-394h766v-270h-1089v1556h1071v-270h-748v-352h734v-270h-734z" />
    <glyph glyph-name="Eacute" unicode="&#xc9;" horiz-adv-x="1355" 
d="M754 1970h440l-379 -297h-309zM485 664v-394h766v-270h-1089v1556h1071v-270h-748v-352h734v-270h-734z" />
    <glyph glyph-name="Ecircumflex" unicode="&#xca;" horiz-adv-x="1355" 
d="M877 1673l-179 158l-178 -158h-291l263 297h411l262 -297h-288zM485 664v-394h766v-270h-1089v1556h1071v-270h-748v-352h734v-270h-734z" />
    <glyph glyph-name="Edieresis" unicode="&#xcb;" horiz-adv-x="1355" 
d="M289 1970h334v-297h-334v297zM770 1970h334v-297h-334v297zM485 664v-394h766v-270h-1089v1556h1071v-270h-748v-352h734v-270h-734z" />
    <glyph glyph-name="Igrave" unicode="&#xcc;" horiz-adv-x="647" 
d="M467 1673h-309l-379 297h442zM485 0h-323v1556h323v-1556z" />
    <glyph glyph-name="Iacute" unicode="&#xcd;" horiz-adv-x="647" 
d="M485 1673h-309l248 297h440zM485 0h-323v1556h323v-1556z" />
    <glyph glyph-name="Icircumflex" unicode="&#xce;" horiz-adv-x="647" 
d="M117 1970h411l263 -297h-289l-178 158l-179 -158h-290zM485 0h-323v1556h323v-1556z" />
    <glyph glyph-name="Idieresis" unicode="&#xcf;" horiz-adv-x="647" 
d="M250 1673h-334v297h334v-297zM731 1673h-334v297h334v-297zM485 0h-323v1556h323v-1556z" />
    <glyph glyph-name="Eth" unicode="&#xd0;" horiz-adv-x="1634" 
d="M184 1556h574q179 0 323.5 -48.5t249.5 -143.5t162 -244t57 -342t-57 -342t-162 -244t-249.5 -143.5t-323.5 -48.5h-574v682h-168v238h168v636zM508 270h258q215 0 333 131t118 377q0 245 -118 376.5t-333 131.5h-258v-366h356v-238h-356v-412z" />
    <glyph glyph-name="Ntilde" unicode="&#xd1;" horiz-adv-x="1783" 
d="M791 1767q-48 0 -81 -21t-44 -56h-107q3 138 64 213t159 75q77 0 170 -41q66 -32 127 -32q47 0 79.5 20.5t43.5 56.5h107q-3 -139 -64 -214.5t-160 -75.5q-72 0 -170 43q-66 32 -124 32zM1300 53v1503h322v-1556h-625l-514 1503v-1503h-321v1556h626z" />
    <glyph glyph-name="Ograve" unicode="&#xd2;" horiz-adv-x="1720" 
d="M1053 1673h-310l-378 297h442zM860 -25q-171 0 -315 57t-246.5 160.5t-159.5 254t-57 331.5t57 331.5t159.5 254t246.5 160.5t315 57t315 -57t246.5 -160.5t159.5 -254t57 -331.5t-57 -331.5t-159.5 -254t-246.5 -160.5t-315 -57zM860 231q201 0 323 149t122 398
t-122 398t-323 149t-322.5 -149t-121.5 -398t121.5 -398t322.5 -149z" />
    <glyph glyph-name="Oacute" unicode="&#xd3;" horiz-adv-x="1720" 
d="M977 1673h-309l247 297h441zM860 -25q-171 0 -315 57t-246.5 160.5t-159.5 254t-57 331.5t57 331.5t159.5 254t246.5 160.5t315 57t315 -57t246.5 -160.5t159.5 -254t57 -331.5t-57 -331.5t-159.5 -254t-246.5 -160.5t-315 -57zM860 231q201 0 323 149t122 398t-122 398
t-323 149t-322.5 -149t-121.5 -398t121.5 -398t322.5 -149z" />
    <glyph glyph-name="Ocircumflex" unicode="&#xd4;" horiz-adv-x="1720" 
d="M1038 1673l-178 158l-178 -158h-291l262 297h412l262 -297h-289zM860 1581q171 0 315 -57t246.5 -160.5t159.5 -254t57 -331.5t-57 -331.5t-159.5 -254t-246.5 -160.5t-315 -57t-315 57t-246.5 160.5t-159.5 254t-57 331.5t57 331.5t159.5 254t246.5 160.5t315 57z
M860 231q201 0 323 149t122 398t-122 398t-323 149t-322.5 -149t-121.5 -398t121.5 -398t322.5 -149z" />
    <glyph glyph-name="Otilde" unicode="&#xd5;" horiz-adv-x="1720" 
d="M592 1690h-107q3 137 64.5 212.5t159.5 75.5q77 0 170 -41q66 -32 127 -32q47 0 79 20.5t43 56.5h107q-3 -139 -63.5 -214.5t-159.5 -75.5q-72 0 -170 43q-66 32 -125 32q-48 0 -81 -21t-44 -56zM860 -25q-171 0 -315 57t-246.5 160.5t-159.5 254t-57 331.5t57 331.5
t159.5 254t246.5 160.5t315 57t315 -57t246.5 -160.5t159.5 -254t57 -331.5t-57 -331.5t-159.5 -254t-246.5 -160.5t-315 -57zM860 231q201 0 323 149t122 398t-122 398t-323 149t-322.5 -149t-121.5 -398t121.5 -398t322.5 -149z" />
    <glyph glyph-name="Odieresis" unicode="&#xd6;" horiz-adv-x="1720" 
d="M786 1673h-333v297h333v-297zM1268 1673h-334v297h334v-297zM860 -25q-171 0 -315 57t-246.5 160.5t-159.5 254t-57 331.5t57 331.5t159.5 254t246.5 160.5t315 57t315 -57t246.5 -160.5t159.5 -254t57 -331.5t-57 -331.5t-159.5 -254t-246.5 -160.5t-315 -57zM860 231
q201 0 323 149t122 398t-122 398t-323 149t-322.5 -149t-121.5 -398t121.5 -398t322.5 -149z" />
    <glyph glyph-name="multiply" unicode="&#xd7;" horiz-adv-x="1198" 
d="M954 1075l162 -162l-354 -354l354 -356l-162 -162l-354 354l-354 -354l-164 162l356 356l-356 354l164 162l354 -354z" />
    <glyph glyph-name="Oslash" unicode="&#xd8;" horiz-adv-x="1720" 
d="M1405 1556h383l-283 -296q133 -200 133 -482q0 -181 -57 -331.5t-159.5 -254t-246.5 -160.5t-315 -57q-256 0 -450 127l-97 -102h-383l283 299q-131 201 -131 479q0 181 57 331.5t159.5 254t246.5 160.5t315 57q257 0 449 -125zM416 778q0 -116 33 -231l661 698
q-107 80 -250 80q-201 0 -322.5 -149t-121.5 -398zM1305 778q0 129 -35 232l-662 -699q110 -80 252 -80q201 0 323 149t122 398z" />
    <glyph glyph-name="Ugrave" unicode="&#xd9;" horiz-adv-x="1587" 
d="M987 1673h-309l-379 297h442zM795 -25q-650 0 -650 646v4v931h324v-960v-4q0 -361 326 -361q323 0 323 365v960h324v-931q0 -650 -647 -650z" />
    <glyph glyph-name="Uacute" unicode="&#xda;" horiz-adv-x="1587" 
d="M911 1673h-309l248 297h440zM795 -25q-650 0 -650 646v4v931h324v-960v-4q0 -361 326 -361q323 0 323 365v960h324v-931q0 -650 -647 -650z" />
    <glyph glyph-name="Ucircumflex" unicode="&#xdb;" horiz-adv-x="1587" 
d="M973 1673l-178 158l-179 -158h-290l262 297h411l263 -297h-289zM1118 596v960h324v-931q0 -650 -647 -650q-650 0 -650 646v4v931h324v-960v-4q0 -361 326 -361q323 0 323 365z" />
    <glyph glyph-name="Udieresis" unicode="&#xdc;" horiz-adv-x="1587" 
d="M721 1673h-334v297h334v-297zM1202 1673h-334v297h334v-297zM795 -25q-650 0 -650 646v4v931h324v-960v-4q0 -361 326 -361q323 0 323 365v960h324v-931q0 -650 -647 -650z" />
    <glyph glyph-name="Yacute" unicode="&#xdd;" horiz-adv-x="1443" 
d="M776 1970h441l-379 -297h-310zM1098 1556h368l-581 -923v-633h-324v629l-581 927h364l377 -622z" />
    <glyph glyph-name="Thorn" unicode="&#xde;" horiz-adv-x="1478" 
d="M485 1313h291q302 0 467.5 -135t165.5 -375q0 -239 -165 -373.5t-468 -134.5h-291v-295h-323v1556h323v-243zM485 565h297q142 0 217.5 61t75.5 177q0 115 -75 176t-218 61h-297v-475z" />
    <glyph glyph-name="germandbls" unicode="&#xdf;" horiz-adv-x="1333" 
d="M854 836q80 -8 151.5 -36.5t130 -76.5t92.5 -122.5t34 -166.5q0 -218 -119 -338.5t-328 -120.5q-138 0 -250 41v211q76 -39 152 -39q111 0 168 73.5t57 197.5q0 123 -76.5 195.5t-218.5 72.5h-26v215h22q116 0 172.5 59.5t56.5 165.5q0 95 -55 148t-141 53
q-121 0 -176.5 -77t-55.5 -208v-1083h-313v1049q0 257 144.5 394.5t400.5 137.5q234 0 375 -110t141 -291q0 -144 -88 -226t-250 -118z" />
    <glyph glyph-name="agrave" unicode="&#xe0;" horiz-adv-x="1261" 
d="M567 1556l230 -319h-291l-363 319h424zM631 1137q250 0 381 -120.5t131 -316.5v-4v-696h-309v209q-52 -111 -139 -172.5t-232 -61.5q-164 0 -275.5 102t-111.5 261q0 62 18.5 112t53 84.5t76.5 60t97 41.5t105.5 25.5t110.5 14.5l292 29v14v4q0 89 -51 145t-147 56
q-87 0 -139 -43.5t-62 -106.5h-315q22 169 162 266t354 97zM586 164q116 0 179.5 86.5t63.5 222.5v45l-178 -18q-45 -5 -76 -10t-68 -17t-59 -28t-37.5 -43.5t-15.5 -63.5q0 -80 54.5 -127t136.5 -47z" />
    <glyph glyph-name="aacute" unicode="&#xe1;" horiz-adv-x="1261" 
d="M690 1556h424l-360 -319h-293zM631 1137q250 0 381 -120.5t131 -316.5v-4v-696h-309v209q-52 -111 -139 -172.5t-232 -61.5q-164 0 -275.5 102t-111.5 261q0 62 18.5 112t53 84.5t76.5 60t97 41.5t105.5 25.5t110.5 14.5l292 29v14v4q0 89 -51 145t-147 56
q-87 0 -139 -43.5t-62 -106.5h-315q22 169 162 266t354 97zM586 164q116 0 179.5 86.5t63.5 222.5v45l-178 -18q-45 -5 -76 -10t-68 -17t-59 -28t-37.5 -43.5t-15.5 -63.5q0 -80 54.5 -127t136.5 -47z" />
    <glyph glyph-name="acircumflex" unicode="&#xe2;" horiz-adv-x="1261" 
d="M811 1237l-182 186l-180 -186h-279l262 319h395l260 -319h-276zM631 1137q250 0 381 -120.5t131 -316.5v-4v-696h-309v209q-52 -111 -139 -172.5t-232 -61.5q-164 0 -275.5 102t-111.5 261q0 62 18.5 112t53 84.5t76.5 60t97 41.5t105.5 25.5t110.5 14.5l292 29v14v4
q0 89 -51 145t-147 56q-87 0 -139 -43.5t-62 -106.5h-315q22 169 162 266t354 97zM586 164q116 0 179.5 86.5t63.5 222.5v45l-178 -18q-45 -5 -76 -10t-68 -17t-59 -28t-37.5 -43.5t-15.5 -63.5q0 -80 54.5 -127t136.5 -47z" />
    <glyph glyph-name="atilde" unicode="&#xe3;" horiz-adv-x="1261" 
d="M494 1348q-49 0 -79 -23.5t-40 -60.5h-101q3 138 60 212t151 74q67 0 160 -45q74 -32 121 -32q49 0 79 23t40 60h100q-3 -138 -60 -212t-151 -74q-72 0 -160 45q-76 33 -120 33zM631 1137q250 0 381 -120.5t131 -316.5v-4v-696h-309v209q-52 -111 -139 -172.5t-232 -61.5
q-164 0 -275.5 102t-111.5 261q0 62 18.5 112t53 84.5t76.5 60t97 41.5t105.5 25.5t110.5 14.5l292 29v14v4q0 89 -51 145t-147 56q-87 0 -139 -43.5t-62 -106.5h-315q22 169 162 266t354 97zM586 164q116 0 179.5 86.5t63.5 222.5v45l-178 -18q-45 -5 -76 -10t-68 -17
t-59 -28t-37.5 -43.5t-15.5 -63.5q0 -80 54.5 -127t136.5 -47z" />
    <glyph glyph-name="adieresis" unicode="&#xe4;" horiz-adv-x="1261" 
d="M225 1556h324v-294h-324v294zM707 1556h323v-294h-323v294zM631 1137q250 0 381 -120.5t131 -316.5v-4v-696h-309v209q-52 -111 -139 -172.5t-232 -61.5q-164 0 -275.5 102t-111.5 261q0 62 18.5 112t53 84.5t76.5 60t97 41.5t105.5 25.5t110.5 14.5l292 29v14v4
q0 89 -51 145t-147 56q-87 0 -139 -43.5t-62 -106.5h-315q22 169 162 266t354 97zM586 164q116 0 179.5 86.5t63.5 222.5v45l-178 -18q-45 -5 -76 -10t-68 -17t-59 -28t-37.5 -43.5t-15.5 -63.5q0 -80 54.5 -127t136.5 -47z" />
    <glyph glyph-name="aring" unicode="&#xe5;" horiz-adv-x="1261" 
d="M629 1229q-104 0 -178 74t-74 178t74 177t178 73t178 -73t74 -177t-74 -178t-178 -74zM629 1565q-35 0 -60.5 -24.5t-25.5 -59.5t25.5 -61.5t60.5 -26.5t60.5 26.5t25.5 61.5t-25.5 59.5t-60.5 24.5zM631 1137q250 0 381 -120.5t131 -316.5v-4v-696h-309v209
q-52 -111 -139 -172.5t-232 -61.5q-164 0 -275.5 102t-111.5 261q0 62 18.5 112t53 84.5t76.5 60t97 41.5t105.5 25.5t110.5 14.5l292 29v14v4q0 89 -51 145t-147 56q-87 0 -139 -43.5t-62 -106.5h-315q22 169 162 266t354 97zM586 164q116 0 179.5 86.5t63.5 222.5v45
l-178 -18q-45 -5 -76 -10t-68 -17t-59 -28t-37.5 -43.5t-15.5 -63.5q0 -80 54.5 -127t136.5 -47z" />
    <glyph glyph-name="ae" unicode="&#xe6;" horiz-adv-x="2023" 
d="M1952 551q0 -41 -6 -88h-799q17 -136 82 -205.5t164 -69.5q87 0 137.5 35.5t81.5 106.5h315q-55 -175 -194 -265t-342 -90q-155 0 -267 65t-174 175q-58 -108 -171 -174t-275 -66q-186 0 -307 100t-121 253q0 344 522 344h231v47v4q0 89 -51 145t-147 56
q-87 0 -139 -43.5t-62 -106.5h-315q20 168 158.5 265.5t336.5 97.5q143 0 239.5 -51t147.5 -130q136 181 394 181q257 0 409 -160.5t152 -425.5zM1393 924q-98 0 -161 -62.5t-83 -189.5h483q-12 119 -76.5 185.5t-162.5 66.5zM578 188q119 0 182.5 71t68.5 204h-176
q-258 0 -258 -137q0 -65 50 -101.5t133 -36.5z" />
    <glyph glyph-name="ccedilla" unicode="&#xe7;" horiz-adv-x="1251" 
d="M885 395h315q-38 -190 -174 -298.5t-334 -119.5v-43q75 -9 121.5 -56t46.5 -118q0 -80 -59.5 -128t-157.5 -48h-143v142h92q72 0 72 53q0 25 -19.5 39t-48.5 14h-61v152q-212 34 -337.5 187.5t-125.5 385.5q0 260 159.5 420t415.5 160q218 0 363 -114t180 -310h-316
q-22 95 -78.5 153t-148.5 58q-123 0 -189.5 -98t-66.5 -269q0 -175 67.5 -272t188.5 -97q182 0 238 207z" />
    <glyph glyph-name="egrave" unicode="&#xe8;" horiz-adv-x="1269" 
d="M573 1556l230 -319h-291l-362 319h423zM1198 551q0 -41 -6 -88h-801q17 -136 82.5 -205.5t165.5 -69.5q87 0 137.5 35.5t81.5 106.5h316q-55 -174 -194.5 -264.5t-342.5 -90.5q-257 0 -411 161.5t-154 420.5q0 257 156 418.5t409 161.5q256 0 408.5 -161t152.5 -425z
M637 924q-97 0 -160.5 -62.5t-83.5 -189.5h486q-12 118 -77.5 185t-164.5 67z" />
    <glyph glyph-name="eacute" unicode="&#xe9;" horiz-adv-x="1269" 
d="M698 1556h424l-360 -319h-293zM1198 551q0 -41 -6 -88h-801q17 -136 82.5 -205.5t165.5 -69.5q87 0 137.5 35.5t81.5 106.5h316q-55 -174 -194.5 -264.5t-342.5 -90.5q-257 0 -411 161.5t-154 420.5q0 257 156 418.5t409 161.5q256 0 408.5 -161t152.5 -425zM637 924
q-97 0 -160.5 -62.5t-83.5 -189.5h486q-12 118 -77.5 185t-164.5 67z" />
    <glyph glyph-name="ecircumflex" unicode="&#xea;" horiz-adv-x="1269" 
d="M817 1237l-182 186l-180 -186h-279l262 319h396l260 -319h-277zM1198 551q0 -41 -6 -88h-801q17 -136 82.5 -205.5t165.5 -69.5q87 0 137.5 35.5t81.5 106.5h316q-55 -174 -194.5 -264.5t-342.5 -90.5q-257 0 -411 161.5t-154 420.5q0 257 156 418.5t409 161.5
q256 0 408.5 -161t152.5 -425zM637 924q-97 0 -160.5 -62.5t-83.5 -189.5h486q-12 118 -77.5 185t-164.5 67z" />
    <glyph glyph-name="edieresis" unicode="&#xeb;" horiz-adv-x="1269" 
d="M233 1556h324v-294h-324v294zM715 1556h323v-294h-323v294zM1198 551q0 -41 -6 -88h-801q17 -136 82.5 -205.5t165.5 -69.5q87 0 137.5 35.5t81.5 106.5h316q-55 -174 -194.5 -264.5t-342.5 -90.5q-257 0 -411 161.5t-154 420.5q0 257 156 418.5t409 161.5
q256 0 408.5 -161t152.5 -425zM637 924q-97 0 -160.5 -62.5t-83.5 -189.5h486q-12 118 -77.5 185t-164.5 67z" />
    <glyph glyph-name="igrave" unicode="&#xec;" horiz-adv-x="577" 
d="M428 1237h-293l-360 319h424zM444 0h-313v1112h313v-1112z" />
    <glyph glyph-name="iacute" unicode="&#xed;" horiz-adv-x="577" 
d="M442 1237h-292l229 319h424zM444 0h-313v1112h313v-1112z" />
    <glyph glyph-name="icircumflex" unicode="&#xee;" horiz-adv-x="577" 
d="M92 1556h395l261 -319h-277l-182 186l-180 -186h-279zM444 0h-313v1112h313v-1112z" />
    <glyph glyph-name="idieresis" unicode="&#xef;" horiz-adv-x="577" 
d="M209 1262h-324v294h324v-294zM690 1262h-323v294h323v-294zM444 0h-313v1112h313v-1112z" />
    <glyph glyph-name="eth" unicode="&#xf0;" horiz-adv-x="1312" 
d="M1114 1382l-158 -47q138 -148 207.5 -324.5t69.5 -408.5q0 -296 -155.5 -461.5t-424.5 -165.5q-264 0 -421.5 161t-157.5 419q0 252 134 406.5t337 154.5q122 0 210 -71t130 -177q-32 194 -209 383l-252 -75l-45 151l162 49q-116 93 -291 180h448q62 -43 125 -96l246 74z
M653 188q125 0 192.5 94.5t67.5 262.5t-67.5 263t-192.5 95t-192.5 -95t-67.5 -263t67.5 -262.5t192.5 -94.5z" />
    <glyph glyph-name="ntilde" unicode="&#xf1;" horiz-adv-x="1288" 
d="M535 1348q-49 0 -79 -23.5t-40 -60.5h-101q3 138 60 212t151 74q68 0 160 -45q74 -32 121 -32q49 0 79 23t40 60h100q-3 -138 -60 -212t-151 -74q-73 0 -160 45q-76 33 -120 33zM797 1137q186 0 278 -118t92 -314v-5v-700h-313v633v4q0 281 -205 281t-205 -285v-633h-313
v1112h311v-227q42 114 129.5 183t225.5 69z" />
    <glyph glyph-name="ograve" unicode="&#xf2;" horiz-adv-x="1302" 
d="M819 1237h-291l-362 319h424zM651 -25q-264 0 -421.5 161t-157.5 419q0 259 157.5 420.5t421.5 161.5t422 -161.5t158 -420.5q0 -258 -158 -419t-422 -161zM651 188q126 0 193 97.5t67 269.5q0 173 -67 271t-193 98t-193 -98t-67 -271q0 -172 67 -269.5t193 -97.5z" />
    <glyph glyph-name="oacute" unicode="&#xf3;" horiz-adv-x="1302" 
d="M776 1237h-293l230 319h424zM651 -25q-264 0 -421.5 161t-157.5 419q0 259 157.5 420.5t421.5 161.5t422 -161.5t158 -420.5q0 -258 -158 -419t-422 -161zM651 188q126 0 193 97.5t67 269.5q0 173 -67 271t-193 98t-193 -98t-67 -271q0 -172 67 -269.5t193 -97.5z" />
    <glyph glyph-name="ocircumflex" unicode="&#xf4;" horiz-adv-x="1302" 
d="M834 1237l-183 186l-180 -186h-278l262 319h395l260 -319h-276zM651 1137q264 0 422 -161.5t158 -420.5q0 -258 -158 -419t-422 -161t-421.5 161t-157.5 419q0 259 157.5 420.5t421.5 161.5zM651 188q126 0 193 97.5t67 269.5q0 173 -67 271t-193 98t-193 -98t-67 -271
q0 -172 67 -269.5t193 -97.5z" />
    <glyph glyph-name="otilde" unicode="&#xf5;" horiz-adv-x="1302" 
d="M397 1264h-100q3 138 60 212t151 74q68 0 160 -45q74 -32 120 -32q49 0 79 23t40 60h101q-3 -138 -60 -212t-151 -74q-73 0 -160 45q-76 33 -121 33q-49 0 -79 -23.5t-40 -60.5zM651 -25q-264 0 -421.5 161t-157.5 419q0 259 157.5 420.5t421.5 161.5t422 -161.5
t158 -420.5q0 -258 -158 -419t-422 -161zM651 188q126 0 193 97.5t67 269.5q0 173 -67 271t-193 98t-193 -98t-67 -271q0 -172 67 -269.5t193 -97.5z" />
    <glyph glyph-name="odieresis" unicode="&#xf6;" horiz-adv-x="1302" 
d="M571 1262h-323v294h323v-294zM1053 1262h-324v294h324v-294zM651 -25q-264 0 -421.5 161t-157.5 419q0 259 157.5 420.5t421.5 161.5t422 -161.5t158 -420.5q0 -258 -158 -419t-422 -161zM651 188q126 0 193 97.5t67 269.5q0 173 -67 271t-193 98t-193 -98t-67 -271
q0 -172 67 -269.5t193 -97.5z" />
    <glyph glyph-name="divide" unicode="&#xf7;" horiz-adv-x="1320" 
d="M805 831h-289v281h289v-281zM1217 442h-1113v236h1113v-236zM805 0h-289v281h289v-281z" />
    <glyph glyph-name="oslash" unicode="&#xf8;" horiz-adv-x="1302" 
d="M1030 1112h307l-202 -211q96 -148 96 -346q0 -258 -158 -419t-422 -161q-186 0 -323 84l-56 -59h-307l203 211q-96 148 -96 344q0 259 157.5 420.5t421.5 161.5q187 0 324 -84zM391 555q0 -55 6 -102l404 419q-61 52 -150 52q-126 0 -193 -98t-67 -271zM911 555
q0 60 -8 104l-401 -419q61 -52 149 -52q126 0 193 97.5t67 269.5z" />
    <glyph glyph-name="ugrave" unicode="&#xf9;" horiz-adv-x="1280" 
d="M571 1556l230 -319h-291l-363 319h424zM834 479v633h313v-1112h-309v219q-94 -244 -351 -244q-125 0 -209 58t-120.5 153t-36.5 222v4v700h313v-633v-4q0 -280 201 -280q199 0 199 284z" />
    <glyph glyph-name="uacute" unicode="&#xfa;" horiz-adv-x="1280" 
d="M694 1556h424l-360 -319h-293zM834 479v633h313v-1112h-309v219q-94 -244 -351 -244q-125 0 -209 58t-120.5 153t-36.5 222v4v700h313v-633v-4q0 -280 201 -280q199 0 199 284z" />
    <glyph glyph-name="ucircumflex" unicode="&#xfb;" horiz-adv-x="1280" 
d="M815 1237l-182 186l-180 -186h-279l262 319h395l261 -319h-277zM834 479v633h313v-1112h-309v219q-94 -244 -351 -244q-125 0 -209 58t-120.5 153t-36.5 222v4v700h313v-633v-4q0 -280 201 -280q199 0 199 284z" />
    <glyph glyph-name="udieresis" unicode="&#xfc;" horiz-adv-x="1280" 
d="M229 1556h324v-294h-324v294zM711 1556h323v-294h-323v294zM834 479v633h313v-1112h-309v219q-94 -244 -351 -244q-125 0 -209 58t-120.5 153t-36.5 222v4v700h313v-633v-4q0 -280 201 -280q199 0 199 284z" />
    <glyph glyph-name="yacute" unicode="&#xfd;" horiz-adv-x="1230" 
d="M662 1556h423l-360 -319h-293zM614 178l267 934h329l-438 -1513h-321l147 516h-264l-328 997h316z" />
    <glyph glyph-name="thorn" unicode="&#xfe;" horiz-adv-x="1345" 
d="M811 1137q135 0 240 -75.5t162 -208t57 -298.5t-57 -298t-162 -207t-240 -75q-126 0 -224.5 69t-144.5 179v-624h-311v1957h311v-694q40 118 135.5 196.5t233.5 78.5zM690 188q126 0 193 97.5t67 269.5q0 173 -67 271t-193 98t-193 -98t-67 -271q0 -172 67 -269.5
t193 -97.5z" />
    <glyph glyph-name="ydieresis" unicode="&#xff;" horiz-adv-x="1230" 
d="M197 1556h323v-294h-323v294zM678 1556h323v-294h-323v294zM614 178l267 934h329l-438 -1513h-321l147 516h-264l-328 997h316z" />
    <glyph glyph-name="Amacron" unicode="&#x100;" horiz-adv-x="1622" 
d="M383 1937h852v-229h-852v229zM1624 0h-340l-133 420h-680l-133 -420h-340l516 1556h594zM811 1491l-254 -801h508z" />
    <glyph glyph-name="amacron" unicode="&#x101;" horiz-adv-x="1261" 
d="M238 1501h782v-219h-782v219zM631 1137q250 0 381 -120.5t131 -316.5v-4v-696h-309v209q-52 -111 -139 -172.5t-232 -61.5q-164 0 -275.5 102t-111.5 261q0 62 18.5 112t53 84.5t76.5 60t97 41.5t105.5 25.5t110.5 14.5l292 29v14v4q0 89 -51 145t-147 56
q-87 0 -139 -43.5t-62 -106.5h-315q22 169 162 266t354 97zM586 164q116 0 179.5 86.5t63.5 222.5v45l-178 -18q-45 -5 -76 -10t-68 -17t-59 -28t-37.5 -43.5t-15.5 -63.5q0 -80 54.5 -127t136.5 -47z" />
    <glyph glyph-name="Abreve" unicode="&#x102;" horiz-adv-x="1622" 
d="M809 1669q-175 0 -281 86t-106 215h227q3 -56 46.5 -89.5t113.5 -33.5t114.5 33.5t47.5 89.5h225q0 -129 -106 -215t-281 -86zM1624 0h-340l-133 420h-680l-133 -420h-340l516 1556h594zM811 1491l-254 -801h508z" />
    <glyph glyph-name="abreve" unicode="&#x103;" horiz-adv-x="1261" 
d="M631 1229q-170 0 -273.5 93.5t-103.5 233.5h227q0 -69 39 -105t111 -36q70 0 109.5 36t39.5 105h226q0 -140 -103.5 -233.5t-271.5 -93.5zM631 1137q250 0 381 -120.5t131 -316.5v-4v-696h-309v209q-52 -111 -139 -172.5t-232 -61.5q-164 0 -275.5 102t-111.5 261
q0 62 18.5 112t53 84.5t76.5 60t97 41.5t105.5 25.5t110.5 14.5l292 29v14v4q0 89 -51 145t-147 56q-87 0 -139 -43.5t-62 -106.5h-315q22 169 162 266t354 97zM586 164q116 0 179.5 86.5t63.5 222.5v45l-178 -18q-45 -5 -76 -10t-68 -17t-59 -28t-37.5 -43.5t-15.5 -63.5
q0 -80 54.5 -127t136.5 -47z" />
    <glyph glyph-name="Aogonek" unicode="&#x104;" horiz-adv-x="1622" 
d="M1450 -143q0 -66 106 -66h68v-207h-108q-164 0 -254.5 51t-90.5 154q0 106 113 211l-133 420h-680l-133 -420h-340l516 1556h594l516 -1556q-174 -58 -174 -143zM811 1491l-254 -801h508z" />
    <glyph glyph-name="aogonek" unicode="&#x105;" horiz-adv-x="1261" 
d="M631 1137q250 0 381 -120.5t131 -316.5v-4v-696h-2q-180 -61 -180 -145q0 -70 114 -70h66v-201h-107q-164 0 -253 50t-89 151q0 118 139 215h3v209q-52 -111 -139 -172.5t-232 -61.5q-164 0 -275.5 102t-111.5 261q0 62 18.5 112t53 84.5t76.5 60t97 41.5t105.5 25.5
t110.5 14.5l292 29v14v4q0 89 -51 145t-147 56q-87 0 -139 -43.5t-62 -106.5h-315q22 169 162 266t354 97zM586 164q116 0 179.5 86.5t63.5 222.5v45l-178 -18q-45 -5 -76 -10t-68 -17t-59 -28t-37.5 -43.5t-15.5 -63.5q0 -80 54.5 -127t136.5 -47z" />
    <glyph glyph-name="Cacute" unicode="&#x106;" horiz-adv-x="1634" 
d="M961 1673h-310l248 297h440zM842 -25q-161 0 -300 56.5t-241 158.5t-160.5 254t-58.5 334t58 333.5t160 254t242 159t302 56.5q278 0 475 -147.5t258 -407.5h-338q-105 299 -395 299q-194 0 -311 -149t-117 -398q0 -248 118.5 -397.5t309.5 -149.5q152 0 254.5 78
t150.5 226h338q-50 -188 -158 -315t-255.5 -186t-331.5 -59z" />
    <glyph glyph-name="cacute" unicode="&#x107;" horiz-adv-x="1251" 
d="M772 1237h-293l230 319h424zM647 -25q-258 0 -416.5 160t-158.5 422q0 260 159.5 420t415.5 160q218 0 363 -114t180 -310h-316q-22 95 -78.5 153t-148.5 58q-123 0 -189.5 -98t-66.5 -269q0 -175 67.5 -272t188.5 -97q182 0 238 207h315q-39 -200 -189 -310t-364 -110z
" />
    <glyph glyph-name="Ccircumflex" unicode="&#x108;" horiz-adv-x="1634" 
d="M1022 1673l-178 158l-178 -158h-291l262 297h412l262 -297h-289zM1249 535h338q-50 -188 -158 -315t-255.5 -186t-331.5 -59q-161 0 -300 56.5t-241 158.5t-160.5 254t-58.5 334t58 333.5t160 254t242 159t302 56.5q278 0 475 -147.5t258 -407.5h-338q-105 299 -395 299
q-194 0 -311 -149t-117 -398q0 -248 118.5 -397.5t309.5 -149.5q152 0 254.5 78t150.5 226z" />
    <glyph glyph-name="ccircumflex" unicode="&#x109;" horiz-adv-x="1251" 
d="M827 1237l-182 186l-180 -186h-279l263 319h395l260 -319h-277zM885 395h315q-39 -200 -189 -310t-364 -110q-258 0 -416.5 160t-158.5 422q0 260 159.5 420t415.5 160q218 0 363 -114t180 -310h-316q-22 95 -78.5 153t-148.5 58q-123 0 -189.5 -98t-66.5 -269
q0 -175 67.5 -272t188.5 -97q182 0 238 207z" />
    <glyph glyph-name="Cdotaccent" unicode="&#x10a;" horiz-adv-x="1634" 
d="M1010 1673h-334v297h334v-297zM842 -25q-161 0 -300 56.5t-241 158.5t-160.5 254t-58.5 334t58 333.5t160 254t242 159t302 56.5q278 0 475 -147.5t258 -407.5h-338q-105 299 -395 299q-194 0 -311 -149t-117 -398q0 -248 118.5 -397.5t309.5 -149.5q152 0 254.5 78
t150.5 226h338q-50 -188 -158 -315t-255.5 -186t-331.5 -59z" />
    <glyph glyph-name="cdotaccent" unicode="&#x10b;" horiz-adv-x="1251" 
d="M807 1262h-324v294h324v-294zM647 -25q-258 0 -416.5 160t-158.5 422q0 260 159.5 420t415.5 160q218 0 363 -114t180 -310h-316q-22 95 -78.5 153t-148.5 58q-123 0 -189.5 -98t-66.5 -269q0 -175 67.5 -272t188.5 -97q182 0 238 207h315q-39 -200 -189 -310t-364 -110z
" />
    <glyph glyph-name="Ccaron" unicode="&#x10c;" horiz-adv-x="1634" 
d="M1311 1970l-262 -297h-412l-262 297h291l178 -158l178 158h289zM1249 535h338q-50 -188 -158 -315t-255.5 -186t-331.5 -59q-161 0 -300 56.5t-241 158.5t-160.5 254t-58.5 334t58 333.5t160 254t242 159t302 56.5q278 0 475 -147.5t258 -407.5h-338q-105 299 -395 299
q-194 0 -311 -149t-117 -398q0 -248 118.5 -397.5t309.5 -149.5q152 0 254.5 78t150.5 226z" />
    <glyph glyph-name="ccaron" unicode="&#x10d;" horiz-adv-x="1251" 
d="M1104 1556l-260 -319h-395l-263 319h279l180 -186l182 186h277zM885 395h315q-39 -200 -189 -310t-364 -110q-258 0 -416.5 160t-158.5 422q0 260 159.5 420t415.5 160q218 0 363 -114t180 -310h-316q-22 95 -78.5 153t-148.5 58q-123 0 -189.5 -98t-66.5 -269
q0 -175 67.5 -272t188.5 -97q182 0 238 207z" />
    <glyph glyph-name="Dcaron" unicode="&#x10e;" horiz-adv-x="1611" 
d="M1208 1970l-262 -297h-411l-263 297h291l178 -158l179 158h288zM162 1556h573q179 0 323.5 -48.5t250 -143.5t162.5 -244t57 -342t-57 -342t-162.5 -244t-250 -143.5t-323.5 -48.5h-573v1556zM485 270h258q215 0 333 131t118 377q0 245 -118 376.5t-333 131.5h-258v-1016
z" />
    <glyph glyph-name="dcaron" unicode="&#x10f;" horiz-adv-x="1345" 
d="M903 858v698h309v-1556h-309v225q-45 -112 -143.5 -181t-224.5 -69q-135 0 -240 75t-162 207t-57 298t57 298.5t162 208t240 75.5q139 0 234 -80t134 -199zM1315 1180l28 376h281l-86 -376h-223zM653 188q126 0 194 98t68 269q0 173 -68 271t-194 98q-125 0 -191.5 -98
t-66.5 -271q0 -172 66.5 -269.5t191.5 -97.5z" />
    <glyph glyph-name="Dcroat" unicode="&#x110;" horiz-adv-x="1634" 
d="M184 1556h574q179 0 323.5 -48.5t249.5 -143.5t162 -244t57 -342t-57 -342t-162 -244t-249.5 -143.5t-323.5 -48.5h-574v682h-168v238h168v636zM508 270h258q215 0 333 131t118 377q0 245 -118 376.5t-333 131.5h-258v-366h356v-238h-356v-412z" />
    <glyph glyph-name="dcroat" unicode="&#x111;" horiz-adv-x="1345" 
d="M1212 1427h119v-200h-119v-1227h-309v225q-45 -112 -143.5 -181t-224.5 -69q-135 0 -240 75t-162 207t-57 298t57 298.5t162 208t240 75.5q139 0 234 -80t134 -199v369h-194v200h194v129h309v-129zM653 188q126 0 194 98t68 269q0 173 -68 271t-194 98q-125 0 -191.5 -98
t-66.5 -271q0 -172 66.5 -269.5t191.5 -97.5z" />
    <glyph glyph-name="Emacron" unicode="&#x112;" horiz-adv-x="1355" 
d="M270 1937h852v-229h-852v229zM485 664v-394h766v-270h-1089v1556h1071v-270h-748v-352h734v-270h-734z" />
    <glyph glyph-name="emacron" unicode="&#x113;" horiz-adv-x="1269" 
d="M244 1501h782v-219h-782v219zM1198 551q0 -41 -6 -88h-801q17 -136 82.5 -205.5t165.5 -69.5q87 0 137.5 35.5t81.5 106.5h316q-55 -174 -194.5 -264.5t-342.5 -90.5q-257 0 -411 161.5t-154 420.5q0 257 156 418.5t409 161.5q256 0 408.5 -161t152.5 -425zM637 924
q-97 0 -160.5 -62.5t-83.5 -189.5h486q-12 118 -77.5 185t-164.5 67z" />
    <glyph glyph-name="Ebreve" unicode="&#x114;" horiz-adv-x="1355" 
d="M698 1669q-175 0 -281 86t-106 215h228q3 -56 46 -89.5t113 -33.5t114.5 33.5t47.5 89.5h225q0 -129 -106 -215t-281 -86zM485 664v-394h766v-270h-1089v1556h1071v-270h-748v-352h734v-270h-734z" />
    <glyph glyph-name="ebreve" unicode="&#x115;" horiz-adv-x="1269" 
d="M637 1229q-170 0 -273.5 93.5t-103.5 233.5h227q0 -69 39 -105t111 -36q70 0 109.5 36t39.5 105h226q0 -140 -103.5 -233.5t-271.5 -93.5zM1198 551q0 -41 -6 -88h-801q17 -136 82.5 -205.5t165.5 -69.5q87 0 137.5 35.5t81.5 106.5h316q-55 -174 -194.5 -264.5
t-342.5 -90.5q-257 0 -411 161.5t-154 420.5q0 257 156 418.5t409 161.5q256 0 408.5 -161t152.5 -425zM637 924q-97 0 -160.5 -62.5t-83.5 -189.5h486q-12 118 -77.5 185t-164.5 67z" />
    <glyph glyph-name="Edotaccent" unicode="&#x116;" horiz-adv-x="1355" 
d="M530 1970h334v-297h-334v297zM485 664v-394h766v-270h-1089v1556h1071v-270h-748v-352h734v-270h-734z" />
    <glyph glyph-name="edotaccent" unicode="&#x117;" horiz-adv-x="1269" 
d="M473 1556h324v-294h-324v294zM1198 551q0 -41 -6 -88h-801q17 -136 82.5 -205.5t165.5 -69.5q87 0 137.5 35.5t81.5 106.5h316q-55 -174 -194.5 -264.5t-342.5 -90.5q-257 0 -411 161.5t-154 420.5q0 257 156 418.5t409 161.5q256 0 408.5 -161t152.5 -425zM637 924
q-97 0 -160.5 -62.5t-83.5 -189.5h486q-12 118 -77.5 185t-164.5 67z" />
    <glyph glyph-name="Eogonek" unicode="&#x118;" horiz-adv-x="1355" 
d="M1251 270v-270q-172 -58 -172 -143q0 -66 107 -66h65v-207h-106q-164 0 -254 50.5t-90 150.5q0 68 44.5 125t121.5 90h-805v1556h1071v-270h-748v-352h734v-270h-734v-394h766z" />
    <glyph glyph-name="eogonek" unicode="&#x119;" horiz-adv-x="1269" 
d="M1198 551q0 -41 -6 -88h-801q17 -136 82.5 -205.5t165.5 -69.5q87 0 137.5 35.5t81.5 106.5h316q-50 -160 -168 -246q-160 -127 -160 -221q0 -78 112 -78h68v-201h-106q-165 0 -253.5 50t-88.5 151q0 106 112 192q-18 -2 -53 -2q-257 0 -411 161.5t-154 420.5
q0 257 156 418.5t409 161.5q256 0 408.5 -161t152.5 -425zM637 924q-97 0 -160.5 -62.5t-83.5 -189.5h486q-12 118 -77.5 185t-164.5 67z" />
    <glyph glyph-name="Ecaron" unicode="&#x11a;" horiz-adv-x="1355" 
d="M1165 1970l-262 -297h-411l-263 297h291l178 -158l179 158h288zM485 664v-394h766v-270h-1089v1556h1071v-270h-748v-352h734v-270h-734z" />
    <glyph glyph-name="ecaron" unicode="&#x11b;" horiz-adv-x="1269" 
d="M1094 1556l-260 -319h-396l-262 319h279l180 -186l182 186h277zM1198 551q0 -41 -6 -88h-801q17 -136 82.5 -205.5t165.5 -69.5q87 0 137.5 35.5t81.5 106.5h316q-55 -174 -194.5 -264.5t-342.5 -90.5q-257 0 -411 161.5t-154 420.5q0 257 156 418.5t409 161.5
q256 0 408.5 -161t152.5 -425zM637 924q-97 0 -160.5 -62.5t-83.5 -189.5h486q-12 118 -77.5 185t-164.5 67z" />
    <glyph glyph-name="Gcircumflex" unicode="&#x11c;" horiz-adv-x="1726" 
d="M1032 1673l-178 158l-178 -158h-291l262 297h412l262 -297h-289zM791 623v258h813v-881h-269v369q-20 -61 -48.5 -114.5t-74 -106t-101.5 -90t-135 -60.5t-171 -23q-142 0 -272 55.5t-230.5 155.5t-160.5 254t-60 338q0 241 98 424t273 281t401 98q284 0 471 -131.5
t256 -380.5h-338q-97 256 -389 256q-199 0 -318.5 -149t-119.5 -398q0 -250 123 -398.5t329 -148.5q184 0 297 104t119 288h-493z" />
    <glyph glyph-name="gcircumflex" unicode="&#x11d;" horiz-adv-x="1345" 
d="M850 1237l-182 186l-181 -186h-278l262 319h395l260 -319h-276zM907 866v246h312v-1092q0 -97 -32.5 -175t-85.5 -127.5t-125.5 -83t-147.5 -47t-156 -13.5q-101 0 -191.5 22t-165.5 66t-124 116t-60 165h315q17 -76 78.5 -116t147.5 -40q105 0 170 57.5t65 169.5v238
q-47 -108 -145 -175t-223 -67q-205 0 -332 156t-127 407t127.5 407.5t331.5 156.5q139 0 233.5 -76.5t134.5 -194.5zM659 223q125 0 193 92.5t68 257.5q0 166 -68 258.5t-193 92.5q-126 0 -193 -92.5t-67 -258.5t67 -258t193 -92z" />
    <glyph glyph-name="Gbreve" unicode="&#x11e;" horiz-adv-x="1726" 
d="M854 1669q-175 0 -281 86t-106 215h227q3 -56 46.5 -89.5t113.5 -33.5t114.5 33.5t47.5 89.5h225q0 -129 -106 -215t-281 -86zM791 623v258h813v-881h-269v369q-20 -61 -48.5 -114.5t-74 -106t-101.5 -90t-135 -60.5t-171 -23q-142 0 -272 55.5t-230.5 155.5t-160.5 254
t-60 338q0 241 98 424t273 281t401 98q284 0 471 -131.5t256 -380.5h-338q-97 256 -389 256q-199 0 -318.5 -149t-119.5 -398q0 -250 123 -398.5t329 -148.5q184 0 297 104t119 288h-493z" />
    <glyph glyph-name="gbreve" unicode="&#x11f;" horiz-adv-x="1345" 
d="M668 1229q-170 0 -273.5 93.5t-103.5 233.5h227q0 -69 39 -105t111 -36q70 0 109.5 36t39.5 105h225q0 -140 -103 -233.5t-271 -93.5zM907 866v246h312v-1092q0 -97 -32.5 -175t-85.5 -127.5t-125.5 -83t-147.5 -47t-156 -13.5q-101 0 -191.5 22t-165.5 66t-124 116
t-60 165h315q17 -76 78.5 -116t147.5 -40q105 0 170 57.5t65 169.5v238q-47 -108 -145 -175t-223 -67q-205 0 -332 156t-127 407t127.5 407.5t331.5 156.5q139 0 233.5 -76.5t134.5 -194.5zM659 223q125 0 193 92.5t68 257.5q0 166 -68 258.5t-193 92.5q-126 0 -193 -92.5
t-67 -258.5t67 -258t193 -92z" />
    <glyph glyph-name="Gdotaccent" unicode="&#x120;" horiz-adv-x="1726" 
d="M686 1970h334v-297h-334v297zM791 623v258h813v-881h-269v369q-20 -61 -48.5 -114.5t-74 -106t-101.5 -90t-135 -60.5t-171 -23q-142 0 -272 55.5t-230.5 155.5t-160.5 254t-60 338q0 241 98 424t273 281t401 98q284 0 471 -131.5t256 -380.5h-338q-97 256 -389 256
q-199 0 -318.5 -149t-119.5 -398q0 -250 123 -398.5t329 -148.5q184 0 297 104t119 288h-493z" />
    <glyph glyph-name="gdotaccent" unicode="&#x121;" horiz-adv-x="1345" 
d="M506 1556h323v-294h-323v294zM907 866v246h312v-1092q0 -97 -32.5 -175t-85.5 -127.5t-125.5 -83t-147.5 -47t-156 -13.5q-101 0 -191.5 22t-165.5 66t-124 116t-60 165h315q17 -76 78.5 -116t147.5 -40q105 0 170 57.5t65 169.5v238q-47 -108 -145 -175t-223 -67
q-205 0 -332 156t-127 407t127.5 407.5t331.5 156.5q139 0 233.5 -76.5t134.5 -194.5zM659 223q125 0 193 92.5t68 257.5q0 166 -68 258.5t-193 92.5q-126 0 -193 -92.5t-67 -258.5t67 -258t193 -92z" />
    <glyph glyph-name="uni0122" unicode="&#x122;" horiz-adv-x="1726" 
d="M791 623v258h813v-881h-269v369q-20 -61 -48.5 -114.5t-74 -106t-101.5 -90t-135 -60.5t-171 -23q-142 0 -272 55.5t-230.5 155.5t-160.5 254t-60 338q0 241 98 424t273 281t401 98q284 0 471 -131.5t256 -380.5h-338q-97 256 -389 256q-199 0 -318.5 -149t-119.5 -398
q0 -250 123 -398.5t329 -148.5q184 0 297 104t119 288h-493zM791 -414h-107v295h334v-321l-139 -193h-203z" />
    <glyph glyph-name="uni0123" unicode="&#x123;" horiz-adv-x="1345" 
d="M727 1563h102v-297h-323v323l139 193h195zM907 866v246h312v-1092q0 -97 -32.5 -175t-85.5 -127.5t-125.5 -83t-147.5 -47t-156 -13.5q-101 0 -191.5 22t-165.5 66t-124 116t-60 165h315q17 -76 78.5 -116t147.5 -40q105 0 170 57.5t65 169.5v238q-47 -108 -145 -175
t-223 -67q-205 0 -332 156t-127 407t127.5 407.5t331.5 156.5q139 0 233.5 -76.5t134.5 -194.5zM659 223q125 0 193 92.5t68 257.5q0 166 -68 258.5t-193 92.5q-126 0 -193 -92.5t-67 -258.5t67 -258t193 -92z" />
    <glyph glyph-name="Hcircumflex" unicode="&#x124;" horiz-adv-x="1628" 
d="M993 1673l-178 158l-178 -158h-291l262 297h412l262 -297h-289zM1143 942v614h323v-1556h-323v651h-658v-651h-323v1556h323v-614h658z" />
    <glyph glyph-name="hcircumflex" unicode="&#x125;" horiz-adv-x="1288" 
d="M754 1673h-289l-178 158l-178 -158h-291l262 297h412zM797 1137q186 0 278 -118t92 -314v-5v-700h-313v633v4q0 281 -205 281t-205 -285v-633h-313v1556h311v-671q42 114 129.5 183t225.5 69z" />
    <glyph glyph-name="Hbar" unicode="&#x126;" horiz-adv-x="1628" 
d="M1466 1331h168v-229h-168v-1102h-323v651h-658v-651h-323v1102h-168v229h168v225h323v-225h658v225h323v-225zM485 942h658v160h-658v-160z" />
    <glyph glyph-name="hbar" unicode="&#x127;" horiz-adv-x="1288" 
d="M797 1137q186 0 278 -118t92 -314v-5v-700h-313v633v4q0 281 -205 281t-205 -285v-633h-313v1227h-117v200h117v129h311v-129h193v-200h-193v-342q42 114 129.5 183t225.5 69z" />
    <glyph glyph-name="Itilde" unicode="&#x128;" horiz-adv-x="647" 
d="M55 1690h-106q3 138 64 213t159 75q77 0 170 -41q66 -32 127 -32q47 0 79.5 20.5t43.5 56.5h106q-3 -139 -63.5 -214.5t-159.5 -75.5q-72 0 -170 43q-66 32 -125 32q-48 0 -81 -21t-44 -56zM485 0h-323v1556h323v-1556z" />
    <glyph glyph-name="itilde" unicode="&#x129;" horiz-adv-x="577" 
d="M33 1264h-101q3 138 60 212t151 74q67 0 160 -45q74 -32 121 -32q49 0 79 23t40 60h100q-3 -138 -60 -212t-151 -74q-72 0 -160 45q-76 33 -120 33q-49 0 -79 -23.5t-40 -60.5zM444 0h-313v1112h313v-1112z" />
    <glyph glyph-name="Imacron" unicode="&#x12a;" horiz-adv-x="647" 
d="M750 1708h-852v229h852v-229zM485 0h-323v1556h323v-1556z" />
    <glyph glyph-name="imacron" unicode="&#x12b;" horiz-adv-x="577" 
d="M678 1282h-782v219h782v-219zM444 0h-313v1112h313v-1112z" />
    <glyph glyph-name="Ibreve" unicode="&#x12c;" horiz-adv-x="647" 
d="M324 1669q-175 0 -281 86t-106 215h227q3 -56 46.5 -89.5t113.5 -33.5t114 33.5t47 89.5h226q0 -129 -106 -215t-281 -86zM485 0h-323v1556h323v-1556z" />
    <glyph glyph-name="ibreve" unicode="&#x12d;" horiz-adv-x="577" 
d="M289 1229q-170 0 -273.5 93.5t-103.5 233.5h227q0 -69 39 -105t111 -36q70 0 109.5 36t39.5 105h226q0 -140 -103.5 -233.5t-271.5 -93.5zM444 0h-313v1112h313v-1112z" />
    <glyph glyph-name="Iogonek" unicode="&#x12e;" horiz-adv-x="647" 
d="M485 1556v-1556q-174 -58 -174 -143q0 -66 107 -66h67v-207h-108q-164 0 -254 50.5t-90 150.5q0 123 129 215v1556h323z" />
    <glyph glyph-name="iogonek" unicode="&#x12f;" horiz-adv-x="577" 
d="M127 1262v294h324v-294h-324zM131 0v1112h313v-1112q-180 -61 -180 -145q0 -70 115 -70h65v-201h-104q-165 0 -253.5 50t-88.5 151q0 118 133 215z" />
    <glyph glyph-name="Idotaccent" unicode="&#x130;" horiz-adv-x="647" 
d="M489 1673h-333v297h333v-297zM485 0h-323v1556h323v-1556z" />
    <glyph glyph-name="dotlessi" unicode="&#x131;" horiz-adv-x="577" 
d="M444 0h-313v1112h313v-1112z" />
    <glyph glyph-name="Jcircumflex" unicode="&#x134;" horiz-adv-x="829" 
d="M311 1970h412l262 -297h-289l-178 158l-178 -158h-291zM354 418v1138h324v-1198q0 -177 -101.5 -267.5t-302.5 -90.5h-237v270h164q84 0 118.5 34.5t34.5 113.5z" />
    <glyph glyph-name="jcircumflex" unicode="&#x135;" horiz-adv-x="577" 
d="M92 1556h395l261 -319h-277l-182 186l-180 -186h-279zM131 -43v1155h313v-1180q0 -162 -105 -247.5t-276 -85.5h-124v229h55q71 0 104 28.5t33 100.5z" />
    <glyph glyph-name="uni0136" unicode="&#x136;" horiz-adv-x="1492" 
d="M1462 1556l-616 -739l686 -817h-408l-639 772v-772h-323v1556h323v-700l582 700h395zM733 -414h-106v295h334v-321l-140 -193h-203z" />
    <glyph glyph-name="uni0137" unicode="&#x137;" horiz-adv-x="1226" 
d="M1217 1112l-445 -494l465 -618h-375l-418 563v-563h-313v1556h313v-892l402 448h371zM582 -414h-107v295h324v-321l-137 -193h-195z" />
    <glyph glyph-name="kgreenlandic" unicode="&#x138;" horiz-adv-x="1234" 
d="M764 598l483 -598h-375l-428 541v-541h-313v1112h313v-463l410 463h371z" />
    <glyph glyph-name="Lacute" unicode="&#x139;" horiz-adv-x="1193" 
d="M424 1970h440l-379 -297h-309zM485 1556v-1286h674v-270h-997v1556h323z" />
    <glyph glyph-name="lacute" unicode="&#x13a;" horiz-adv-x="577" 
d="M459 1673h-309l247 297h441zM444 0h-313v1556h313v-1556z" />
    <glyph glyph-name="uni013B" unicode="&#x13b;" horiz-adv-x="1193" 
d="M485 1556v-1286h674v-270h-997v1556h323zM602 -414h-106v295h333v-321l-139 -193h-203z" />
    <glyph glyph-name="uni013C" unicode="&#x13c;" horiz-adv-x="577" 
d="M131 1556h313v-1556h-313v1556zM127 -414v295h324v-321l-138 -193h-194l114 219h-106z" />
    <glyph glyph-name="Lcaron" unicode="&#x13d;" horiz-adv-x="1193" 
d="M485 1556v-1286h674v-270h-997v1556h323zM690 1556h297l-106 -514h-226z" />
    <glyph glyph-name="lcaron" unicode="&#x13e;" horiz-adv-x="577" 
d="M444 0h-313v1556h313v-1556zM770 1180h-223l28 376h281z" />
    <glyph glyph-name="Ldot" unicode="&#x13f;" horiz-adv-x="1214" 
d="M485 1556v-1286h674v-270h-997v1556h323zM762 1047h338v-314h-338v314z" />
    <glyph glyph-name="ldot" unicode="&#x140;" horiz-adv-x="839" 
d="M444 0h-313v1556h313v-1556zM852 651h-289v314h289v-314z" />
    <glyph glyph-name="Lslash" unicode="&#x141;" horiz-adv-x="1228" 
d="M520 713v-443h674v-270h-997v539l-170 -93v259l170 92v759h323v-583l324 176v-260z" />
    <glyph glyph-name="lslash" unicode="&#x142;" horiz-adv-x="733" 
d="M522 1016l152 94v-266l-152 -94v-750h-313v553l-139 -86v266l139 86v737h313v-540z" />
    <glyph glyph-name="Nacute" unicode="&#x143;" horiz-adv-x="1783" 
d="M989 1970h441l-379 -297h-310zM1300 53v1503h322v-1556h-625l-514 1503v-1503h-321v1556h626z" />
    <glyph glyph-name="nacute" unicode="&#x144;" horiz-adv-x="1288" 
d="M731 1556h424l-360 -319h-293zM797 1137q186 0 278 -118t92 -314v-5v-700h-313v633v4q0 281 -205 281t-205 -285v-633h-313v1112h311v-227q42 114 129.5 183t225.5 69z" />
    <glyph glyph-name="uni0145" unicode="&#x145;" horiz-adv-x="1783" 
d="M1300 53v1503h322v-1556h-625l-514 1503v-1503h-321v1556h626zM811 -414h-106v295h333v-321l-139 -193h-203z" />
    <glyph glyph-name="uni0146" unicode="&#x146;" horiz-adv-x="1288" 
d="M797 1137q186 0 278 -118t92 -314v-5v-700h-313v633v4q0 281 -205 281t-205 -285v-633h-313v1112h311v-227q42 114 129.5 183t225.5 69zM594 -414h-107v295h324v-321l-137 -193h-195z" />
    <glyph glyph-name="Ncaron" unicode="&#x147;" horiz-adv-x="1783" 
d="M1401 1970l-262 -297h-412l-262 297h291l178 -158l178 158h289zM1300 53v1503h322v-1556h-625l-514 1503v-1503h-321v1556h626z" />
    <glyph glyph-name="ncaron" unicode="&#x148;" horiz-adv-x="1288" 
d="M1128 1556l-260 -319h-395l-262 319h278l181 -186l182 186h276zM797 1137q186 0 278 -118t92 -314v-5v-700h-313v633v4q0 281 -205 281t-205 -285v-633h-313v1112h311v-227q42 114 129.5 183t225.5 69z" />
    <glyph glyph-name="Eng" unicode="&#x14a;" horiz-adv-x="1769" 
d="M1300 1556h322v-1556h-14v-57q0 -166 -103 -255t-301 -89h-217v235h162q85 0 120.5 34t35.5 112v20h-308l-514 1503v-1503h-321v1556h626l512 -1503v1503z" />
    <glyph glyph-name="eng" unicode="&#x14b;" horiz-adv-x="1288" 
d="M797 1137q186 0 278 -118t92 -314v-5v-761q0 -167 -105.5 -253.5t-277.5 -86.5h-122v229h53q71 0 105 28.5t34 100.5v676v4q0 281 -205 281t-205 -285v-633h-313v1112h311v-227q42 114 129.5 183t225.5 69z" />
    <glyph glyph-name="Omacron" unicode="&#x14c;" horiz-adv-x="1720" 
d="M1286 1708h-852v229h852v-229zM860 -25q-171 0 -315 57t-246.5 160.5t-159.5 254t-57 331.5t57 331.5t159.5 254t246.5 160.5t315 57t315 -57t246.5 -160.5t159.5 -254t57 -331.5t-57 -331.5t-159.5 -254t-246.5 -160.5t-315 -57zM860 231q201 0 323 149t122 398
t-122 398t-323 149t-322.5 -149t-121.5 -398t121.5 -398t322.5 -149z" />
    <glyph glyph-name="omacron" unicode="&#x14d;" horiz-adv-x="1302" 
d="M1042 1282h-782v219h782v-219zM651 -25q-264 0 -421.5 161t-157.5 419q0 259 157.5 420.5t421.5 161.5t422 -161.5t158 -420.5q0 -258 -158 -419t-422 -161zM651 188q126 0 193 97.5t67 269.5q0 173 -67 271t-193 98t-193 -98t-67 -271q0 -172 67 -269.5t193 -97.5z" />
    <glyph glyph-name="Obreve" unicode="&#x14e;" horiz-adv-x="1720" 
d="M860 1669q-175 0 -281 86t-106 215h227q3 -56 46.5 -89.5t113.5 -33.5t114.5 33.5t47.5 89.5h225q0 -129 -106 -215t-281 -86zM860 -25q-171 0 -315 57t-246.5 160.5t-159.5 254t-57 331.5t57 331.5t159.5 254t246.5 160.5t315 57t315 -57t246.5 -160.5t159.5 -254
t57 -331.5t-57 -331.5t-159.5 -254t-246.5 -160.5t-315 -57zM860 231q201 0 323 149t122 398t-122 398t-323 149t-322.5 -149t-121.5 -398t121.5 -398t322.5 -149z" />
    <glyph glyph-name="obreve" unicode="&#x14f;" horiz-adv-x="1302" 
d="M651 1229q-170 0 -273.5 93.5t-103.5 233.5h228q0 -70 39 -105.5t110 -35.5t110.5 36t39.5 105h225q0 -140 -103.5 -233.5t-271.5 -93.5zM651 -25q-264 0 -421.5 161t-157.5 419q0 259 157.5 420.5t421.5 161.5t422 -161.5t158 -420.5q0 -258 -158 -419t-422 -161z
M651 188q126 0 193 97.5t67 269.5q0 173 -67 271t-193 98t-193 -98t-67 -271q0 -172 67 -269.5t193 -97.5z" />
    <glyph glyph-name="Ohungarumlaut" unicode="&#x150;" horiz-adv-x="1720" 
d="M750 1673h-291l270 297h393zM1221 1673h-291l270 297h393zM860 -25q-171 0 -315 57t-246.5 160.5t-159.5 254t-57 331.5t57 331.5t159.5 254t246.5 160.5t315 57t315 -57t246.5 -160.5t159.5 -254t57 -331.5t-57 -331.5t-159.5 -254t-246.5 -160.5t-315 -57zM860 231
q201 0 323 149t122 398t-122 398t-323 149t-322.5 -149t-121.5 -398t121.5 -398t322.5 -149z" />
    <glyph glyph-name="ohungarumlaut" unicode="&#x151;" horiz-adv-x="1302" 
d="M567 1237h-268l227 319h371zM1022 1237h-268l227 319h371zM651 -25q-264 0 -421.5 161t-157.5 419q0 259 157.5 420.5t421.5 161.5t422 -161.5t158 -420.5q0 -258 -158 -419t-422 -161zM651 188q126 0 193 97.5t67 269.5q0 173 -67 271t-193 98t-193 -98t-67 -271
q0 -172 67 -269.5t193 -97.5z" />
    <glyph glyph-name="OE" unicode="&#x152;" horiz-adv-x="2340" 
d="M1470 664v-394h768v-270h-1331q-174 0 -326 55t-263 154t-174.5 246t-63.5 323t63.5 323t174.5 246t263 154t326 55h1313v-270h-750v-352h736v-270h-736zM907 270h240v1016h-240q-139 0 -249.5 -58t-177 -175t-66.5 -275t66.5 -275t177 -175t249.5 -58z" />
    <glyph glyph-name="oe" unicode="&#x153;" horiz-adv-x="2103" 
d="M2032 551q0 -34 -7 -88h-800q17 -136 82.5 -205.5t165.5 -69.5q87 0 137.5 35.5t81.5 106.5h315q-55 -174 -194.5 -264.5t-342.5 -90.5q-128 0 -230.5 52t-172.5 143q-72 -91 -178 -143t-238 -52q-264 0 -421.5 161t-157.5 419q0 259 157.5 420.5t421.5 161.5
q132 0 238 -52.5t178 -144.5q71 92 174.5 144.5t228.5 52.5q257 0 409.5 -161t152.5 -425zM651 188q126 0 193 97.5t67 269.5q0 173 -67 271t-193 98t-193 -98t-67 -271q0 -172 67 -269.5t193 -97.5zM1470 924q-97 0 -160 -62.5t-83 -189.5h483q-12 118 -76.5 185t-163.5 67
z" />
    <glyph glyph-name="Racute" unicode="&#x154;" horiz-adv-x="1511" 
d="M766 1970h440l-379 -297h-309zM1477 0h-369l-338 580h-285v-580h-323v1556h618q280 0 444.5 -133t164.5 -356q0 -151 -77 -263t-220 -171zM788 1286h-303v-436h303q126 0 197.5 58t71.5 159q0 103 -71.5 161t-197.5 58z" />
    <glyph glyph-name="racute" unicode="&#x155;" horiz-adv-x="849" 
d="M567 1556h424l-360 -319h-293zM442 1112v-291q35 142 127 229t244 87v-308h-80q-150 0 -219.5 -58t-69.5 -196v-575h-313v1112h311z" />
    <glyph glyph-name="uni0156" unicode="&#x156;" horiz-adv-x="1511" 
d="M1092 633l385 -633h-369l-338 580h-285v-580h-323v1556h618q280 0 444.5 -133t164.5 -356q0 -151 -77 -263t-220 -171zM788 1286h-303v-436h303q126 0 197.5 58t71.5 159q0 103 -71.5 161t-197.5 58zM713 -414h-107v295h334v-321l-139 -193h-203z" />
    <glyph glyph-name="uni0157" unicode="&#x157;" horiz-adv-x="849" 
d="M442 1112v-291q35 142 127 229t244 87v-308h-80q-150 0 -219.5 -58t-69.5 -196v-575h-313v1112h311zM231 -414h-106v295h324v-321l-138 -193h-194z" />
    <glyph glyph-name="Rcaron" unicode="&#x158;" horiz-adv-x="1511" 
d="M1178 1970l-263 -297h-411l-262 297h290l179 -158l178 158h289zM1477 0h-369l-338 580h-285v-580h-323v1556h618q280 0 444.5 -133t164.5 -356q0 -151 -77 -263t-220 -171zM788 1286h-303v-436h303q126 0 197.5 58t71.5 159q0 103 -71.5 161t-197.5 58z" />
    <glyph glyph-name="rcaron" unicode="&#x159;" horiz-adv-x="849" 
d="M965 1556l-260 -319h-396l-262 319h279l180 -186l182 186h277zM442 1112v-291q35 142 127 229t244 87v-308h-80q-150 0 -219.5 -58t-69.5 -196v-575h-313v1112h311z" />
    <glyph glyph-name="Sacute" unicode="&#x15a;" horiz-adv-x="1464" 
d="M825 1673h-309l248 297h440zM715 -25q-268 0 -446 134.5t-208 369.5h338q17 -121 106.5 -184.5t221.5 -63.5q161 0 251.5 54.5t90.5 146.5q0 87 -68.5 129t-240.5 80l-221 49q-433 92 -433 432q0 132 79.5 237.5t217 163.5t306.5 58q279 0 443.5 -119t199.5 -321h-338
q-58 184 -305 184q-121 0 -202 -47.5t-81 -126.5q0 -80 64 -119t235 -78l221 -49q225 -48 335 -153t110 -287q0 -228 -184 -359t-492 -131z" />
    <glyph glyph-name="sacute" unicode="&#x15b;" horiz-adv-x="1169" 
d="M688 1237h-293l230 319h424zM580 -25q-139 0 -247.5 38.5t-180.5 121t-91 201.5h316q16 -79 74.5 -113.5t140.5 -34.5q101 0 156 31t55 86q0 51 -42 80t-155 55l-196 43q-326 70 -326 310q0 103 65.5 182t175 120.5t242.5 41.5q129 0 234 -34.5t179.5 -107.5t98.5 -178
h-315q-18 51 -71.5 79t-123.5 28q-79 0 -132.5 -28.5t-53.5 -78.5q0 -44 41.5 -67.5t136.5 -44.5l197 -43q176 -39 260 -118.5t84 -213.5q0 -111 -69 -192t-186 -122t-267 -41z" />
    <glyph glyph-name="Scircumflex" unicode="&#x15c;" horiz-adv-x="1464" 
d="M887 1673l-178 158l-179 -158h-290l262 297h411l263 -297h-289zM725 954l221 -49q225 -48 335 -153t110 -287q0 -228 -184 -359t-492 -131q-268 0 -446 134.5t-208 369.5h338q17 -121 106.5 -184.5t221.5 -63.5q161 0 251.5 54.5t90.5 146.5q0 87 -68.5 129t-240.5 80
l-221 49q-433 92 -433 432q0 132 79.5 237.5t217 163.5t306.5 58q279 0 443.5 -119t199.5 -321h-338q-58 184 -305 184q-121 0 -202 -47.5t-81 -126.5q0 -80 64 -119t235 -78z" />
    <glyph glyph-name="scircumflex" unicode="&#x15d;" horiz-adv-x="1169" 
d="M745 1237l-182 186l-180 -186h-279l263 319h395l260 -319h-277zM561 705l197 -43q176 -39 260 -118.5t84 -213.5q0 -111 -69 -192t-186 -122t-267 -41q-139 0 -247.5 38.5t-180.5 121t-91 201.5h316q16 -79 74.5 -113.5t140.5 -34.5q101 0 156 31t55 86q0 51 -42 80
t-155 55l-196 43q-326 70 -326 310q0 103 65.5 182t175 120.5t242.5 41.5q129 0 234 -34.5t179.5 -107.5t98.5 -178h-315q-18 51 -71.5 79t-123.5 28q-79 0 -132.5 -28.5t-53.5 -78.5q0 -44 41.5 -67.5t136.5 -44.5z" />
    <glyph glyph-name="Scedilla" unicode="&#x15e;" horiz-adv-x="1464" 
d="M1391 465q0 -209 -156 -336.5t-424 -148.5v-43q76 -11 121 -58.5t45 -118.5q0 -81 -60.5 -129.5t-160.5 -48.5h-150v152h90q70 0 70 47q0 23 -19.5 36t-46.5 13h-59v147q-239 19 -395 151.5t-185 350.5h338q17 -121 106.5 -184.5t221.5 -63.5q161 0 251.5 54.5
t90.5 146.5q0 87 -68.5 129t-240.5 80l-221 49q-433 92 -433 432q0 132 79.5 237.5t217 163.5t306.5 58q279 0 443.5 -119t199.5 -321h-338q-58 184 -305 184q-121 0 -202 -47.5t-81 -126.5q0 -80 64 -119t235 -78l221 -49q225 -48 335 -153t110 -287z" />
    <glyph glyph-name="scedilla" unicode="&#x15f;" horiz-adv-x="1169" 
d="M1102 330q0 -156 -129 -249t-336 -104v-43q75 -9 121.5 -56t46.5 -118q0 -80 -59.5 -128t-157.5 -48h-144v142h93q71 0 71 53q0 25 -19 39t-48 14h-62v150q-172 19 -282 108.5t-136 245.5h316q16 -79 74.5 -113.5t140.5 -34.5q101 0 156 31t55 86q0 51 -42 80t-155 55
l-196 43q-326 70 -326 310q0 103 65.5 182t175 120.5t242.5 41.5q129 0 234 -34.5t179.5 -107.5t98.5 -178h-315q-18 51 -71.5 79t-123.5 28q-79 0 -132.5 -28.5t-53.5 -78.5q0 -44 41.5 -67.5t136.5 -44.5l197 -43q176 -39 260 -118.5t84 -213.5z" />
    <glyph glyph-name="Scaron" unicode="&#x160;" horiz-adv-x="1464" 
d="M1176 1970l-263 -297h-411l-262 297h290l179 -158l178 158h289zM725 954l221 -49q225 -48 335 -153t110 -287q0 -228 -184 -359t-492 -131q-268 0 -446 134.5t-208 369.5h338q17 -121 106.5 -184.5t221.5 -63.5q161 0 251.5 54.5t90.5 146.5q0 87 -68.5 129t-240.5 80
l-221 49q-433 92 -433 432q0 132 79.5 237.5t217 163.5t306.5 58q279 0 443.5 -119t199.5 -321h-338q-58 184 -305 184q-121 0 -202 -47.5t-81 -126.5q0 -80 64 -119t235 -78z" />
    <glyph glyph-name="scaron" unicode="&#x161;" horiz-adv-x="1169" 
d="M1022 1556l-260 -319h-395l-263 319h279l180 -186l182 186h277zM561 705l197 -43q176 -39 260 -118.5t84 -213.5q0 -111 -69 -192t-186 -122t-267 -41q-139 0 -247.5 38.5t-180.5 121t-91 201.5h316q16 -79 74.5 -113.5t140.5 -34.5q101 0 156 31t55 86q0 51 -42 80
t-155 55l-196 43q-326 70 -326 310q0 103 65.5 182t175 120.5t242.5 41.5q129 0 234 -34.5t179.5 -107.5t98.5 -178h-315q-18 51 -71.5 79t-123.5 28q-79 0 -132.5 -28.5t-53.5 -78.5q0 -44 41.5 -67.5t136.5 -44.5z" />
    <glyph glyph-name="uni0162" unicode="&#x162;" horiz-adv-x="1359" 
d="M35 1286v270h1290v-270h-483v-1286h-324v1286h-483zM618 -414h-106v295h334v-321l-137 -193h-205z" />
    <glyph glyph-name="uni0163" unicode="&#x163;" horiz-adv-x="851" 
d="M686 229h109v-229h-177q-171 0 -276.5 85t-105.5 245v4v549h-207v229h207v262h313v-262h244v-229h-244v-525v-4q0 -69 33 -97t104 -28zM430 -414h-106v295h323v-321l-137 -193h-195z" />
    <glyph glyph-name="Tcaron" unicode="&#x164;" horiz-adv-x="1359" 
d="M1147 1970l-262 -297h-412l-262 297h291l178 -158l178 158h289zM35 1556h1290v-270h-483v-1286h-324v1286h-483v270z" />
    <glyph glyph-name="tcaron" unicode="&#x165;" horiz-adv-x="851" 
d="M651 1192l29 364h281l-87 -364h-223zM549 354q0 -69 33 -97t104 -28h109v-229h-177q-171 0 -276.5 85t-105.5 245v4v549h-207v229h207v262h313v-262h244v-229h-244v-525v-4z" />
    <glyph glyph-name="Tbar" unicode="&#x166;" horiz-adv-x="1419" 
d="M1356 1556v-270h-486v-389h373v-248h-373v-649h-321v649h-371v248h371v389h-486v270h1293z" />
    <glyph glyph-name="tbar" unicode="&#x167;" horiz-adv-x="851" 
d="M686 229h109v-229h-177q-171 0 -276.5 85t-105.5 245v4v192h-152v201h152v156h-207v229h207v262h313v-262h244v-229h-244v-156h156v-201h-156v-168v-4q0 -69 33 -97t104 -28z" />
    <glyph glyph-name="Utilde" unicode="&#x168;" horiz-adv-x="1587" 
d="M526 1690h-106q3 138 64 213t159 75q77 0 170 -41q66 -32 127 -32q47 0 79.5 20.5t43.5 56.5h106q-3 -139 -63.5 -214.5t-159.5 -75.5q-72 0 -170 43q-66 32 -125 32q-48 0 -81 -21t-44 -56zM795 -25q-650 0 -650 646v4v931h324v-960v-4q0 -361 326 -361q323 0 323 365
v960h324v-931q0 -650 -647 -650z" />
    <glyph glyph-name="utilde" unicode="&#x169;" horiz-adv-x="1280" 
d="M498 1348q-49 0 -79 -23.5t-40 -60.5h-100q3 138 59.5 212t150.5 74q67 0 160 -45q74 -32 121 -32q49 0 79 23t40 60h100q-3 -138 -60 -212t-151 -74q-72 0 -160 45q-76 33 -120 33zM834 479v633h313v-1112h-309v219q-94 -244 -351 -244q-125 0 -209 58t-120.5 153
t-36.5 222v4v700h313v-633v-4q0 -280 201 -280q199 0 199 284z" />
    <glyph glyph-name="Umacron" unicode="&#x16a;" horiz-adv-x="1587" 
d="M1219 1708h-852v229h852v-229zM795 -25q-650 0 -650 646v4v931h324v-960v-4q0 -361 326 -361q323 0 323 365v960h324v-931q0 -650 -647 -650z" />
    <glyph glyph-name="umacron" unicode="&#x16b;" horiz-adv-x="1280" 
d="M242 1501h782v-219h-782v219zM834 479v633h313v-1112h-309v219q-94 -244 -351 -244q-125 0 -209 58t-120.5 153t-36.5 222v4v700h313v-633v-4q0 -280 201 -280q199 0 199 284z" />
    <glyph glyph-name="Ubreve" unicode="&#x16c;" horiz-adv-x="1587" 
d="M795 1669q-175 0 -281 86t-106 215h227q3 -56 46.5 -89.5t113.5 -33.5t114 33.5t47 89.5h226q0 -129 -106 -215t-281 -86zM795 -25q-650 0 -650 646v4v931h324v-960v-4q0 -361 326 -361q323 0 323 365v960h324v-931q0 -650 -647 -650z" />
    <glyph glyph-name="ubreve" unicode="&#x16d;" horiz-adv-x="1280" 
d="M633 1229q-170 0 -273.5 93.5t-103.5 233.5h227q0 -69 39 -105t111 -36q70 0 109.5 36t39.5 105h226q0 -140 -103.5 -233.5t-271.5 -93.5zM834 479v633h313v-1112h-309v219q-94 -244 -351 -244q-125 0 -209 58t-120.5 153t-36.5 222v4v700h313v-633v-4q0 -280 201 -280
q199 0 199 284z" />
    <glyph glyph-name="Uring" unicode="&#x16e;" horiz-adv-x="1587" 
d="M793 1663q-120 0 -204.5 84.5t-84.5 204.5t84.5 204.5t204.5 84.5t203 -84.5t83 -204.5t-83 -204.5t-203 -84.5zM793 1847q42 0 72 31.5t30 73.5q0 43 -29.5 73.5t-72.5 30.5t-74 -30.5t-31 -73.5q0 -42 31.5 -73.5t73.5 -31.5zM795 -25q-650 0 -650 646v4v931h324v-960
v-4q0 -361 326 -361q323 0 323 365v960h324v-931q0 -650 -647 -650z" />
    <glyph glyph-name="uring" unicode="&#x16f;" horiz-adv-x="1280" 
d="M633 1229q-104 0 -178 74t-74 178t74 177t178 73t178 -73t74 -177t-74 -178t-178 -74zM633 1565q-35 0 -60.5 -24.5t-25.5 -59.5t25.5 -61.5t60.5 -26.5t60.5 26.5t25.5 61.5t-25.5 59.5t-60.5 24.5zM834 479v633h313v-1112h-309v219q-94 -244 -351 -244q-125 0 -209 58
t-120.5 153t-36.5 222v4v700h313v-633v-4q0 -280 201 -280q199 0 199 284z" />
    <glyph glyph-name="Uhungarumlaut" unicode="&#x170;" horiz-adv-x="1587" 
d="M684 1673h-291l271 297h393zM1155 1673h-291l271 297h393zM795 -25q-650 0 -650 646v4v931h324v-960v-4q0 -361 326 -361q323 0 323 365v960h324v-931q0 -650 -647 -650z" />
    <glyph glyph-name="uhungarumlaut" unicode="&#x171;" horiz-adv-x="1280" 
d="M508 1556h371l-330 -319h-268zM1333 1556l-329 -319h-269l228 319h370zM834 479v633h313v-1112h-309v219q-94 -244 -351 -244q-125 0 -209 58t-120.5 153t-36.5 222v4v700h313v-633v-4q0 -280 201 -280q199 0 199 284z" />
    <glyph glyph-name="Uogonek" unicode="&#x172;" horiz-adv-x="1587" 
d="M1118 596v960h324v-931q0 -369 -211 -531q-92 -67 -127 -117.5t-35 -101.5q0 -41 27.5 -62.5t77.5 -21.5h69v-207h-108q-164 0 -254 50t-90 145q0 110 114 203q-61 -7 -110 -7q-650 0 -650 646v4v931h324v-960v-4q0 -361 326 -361q323 0 323 365z" />
    <glyph glyph-name="uogonek" unicode="&#x173;" horiz-adv-x="1280" 
d="M1147 1112v-1112q-180 -61 -180 -145q0 -70 114 -70h66v-201h-107q-164 0 -253 50t-89 151q0 118 140 215v219q-94 -244 -351 -244q-125 0 -209 58t-120.5 153t-36.5 222v4v700h313v-633v-4q0 -280 201 -280q199 0 199 284v633h313z" />
    <glyph glyph-name="Wcircumflex" unicode="&#x174;" horiz-adv-x="2347" 
d="M1352 1673l-178 158l-179 -158h-290l262 297h411l262 -297h-288zM1704 57l291 1499h313l-311 -1556h-596l-227 1489l-228 -1489h-596l-311 1556h313l291 -1499l236 1499h589z" />
    <glyph glyph-name="wcircumflex" unicode="&#x175;" horiz-adv-x="1880" 
d="M1122 1237l-182 186l-180 -186h-279l262 319h396l260 -319h-277zM1360 57l192 1055h285l-207 -1112h-543l-147 1061l-147 -1061h-543l-207 1112h287l192 -1061l152 1061h534z" />
    <glyph glyph-name="Ycircumflex" unicode="&#x176;" horiz-adv-x="1443" 
d="M901 1673l-178 158l-178 -158h-291l262 297h412l262 -297h-289zM1098 1556h368l-581 -923v-633h-324v629l-581 927h364l377 -622z" />
    <glyph glyph-name="ycircumflex" unicode="&#x177;" horiz-adv-x="1230" 
d="M782 1237l-182 186l-180 -186h-279l262 319h396l260 -319h-277zM614 178l267 934h329l-438 -1513h-321l147 516h-264l-328 997h316z" />
    <glyph glyph-name="Ydieresis" unicode="&#x178;" horiz-adv-x="1443" 
d="M313 1970h334v-297h-334v297zM795 1970h333v-297h-333v297zM1098 1556h368l-581 -923v-633h-324v629l-581 927h364l377 -622z" />
    <glyph glyph-name="Zacute" unicode="&#x179;" horiz-adv-x="1439" 
d="M772 1970h440l-378 -297h-310zM1339 1206l-893 -936h932v-270h-1298v350l891 936h-879v270h1247v-350z" />
    <glyph glyph-name="zacute" unicode="&#x17a;" horiz-adv-x="1134" 
d="M623 1556h424l-361 -319h-293zM1034 815l-602 -586h641v-229h-993v297l602 586h-590v229h942v-297z" />
    <glyph glyph-name="Zdotaccent" unicode="&#x17b;" horiz-adv-x="1439" 
d="M549 1970h334v-297h-334v297zM1339 1206l-893 -936h932v-270h-1298v350l891 936h-879v270h1247v-350z" />
    <glyph glyph-name="zdotaccent" unicode="&#x17c;" horiz-adv-x="1134" 
d="M399 1556h324v-294h-324v294zM1034 815l-602 -586h641v-229h-993v297l602 586h-590v229h942v-297z" />
    <glyph glyph-name="Zcaron" unicode="&#x17d;" horiz-adv-x="1439" 
d="M1184 1970l-262 -297h-412l-262 297h291l178 -158l178 158h289zM1339 1206l-893 -936h932v-270h-1298v350l891 936h-879v270h1247v-350z" />
    <glyph glyph-name="zcaron" unicode="&#x17e;" horiz-adv-x="1134" 
d="M1020 1556l-260 -319h-395l-263 319h279l180 -186l182 186h277zM1034 815l-602 -586h641v-229h-993v297l602 586h-590v229h942v-297z" />
    <glyph glyph-name="uni018F" unicode="&#x18f;" horiz-adv-x="1699" 
d="M842 1581q165 0 307.5 -56t246.5 -157.5t163 -253.5t59 -336q0 -182 -59.5 -334t-163.5 -254t-246.5 -158.5t-306.5 -56.5q-141 0 -263 42t-213.5 119.5t-156.5 184t-98 238.5t-33 281q0 46 2 71h1204q-16 108 -58.5 189.5t-103 129.5t-131 71.5t-149.5 23.5
q-138 0 -238.5 -63t-146.5 -175h-340q70 236 261.5 365t463.5 129zM842 231q164 0 286 102t154 310h-866q27 -180 142.5 -296t283.5 -116z" />
    <glyph glyph-name="florin" unicode="&#x192;" horiz-adv-x="1210" 
d="M1143 1300h-129q-90 0 -137.5 -44.5t-61.5 -137.5l-22 -147h282v-256h-321l-49 -322q-31 -201 -145 -297t-316 -96h-183v256h129q90 0 137.5 44.5t61.5 137.5l43 277h-250v256h289l29 192q31 201 145 297t316 96h182v-256z" />
    <glyph glyph-name="uni019D" unicode="&#x19d;" horiz-adv-x="1769" 
d="M1300 53v1503h322v-1556h-625l-514 1503v-1503h-18v-57q0 -166 -102.5 -255t-301.5 -89h-217v235h164q84 0 119 34t35 112v1576h626z" />
    <glyph glyph-name="uni01B5" unicode="&#x1b5;" horiz-adv-x="1468" 
d="M813 641l-352 -371h930v-270h-1299v350l344 361h-313v239h541l321 336h-879v270h1246v-350l-310 -325h320v-240h-549z" />
    <glyph glyph-name="uni01B6" unicode="&#x1b6;" horiz-adv-x="1153" 
d="M662 446l-224 -217h639v-229h-991v297l209 203h-178v196h379l192 187h-590v229h942v-297l-176 -172h203v-197h-405z" />
    <glyph glyph-name="uni01E2" unicode="&#x1e2;" horiz-adv-x="2148" 
d="M713 1937h852v-229h-852v229zM1405 664l129 -394h512v-270h-762l-133 420h-680l-133 -420h-340l516 1556h1514v-270h-830l117 -352h698v-270h-608zM811 1491l-254 -801h508z" />
    <glyph glyph-name="uni01E3" unicode="&#x1e3;" horiz-adv-x="2023" 
d="M608 1501h783v-219h-783v219zM1952 551q0 -41 -6 -88h-799q17 -136 82 -205.5t164 -69.5q87 0 137.5 35.5t81.5 106.5h315q-55 -175 -194 -265t-342 -90q-155 0 -267 65t-174 175q-58 -108 -171 -174t-275 -66q-186 0 -307 100t-121 253q0 344 522 344h231v47v4
q0 89 -51 145t-147 56q-87 0 -139 -43.5t-62 -106.5h-315q20 168 158.5 265.5t336.5 97.5q143 0 239.5 -51t147.5 -130q136 181 394 181q257 0 409 -160.5t152 -425.5zM1393 924q-98 0 -161 -62.5t-83 -189.5h483q-12 119 -76.5 185.5t-162.5 66.5zM578 188q119 0 182.5 71
t68.5 204h-176q-258 0 -258 -137q0 -65 50 -101.5t133 -36.5z" />
    <glyph glyph-name="Gcaron" unicode="&#x1e6;" horiz-adv-x="1726" 
d="M1321 1970l-262 -297h-412l-262 297h291l178 -158l178 158h289zM791 623v258h813v-881h-269v369q-20 -61 -48.5 -114.5t-74 -106t-101.5 -90t-135 -60.5t-171 -23q-142 0 -272 55.5t-230.5 155.5t-160.5 254t-60 338q0 241 98 424t273 281t401 98q284 0 471 -131.5
t256 -380.5h-338q-97 256 -389 256q-199 0 -318.5 -149t-119.5 -398q0 -250 123 -398.5t329 -148.5q184 0 297 104t119 288h-493z" />
    <glyph glyph-name="gcaron" unicode="&#x1e7;" horiz-adv-x="1345" 
d="M1126 1556l-260 -319h-395l-262 319h278l181 -186l182 186h276zM907 866v246h312v-1092q0 -97 -32.5 -175t-85.5 -127.5t-125.5 -83t-147.5 -47t-156 -13.5q-101 0 -191.5 22t-165.5 66t-124 116t-60 165h315q17 -76 78.5 -116t147.5 -40q105 0 170 57.5t65 169.5v238
q-47 -108 -145 -175t-223 -67q-205 0 -332 156t-127 407t127.5 407.5t331.5 156.5q139 0 233.5 -76.5t134.5 -194.5zM659 223q125 0 193 92.5t68 257.5q0 166 -68 258.5t-193 92.5q-126 0 -193 -92.5t-67 -258.5t67 -258t193 -92z" />
    <glyph glyph-name="uni01EA" unicode="&#x1ea;" horiz-adv-x="1720" 
d="M1638 778q0 -230 -89.5 -406.5t-250.5 -277.5q-91 -67 -126 -117.5t-35 -101.5q0 -41 27 -62.5t77 -21.5h70v-207h-109q-164 0 -254 50t-90 145q0 113 117 203q-65 -7 -115 -7q-171 0 -315 57t-246.5 160.5t-159.5 254t-57 331.5t57 331.5t159.5 254t246.5 160.5t315 57
t315 -57t246.5 -160.5t159.5 -254t57 -331.5zM860 231q201 0 323 149t122 398t-122 398t-323 149t-322.5 -149t-121.5 -398t121.5 -398t322.5 -149z" />
    <glyph glyph-name="uni01EB" unicode="&#x1eb;" horiz-adv-x="1302" 
d="M1231 555q0 -151 -57 -272.5t-162 -198.5h2q-160 -127 -160 -221q0 -78 113 -78h67v-201h-106q-165 0 -253.5 50t-88.5 151q0 106 112 192q-16 -2 -47 -2q-264 0 -421.5 161t-157.5 419q0 259 157.5 420.5t421.5 161.5t422 -161.5t158 -420.5zM391 555q0 -172 67 -269.5
t193 -97.5t193 97.5t67 269.5q0 173 -67 271t-193 98t-193 -98t-67 -271z" />
    <glyph glyph-name="AEacute" unicode="&#x1fc;" horiz-adv-x="2148" 
d="M1196 1970h440l-379 -297h-309zM1405 664l129 -394h512v-270h-762l-133 420h-680l-133 -420h-340l516 1556h1514v-270h-830l117 -352h698v-270h-608zM811 1491l-254 -801h508z" />
    <glyph glyph-name="aeacute" unicode="&#x1fd;" horiz-adv-x="2023" 
d="M1063 1556h424l-361 -319h-292zM1952 551q0 -41 -6 -88h-799q17 -136 82 -205.5t164 -69.5q87 0 137.5 35.5t81.5 106.5h315q-55 -175 -194 -265t-342 -90q-155 0 -267 65t-174 175q-58 -108 -171 -174t-275 -66q-186 0 -307 100t-121 253q0 344 522 344h231v47v4
q0 89 -51 145t-147 56q-87 0 -139 -43.5t-62 -106.5h-315q20 168 158.5 265.5t336.5 97.5q143 0 239.5 -51t147.5 -130q136 181 394 181q257 0 409 -160.5t152 -425.5zM1393 924q-98 0 -161 -62.5t-83 -189.5h483q-12 119 -76.5 185.5t-162.5 66.5zM578 188q119 0 182.5 71
t68.5 204h-176q-258 0 -258 -137q0 -65 50 -101.5t133 -36.5z" />
    <glyph glyph-name="Oslashacute" unicode="&#x1fe;" horiz-adv-x="1720" 
d="M915 1970h441l-379 -297h-309zM1405 1556h383l-283 -296q133 -200 133 -482q0 -181 -57 -331.5t-159.5 -254t-246.5 -160.5t-315 -57q-256 0 -450 127l-97 -102h-383l283 299q-131 201 -131 479q0 181 57 331.5t159.5 254t246.5 160.5t315 57q257 0 449 -125zM416 778
q0 -116 33 -231l661 698q-107 80 -250 80q-201 0 -322.5 -149t-121.5 -398zM1305 778q0 129 -35 232l-662 -699q110 -80 252 -80q201 0 323 149t122 398z" />
    <glyph glyph-name="oslashacute" unicode="&#x1ff;" horiz-adv-x="1302" 
d="M713 1556h424l-361 -319h-293zM1030 1112h307l-202 -211q96 -148 96 -346q0 -258 -158 -419t-422 -161q-186 0 -323 84l-56 -59h-307l203 211q-96 148 -96 344q0 259 157.5 420.5t421.5 161.5q187 0 324 -84zM391 555q0 -55 6 -102l404 419q-61 52 -150 52
q-126 0 -193 -98t-67 -271zM911 555q0 60 -8 104l-401 -419q61 -52 149 -52q126 0 193 97.5t67 269.5z" />
    <glyph glyph-name="uni0218" unicode="&#x218;" horiz-adv-x="1464" 
d="M725 954l221 -49q225 -48 335 -153t110 -287q0 -228 -184 -359t-492 -131q-268 0 -446 134.5t-208 369.5h338q17 -121 106.5 -184.5t221.5 -63.5q161 0 251.5 54.5t90.5 146.5q0 87 -68.5 129t-240.5 80l-221 49q-433 92 -433 432q0 132 79.5 237.5t217 163.5t306.5 58
q279 0 443.5 -119t199.5 -321h-338q-58 184 -305 184q-121 0 -202 -47.5t-81 -126.5q0 -80 64 -119t235 -78zM705 -414h-107v295h334v-321l-139 -193h-203z" />
    <glyph glyph-name="uni0219" unicode="&#x219;" horiz-adv-x="1169" 
d="M561 705l197 -43q176 -39 260 -118.5t84 -213.5q0 -111 -69 -192t-186 -122t-267 -41q-139 0 -247.5 38.5t-180.5 121t-91 201.5h316q16 -79 74.5 -113.5t140.5 -34.5q101 0 156 31t55 86q0 51 -42 80t-155 55l-196 43q-326 70 -326 310q0 103 65.5 182t175 120.5
t242.5 41.5q129 0 234 -34.5t179.5 -107.5t98.5 -178h-315q-18 51 -71.5 79t-123.5 28q-79 0 -132.5 -28.5t-53.5 -78.5q0 -44 41.5 -67.5t136.5 -44.5zM545 -414h-107v295h324v-321l-137 -193h-195z" />
    <glyph glyph-name="uni021A" unicode="&#x21a;" horiz-adv-x="1359" 
d="M35 1286v270h1290v-270h-483v-1286h-324v1286h-483zM618 -414h-106v295h334v-321l-139 -193h-203z" />
    <glyph glyph-name="uni021B" unicode="&#x21b;" horiz-adv-x="851" 
d="M686 229h109v-229h-177q-171 0 -276.5 85t-105.5 245v4v549h-207v229h207v262h313v-262h244v-229h-244v-525v-4q0 -69 33 -97t104 -28zM430 -414h-106v295h323v-321l-137 -193h-195z" />
    <glyph glyph-name="uni022E" unicode="&#x22e;" horiz-adv-x="1720" 
d="M1026 1673h-334v297h334v-297zM860 -25q-171 0 -315 57t-246.5 160.5t-159.5 254t-57 331.5t57 331.5t159.5 254t246.5 160.5t315 57t315 -57t246.5 -160.5t159.5 -254t57 -331.5t-57 -331.5t-159.5 -254t-246.5 -160.5t-315 -57zM860 231q201 0 323 149t122 398
t-122 398t-323 149t-322.5 -149t-121.5 -398t121.5 -398t322.5 -149z" />
    <glyph glyph-name="uni022F" unicode="&#x22f;" horiz-adv-x="1302" 
d="M813 1262h-324v294h324v-294zM651 -25q-264 0 -421.5 161t-157.5 419q0 259 157.5 420.5t421.5 161.5t422 -161.5t158 -420.5q0 -258 -158 -419t-422 -161zM651 188q126 0 193 97.5t67 269.5q0 173 -67 271t-193 98t-193 -98t-67 -271q0 -172 67 -269.5t193 -97.5z" />
    <glyph glyph-name="uni0232" unicode="&#x232;" horiz-adv-x="1443" 
d="M295 1937h852v-229h-852v229zM1098 1556h368l-581 -923v-633h-324v629l-581 927h364l377 -622z" />
    <glyph glyph-name="uni0233" unicode="&#x233;" horiz-adv-x="1230" 
d="M209 1501h782v-219h-782v219zM614 178l267 934h329l-438 -1513h-321l147 516h-264l-328 997h316z" />
    <glyph glyph-name="uni0237" unicode="&#x237;" horiz-adv-x="577" 
d="M63 -401h-124v229h55q71 0 104 28.5t33 100.5v1155h313v-1180q0 -162 -105 -247.5t-276 -85.5z" />
    <glyph glyph-name="uni0259" unicode="&#x259;" horiz-adv-x="1269" 
d="M633 1137q257 0 411 -161.5t154 -420.5q0 -258 -155.5 -419t-409.5 -161q-256 0 -408.5 161t-152.5 425q0 41 6 88h801q-17 136 -82.5 205.5t-165.5 69.5q-87 0 -137.5 -35.5t-81.5 -106.5h-316q55 174 194.5 264.5t342.5 90.5zM633 188q97 0 160.5 62.5t83.5 189.5h-486
q12 -116 77.5 -184t164.5 -68z" />
    <glyph glyph-name="uni0272" unicode="&#x272;" horiz-adv-x="1288" 
d="M797 1137q186 0 278 -118t92 -314v-5v-700h-313v633v4q0 281 -205 281t-205 -285v-694q0 -167 -104.5 -253.5t-276.5 -86.5h-124v229h55q71 0 104 28.5t33 100.5v1155h311v-227q42 114 129.5 183t225.5 69z" />
    <glyph glyph-name="circumflex" unicode="&#x2c6;" horiz-adv-x="999" 
d="M698 1556l260 -319h-276l-182 186l-181 -186h-278l262 319h395z" />
    <glyph glyph-name="caron" unicode="&#x2c7;" horiz-adv-x="999" 
d="M500 1370l182 186h276l-260 -319h-395l-262 319h278z" />
    <glyph glyph-name="breve" unicode="&#x2d8;" horiz-adv-x="835" 
d="M418 1229q-170 0 -273.5 93.5t-103.5 233.5h227q0 -69 39 -105t111 -36q70 0 109.5 36t39.5 105h226q0 -140 -103.5 -233.5t-271.5 -93.5z" />
    <glyph glyph-name="dotaccent" unicode="&#x2d9;" horiz-adv-x="407" 
d="M365 1262h-324v294h324v-294z" />
    <glyph glyph-name="ring" unicode="&#x2da;" horiz-adv-x="585" 
d="M293 1229q-104 0 -178 74t-74 178t74 177t178 73t178 -73t74 -177t-74 -178t-178 -74zM293 1393q35 0 60.5 26.5t25.5 61.5t-25.5 59.5t-60.5 24.5t-60.5 -24.5t-25.5 -59.5t25.5 -61.5t60.5 -26.5z" />
    <glyph glyph-name="ogonek" unicode="&#x2db;" horiz-adv-x="532" 
d="M489 -416h-106q-164 0 -253 50t-89 151q0 118 139 215h309q-180 -61 -180 -145q0 -70 115 -70h65v-201z" />
    <glyph glyph-name="tilde" unicode="&#x2dc;" horiz-adv-x="792" 
d="M141 1264h-100q3 138 60 212t151 74q68 0 160 -45q74 -32 120 -32q49 0 79 23t40 60h101q-3 -138 -60 -212t-151 -74q-73 0 -160 45q-76 33 -121 33q-49 0 -79 -23.5t-40 -60.5z" />
    <glyph glyph-name="hungarumlaut" unicode="&#x2dd;" horiz-adv-x="1134" 
d="M309 1237h-268l227 319h371zM764 1237h-268l227 319h371z" />
    <glyph glyph-name="gravecomb" unicode="&#x300;" horiz-adv-x="0" 
d="M-41 1237h-291l-362 319h424z" />
    <glyph glyph-name="acutecomb" unicode="&#x301;" horiz-adv-x="0" 
d="M-401 1237h-293l229 319h424z" />
    <glyph glyph-name="uni0302" unicode="&#x302;" horiz-adv-x="0" 
d="M-301 1556l260 -319h-276l-183 186l-180 -186h-278l262 319h395z" />
    <glyph glyph-name="tildecomb" unicode="&#x303;" horiz-adv-x="0" 
d="M-651 1264h-101q3 138 60 212t151 74q67 0 160 -45q74 -32 121 -32q49 0 79 23t40 60h100q-3 -138 -60 -212t-151 -74q-72 0 -160 45q-76 33 -120 33q-49 0 -79 -23.5t-40 -60.5z" />
    <glyph glyph-name="uni0304" unicode="&#x304;" horiz-adv-x="0" 
d="M-41 1282h-782v219h782v-219z" />
    <glyph glyph-name="uni0306" unicode="&#x306;" horiz-adv-x="0" 
d="M-418 1229q-170 0 -273.5 93.5t-103.5 233.5h228q0 -70 38.5 -105.5t110.5 -35.5q70 0 110 36t40 105h225q0 -140 -103.5 -233.5t-271.5 -93.5z" />
    <glyph glyph-name="uni0307" unicode="&#x307;" horiz-adv-x="0" 
d="M-43 1262h-324v294h324v-294z" />
    <glyph glyph-name="uni0308" unicode="&#x308;" horiz-adv-x="0" 
d="M-522 1262h-324v294h324v-294zM-41 1262h-324v294h324v-294z" />
    <glyph glyph-name="uni030A" unicode="&#x30a;" horiz-adv-x="0" 
d="M-293 1229q-104 0 -178 74t-74 178t74 177t178 73t178 -73t74 -177t-74 -178t-178 -74zM-293 1393q35 0 60.5 26.5t25.5 61.5t-25.5 59.5t-60.5 24.5t-60.5 -24.5t-25.5 -59.5t25.5 -61.5t60.5 -26.5z" />
    <glyph glyph-name="uni030B" unicode="&#x30b;" horiz-adv-x="0" 
d="M-825 1237h-269l228 319h370zM-371 1237h-268l227 319h371z" />
    <glyph glyph-name="uni030C" unicode="&#x30c;" horiz-adv-x="0" 
d="M-500 1370l183 186h276l-260 -319h-395l-262 319h278z" />
    <glyph glyph-name="uni0312" unicode="&#x312;" horiz-adv-x="0" 
d="M-227 1782h194l-112 -219h102v-297h-324v323z" />
    <glyph glyph-name="dotbelowcomb" unicode="&#x323;" horiz-adv-x="0" 
d="M-43 -414h-324v295h324v-295z" />
    <glyph glyph-name="uni0326" unicode="&#x326;" horiz-adv-x="0" 
d="M-367 -414v295h324v-321l-137 -193h-195l115 219h-107z" />
    <glyph glyph-name="uni0327" unicode="&#x327;" horiz-adv-x="0" 
d="M-209 0v-66q75 -9 121.5 -56t46.5 -118q0 -80 -59.5 -128t-157.5 -48h-143v142h92q71 0 71 53q0 25 -19 39t-48 14h-62v168h158z" />
    <glyph glyph-name="uni0328" unicode="&#x328;" horiz-adv-x="0" 
d="M-43 -416h-107q-164 0 -253 50t-89 151q0 118 140 215h309q-180 -61 -180 -145q0 -70 114 -70h66v-201z" />
    <glyph glyph-name="uni0335" unicode="&#x335;" horiz-adv-x="0" 
d="M-672 1227h-620v200h620v-200z" />
    <glyph glyph-name="uni0336" unicode="&#x336;" horiz-adv-x="0" 
d="M-43 1108h-1640v229h1640v-229z" />
    <glyph glyph-name="uni0337" unicode="&#x337;" horiz-adv-x="0" 
d="M-41 844l-604 -377v266l604 377v-266z" />
    <glyph glyph-name="uni0338" unicode="&#x338;" horiz-adv-x="0" 
d="M-1083 0h-308l1065 1112h308z" />
    <glyph glyph-name="uni0394" unicode="&#x394;" horiz-adv-x="1613" 
d="M1104 1556l516 -1556h-1626l516 1556h594zM1196 270l-389 1223l-389 -1223h778z" />
    <glyph glyph-name="uni03A9" unicode="&#x3a9;" horiz-adv-x="1724" 
d="M1632 905q0 -212 -132.5 -365t-393.5 -270h500v-270h-664v350q358 227 358 535q0 207 -121 323.5t-317 116.5t-316 -116.5t-120 -323.5q0 -310 358 -535v-350h-665v270h502q-262 117 -395.5 270t-133.5 365q0 208 103 363t276 234t391 79t391 -79t276 -234t103 -363z" />
    <glyph glyph-name="uni03BC" unicode="&#x3bc;" horiz-adv-x="1378" 
d="M1288 229h51v-229h-112q-162 0 -250 39.5t-119 140.5q-8 24 -8 41q-41 -110 -127 -178t-223 -68q-24 0 -56 7v-383h-313v1513h313v-635v-4q0 -140 52 -209t149 -69q199 0 199 284v633h313v-772v-4q0 -62 29.5 -84.5t101.5 -22.5z" />
    <glyph glyph-name="pi" unicode="&#x3c0;" horiz-adv-x="1435" 
d="M1356 883h-193v-531v-4q0 -68 38 -93.5t110 -25.5h45v-229h-117q-174 0 -281.5 83t-107.5 241v4v555h-305v-883h-314v883h-194v229h1319v-229z" />
    <glyph glyph-name="uni0E3F" unicode="&#xe3f;" horiz-adv-x="1447" 
d="M1348 430q0 -177 -123.5 -286.5t-354.5 -135.5v-276h-309v268h-385v1556h385v259h309v-267q216 -28 326.5 -137t110.5 -260q0 -79 -30 -143t-82.5 -106.5t-118 -69.5t-142.5 -39q178 -13 296 -107t118 -256zM983 1106q0 92 -67.5 145.5t-178.5 53.5h-241v-394h241
q112 0 179 52t67 143zM496 252h235q137 0 215 58.5t78 156.5q0 99 -78 156t-215 57h-235v-428z" />
    <glyph glyph-name="Wgrave" unicode="&#x1e80;" horiz-adv-x="2347" 
d="M1085 1970l246 -297h-309l-379 297h442zM1704 57l291 1499h313l-311 -1556h-596l-227 1489l-228 -1489h-596l-311 1556h313l291 -1499l236 1499h589z" />
    <glyph glyph-name="wgrave" unicode="&#x1e81;" horiz-adv-x="1880" 
d="M848 1556l229 -319h-291l-362 319h424zM1360 57l192 1055h285l-207 -1112h-543l-147 1061l-147 -1061h-543l-207 1112h287l192 -1061l152 1061h534z" />
    <glyph glyph-name="Wacute" unicode="&#x1e82;" horiz-adv-x="2347" 
d="M1253 1970h441l-379 -297h-309zM1704 57l291 1499h313l-311 -1556h-596l-227 1489l-228 -1489h-596l-311 1556h313l291 -1499l236 1499h589z" />
    <glyph glyph-name="wacute" unicode="&#x1e83;" horiz-adv-x="1880" 
d="M1020 1556h424l-361 -319h-292zM1360 57l192 1055h285l-207 -1112h-543l-147 1061l-147 -1061h-543l-207 1112h287l192 -1061l152 1061h534z" />
    <glyph glyph-name="Wdieresis" unicode="&#x1e84;" horiz-adv-x="2347" 
d="M766 1970h334v-297h-334v297zM1247 1970h334v-297h-334v297zM1704 57l291 1499h313l-311 -1556h-596l-227 1489l-228 -1489h-596l-311 1556h313l291 -1499l236 1499h589z" />
    <glyph glyph-name="wdieresis" unicode="&#x1e85;" horiz-adv-x="1880" 
d="M537 1556h323v-294h-323v294zM1018 1556h323v-294h-323v294zM1360 57l192 1055h285l-207 -1112h-543l-147 1061l-147 -1061h-543l-207 1112h287l192 -1061l152 1061h534z" />
    <glyph glyph-name="uni1E9E" unicode="&#x1e9e;" horiz-adv-x="1599" 
d="M1395 1231l-322 -322q130 -16 230.5 -70t161.5 -151.5t61 -226.5q0 -230 -149 -358t-396 -128q-147 0 -279 48v237q106 -47 218 -47q123 0 197.5 67t74.5 181q0 122 -100 185t-261 63h-59v262l311 315h-598v-1286h-323v1556h1233v-325z" />
    <glyph glyph-name="uni1EA0" unicode="&#x1ea0;" horiz-adv-x="1622" 
d="M1108 1556l516 -1556h-340l-133 420h-680l-133 -420h-340l516 1556h594zM811 1491l-254 -801h508zM977 -414h-334v295h334v-295z" />
    <glyph glyph-name="uni1EA1" unicode="&#x1ea1;" horiz-adv-x="1261" 
d="M631 1137q250 0 381 -120.5t131 -316.5v-4v-696h-309v209q-52 -111 -139 -172.5t-232 -61.5q-164 0 -275.5 102t-111.5 261q0 62 18.5 112t53 84.5t76.5 60t97 41.5t105.5 25.5t110.5 14.5l292 29v14v4q0 89 -51 145t-147 56q-87 0 -139 -43.5t-62 -106.5h-315
q22 169 162 266t354 97zM586 164q116 0 179.5 86.5t63.5 222.5v45l-178 -18q-45 -5 -76 -10t-68 -17t-59 -28t-37.5 -43.5t-15.5 -63.5q0 -80 54.5 -127t136.5 -47zM817 -414h-323v295h323v-295z" />
    <glyph glyph-name="uni1EB8" unicode="&#x1eb8;" horiz-adv-x="1355" 
d="M485 664v-394h766v-270h-1089v1556h1071v-270h-748v-352h734v-270h-734zM877 -414h-334v295h334v-295z" />
    <glyph glyph-name="uni1EB9" unicode="&#x1eb9;" horiz-adv-x="1269" 
d="M1198 551q0 -41 -6 -88h-801q17 -136 82.5 -205.5t165.5 -69.5q87 0 137.5 35.5t81.5 106.5h316q-55 -174 -194.5 -264.5t-342.5 -90.5q-257 0 -411 161.5t-154 420.5q0 257 156 418.5t409 161.5q256 0 408.5 -161t152.5 -425zM637 924q-97 0 -160.5 -62.5t-83.5 -189.5
h486q-12 118 -77.5 185t-164.5 67zM803 -414h-324v295h324v-295z" />
    <glyph glyph-name="uni1EBC" unicode="&#x1ebc;" horiz-adv-x="1355" 
d="M555 1767q-48 0 -81 -21t-44 -56h-106q3 138 64 213t159 75q77 0 170 -41q66 -32 127 -32q47 0 79.5 20.5t43.5 56.5h106q-3 -139 -63.5 -214.5t-159.5 -75.5q-72 0 -170 43q-66 32 -125 32zM485 664v-394h766v-270h-1089v1556h1071v-270h-748v-352h734v-270h-734z" />
    <glyph glyph-name="uni1EBD" unicode="&#x1ebd;" horiz-adv-x="1269" 
d="M500 1348q-49 0 -79 -23.5t-40 -60.5h-100q3 138 60 212t151 74q66 0 159 -45q74 -32 121 -32q49 0 79 23t40 60h100q-3 -138 -60 -212t-151 -74q-71 0 -159 45q-76 33 -121 33zM1198 551q0 -41 -6 -88h-801q17 -136 82.5 -205.5t165.5 -69.5q87 0 137.5 35.5t81.5 106.5
h316q-55 -174 -194.5 -264.5t-342.5 -90.5q-257 0 -411 161.5t-154 420.5q0 257 156 418.5t409 161.5q256 0 408.5 -161t152.5 -425zM637 924q-97 0 -160.5 -62.5t-83.5 -189.5h486q-12 118 -77.5 185t-164.5 67z" />
    <glyph glyph-name="uni1ECA" unicode="&#x1eca;" horiz-adv-x="647" 
d="M485 0h-323v1556h323v-1556zM489 -414h-333v295h333v-295z" />
    <glyph glyph-name="uni1ECB" unicode="&#x1ecb;" horiz-adv-x="577" 
d="M451 1262h-324v294h324v-294zM444 0h-313v1112h313v-1112zM451 -414h-324v295h324v-295z" />
    <glyph glyph-name="uni1ECC" unicode="&#x1ecc;" horiz-adv-x="1720" 
d="M860 -25q-171 0 -315 57t-246.5 160.5t-159.5 254t-57 331.5t57 331.5t159.5 254t246.5 160.5t315 57t315 -57t246.5 -160.5t159.5 -254t57 -331.5t-57 -331.5t-159.5 -254t-246.5 -160.5t-315 -57zM860 231q201 0 323 149t122 398t-122 398t-323 149t-322.5 -149
t-121.5 -398t121.5 -398t322.5 -149zM1026 -414h-334v295h334v-295z" />
    <glyph glyph-name="uni1ECD" unicode="&#x1ecd;" horiz-adv-x="1302" 
d="M651 -25q-264 0 -421.5 161t-157.5 419q0 259 157.5 420.5t421.5 161.5t422 -161.5t158 -420.5q0 -258 -158 -419t-422 -161zM651 188q126 0 193 97.5t67 269.5q0 173 -67 271t-193 98t-193 -98t-67 -271q0 -172 67 -269.5t193 -97.5zM813 -414h-324v295h324v-295z" />
    <glyph glyph-name="uni1EE4" unicode="&#x1ee4;" horiz-adv-x="1587" 
d="M795 -25q-650 0 -650 646v4v931h324v-960v-4q0 -361 326 -361q323 0 323 365v960h324v-931q0 -650 -647 -650zM961 -414h-334v295h334v-295z" />
    <glyph glyph-name="uni1EE5" unicode="&#x1ee5;" horiz-adv-x="1280" 
d="M834 479v633h313v-1112h-309v219q-94 -244 -351 -244q-125 0 -209 58t-120.5 153t-36.5 222v4v700h313v-633v-4q0 -280 201 -280q199 0 199 284zM805 -414h-324v295h324v-295z" />
    <glyph glyph-name="Ygrave" unicode="&#x1ef2;" horiz-adv-x="1443" 
d="M668 1970l245 -297h-309l-379 297h443zM1098 1556h368l-581 -923v-633h-324v629l-581 927h364l377 -622z" />
    <glyph glyph-name="ygrave" unicode="&#x1ef3;" horiz-adv-x="1230" 
d="M539 1556l229 -319h-291l-362 319h424zM614 178l267 934h329l-438 -1513h-321l147 516h-264l-328 997h316z" />
    <glyph glyph-name="uni1EF8" unicode="&#x1ef8;" horiz-adv-x="1443" 
d="M578 1767q-48 0 -81 -21t-44 -56h-107q3 138 64 213t159 75q77 0 170 -41q66 -32 127 -32q47 0 79.5 20.5t43.5 56.5h107q-3 -139 -64 -214.5t-160 -75.5q-72 0 -170 43q-66 32 -124 32zM1098 1556h368l-581 -923v-633h-324v629l-581 927h364l377 -622z" />
    <glyph glyph-name="uni1EF9" unicode="&#x1ef9;" horiz-adv-x="1230" 
d="M465 1348q-49 0 -79 -23.5t-40 -60.5h-100q3 138 60 212t151 74q67 0 159 -45q74 -32 121 -32q49 0 79 23t40 60h100q-3 -138 -60 -212t-151 -74q-71 0 -159 45q-76 33 -121 33zM614 178l267 934h329l-438 -1513h-321l147 516h-264l-328 997h316z" />
    <glyph glyph-name="uni2009" unicode="&#x2009;" horiz-adv-x="256" 
 />
    <glyph glyph-name="uni2011" unicode="&#x2011;" horiz-adv-x="913" 
d="M797 457h-678v258h678v-258z" />
    <glyph glyph-name="endash" unicode="&#x2013;" horiz-adv-x="1144" 
d="M1026 457h-907v258h907v-258z" />
    <glyph glyph-name="emdash" unicode="&#x2014;" horiz-adv-x="1755" 
d="M1636 457h-1517v258h1517v-258z" />
    <glyph glyph-name="quoteleft" unicode="&#x2018;" horiz-adv-x="557" 
d="M258 1556h207l-133 -286h108v-314h-338v351z" />
    <glyph glyph-name="quoteright" unicode="&#x2019;" horiz-adv-x="544" 
d="M123 1243v313h338v-350l-156 -250h-207l133 287h-108z" />
    <glyph glyph-name="quotesinglbase" unicode="&#x201a;" horiz-adv-x="604" 
d="M133 0v313h338v-350l-156 -250h-206l133 287h-109z" />
    <glyph glyph-name="quotedblleft" unicode="&#x201c;" horiz-adv-x="1015" 
d="M84 1307l158 249h207l-136 -286h111v-314h-340v351zM700 1556h207l-133 -286h111v-314h-340v351z" />
    <glyph glyph-name="quotedblright" unicode="&#x201d;" horiz-adv-x="1005" 
d="M250 1243h-111v313h340v-350l-157 -250h-207zM598 1243v313h340v-350l-156 -250h-207l134 287h-111z" />
    <glyph glyph-name="quotedblbase" unicode="&#x201e;" horiz-adv-x="1062" 
d="M242 0h-109v313h338v-350l-156 -250h-206zM592 0v313h340v-350l-158 -250h-205l133 287h-110z" />
    <glyph glyph-name="dagger" unicode="&#x2020;" horiz-adv-x="1249" 
d="M780 1159h359v-254h-359v-905h-313v905h-356v254h356v397h313v-397z" />
    <glyph glyph-name="daggerdbl" unicode="&#x2021;" horiz-adv-x="1249" 
d="M1139 1159v-254h-359v-223h359v-254h-359v-428h-313v428h-356v254h356v223h-356v254h356v397h313v-397h359z" />
    <glyph glyph-name="bullet" unicode="&#x2022;" horiz-adv-x="962" 
d="M479 260q-135 0 -229 95.5t-94 230.5t94 230t229 95t231.5 -95t96.5 -230t-96.5 -230.5t-231.5 -95.5z" />
    <glyph glyph-name="ellipsis" unicode="&#x2026;" horiz-adv-x="1812" 
d="M471 0h-338v313h338v-313zM1075 0h-338v313h338v-313zM1679 0h-338v313h338v-313z" />
    <glyph glyph-name="perthousand" unicode="&#x2030;" horiz-adv-x="2482" 
d="M807 1139q0 -213 -98 -327t-275 -114t-276 114t-99 327q0 214 99 328t276 114t275 -114t98 -328zM399 0l887 1556h283l-887 -1556h-283zM295 1139q0 -138 34 -202.5t105 -64.5q70 0 104.5 64.5t34.5 202.5q0 270 -139 270q-71 0 -105 -65.5t-34 -204.5zM2048 858
q177 0 275 -114t98 -328t-98 -327.5t-275 -113.5q-161 0 -256 125q-95 -125 -256 -125q-177 0 -276 113.5t-99 327.5t99 328t276 114q158 0 256 -125q98 125 256 125zM1536 147q139 0 139 269q0 268 -139 268q-71 0 -105 -64.5t-34 -203.5t34 -204t105 -65zM2048 147
q139 0 139 269q0 268 -139 268t-139 -268q0 -269 139 -269z" />
    <glyph glyph-name="minute" unicode="&#x2032;" horiz-adv-x="538" 
d="M332 961h-242l76 595h330z" />
    <glyph glyph-name="second" unicode="&#x2033;" horiz-adv-x="958" 
d="M332 961h-242l76 595h330zM752 961h-242l76 595h327z" />
    <glyph glyph-name="guilsinglleft" unicode="&#x2039;" horiz-adv-x="854" 
d="M401 1016h373l-323 -449l323 -471h-373l-317 471z" />
    <glyph glyph-name="guilsinglright" unicode="&#x203a;" horiz-adv-x="854" 
d="M80 1016h371l319 -449l-319 -471h-371l323 471z" />
    <glyph glyph-name="uni2042" unicode="&#x2042;" horiz-adv-x="1753" 
d="M719 823l-156 113l154 205l-236 78l60 180l237 -76v233h197v-233l235 76l60 -180l-236 -78l156 -205l-158 -113l-155 209zM494 489l235 76l59 -180l-233 -78l154 -203l-158 -114l-156 211l-157 -211l-156 114l154 203l-236 78l59 180l238 -76v234h197v-234zM1692 565
l59 -180l-233 -78l153 -203l-158 -114l-155 211l-158 -211l-156 114l154 203l-235 78l59 180l238 -76v234h196v-234z" />
    <glyph glyph-name="fraction" unicode="&#x2044;" horiz-adv-x="415" 
d="M-145 0h-267l973 1556h264z" />
    <glyph glyph-name="uni2070" unicode="&#x2070;" horiz-adv-x="770" 
d="M385 979q-163 0 -251.5 103.5t-88.5 299.5t88.5 300t251.5 104q164 0 252 -103.5t88 -300.5t-88 -300t-252 -103zM385 1137q65 0 96 60.5t31 184.5q0 246 -127 246t-127 -246q0 -245 127 -245z" />
    <glyph glyph-name="uni2074" unicode="&#x2074;" horiz-adv-x="759" 
d="M618 1343h105v-163h-105v-187h-208v187h-377v209l196 383h389v-429zM410 1720l-195 -377h195v377z" />
    <glyph glyph-name="uni2075" unicode="&#x2075;" horiz-adv-x="751" 
d="M459 1526q109 0 181.5 -71.5t72.5 -199.5q0 -132 -93 -204t-239 -72q-137 0 -230.5 67.5t-103.5 186.5h215q6 -44 37.5 -70t81.5 -26q51 0 84 33t33 85q0 54 -32.5 84.5t-86.5 30.5q-41 0 -72 -19t-43 -51l-209 19l39 453h563v-166h-368l-17 -193q23 49 72 81t115 32z
" />
    <glyph glyph-name="uni2076" unicode="&#x2076;" horiz-adv-x="772" 
d="M455 1513q122 0 197 -71.5t75 -192.5q0 -117 -93 -193.5t-243 -76.5q-158 0 -251 100.5t-93 302.5q0 201 94.5 302.5t249.5 101.5q137 0 217.5 -63t100.5 -160h-213q-23 65 -101 65q-74 0 -110 -71t-31 -177q16 55 71.5 94t129.5 39zM389 1137q56 0 90.5 32t34.5 80
t-34 78.5t-91 30.5q-55 0 -90 -31.5t-35 -75.5q0 -48 33.5 -81t91.5 -33z" />
    <glyph glyph-name="uni2077" unicode="&#x2077;" horiz-adv-x="618" 
d="M29 1606v166h561v-209l-285 -570h-254l332 613h-354z" />
    <glyph glyph-name="uni2078" unicode="&#x2078;" horiz-adv-x="778" 
d="M528 1399q87 -12 147 -60.5t60 -130.5q0 -103 -93.5 -166t-252.5 -63q-160 0 -254 62.5t-94 166.5q0 82 60 130.5t147 60.5q-185 46 -185 182q0 93 91 149t235 56q143 0 233.5 -56t90.5 -149q0 -136 -185 -182zM389 1628q-53 0 -84 -23t-31 -57q0 -35 30 -57.5t85 -22.5
q54 0 83.5 22.5t29.5 57.5q0 34 -30.5 57t-82.5 23zM389 1137q58 0 95.5 25t37.5 67t-38 65t-95 23q-58 0 -95.5 -22.5t-37.5 -65.5q0 -42 37.5 -67t95.5 -25z" />
    <glyph glyph-name="uni2079" unicode="&#x2079;" horiz-adv-x="772" 
d="M381 1786q158 0 251 -101t93 -303q0 -201 -94 -302t-250 -101q-137 0 -217.5 63t-100.5 160h213q23 -65 101 -65q74 0 110 71t31 176q-16 -55 -71.5 -94t-129.5 -39q-122 0 -197 71.5t-75 193.5q0 117 93 193.5t243 76.5zM383 1407q55 0 90 31t35 75q0 48 -33.5 81.5
t-91.5 33.5q-55 0 -90 -32t-35 -80t34 -78.5t91 -30.5z" />
    <glyph glyph-name="uni207A" unicode="&#x207a;" horiz-adv-x="671" 
d="M414 1450h202v-154h-202v-206h-156v206h-203v154h203v203h156v-203z" />
    <glyph glyph-name="uni207B" unicode="&#x207b;" horiz-adv-x="638" 
d="M571 1296h-501v154h501v-154z" />
    <glyph glyph-name="uni207C" unicode="&#x207c;" horiz-adv-x="679" 
d="M610 1411h-540v154h540v-154zM610 1182h-540v153h540v-153z" />
    <glyph glyph-name="uni207D" unicode="&#x207d;" horiz-adv-x="475" 
d="M436 889h-209q-161 238 -161 493q0 248 161 486h209q-73 -110 -116.5 -226.5t-43.5 -259.5q0 -255 160 -493z" />
    <glyph glyph-name="uni207E" unicode="&#x207e;" horiz-adv-x="475" 
d="M248 889h-209q160 240 160 493q0 248 -160 486h209q74 -110 119 -226.5t45 -259.5q0 -249 -164 -493z" />
    <glyph glyph-name="uni2080" unicode="&#x2080;" horiz-adv-x="770" 
d="M385 -248q-163 0 -251.5 104t-88.5 300t88.5 299.5t251.5 103.5q164 0 252 -103t88 -300t-88 -300.5t-252 -103.5zM385 -90q127 0 127 246q0 124 -31 184.5t-96 60.5q-127 0 -127 -245q0 -246 127 -246z" />
    <glyph glyph-name="uni2081" unicode="&#x2081;" horiz-adv-x="481" 
d="M225 530l4 15h168v-778h-209v499h-170v166h23q82 0 122.5 23t61.5 75z" />
    <glyph glyph-name="uni2082" unicode="&#x2082;" horiz-adv-x="731" 
d="M535 102l-240 -170h391v-165h-639v208l346 254q35 27 51.5 48t16.5 49q0 32 -25.5 53.5t-68.5 21.5q-46 0 -73.5 -25.5t-29.5 -64.5h-215q5 109 93 178.5t223 69.5q140 0 224.5 -65t84.5 -166q0 -70 -34.5 -123.5t-104.5 -102.5z" />
    <glyph glyph-name="uni2083" unicode="&#x2083;" horiz-adv-x="731" 
d="M469 170q42 -5 79 -17.5t69.5 -34.5t51.5 -57t19 -79q0 -111 -88.5 -170.5t-241.5 -59.5q-150 0 -232 67t-93 185h213q3 -42 31 -68t81 -26q49 0 82 24.5t33 65.5q0 88 -154 88h-57v162h57q64 0 99 23t35 57q0 31 -27 51t-68 20q-43 0 -69 -23.5t-29 -60.5h-213
q8 106 94 174t215 68q136 0 224 -56.5t88 -148.5q0 -151 -199 -184z" />
    <glyph glyph-name="uni2084" unicode="&#x2084;" horiz-adv-x="759" 
d="M618 117h105v-164h-105v-186h-208v186h-377v209l196 383h389v-428zM410 494l-195 -377h195v377z" />
    <glyph glyph-name="uni2085" unicode="&#x2085;" horiz-adv-x="751" 
d="M459 299q110 0 182 -71t72 -199q0 -132 -93.5 -204.5t-238.5 -72.5q-137 0 -230.5 67.5t-103.5 186.5h215q6 -44 37.5 -70t81.5 -26q51 0 84 33.5t33 85.5q0 53 -32 83.5t-87 30.5q-41 0 -72 -18.5t-43 -50.5l-209 18l39 453h563v-166h-368l-17 -193q23 49 72 81t115 32z
" />
    <glyph glyph-name="uni2086" unicode="&#x2086;" horiz-adv-x="772" 
d="M455 287q122 0 197 -71.5t75 -192.5q0 -117 -93 -194t-243 -77q-158 0 -251 101t-93 303q0 201 94 302t250 101q137 0 217.5 -63t100.5 -160h-213q-23 65 -101 65q-74 0 -110 -71t-31 -176q16 55 71.5 94t129.5 39zM389 -90q56 0 90.5 32.5t34.5 80.5t-33.5 78t-91.5 30
q-55 0 -90 -31t-35 -75q0 -48 33.5 -81.5t91.5 -33.5z" />
    <glyph glyph-name="uni2087" unicode="&#x2087;" horiz-adv-x="618" 
d="M29 379v166h561v-209l-285 -569h-254l332 612h-354z" />
    <glyph glyph-name="uni2088" unicode="&#x2088;" horiz-adv-x="778" 
d="M528 172q87 -12 147 -60t60 -130q0 -104 -93.5 -167t-252.5 -63q-160 0 -254 63t-94 167q0 82 60 130t147 60q-185 46 -185 182q0 93 91 149t235 56q143 0 233.5 -56t90.5 -149q0 -136 -185 -182zM389 401q-54 0 -84.5 -22.5t-30.5 -56.5q0 -35 30 -57.5t85 -22.5
q54 0 83.5 22.5t29.5 57.5q0 34 -30.5 56.5t-82.5 22.5zM389 -90q58 0 95.5 25t37.5 67t-38 65t-95 23q-58 0 -95.5 -22.5t-37.5 -65.5q0 -42 37.5 -67t95.5 -25z" />
    <glyph glyph-name="uni2089" unicode="&#x2089;" horiz-adv-x="772" 
d="M381 559q158 0 251 -100.5t93 -302.5q0 -201 -94.5 -302.5t-249.5 -101.5q-137 0 -218 63.5t-100 159.5h213q23 -65 99 -65q74 0 110 70t33 174q-22 -54 -76 -91.5t-125 -37.5q-122 0 -197 71.5t-75 192.5q0 117 93 193.5t243 76.5zM383 180q55 0 90 31.5t35 75.5
q0 48 -33.5 81t-91.5 33q-56 0 -90.5 -32t-34.5 -80t33 -78.5t92 -30.5z" />
    <glyph glyph-name="uni208A" unicode="&#x208a;" horiz-adv-x="671" 
d="M414 223h202v-153h-202v-207h-156v207h-203v153h203v203h156v-203z" />
    <glyph glyph-name="uni208B" unicode="&#x208b;" horiz-adv-x="638" 
d="M571 70h-501v153h501v-153z" />
    <glyph glyph-name="uni208C" unicode="&#x208c;" horiz-adv-x="679" 
d="M610 184h-540v154h540v-154zM610 -45h-540v154h540v-154z" />
    <glyph glyph-name="uni208D" unicode="&#x208d;" horiz-adv-x="475" 
d="M434 -338h-209q-162 239 -162 494q0 246 162 485h209q-73 -110 -116.5 -226t-43.5 -259q0 -256 160 -494z" />
    <glyph glyph-name="uni208E" unicode="&#x208e;" horiz-adv-x="475" 
d="M248 -338h-207q160 240 160 494q0 247 -160 485h207q74 -110 119 -226t45 -259q0 -256 -164 -494z" />
    <glyph glyph-name="uni20A9" unicode="&#x20a9;" horiz-adv-x="2068" 
d="M1987 1083v-229h-234l-16 -166h202v-229h-225l-45 -459h-489l-142 1524l-143 -1524h-489l-46 459h-231v229h209l-16 166h-238v229h215l-47 473h260l145 -1513l148 1513h465l147 -1523l146 1523h260l-47 -473h211z" />
    <glyph glyph-name="Euro" unicode="&#x20ac;" horiz-adv-x="1699" 
d="M1280 440h324q-72 -220 -234 -342.5t-383 -122.5q-241 0 -417 147.5t-238 401.5h-252l70 195h153q-2 20 -2 59q0 40 2 60h-199l70 194h156q63 253 238 401t411 148q221 0 384 -123t236 -338h-325q-42 104 -118.5 163.5t-176.5 59.5q-119 0 -202 -81t-120 -230h590
l-69 -194h-547q-2 -18 -2 -60q0 -41 2 -59h506l-70 -195h-410q38 -149 123.5 -230t206.5 -81q97 0 173.5 60t119.5 167z" />
    <glyph glyph-name="uni20B8" unicode="&#x20b8;" horiz-adv-x="1323" 
d="M63 1327v229h1197v-229h-1197zM502 973h-439v229h1197v-229h-439v-973h-319v973z" />
    <glyph glyph-name="uni20B9" unicode="&#x20b9;" horiz-adv-x="1429" 
d="M1356 1556v-229h-307q44 -68 59 -158h248v-229h-266q-53 -150 -204 -229.5t-362 -79.5h-30l751 -631h-465l-657 565v322h401q122 0 192 55t70 152q0 96 -70 151t-192 55h-401v256h1233z" />
    <glyph glyph-name="uni20BA" unicode="&#x20ba;" horiz-adv-x="1466" 
d="M1073 647h320q0 -336 -169 -491.5t-499 -155.5h-444v532l-162 -49v232l162 49v127l-162 -49v233l162 49v432h319v-335l404 122v-231l-404 -123v-129l404 123v-229l-404 -123v-375h102q194 0 282.5 94t88.5 297z" />
    <glyph glyph-name="uni20BD" unicode="&#x20bd;" horiz-adv-x="1538" 
d="M805 625h-189v-125h377v-230h-377v-270h-319v270h-182v230h182v125h-182v229h182v702h508q312 0 481.5 -118.5t169.5 -350.5q0 -231 -169 -346.5t-482 -115.5zM817 1300h-201v-446h201q311 0 311 223t-311 223z" />
    <glyph glyph-name="uni20BF" unicode="&#x20bf;" horiz-adv-x="1443" 
d="M1346 430q0 -146 -84.5 -246.5t-245.5 -146.5v-305h-273v268h-22h-84v-268h-272v268h-189v1556h189v259h272v-259h90h16v259h273v-299q146 -49 218.5 -145.5t72.5 -219.5q0 -79 -30 -143t-83 -106.5t-119 -69.5t-143 -39q178 -13 296 -107t118 -256zM737 1305h-241v-394
h241q112 0 179 52t67 143q0 92 -67.5 145.5t-178.5 53.5zM496 252h235q135 0 213 58.5t78 156.5q0 99 -77.5 156t-213.5 57h-235v-428z" />
    <glyph glyph-name="uni2113" unicode="&#x2113;" horiz-adv-x="1167" 
d="M596 324q0 -136 145 -136q121 0 234 80v-209q-136 -84 -307 -84q-192 0 -288.5 92.5t-96.5 268.5v4v14l-111 -67l-115 190l226 137v531q0 190 114 313t320 123q207 0 307 -103t100 -272q0 -173 -106.5 -317.5t-306.5 -272.5l-115 -69v-219v-4zM727 1368q-56 0 -93.5 -55
t-37.5 -156v-340q240 190 240 389q0 162 -109 162z" />
    <glyph glyph-name="uni2116" unicode="&#x2116;" horiz-adv-x="2668" 
d="M2204 1581q188 0 298.5 -108.5t110.5 -286.5t-110.5 -286.5t-298.5 -108.5t-300 108.5t-112 286.5t112 286.5t300 108.5zM805 1556l512 -1497v1497h323v-1556h-626l-512 1497v-1497h-324v1556h627zM2204 967q70 0 107.5 57t37.5 162t-37.5 162t-107.5 57t-109 -57.5
t-39 -161.5t39 -161.5t109 -57.5z" />
    <glyph glyph-name="uni2117" unicode="&#x2117;" horiz-adv-x="1890" 
d="M944 1620q171 0 327 -67t269 -180t179.5 -268.5t66.5 -326.5t-66.5 -326.5t-179.5 -268t-269 -179.5t-327 -67t-327 67t-269 179.5t-179.5 268t-66.5 326.5t66.5 326.5t179.5 268.5t269 180t327 67zM944 121q135 0 256.5 51.5t209.5 139.5t140 210t52 256q0 135 -52 257
t-140 210.5t-210 140.5t-256 52q-179 0 -330 -88.5t-238 -240t-87 -331.5q0 -135 51.5 -256.5t139 -209.5t209 -139.5t255.5 -51.5zM625 1237h381q181 0 283 -85t102 -224q0 -140 -102 -226t-283 -86h-152v-305h-229v926zM854 805h139q78 0 119 32t41 91t-41 91t-119 32
h-139v-246z" />
    <glyph glyph-name="uni2120" unicode="&#x2120;" horiz-adv-x="1900" 
d="M444 1280l117 -25q211 -46 211 -227q0 -116 -91 -180t-243 -64q-141 0 -233.5 67.5t-106.5 180.5h209q9 -51 46 -77.5t96 -26.5t91.5 22t32.5 58q0 33 -32.5 52t-94.5 32l-114 22q-219 46 -219 219q0 104 87.5 170t223.5 66q147 0 230.5 -61t101.5 -160h-209
q-12 36 -46 55.5t-79 19.5q-48 0 -80.5 -19.5t-32.5 -49.5q0 -27 30 -43t105 -31zM1759 1556v-763h-190v714l-119 -714h-313l-119 714v-714h-191v763h357l108 -686l109 686h358z" />
    <glyph glyph-name="trademark" unicode="&#x2122;" horiz-adv-x="1835" 
d="M285 1386h-226v170h656v-170h-226v-593h-204v593zM1692 1556v-763h-191v714l-119 -714h-313l-119 702v-702h-190v763h356l109 -686l106 686h361z" />
    <glyph glyph-name="uni2150" unicode="&#x2150;" horiz-adv-x="1611" 
d="M444 778h-208v500h-170v166h22q82 0 122.5 23t61.5 75l4 14h168v-778zM113 0l970 1556h267l-973 -1556h-264zM987 612v166h563v-209l-284 -569h-256l333 612h-356z" />
    <glyph glyph-name="uni2151" unicode="&#x2151;" horiz-adv-x="1650" 
d="M442 778h-209v500h-170v166h23q82 0 123.5 23.5t60.5 74.5l6 14h166v-778zM111 0l970 1556h267l-971 -1556h-266zM1249 793q158 0 251 -101t93 -303q0 -201 -94 -302t-250 -101q-137 0 -217.5 63t-99.5 160h213q24 -66 98 -66t110 70t33 174q-22 -55 -75.5 -92
t-124.5 -37q-122 0 -197.5 71.5t-75.5 192.5q0 117 93 194t243 77zM1251 414q55 0 90 31t35 75q0 48 -33.5 81.5t-91.5 33.5q-56 0 -90.5 -32.5t-34.5 -80.5t33 -78t92 -30z" />
    <glyph glyph-name="uni2152" unicode="&#x2152;" horiz-adv-x="2160" 
d="M444 778h-208v500h-168v166h22q81 0 122 23.5t60 74.5l7 14h165v-778zM379 0h-266l972 1556h265zM1763 793q163 0 251.5 -104t88.5 -300t-88.5 -299.5t-251.5 -103.5q-164 0 -252 103t-88 300t88 300.5t252 103.5zM1167 764l7 14h165v-778h-209v500h-169v166h22
q82 0 123.5 23.5t60.5 74.5zM1763 143q125 0 125 246t-125 246q-127 0 -127 -246t127 -246z" />
    <glyph glyph-name="uni2153" unicode="&#x2153;" horiz-adv-x="1609" 
d="M440 778h-209v500h-170v166h23q82 0 123.5 23.5t60.5 74.5l6 14h166v-778zM109 0l970 1556h267l-971 -1556h-266zM1329 403q42 -5 78.5 -17.5t68.5 -34t51 -56.5t19 -80q0 -111 -87 -170t-242 -59q-149 0 -232 67.5t-94 184.5h215q3 -42 31 -68.5t80 -26.5
q49 0 82.5 24.5t33.5 65.5q0 89 -155 89h-56v161h56q65 0 100 23t35 57q0 31 -27 51.5t-69 20.5t-68.5 -24t-28.5 -60h-215q8 106 95.5 174t216.5 68q136 0 223.5 -56.5t87.5 -148.5q0 -152 -199 -185z" />
    <glyph glyph-name="uni2154" unicode="&#x2154;" horiz-adv-x="1845" 
d="M322 944h393v-166h-641v209l348 254q34 27 49.5 47.5t15.5 48.5q0 32 -25 54t-69 22q-46 0 -73 -25.5t-29 -64.5h-213q3 109 90.5 178.5t222.5 69.5q142 0 226.5 -65t84.5 -167q0 -70 -34.5 -123t-106.5 -102zM346 0l971 1556h264l-971 -1556h-264zM1565 403
q42 -5 79 -17.5t69.5 -34.5t51.5 -57t19 -79q0 -111 -88 -170t-242 -59q-150 0 -232.5 67t-93.5 185h213q3 -42 32 -68.5t81 -26.5q49 0 82 24.5t33 65.5q0 89 -154 89h-55v161h55q65 0 100 23t35 57q0 31 -27 51.5t-69 20.5q-43 0 -68.5 -24t-27.5 -60h-215q8 106 94.5 174
t216.5 68q134 0 221.5 -56.5t87.5 -148.5q0 -152 -198 -185z" />
    <glyph glyph-name="uni2155" unicode="&#x2155;" horiz-adv-x="1681" 
d="M440 778h-209v500h-170v166h23q82 0 123.5 23.5t60.5 74.5l6 14h166v-778zM109 0l970 1556h267l-971 -1556h-266zM1366 532q110 0 182 -71t72 -199q0 -132 -93 -204t-239 -72q-137 0 -230.5 67.5t-103.5 186.5h215q6 -43 38 -70t81 -27q52 0 84.5 33t32.5 86
q0 54 -32.5 84.5t-86.5 30.5q-41 0 -72 -19t-43 -51l-208 19l38 452h564v-166h-369l-16 -198q22 51 70 84.5t116 33.5z" />
    <glyph glyph-name="uni2156" unicode="&#x2156;" horiz-adv-x="1918" 
d="M324 944h391v-166h-639v209l346 254q35 28 51 48t16 48q0 32 -26 54t-70 22t-71.5 -25t-30.5 -65h-213q3 109 90.5 178.5t222.5 69.5q142 0 226.5 -65t84.5 -167q0 -70 -34.5 -123t-104.5 -102zM346 0l971 1556h266l-971 -1556h-266zM1604 532q110 0 182 -71t72 -199
q0 -132 -93 -204t-239 -72q-137 0 -230.5 67.5t-103.5 186.5h215q6 -43 38 -70t81 -27q51 0 83.5 33.5t32.5 85.5q0 54 -32 84.5t-86 30.5q-41 0 -72 -19t-43 -51l-209 19l39 452h563v-166h-368l-17 -198q22 51 70.5 84.5t116.5 33.5z" />
    <glyph glyph-name="uni2157" unicode="&#x2157;" horiz-adv-x="1861" 
d="M715 993q0 -111 -87.5 -170t-242.5 -59q-150 0 -232.5 67t-93.5 185h215q2 -42 30.5 -68t80.5 -26q49 0 83 24.5t34 65.5q0 88 -156 88h-55v164h55q65 0 100 21.5t35 55.5q0 31 -27 51.5t-69 20.5t-68 -24t-28 -60h-215q8 106 94.5 174t216.5 68q135 0 222 -56t87 -149
q0 -151 -198 -184q91 -10 155 -57t64 -132zM289 0l973 1556h264l-971 -1556h-266zM1546 532q110 0 182 -71t72 -199q0 -132 -93 -204t-239 -72q-136 0 -229.5 68t-103.5 186h215q6 -44 37.5 -70.5t80.5 -26.5q52 0 84.5 33t32.5 86q0 54 -32.5 84.5t-86.5 30.5
q-41 0 -70.5 -18.5t-43.5 -51.5l-209 19l39 452h563v-166h-369l-16 -198q22 51 70 84.5t116 33.5z" />
    <glyph glyph-name="uni2158" unicode="&#x2158;" horiz-adv-x="1908" 
d="M643 778h-209v187h-377v209l197 382h389v-428h105v-163h-105v-187zM332 0l971 1556h266l-971 -1556h-266zM434 1505l-194 -377h194v377zM1589 532q110 0 182 -71t72 -199q0 -132 -93 -204t-239 -72q-137 0 -230 67.5t-103 186.5h215q6 -44 37.5 -70.5t80.5 -26.5
q51 0 84 33.5t33 85.5q0 54 -32.5 84.5t-86.5 30.5q-41 0 -71.5 -19t-42.5 -51l-209 19l39 452h563v-166h-369l-16 -198q22 51 70 84.5t116 33.5z" />
    <glyph glyph-name="uni2159" unicode="&#x2159;" horiz-adv-x="1644" 
d="M442 778h-209v500h-170v166h23q82 0 122.5 23t61.5 75l4 14h168v-778zM111 0l970 1556h267l-973 -1556h-264zM1311 520q122 0 197 -71.5t75 -192.5q0 -117 -93 -193.5t-243 -76.5q-158 0 -251 100.5t-93 302.5q0 201 94.5 302.5t249.5 101.5q137 0 218 -63.5t100 -160.5
h-213q-24 66 -101 66q-73 0 -108.5 -70t-32.5 -174q20 54 74.5 91.5t126.5 37.5zM1245 143q56 0 90.5 32.5t34.5 80.5t-33 78.5t-92 30.5q-55 0 -90 -31.5t-35 -75.5q0 -48 33.5 -81.5t91.5 -33.5z" />
    <glyph glyph-name="uni215A" unicode="&#x215a;" horiz-adv-x="1816" 
d="M727 1040q0 -132 -92.5 -204t-237.5 -72q-138 0 -231.5 68t-102.5 186h216q6 -44 36.5 -70t79.5 -26q53 0 86 33t33 85q0 53 -33 84t-86 31q-87 0 -116 -70l-209 19l41 452h563v-165h-369l-18 -199q22 51 71.5 85t116.5 34q109 0 180.5 -71t71.5 -200zM283 0l970 1556
h267l-971 -1556h-266zM1483 520q123 0 198.5 -71t75.5 -193q0 -117 -93 -193.5t-245 -76.5q-158 0 -251 100.5t-93 302.5q0 201 94.5 302.5t249.5 101.5q137 0 218.5 -63.5t101.5 -160.5h-215q-24 66 -99 66q-74 0 -110 -70t-33 -174q22 54 76 91.5t125 37.5zM1417 143
q56 0 90.5 32.5t34.5 80.5t-33 78.5t-92 30.5q-54 0 -88.5 -31.5t-34.5 -75.5q0 -48 33 -81.5t90 -33.5z" />
    <glyph glyph-name="oneeighth" unicode="&#x215b;" horiz-adv-x="1662" 
d="M440 778h-209v500h-170v166h23q82 0 123.5 23.5t60.5 74.5l6 14h166v-778zM109 0l970 1556h267l-971 -1556h-266zM1397 406q87 -12 147 -60.5t60 -130.5q0 -103 -94.5 -166t-254.5 -63q-159 0 -252.5 63t-93.5 166q0 82 60 130.5t145 60.5q-182 46 -182 182q0 93 90 149
t233 56q144 0 235 -56t91 -149q0 -136 -184 -182zM1255 635q-52 0 -82 -23t-30 -57q0 -35 29 -57.5t83 -22.5q55 0 85 22.5t30 57.5q0 34 -31 57t-84 23zM1255 143q58 0 96 25.5t38 67.5t-38 65t-96 23q-57 0 -94 -23t-37 -65t36.5 -67.5t94.5 -25.5z" />
    <glyph glyph-name="threeeighths" unicode="&#x215c;" horiz-adv-x="1845" 
d="M715 993q0 -111 -87.5 -170t-242.5 -59q-150 0 -232.5 67t-93.5 185h215q2 -42 30.5 -68t80.5 -26q49 0 83 24.5t34 65.5q0 88 -156 88h-55v164h55q65 0 100 21.5t35 55.5q0 31 -27 51.5t-69 20.5t-68 -24t-28 -60h-215q8 106 94.5 174t216.5 68q135 0 222 -56t87 -149
q0 -151 -198 -184q91 -10 155 -57t64 -132zM289 0l973 1556h264l-971 -1556h-266zM1577 406q87 -12 147 -60.5t60 -130.5q0 -104 -94 -166.5t-254 -62.5q-159 0 -252.5 63t-93.5 166q0 82 60 130.5t146 60.5q-184 46 -184 182q0 93 90.5 149t233.5 56q144 0 234.5 -56
t90.5 -149q0 -136 -184 -182zM1436 635q-52 0 -82.5 -23t-30.5 -57q0 -35 29.5 -57.5t83.5 -22.5q55 0 84.5 22.5t29.5 57.5q0 34 -30.5 57t-83.5 23zM1436 143q58 0 95.5 25.5t37.5 67.5q0 43 -37.5 65.5t-95.5 22.5q-57 0 -94 -23t-37 -65t36.5 -67.5t94.5 -25.5z" />
    <glyph glyph-name="fiveeighths" unicode="&#x215d;" horiz-adv-x="1837" 
d="M727 1040q0 -132 -92.5 -204t-237.5 -72q-138 0 -231.5 68t-102.5 186h216q6 -44 36.5 -70t79.5 -26q53 0 86 33t33 85q0 53 -33 84t-86 31q-87 0 -116 -70l-209 19l41 452h563v-165h-369l-18 -199q22 51 71.5 85t116.5 34q109 0 180.5 -71t71.5 -200zM283 0l970 1556
h267l-971 -1556h-266zM1571 406q87 -12 147 -60.5t60 -130.5q0 -104 -94 -166.5t-254 -62.5q-159 0 -253 63t-94 166q0 82 60 130.5t145 60.5q-182 46 -182 182q0 93 90.5 149t233.5 56q144 0 234.5 -56t90.5 -149q0 -136 -184 -182zM1430 635q-52 0 -82.5 -23t-30.5 -57
q0 -35 29.5 -57.5t83.5 -22.5q55 0 84.5 22.5t29.5 57.5q0 34 -30.5 57t-83.5 23zM1430 143q58 0 95.5 25.5t37.5 67.5q0 43 -37.5 65.5t-95.5 22.5q-57 0 -94.5 -23t-37.5 -65t37 -67.5t95 -25.5z" />
    <glyph glyph-name="seveneighths" unicode="&#x215e;" horiz-adv-x="1705" 
d="M639 1348l-285 -570h-254l334 613h-356v165h561v-208zM152 0l970 1556h264l-970 -1556h-264zM1440 406q85 -12 145 -60.5t60 -130.5q0 -103 -94 -166t-253 -63q-160 0 -254 62.5t-94 166.5q0 82 60 130.5t147 60.5q-184 46 -184 182q0 93 90.5 149t234.5 56
q143 0 233.5 -56t90.5 -149q0 -136 -182 -182zM1298 635q-53 0 -83.5 -23t-30.5 -57q0 -35 29.5 -57.5t84.5 -22.5q54 0 83.5 22.5t29.5 57.5q0 34 -30.5 57t-82.5 23zM1298 143q58 0 96 25.5t38 67.5t-38.5 65t-95.5 23q-58 0 -95.5 -22.5t-37.5 -65.5q0 -42 37.5 -67.5
t95.5 -25.5z" />
    <glyph glyph-name="uni215F" unicode="&#x215f;" horiz-adv-x="1419" 
d="M479 778h-209v500h-170v166h23q82 0 122.5 23t61.5 75l4 14h168v-778zM147 0l971 1556h266l-972 -1556h-265z" />
    <glyph glyph-name="uni2189" unicode="&#x2189;" horiz-adv-x="1781" 
d="M741 1167q0 -197 -88 -300t-252 -103q-163 0 -251.5 103.5t-88.5 299.5t88.5 300t251.5 104q164 0 252 -103.5t88 -300.5zM279 0l972 1556h265l-971 -1556h-266zM276 1167q0 -245 125 -245q65 0 96 60.5t31 184.5q0 246 -127 246q-125 0 -125 -246zM1499 403
q42 -5 79 -17.5t69.5 -34.5t51.5 -57t19 -79q0 -111 -88 -170t-241 -59q-150 0 -233 67t-95 185h215q3 -42 31.5 -68.5t81.5 -26.5q49 0 81.5 24.5t32.5 65.5q0 89 -155 89h-56v161h56q66 0 100.5 23t34.5 57q0 31 -26.5 51.5t-67.5 20.5q-43 0 -70 -24t-29 -60h-213
q6 106 93 174t216 68q136 0 224 -56.5t88 -148.5q0 -152 -199 -185z" />
    <glyph glyph-name="arrowleft" unicode="&#x2190;" horiz-adv-x="1576" 
d="M541 918h956v-279h-954l405 -436h-358l-471 575l471 578h358z" />
    <glyph glyph-name="arrowup" unicode="&#x2191;" horiz-adv-x="1576" 
d="M788 1468l578 -471v-360l-438 407v-954h-279v954l-438 -407v360z" />
    <glyph glyph-name="arrowright" unicode="&#x2192;" horiz-adv-x="1576" 
d="M629 1356h358l471 -578l-471 -575h-358l405 436h-954v279h956z" />
    <glyph glyph-name="arrowdown" unicode="&#x2193;" horiz-adv-x="1576" 
d="M928 1468v-956l438 408v-359l-578 -473l-577 473v359l438 -408v956h279z" />
    <glyph glyph-name="uni2196" unicode="&#x2196;" horiz-adv-x="1576" 
d="M721 1059l711 -711l-195 -194l-711 710v-626l-254 243v832h832l244 -254h-627z" />
    <glyph glyph-name="uni2197" unicode="&#x2197;" horiz-adv-x="1576" 
d="M229 1059l244 254h832v-832l-254 -243v624l-711 -708l-195 194l711 711h-627z" />
    <glyph glyph-name="uni2198" unicode="&#x2198;" horiz-adv-x="1576" 
d="M1051 694v625l254 -244v-831h-832l-244 254h627l-711 710l195 195z" />
    <glyph glyph-name="uni2199" unicode="&#x2199;" horiz-adv-x="1576" 
d="M1237 1403l195 -195l-711 -710h627l-244 -254h-832v831l254 244v-627z" />
    <glyph glyph-name="uni21A4" unicode="&#x21a4;" horiz-adv-x="1576" 
d="M1161 918v438h281v-1155h-281v438h-715l408 -438h-358l-471 577l471 578h358l-408 -438h715z" />
    <glyph glyph-name="uni21A5" unicode="&#x21a5;" horiz-adv-x="1576" 
d="M1366 1110v-358l-438 407v-764h438v-280h-1155v280h438v764l-438 -407v358l577 473z" />
    <glyph glyph-name="uni21A6" unicode="&#x21a6;" horiz-adv-x="1576" 
d="M723 1356h358l471 -578l-471 -577h-358l407 438h-714v-438h-281v1155h281v-438h714z" />
    <glyph glyph-name="uni21A7" unicode="&#x21a7;" horiz-adv-x="1576" 
d="M1366 1442v-281h-438v-764l438 408v-359l-578 -473l-577 473v359l438 -408v764h-438v281h1155z" />
    <glyph glyph-name="uni21B0" unicode="&#x21b0;" horiz-adv-x="1576" 
d="M440 918h975v-918h-276v639h-699l408 -438h-359l-473 577l473 578h359z" />
    <glyph glyph-name="uni21B1" unicode="&#x21b1;" horiz-adv-x="1576" 
d="M729 1356h358l474 -578l-474 -577h-358l408 438h-697v-639h-278v918h975z" />
    <glyph glyph-name="uni21B2" unicode="&#x21b2;" horiz-adv-x="1576" 
d="M1139 918v638h276v-917h-975l408 -438h-359l-473 577l473 578h359l-408 -438h699z" />
    <glyph glyph-name="uni21B3" unicode="&#x21b3;" horiz-adv-x="1576" 
d="M729 1356h358l474 -578l-474 -577h-358l408 438h-975v917h278v-638h697z" />
    <glyph glyph-name="partialdiff" unicode="&#x2202;" horiz-adv-x="1267" 
d="M279 1350v229q450 -50 676.5 -291.5t226.5 -623.5q0 -337 -145 -513t-433 -176q-112 0 -212 34.5t-178 98.5t-123.5 164.5t-45.5 223.5t39.5 220.5t108 157.5t156 91.5t188.5 31.5q152 0 253.5 -75.5t147.5 -182.5q-5 118 -47 219.5t-120.5 184t-204 137t-287.5 70.5z
M610 188q109 0 175.5 85.5t66.5 226.5q0 133 -66 208.5t-176 75.5q-112 0 -178.5 -76.5t-66.5 -211.5q0 -140 67 -224t178 -84z" />
    <glyph glyph-name="product" unicode="&#x220f;" horiz-adv-x="1923" 
d="M1870 1556v-270h-283v-1562h-323v1562h-607v-1562h-323v1562h-283v270h1819z" />
    <glyph glyph-name="summation" unicode="&#x2211;" horiz-adv-x="1400" 
d="M1102 662l-653 -668h884v-270h-1247v350l578 583l-578 549v350h1237v-270h-874z" />
    <glyph glyph-name="minus" unicode="&#x2212;" horiz-adv-x="1196" 
d="M1096 442h-996v236h996v-236z" />
    <glyph glyph-name="radical" unicode="&#x221a;" horiz-adv-x="1460" 
d="M709 -51l432 1607h325l-497 -1832h-514l-207 671h-238v271h486z" />
    <glyph glyph-name="infinity" unicode="&#x221e;" horiz-adv-x="2328" 
d="M1690 1090q145 0 267.5 -67t195.5 -189t73 -273q0 -152 -73 -274t-195.5 -189t-267.5 -67q-304 0 -527 303q-219 -303 -526 -303q-107 0 -205 39.5t-171 108.5t-116 168.5t-43 213.5q0 151 73.5 273t195.5 189t266 67q303 0 528 -308q222 308 525 308zM651 276
q167 0 324 230l37 53l-39 55q-156 230 -322 230q-116 0 -192 -77t-76 -206q0 -130 76 -207.5t192 -77.5zM1677 276q116 0 192.5 77.5t76.5 207.5q0 129 -76.5 206t-192.5 77q-165 0 -321 -230l-39 -55l37 -53q157 -230 323 -230z" />
    <glyph glyph-name="integral" unicode="&#x222b;" horiz-adv-x="866" 
d="M139 -401h-147v229h104q95 0 137.5 43.5t42.5 146.5v1145q0 210 112 301.5t337 91.5h147v-229h-104q-95 0 -136.5 -43.5t-41.5 -146.5v-1145q0 -210 -113 -301.5t-338 -91.5z" />
    <glyph glyph-name="approxequal" unicode="&#x2248;" horiz-adv-x="1423" 
d="M256 602l-150 152q75 108 166 166.5t189 58.5q61 0 112 -11.5t136 -47.5q151 -62 233 -62q66 0 117.5 32.5t105.5 94.5l150 -151q-74 -107 -165.5 -167.5t-188.5 -60.5q-58 0 -109 12.5t-139 47.5q-153 63 -234 63q-66 0 -119 -33t-104 -94zM256 143l-150 152
q75 108 166 166.5t189 58.5q61 0 112 -11.5t136 -47.5q151 -62 233 -62q66 0 117.5 32.5t105.5 94.5l150 -151q-74 -106 -165 -165.5t-189 -59.5q-61 0 -112 11.5t-136 47.5q-148 61 -234 61q-66 0 -119 -33t-104 -94z" />
    <glyph glyph-name="notequal" unicode="&#x2260;" horiz-adv-x="1312" 
d="M1184 903v-237h-318l-116 -205h434v-238h-570l-127 -223h-294l126 223h-190v238h326l116 205h-442v237h578l118 209h295l-119 -209h183z" />
    <glyph glyph-name="lessequal" unicode="&#x2264;" horiz-adv-x="1220" 
d="M113 893l989 221v-227l-836 -174l836 -176v-226l-989 221v361zM1102 0h-989v229h989v-229z" />
    <glyph glyph-name="greaterequal" unicode="&#x2265;" horiz-adv-x="1220" 
d="M121 887v227l987 -221v-361l-987 -221v226l835 176zM1108 0h-987v229h987v-229z" />
    <glyph glyph-name="uni2300" unicode="&#x2300;" horiz-adv-x="1357" 
d="M1137 1167l151 -147l-131 -131q105 -150 105 -332q0 -158 -78.5 -292.5t-213 -213t-292.5 -78.5q-181 0 -328 103l-131 -133l-151 149l133 133q-105 150 -105 332q0 118 46.5 226t124.5 185.5t185.5 123t225.5 45.5q181 0 328 -101zM340 557q0 -78 37 -154l452 455
q-67 37 -151 37q-138 0 -238 -100t-100 -238zM1018 557q0 78 -37 154l-453 -457q67 -37 150 -37q140 0 240 100.5t100 239.5z" />
    <glyph glyph-name="uni2460" unicode="&#x2460;" horiz-adv-x="1912" 
d="M956 1636q175 0 334 -68t274 -182.5t183 -273.5t68 -334t-68 -334t-183 -273.5t-274 -182.5t-334 -68t-334 68t-273.5 182.5t-182.5 273.5t-68 334t68 334t182.5 273.5t273.5 182.5t334 68zM956 88q141 0 269 54.5t220.5 146.5t147 220t54.5 269t-54.5 269t-147 220
t-220.5 146.5t-269 54.5q-188 0 -347 -92t-251 -251t-92 -347t92 -347t251 -251t347 -92zM893 1231l4 14h201v-934h-244v604h-201v193h27q93 0 142 29.5t71 93.5z" />
    <glyph glyph-name="uni2461" unicode="&#x2461;" horiz-adv-x="1912" 
d="M956 1636q175 0 334 -68t274 -182.5t183 -273.5t68 -334t-68 -334t-183 -273.5t-274 -182.5t-334 -68t-334 68t-273.5 182.5t-182.5 273.5t-68 334t68 334t182.5 273.5t273.5 182.5t334 68zM956 88q141 0 269 54.5t220.5 146.5t147 220t54.5 269t-54.5 269t-147 220
t-220.5 146.5t-269 54.5q-188 0 -347 -92t-251 -251t-92 -347t92 -347t251 -251t347 -92zM1149 715l-289 -209h479v-195h-761v246l417 307q40 31 59 58t19 59q0 42 -32.5 69t-86.5 27t-89 -28.5t-38 -81.5h-249q7 133 112 214t264 81q164 0 266.5 -78t102.5 -201
q0 -83 -42.5 -144t-131.5 -124z" />
    <glyph glyph-name="uni2462" unicode="&#x2462;" horiz-adv-x="1912" 
d="M956 1636q175 0 334 -68t274 -182.5t183 -273.5t68 -334t-68 -334t-183 -273.5t-274 -182.5t-334 -68t-334 68t-273.5 182.5t-182.5 273.5t-68 334t68 334t182.5 273.5t273.5 182.5t334 68zM956 88q141 0 269 54.5t220.5 146.5t147 220t54.5 269t-54.5 269t-147 220
t-220.5 146.5t-269 54.5q-188 0 -347 -92t-251 -251t-92 -347t92 -347t251 -251t347 -92zM1077 795q38 -3 73.5 -12.5t70 -27.5t60.5 -42.5t42 -62t16 -81.5q0 -131 -105.5 -202.5t-285.5 -71.5t-277.5 79.5t-109.5 219.5h250q10 -115 137 -115q57 0 99.5 28.5t42.5 80.5
q0 110 -187 110h-63v193h63q86 0 124 26.5t38 69.5q0 41 -33 65.5t-86 24.5q-54 0 -85 -28t-34 -70h-247q9 125 111.5 204t254.5 79q155 0 262 -69t107 -177q0 -53 -19 -93t-54 -64.5t-74.5 -39.5t-90.5 -24z" />
    <glyph glyph-name="uni2463" unicode="&#x2463;" horiz-adv-x="1912" 
d="M956 1636q175 0 334 -68t274 -182.5t183 -273.5t68 -334t-68 -334t-183 -273.5t-274 -182.5t-334 -68t-334 68t-273.5 182.5t-182.5 273.5t-68 334t68 334t182.5 273.5t273.5 182.5t334 68zM956 88q141 0 269 54.5t220.5 146.5t147 220t54.5 269t-54.5 269t-147 220
t-220.5 146.5t-269 54.5q-188 0 -347 -92t-251 -251t-92 -347t92 -347t251 -251t347 -92zM1210 1245v-516h127v-194h-127v-224h-243v224h-453v243l256 467h440zM967 1180l-250 -451h250v451z" />
    <glyph glyph-name="uni2464" unicode="&#x2464;" horiz-adv-x="1912" 
d="M956 1636q175 0 334 -68t274 -182.5t183 -273.5t68 -334t-68 -334t-183 -273.5t-274 -182.5t-334 -68t-334 68t-273.5 182.5t-182.5 273.5t-68 334t68 334t182.5 273.5t273.5 182.5t334 68zM956 88q141 0 269 54.5t220.5 146.5t147 220t54.5 269t-54.5 269t-147 220
t-220.5 146.5t-269 54.5q-188 0 -347 -92t-251 -251t-92 -347t92 -347t251 -251t347 -92zM1051 950q125 0 208.5 -85t83.5 -240q0 -159 -108 -244.5t-277 -85.5q-163 0 -270 80.5t-119 220.5h250q5 -51 41 -84t96 -33q61 0 100.5 39t39.5 107t-40 105.5t-100 37.5
q-48 0 -84 -22.5t-53 -63.5l-239 20l45 543h657v-194h-434l-21 -242q26 58 85.5 99.5t138.5 41.5z" />
    <glyph glyph-name="uni2465" unicode="&#x2465;" horiz-adv-x="1912" 
d="M956 1636q175 0 334 -68t274 -182.5t183 -273.5t68 -334t-68 -334t-183 -273.5t-274 -182.5t-334 -68t-334 68t-273.5 182.5t-182.5 273.5t-68 334t68 334t182.5 273.5t273.5 182.5t334 68zM956 88q141 0 269 54.5t220.5 146.5t147 220t54.5 269t-54.5 269t-147 220
t-220.5 146.5t-269 54.5q-188 0 -347 -92t-251 -251t-92 -347t92 -347t251 -251t347 -92zM1022 936q148 0 238 -86.5t90 -233.5q0 -141 -110.5 -231t-287.5 -90q-190 0 -300.5 120.5t-110.5 362.5q0 239 113 361.5t300 122.5q158 0 255 -74.5t120 -194.5h-250
q-26 84 -123 84q-92 0 -133.5 -84.5t-38.5 -214.5q23 66 87 112t151 46zM950 479q67 0 109.5 38t42.5 99q0 63 -41.5 100.5t-110.5 37.5q-70 0 -111.5 -37.5t-41.5 -98.5q0 -60 40.5 -99.5t112.5 -39.5z" />
    <glyph glyph-name="uni2466" unicode="&#x2466;" horiz-adv-x="1912" 
d="M956 1636q175 0 334 -68t274 -182.5t183 -273.5t68 -334t-68 -334t-183 -273.5t-274 -182.5t-334 -68t-334 68t-273.5 182.5t-182.5 273.5t-68 334t68 334t182.5 273.5t273.5 182.5t334 68zM956 88q141 0 269 54.5t220.5 146.5t147 220t54.5 269t-54.5 269t-147 220
t-220.5 146.5t-269 54.5q-188 0 -347 -92t-251 -251t-92 -347t92 -347t251 -251t347 -92zM1051 1051h-430v194h671v-246l-348 -688h-295z" />
    <glyph glyph-name="uni2467" unicode="&#x2467;" horiz-adv-x="1912" 
d="M956 1636q175 0 334 -68t274 -182.5t183 -273.5t68 -334t-68 -334t-183 -273.5t-274 -182.5t-334 -68t-334 68t-273.5 182.5t-182.5 273.5t-68 334t68 334t182.5 273.5t273.5 182.5t334 68zM956 88q141 0 269 54.5t220.5 146.5t147 220t54.5 269t-54.5 269t-147 220
t-220.5 146.5t-269 54.5q-188 0 -347 -92t-251 -251t-92 -347t92 -347t251 -251t347 -92zM1120 799q47 -8 88 -24t77.5 -42.5t57.5 -68t21 -93.5q0 -126 -110.5 -201t-297.5 -75t-297 75t-110 201q0 52 21 93.5t57.5 68t77.5 42.5t88 24q-215 54 -215 217q0 113 104.5 179.5
t273.5 66.5t274 -66.5t105 -179.5q0 -163 -215 -217zM956 1077q-64 0 -99.5 -28.5t-35.5 -69.5q0 -40 34.5 -68t100.5 -28t101 28t35 68q0 41 -36 69.5t-100 28.5zM956 479q67 0 112.5 30.5t45.5 84.5q0 52 -44 81.5t-114 29.5t-113.5 -29t-43.5 -82q0 -54 45 -84.5
t112 -30.5z" />
    <glyph glyph-name="uni2468" unicode="&#x2468;" horiz-adv-x="1912" 
d="M956 1636q175 0 334 -68t274 -182.5t183 -273.5t68 -334t-68 -334t-183 -273.5t-274 -182.5t-334 -68t-334 68t-273.5 182.5t-182.5 273.5t-68 334t68 334t182.5 273.5t273.5 182.5t334 68zM956 88q141 0 269 54.5t220.5 146.5t147 220t54.5 269t-54.5 269t-147 220
t-220.5 146.5t-269 54.5q-188 0 -347 -92t-251 -251t-92 -347t92 -347t251 -251t347 -92zM961 1262q189 0 300 -121t111 -363q0 -238 -113.5 -360.5t-300.5 -122.5q-158 0 -254.5 74t-119.5 194h250q26 -84 122 -84q92 0 133.5 84.5t38.5 214.5q-23 -66 -86.5 -111.5
t-150.5 -45.5q-148 0 -238 86.5t-90 232.5q0 141 110.5 231.5t287.5 90.5zM963 803q70 0 111.5 37t41.5 98q0 60 -40.5 99.5t-112.5 39.5q-67 0 -109.5 -38t-42.5 -99q0 -63 41.5 -100t110.5 -37z" />
    <glyph glyph-name="uni24EA" unicode="&#x24ea;" horiz-adv-x="1912" 
d="M956 -80q-175 0 -334 68t-273.5 182.5t-182.5 273.5t-68 334t68 334t182.5 273.5t273.5 182.5t334 68t334 -68t274 -182.5t183 -273.5t68 -334t-68 -334t-183 -273.5t-274 -182.5t-334 -68zM956 88q141 0 269 54.5t220.5 146.5t147 220t54.5 269t-54.5 269t-147 220
t-220.5 146.5t-269 54.5q-188 0 -347 -92t-251 -251t-92 -347t92 -347t251 -251t347 -92zM956 295q-194 0 -299.5 123.5t-105.5 359.5t105.5 360t299.5 124t300 -124t106 -360q0 -235 -106 -359t-300 -124zM956 479q156 0 156 299t-156 299q-79 0 -117 -74t-38 -225t38 -225
t117 -74z" />
    <glyph glyph-name="uni24FF" unicode="&#x24ff;" horiz-adv-x="1912" 
d="M956 -80q-175 0 -334 68t-273.5 182.5t-182.5 273.5t-68 334t68 334t182.5 273.5t273.5 182.5t334 68t334 -68t274 -182.5t183 -273.5t68 -334t-68 -334t-183 -273.5t-274 -182.5t-334 -68zM956 295q194 0 300 124t106 359q0 236 -106 360t-300 124t-299.5 -124
t-105.5 -360t105.5 -359.5t299.5 -123.5zM956 479q-79 0 -117 74t-38 225t38 225t117 74q156 0 156 -299t-156 -299z" />
    <glyph glyph-name="filledbox" unicode="&#x25a0;" horiz-adv-x="1409" 
d="M1262 0h-1112v1112h1112v-1112z" />
    <glyph glyph-name="uni25A1" unicode="&#x25a1;" horiz-adv-x="1409" 
d="M1262 0h-1112v1112h1112v-1112zM395 866v-620h619v620h-619z" />
    <glyph glyph-name="lozenge" unicode="&#x25ca;" horiz-adv-x="1435" 
d="M522 1556h393l433 -778l-433 -778h-393l-434 778zM373 778l346 -616l344 614l-344 619z" />
    <glyph glyph-name="circle" unicode="&#x25cb;" horiz-adv-x="1386" 
d="M692 -37q-161 0 -298 79t-216.5 216t-79.5 299q0 161 79.5 297.5t216.5 215.5t298 79q162 0 299.5 -79t217 -215.5t79.5 -297.5q0 -122 -47 -232t-127 -189t-190 -126t-232 -47zM692 219q141 0 240.5 99t99.5 239q0 139 -99.5 237.5t-240.5 98.5q-140 0 -239 -98.5
t-99 -237.5t99 -238.5t239 -99.5z" />
    <glyph glyph-name="uni25CF" unicode="&#x25cf;" horiz-adv-x="1386" 
d="M692 -37q-161 0 -298 79t-216.5 216t-79.5 299q0 161 79.5 297.5t216.5 215.5t298 79q162 0 299.5 -79t217 -215.5t79.5 -297.5q0 -122 -47 -232t-127 -189t-190 -126t-232 -47z" />
    <glyph glyph-name="uni2776" unicode="&#x2776;" horiz-adv-x="1912" 
d="M956 -80q-175 0 -334 68t-273.5 182.5t-182.5 273.5t-68 334t68 334t182.5 273.5t273.5 182.5t334 68t334 -68t274 -182.5t183 -273.5t68 -334t-68 -334t-183 -273.5t-274 -182.5t-334 -68zM854 915v-604h244v934h-201l-4 -14q-22 -64 -71 -93.5t-142 -29.5h-27v-193h201
z" />
    <glyph glyph-name="uni2777" unicode="&#x2777;" horiz-adv-x="1912" 
d="M956 -80q-175 0 -334 68t-273.5 182.5t-182.5 273.5t-68 334t68 334t182.5 273.5t273.5 182.5t334 68t334 -68t274 -182.5t183 -273.5t68 -334t-68 -334t-183 -273.5t-274 -182.5t-334 -68zM578 557v-246h761v195h-481l291 209q89 63 131.5 124t42.5 144
q0 123 -102.5 201t-266.5 78q-159 0 -264 -81t-112 -214h249q3 53 38 81.5t89 28.5t86.5 -27t32.5 -69q0 -32 -19 -59t-59 -58z" />
    <glyph glyph-name="uni2778" unicode="&#x2778;" horiz-adv-x="1912" 
d="M956 -80q-175 0 -334 68t-273.5 182.5t-182.5 273.5t-68 334t68 334t182.5 273.5t273.5 182.5t334 68t334 -68t274 -182.5t183 -273.5t68 -334t-68 -334t-183 -273.5t-274 -182.5t-334 -68zM948 295q180 0 285.5 71.5t105.5 202.5q0 55 -23.5 98t-62.5 68.5t-82.5 40
t-91.5 19.5q108 20 172 70.5t64 150.5q0 108 -107 177t-262 69q-152 0 -254.5 -79t-111.5 -204h247q3 42 34 70t85 28q53 0 86 -24.5t33 -65.5q0 -43 -38 -69.5t-124 -26.5h-63v-193h63q187 0 187 -110q0 -52 -42.5 -80.5t-99.5 -28.5q-127 0 -137 115h-250
q12 -140 109.5 -219.5t277.5 -79.5z" />
    <glyph glyph-name="uni2779" unicode="&#x2779;" horiz-adv-x="1912" 
d="M956 -80q-175 0 -334 68t-273.5 182.5t-182.5 273.5t-68 334t68 334t182.5 273.5t273.5 182.5t334 68t334 -68t274 -182.5t183 -273.5t68 -334t-68 -334t-183 -273.5t-274 -182.5t-334 -68zM514 778v-243h453v-224h243v224h127v194h-127v516h-440zM967 729h-248l248 442
v-442z" />
    <glyph glyph-name="uni277A" unicode="&#x277a;" horiz-adv-x="1912" 
d="M956 -80q-175 0 -334 68t-273.5 182.5t-182.5 273.5t-68 334t68 334t182.5 273.5t273.5 182.5t334 68t334 -68t274 -182.5t183 -273.5t68 -334t-68 -334t-183 -273.5t-274 -182.5t-334 -68zM958 295q169 0 277 85.5t108 244.5q0 155 -83.5 240t-208.5 85
q-79 0 -138.5 -41.5t-85.5 -99.5l21 242h434v194h-657l-45 -543l239 -20q17 41 53 63.5t84 22.5q60 0 100 -37.5t40 -105.5t-39.5 -107t-100.5 -39q-60 0 -96 33t-41 84h-250q12 -140 119 -220.5t270 -80.5z" />
    <glyph glyph-name="uni277B" unicode="&#x277b;" horiz-adv-x="1912" 
d="M956 -80q-175 0 -334 68t-273.5 182.5t-182.5 273.5t-68 334t68 334t182.5 273.5t273.5 182.5t334 68t334 -68t274 -182.5t183 -273.5t68 -334t-68 -334t-183 -273.5t-274 -182.5t-334 -68zM952 295q177 0 287.5 90t110.5 231q0 147 -90 233.5t-238 86.5q-89 0 -153 -46
t-87 -112q-1 84 14.5 148.5t56 107.5t103.5 43q97 0 123 -84h250q-23 120 -120 194.5t-255 74.5q-187 0 -300 -122t-113 -362q0 -242 110.5 -362.5t300.5 -120.5zM950 479q-72 0 -112.5 39.5t-40.5 99.5q0 61 41.5 98.5t111.5 37.5q69 0 110.5 -37.5t41.5 -100.5
q0 -61 -42.5 -99t-109.5 -38z" />
    <glyph glyph-name="uni277C" unicode="&#x277c;" horiz-adv-x="1912" 
d="M956 -80q-175 0 -334 68t-273.5 182.5t-182.5 273.5t-68 334t68 334t182.5 273.5t273.5 182.5t334 68t334 -68t274 -182.5t183 -273.5t68 -334t-68 -334t-183 -273.5t-274 -182.5t-334 -68zM1051 1051l-402 -740h295l348 688v246h-671v-194h430z" />
    <glyph glyph-name="uni277D" unicode="&#x277d;" horiz-adv-x="1912" 
d="M956 -80q-175 0 -334 68t-273.5 182.5t-182.5 273.5t-68 334t68 334t182.5 273.5t273.5 182.5t334 68t334 -68t274 -182.5t183 -273.5t68 -334t-68 -334t-183 -273.5t-274 -182.5t-334 -68zM956 295q187 0 297.5 75t110.5 201q0 52 -21 93.5t-57.5 68t-77.5 42.5t-88 24
q215 54 215 217q0 113 -105 179.5t-274 66.5t-273.5 -66.5t-104.5 -179.5q0 -163 215 -217q-47 -8 -88 -24t-77.5 -42.5t-57.5 -68t-21 -93.5q0 -126 110 -201t297 -75zM956 883q-66 0 -100.5 28t-34.5 68q0 41 35.5 69.5t99.5 28.5t100 -28.5t36 -69.5q0 -40 -35 -68
t-101 -28zM956 479q-67 0 -112 30.5t-45 84.5q0 53 43.5 82t113.5 29t114 -29.5t44 -81.5q0 -54 -45.5 -84.5t-112.5 -30.5z" />
    <glyph glyph-name="uni277E" unicode="&#x277e;" horiz-adv-x="1912" 
d="M956 -80q-175 0 -334 68t-273.5 182.5t-182.5 273.5t-68 334t68 334t182.5 273.5t273.5 182.5t334 68t334 -68t274 -182.5t183 -273.5t68 -334t-68 -334t-183 -273.5t-274 -182.5t-334 -68zM961 1262q-177 0 -287.5 -90.5t-110.5 -231.5q0 -146 90 -232.5t238 -86.5
q89 0 152.5 45.5t86.5 111.5q1 -84 -14.5 -148.5t-56 -107.5t-103.5 -43q-96 0 -122 84h-250q23 -120 119.5 -194t254.5 -74q187 0 300.5 122.5t113.5 360.5q0 242 -111 363t-300 121zM963 1077q72 0 112.5 -39.5t40.5 -99.5q0 -61 -41.5 -98t-111.5 -37q-69 0 -110.5 37
t-41.5 100q0 61 42.5 99t109.5 38z" />
    <glyph glyph-name="uniF8FF" unicode="&#xf8ff;" horiz-adv-x="1705" 
d="M1196 848h461v-139h-461l424 -177l-51 -124l-428 178l327 -330l-94 -94l-334 334l181 -437l-125 -49l-174 422v-457h-138v465l-178 -432l-125 53l178 433l-331 -332l-92 94l327 330l-430 -178l-49 124l424 177h-459v139h457l-424 176l53 125l434 -180l-333 334l96 94
l325 -328l-176 428l127 49l176 -428v463h138v-455l174 420l125 -51l-177 -426l326 328l98 -97l-331 -331l432 180l51 -125z" />
    <glyph glyph-name="uniFEFF" unicode="&#xfeff;" horiz-adv-x="0" 
 />
    <glyph glyph-name="NULL" horiz-adv-x="0" 
 />
    <glyph glyph-name="uni004A0301" horiz-adv-x="829" 
d="M680 1673h-309l245 297h443zM274 0h-237v270h164q84 0 118.5 34.5t34.5 113.5v1138h324v-1198q0 -177 -101.5 -267.5t-302.5 -90.5z" />
    <glyph glyph-name="G.ss03" horiz-adv-x="1689" 
d="M791 623v258h813v-168q0 -341 -203.5 -539.5t-546.5 -198.5q-228 0 -403 97.5t-272 280t-97 425.5q0 241 98 424t273 281t401 98q284 0 471 -131.5t256 -380.5h-338q-97 256 -389 256q-199 0 -318.5 -149t-119.5 -398q0 -250 121 -398.5t321 -148.5q188 0 302.5 108
t119.5 284h-489z" />
    <glyph glyph-name="Gbreve.ss03" horiz-adv-x="1689" 
d="M854 1669q-175 0 -281 86t-106 215h227q3 -56 46.5 -89.5t113.5 -33.5t114.5 33.5t47.5 89.5h225q0 -129 -106 -215t-281 -86zM791 623v258h813v-168q0 -341 -203.5 -539.5t-546.5 -198.5q-228 0 -403 97.5t-272 280t-97 425.5q0 241 98 424t273 281t401 98
q284 0 471 -131.5t256 -380.5h-338q-97 256 -389 256q-199 0 -318.5 -149t-119.5 -398q0 -250 121 -398.5t321 -148.5q188 0 302.5 108t119.5 284h-489z" />
    <glyph glyph-name="Gcaron.ss03" horiz-adv-x="1689" 
d="M1321 1970l-262 -297h-412l-262 297h291l178 -158l178 158h289zM791 623v258h813v-168q0 -341 -203.5 -539.5t-546.5 -198.5q-228 0 -403 97.5t-272 280t-97 425.5q0 241 98 424t273 281t401 98q284 0 471 -131.5t256 -380.5h-338q-97 256 -389 256q-199 0 -318.5 -149
t-119.5 -398q0 -250 121 -398.5t321 -148.5q188 0 302.5 108t119.5 284h-489z" />
    <glyph glyph-name="Gcircumflex.ss03" horiz-adv-x="1689" 
d="M1032 1673l-178 158l-178 -158h-291l262 297h412l262 -297h-289zM791 623v258h813v-168q0 -341 -203.5 -539.5t-546.5 -198.5q-228 0 -403 97.5t-272 280t-97 425.5q0 241 98 424t273 281t401 98q284 0 471 -131.5t256 -380.5h-338q-97 256 -389 256q-199 0 -318.5 -149
t-119.5 -398q0 -250 121 -398.5t321 -148.5q188 0 302.5 108t119.5 284h-489z" />
    <glyph glyph-name="uni0122.ss03" horiz-adv-x="1689" 
d="M791 623v258h813v-168q0 -341 -203.5 -539.5t-546.5 -198.5q-228 0 -403 97.5t-272 280t-97 425.5q0 241 98 424t273 281t401 98q284 0 471 -131.5t256 -380.5h-338q-97 256 -389 256q-199 0 -318.5 -149t-119.5 -398q0 -250 121 -398.5t321 -148.5q188 0 302.5 108
t119.5 284h-489zM805 -414h-107v295h334v-321l-139 -193h-203z" />
    <glyph glyph-name="Gdotaccent.ss03" horiz-adv-x="1689" 
d="M686 1970h334v-297h-334v297zM791 623v258h813v-168q0 -341 -203.5 -539.5t-546.5 -198.5q-228 0 -403 97.5t-272 280t-97 425.5q0 241 98 424t273 281t401 98q284 0 471 -131.5t256 -380.5h-338q-97 256 -389 256q-199 0 -318.5 -149t-119.5 -398q0 -250 121 -398.5
t321 -148.5q188 0 302.5 108t119.5 284h-489z" />
    <glyph glyph-name="Adieresis.titl" horiz-adv-x="1622" 
d="M1624 0h-340l-133 420h-680l-133 -420h-340l516 1556h594zM57 1556h291v-294h-291v294zM1286 1556h291v-294h-291v294zM811 1491l-254 -801h508z" />
    <glyph glyph-name="Odieresis.titl" horiz-adv-x="1720" 
d="M1479 1556h293v-294h-269q135 -203 135 -484q0 -181 -57 -331.5t-159.5 -254t-246.5 -160.5t-315 -57t-315 57t-246.5 160.5t-159.5 254t-57 331.5q0 282 135 484h-266v294h291v-260q103 137 262 211t356 74t356.5 -74t262.5 -211v260zM860 231q201 0 323 149t122 398
t-122 398t-323 149t-322.5 -149t-121.5 -398t121.5 -398t322.5 -149z" />
    <glyph glyph-name="Udieresis.titl" horiz-adv-x="1585" 
d="M795 -25q-650 0 -650 646v4v931h324v-960v-4q0 -361 326 -361q323 0 323 365v960h324v-931q0 -650 -647 -650zM961 1262h-326v294h326v-294zM961 860h-326v297h326v-297z" />
    <glyph glyph-name="I_J.loclNLD" horiz-adv-x="1294" 
d="M739 0h-577v270h504q84 0 118.5 34.5t34.5 113.5v1138h324v-1198q0 -177 -101.5 -267.5t-302.5 -90.5zM485 514h-323v1042h323v-1042z" />
    <glyph glyph-name="A.inferior" horiz-adv-x="868" 
d="M858 -233h-221l-53 190h-299l-54 -190h-221l230 778h389zM434 494l-102 -369h205z" />
    <glyph glyph-name="B.inferior" horiz-adv-x="815" 
d="M543 162q100 -3 163.5 -49t63.5 -131q0 -99 -84 -157t-242 -58h-356v778h350q152 0 229.5 -58t77.5 -149q0 -76 -54.5 -119.5t-147.5 -56.5zM526 307q0 34 -27.5 53t-74.5 19h-123v-139h123q102 0 102 67zM301 -68h133q119 0 119 80q0 74 -119 74h-133v-154z" />
    <glyph glyph-name="C.inferior" horiz-adv-x="862" 
d="M444 -248q-172 0 -285.5 109t-113.5 295q0 185 112.5 294t284.5 109q147 0 252 -76t135 -215h-219q-42 129 -168 129q-80 0 -129 -65t-49 -176t49.5 -176.5t130.5 -65.5q131 0 170 131h220q-37 -148 -140.5 -220.5t-249.5 -72.5z" />
    <glyph glyph-name="D.inferior" horiz-adv-x="854" 
d="M88 545h305q191 0 302.5 -97t111.5 -292t-111.5 -292t-302.5 -97h-305v778zM301 -63h96q90 0 140.5 56t50.5 163t-50.5 163t-140.5 56h-96v-438z" />
    <glyph glyph-name="E.inferior" horiz-adv-x="718" 
d="M301 80v-143h356v-170h-569v778h561v-170h-348v-127h340v-168h-340z" />
    <glyph glyph-name="F.inferior" horiz-adv-x="688" 
d="M635 545v-170h-334v-137h328v-170h-328v-301h-213v778h547z" />
    <glyph glyph-name="G.inferior" horiz-adv-x="911" 
d="M418 66v159h426v-458h-172v172q-13 -36 -32 -66t-49.5 -59t-76.5 -45.5t-102 -16.5q-70 0 -135 26.5t-117 76t-83.5 127.5t-31.5 174q0 184 112 293.5t294 109.5q148 0 246.5 -66.5t136.5 -195.5h-220q-46 100 -161 100q-85 0 -137 -65.5t-52 -175.5q0 -113 52.5 -177.5
t144.5 -64.5q76 0 124.5 42t51.5 110h-219z" />
    <glyph glyph-name="H.inferior" horiz-adv-x="860" 
d="M561 258v287h211v-778h-211v301h-260v-301h-213v778h213v-287h260z" />
    <glyph glyph-name="I.inferior" horiz-adv-x="389" 
d="M301 -233h-213v778h213v-778z" />
    <glyph glyph-name="J.inferior" horiz-adv-x="473" 
d="M160 -233h-131v170h65q44 0 64 13.5t20 59.5v535h213v-572q0 -101 -54 -153.5t-177 -52.5z" />
    <glyph glyph-name="K.inferior" horiz-adv-x="817" 
d="M522 178l305 -411h-258l-268 374v-374h-211v778h211v-342l246 342h246z" />
    <glyph glyph-name="L.inferior" horiz-adv-x="649" 
d="M301 545v-608h320v-170h-533v778h213z" />
    <glyph glyph-name="M.inferior" horiz-adv-x="1179" 
d="M1092 545v-778h-193v733l-131 -733h-356l-131 743v-743h-193v778h373l129 -738l129 738h373z" />
    <glyph glyph-name="N.inferior" horiz-adv-x="937" 
d="M657 -195v740h193v-778h-375l-194 739v-739h-193v778h375z" />
    <glyph glyph-name="O.inferior" horiz-adv-x="903" 
d="M453 -248q-182 0 -295 109.5t-113 294.5t113 294t295 109q181 0 293 -109t112 -294t-112 -294.5t-293 -109.5zM453 -86q86 0 136 65t50 177t-50 176.5t-136 64.5q-88 0 -138.5 -64.5t-50.5 -176.5t50.5 -177t138.5 -65z" />
    <glyph glyph-name="P.inferior" horiz-adv-x="782" 
d="M88 545h328q162 0 249 -70t87 -192t-87.5 -193.5t-248.5 -71.5h-115v-251h-213v778zM301 186h105q60 0 93 25.5t33 71.5q0 44 -33 69t-93 25h-105v-191z" />
    <glyph glyph-name="Q.inferior" horiz-adv-x="913" 
d="M791 -84l145 -149h-231l-37 36q-91 -51 -215 -51q-182 0 -295 109.5t-113 294.5t113 294t295 109q181 0 293 -109t112 -294q0 -137 -67 -240zM453 -86q47 0 88 23l-140 145h232q6 34 6 74q0 112 -50 176.5t-136 64.5q-88 0 -138.5 -64.5t-50.5 -176.5t50.5 -177
t138.5 -65z" />
    <glyph glyph-name="R.inferior" horiz-adv-x="821" 
d="M805 -233h-242l-157 270h-105v-270h-213v778h332q153 0 241.5 -70t88.5 -186q0 -146 -138 -213zM416 379h-115v-180h115q53 0 83.5 24t30.5 66q0 44 -30.5 67t-83.5 23z" />
    <glyph glyph-name="S.inferior" horiz-adv-x="782" 
d="M381 -248q-142 0 -235.5 67t-106.5 189h217q7 -49 44 -74.5t93 -25.5q66 0 99.5 21t33.5 57q0 28 -28.5 47.5t-94.5 32.5l-122 26q-224 51 -224 225q0 107 92.5 174.5t229.5 67.5q151 0 236.5 -61.5t101.5 -163.5h-217q-7 34 -40.5 51.5t-80.5 17.5q-50 0 -80.5 -17
t-30.5 -46q0 -31 27 -46.5t100 -31.5l123 -26q219 -48 219 -232q0 -121 -95.5 -186.5t-260.5 -65.5z" />
    <glyph glyph-name="T.inferior" horiz-adv-x="724" 
d="M29 545h665v-170h-225v-608h-213v608h-227v170z" />
    <glyph glyph-name="U.inferior" horiz-adv-x="843" 
d="M422 -248q-342 0 -342 324v4v465h213v-492v-4q0 -63 32.5 -99t96.5 -36t96.5 37t32.5 102v492h213v-465q0 -328 -342 -328z" />
    <glyph glyph-name="V.inferior" horiz-adv-x="837" 
d="M420 -186l176 731h227l-202 -778h-404l-203 778h228z" />
    <glyph glyph-name="W.inferior" horiz-adv-x="1220" 
d="M881 -186l110 731h199l-117 -778h-379l-84 741l-82 -741h-378l-119 778h200l109 -731l84 731h373z" />
    <glyph glyph-name="X.inferior" horiz-adv-x="856" 
d="M573 178l283 -411h-256l-172 258l-174 -258h-254l281 411l-256 367h254l149 -223l150 223h251z" />
    <glyph glyph-name="Y.inferior" horiz-adv-x="792" 
d="M549 545h242l-289 -479v-299h-213v299l-287 479h240l153 -279z" />
    <glyph glyph-name="Z.inferior" horiz-adv-x="757" 
d="M696 324l-393 -387h412v-170h-664v221l391 387h-385v170h639v-221z" />
    <glyph glyph-name="G.ss03.inferior" horiz-adv-x="890" 
d="M418 66v159h424v-100q0 -167 -102.5 -270t-284.5 -103q-184 0 -297 107.5t-113 296.5q0 184 112 293.5t292 109.5q148 0 247.5 -66.5t137.5 -195.5h-222q-43 100 -159 100q-85 0 -137 -65.5t-52 -175.5q0 -112 52 -177t141 -65q79 0 125 43t49 109h-213z" />
    <glyph glyph-name="A.superior" horiz-adv-x="868" 
d="M858 778h-221l-53 191h-299l-54 -191h-221l230 778h389zM434 1505l-102 -368h205z" />
    <glyph glyph-name="B.superior" horiz-adv-x="815" 
d="M543 1174q100 -3 163.5 -49.5t63.5 -131.5q0 -99 -84 -157t-242 -58h-356v778h350q152 0 229.5 -58t77.5 -148q0 -76 -54.5 -119.5t-147.5 -56.5zM526 1319q0 34 -27.5 53t-74.5 19h-123v-140h123q48 0 75 17.5t27 50.5zM301 944h133q119 0 119 80q0 74 -119 74h-133
v-154z" />
    <glyph glyph-name="C.superior" horiz-adv-x="862" 
d="M442 764q-171 0 -284 109t-113 294q0 184 112.5 294t282.5 110q148 0 252.5 -75.5t136.5 -215.5h-219q-42 129 -170 129q-80 0 -128 -65t-48 -177q0 -111 49 -176t129 -65q64 0 108.5 34t63.5 97h220q-37 -148 -141 -220.5t-251 -72.5z" />
    <glyph glyph-name="D.superior" horiz-adv-x="854" 
d="M88 1556h305q191 0 302.5 -97t111.5 -292t-111.5 -292t-302.5 -97h-305v778zM301 948h96q90 0 140.5 56t50.5 163t-50.5 163t-140.5 56h-96v-438z" />
    <glyph glyph-name="E.superior" horiz-adv-x="718" 
d="M301 1092v-144h356v-170h-569v778h561v-170h-348v-126h340v-168h-340z" />
    <glyph glyph-name="F.superior" horiz-adv-x="688" 
d="M635 1556v-170h-334v-137h328v-170h-328v-301h-213v778h547z" />
    <glyph glyph-name="G.superior" horiz-adv-x="911" 
d="M418 1077v160h426v-459h-172v172q-13 -36 -32 -66t-49.5 -58.5t-76.5 -45t-102 -16.5q-70 0 -135 26.5t-117 75.5t-83.5 127t-31.5 174q0 184 112 294t294 110q148 0 246.5 -66.5t136.5 -195.5h-220q-46 100 -161 100q-85 0 -137 -66t-52 -176q0 -113 52.5 -177
t144.5 -64q76 0 124.5 41.5t51.5 109.5h-219z" />
    <glyph glyph-name="H.superior" horiz-adv-x="860" 
d="M561 1270v286h211v-778h-211v301h-260v-301h-213v778h213v-286h260z" />
    <glyph glyph-name="I.superior" horiz-adv-x="389" 
d="M301 778h-213v778h213v-778z" />
    <glyph glyph-name="J.superior" horiz-adv-x="473" 
d="M160 778h-131v170h65q44 0 64 14t20 60v534h213v-571q0 -101 -54 -154t-177 -53z" />
    <glyph glyph-name="K.superior" horiz-adv-x="817" 
d="M522 1188l303 -410h-258l-266 371v-371h-213v778h213v-337l244 337h246z" />
    <glyph glyph-name="L.superior" horiz-adv-x="649" 
d="M301 1556v-608h320v-170h-533v778h213z" />
    <glyph glyph-name="M.superior" horiz-adv-x="1179" 
d="M1092 1556v-778h-193v733l-131 -733h-356l-131 744v-744h-193v778h373l129 -737l129 737h373z" />
    <glyph glyph-name="N.superior" horiz-adv-x="937" 
d="M657 817v739h193v-778h-375l-194 740v-740h-193v778h375z" />
    <glyph glyph-name="O.superior" horiz-adv-x="903" 
d="M453 764q-182 0 -295 109t-113 294t113 294.5t295 109.5q181 0 293 -109.5t112 -294.5t-112 -294t-293 -109zM453 926q86 0 136 64.5t50 176.5t-50 177t-136 65q-88 0 -138.5 -65t-50.5 -177t50.5 -176.5t138.5 -64.5z" />
    <glyph glyph-name="P.superior" horiz-adv-x="782" 
d="M88 1556h328q162 0 249 -70t87 -192t-87.5 -193t-248.5 -71h-115v-252h-213v778zM301 1198h105q60 0 93 25t33 71q0 44 -33 69.5t-93 25.5h-105v-191z" />
    <glyph glyph-name="Q.superior" horiz-adv-x="913" 
d="M791 928l145 -150h-231l-37 37q-91 -51 -215 -51q-182 0 -295 109t-113 294t113 294.5t295 109.5q181 0 293 -109.5t112 -294.5q0 -136 -67 -239zM453 926q49 0 88 22l-140 146h232q6 34 6 73q0 112 -50 177t-136 65q-88 0 -138.5 -65t-50.5 -177t50.5 -176.5
t138.5 -64.5z" />
    <glyph glyph-name="R.superior" horiz-adv-x="821" 
d="M805 778h-242l-157 271h-105v-271h-213v778h332q153 0 241.5 -70t88.5 -186q0 -146 -138 -213zM416 1391h-115v-181h115q53 0 83.5 24t30.5 66q0 44 -30.5 67.5t-83.5 23.5z" />
    <glyph glyph-name="S.superior" horiz-adv-x="782" 
d="M381 764q-142 0 -235.5 67t-106.5 189h217q7 -49 44 -74.5t93 -25.5q66 0 99.5 20.5t33.5 56.5q0 28 -28.5 47.5t-94.5 32.5l-122 27q-224 51 -224 225q0 107 92.5 174.5t229.5 67.5q151 0 236.5 -61.5t101.5 -163.5h-217q-7 34 -40.5 51.5t-80.5 17.5q-50 0 -80.5 -17
t-30.5 -46q0 -31 27 -46.5t100 -31.5l123 -27q219 -48 219 -231q0 -121 -95.5 -186.5t-260.5 -65.5z" />
    <glyph glyph-name="T.superior" horiz-adv-x="724" 
d="M29 1556h667v-170h-227v-608h-211v608h-229v170z" />
    <glyph glyph-name="U.superior" horiz-adv-x="843" 
d="M422 764q-342 0 -342 323v5v464h213v-491v-4q0 -63 32.5 -99t96.5 -36t96.5 37t32.5 102v491h213v-464q0 -328 -342 -328z" />
    <glyph glyph-name="V.superior" horiz-adv-x="837" 
d="M420 825l176 731h227l-202 -778h-404l-203 778h228z" />
    <glyph glyph-name="W.superior" horiz-adv-x="1220" 
d="M881 825l110 731h199l-117 -778h-379l-84 742l-82 -742h-378l-119 778h200l109 -731l84 731h373z" />
    <glyph glyph-name="X.superior" horiz-adv-x="856" 
d="M573 1190l283 -412h-256l-172 258l-174 -258h-254l281 412l-256 366h254l149 -223l150 223h251z" />
    <glyph glyph-name="Y.superior" horiz-adv-x="792" 
d="M549 1556h242l-289 -479v-299h-213v299l-287 479h240l153 -278z" />
    <glyph glyph-name="Z.superior" horiz-adv-x="757" 
d="M696 1335l-393 -387h412v-170h-664v221l391 387h-385v170h639v-221z" />
    <glyph glyph-name="G.ss03.superior" horiz-adv-x="890" 
d="M418 1077v160h426v-100q0 -167 -103.5 -270t-285.5 -103q-183 0 -296.5 107.5t-113.5 295.5q0 184 112 294t294 110q148 0 246.5 -66.5t136.5 -195.5h-220q-46 100 -161 100q-85 0 -137 -66t-52 -176q0 -112 52 -176.5t143 -64.5q77 0 123 43.5t49 107.5h-213z" />
    <glyph glyph-name="i.loclTRK" horiz-adv-x="577" 
d="M451 1262h-324v294h324v-294zM444 0h-313v1112h313v-1112z" />
    <glyph glyph-name="uni006A0301" horiz-adv-x="577" 
d="M442 1237h-292l229 319h424zM63 -401h-124v229h55q71 0 104 28.5t33 100.5v1155h313v-1180q0 -162 -105 -247.5t-276 -85.5z" />
    <glyph glyph-name="germandbls.calt" horiz-adv-x="1599" 
d="M1395 1231l-322 -322q130 -16 230.5 -70t161.5 -151.5t61 -226.5q0 -230 -149 -358t-396 -128q-147 0 -279 48v237q106 -47 218 -47q123 0 197.5 67t74.5 181q0 122 -100 185t-261 63h-59v262l311 315h-598v-1286h-323v1556h1233v-325z" />
    <glyph glyph-name="a.ss04" horiz-adv-x="1345" 
d="M903 858v254h309v-1112h-309v225q-45 -112 -143.5 -181t-224.5 -69q-135 0 -240 75t-162 207t-57 298t57 298.5t162 208t240 75.5q139 0 234 -80t134 -199zM653 188q126 0 194 98t68 269q0 173 -68 271t-194 98q-125 0 -191.5 -98t-66.5 -271q0 -172 66.5 -269.5
t191.5 -97.5z" />
    <glyph glyph-name="aacute.ss04" horiz-adv-x="1345" 
d="M709 1556h424l-361 -319h-293zM903 858v254h309v-1112h-309v225q-45 -112 -143.5 -181t-224.5 -69q-135 0 -240 75t-162 207t-57 298t57 298.5t162 208t240 75.5q139 0 234 -80t134 -199zM653 188q126 0 194 98t68 269q0 173 -68 271t-194 98q-125 0 -191.5 -98
t-66.5 -271q0 -172 66.5 -269.5t191.5 -97.5z" />
    <glyph glyph-name="abreve.ss04" horiz-adv-x="1345" 
d="M647 1229q-170 0 -273.5 93.5t-103.5 233.5h228q0 -70 38.5 -105.5t110.5 -35.5q71 0 110.5 36t39.5 105h225q0 -140 -103.5 -233.5t-271.5 -93.5zM903 858v254h309v-1112h-309v225q-45 -112 -143.5 -181t-224.5 -69q-135 0 -240 75t-162 207t-57 298t57 298.5t162 208
t240 75.5q139 0 234 -80t134 -199zM653 188q126 0 194 98t68 269q0 173 -68 271t-194 98q-125 0 -191.5 -98t-66.5 -271q0 -172 66.5 -269.5t191.5 -97.5z" />
    <glyph glyph-name="acircumflex.ss04" horiz-adv-x="1345" 
d="M829 1237l-182 186l-180 -186h-279l263 319h395l260 -319h-277zM903 858v254h309v-1112h-309v225q-45 -112 -143.5 -181t-224.5 -69q-135 0 -240 75t-162 207t-57 298t57 298.5t162 208t240 75.5q139 0 234 -80t134 -199zM653 188q126 0 194 98t68 269q0 173 -68 271
t-194 98q-125 0 -191.5 -98t-66.5 -271q0 -172 66.5 -269.5t191.5 -97.5z" />
    <glyph glyph-name="adieresis.ss04" horiz-adv-x="1345" 
d="M244 1556h323v-294h-323v294zM725 1556h324v-294h-324v294zM903 858v254h309v-1112h-309v225q-45 -112 -143.5 -181t-224.5 -69q-135 0 -240 75t-162 207t-57 298t57 298.5t162 208t240 75.5q139 0 234 -80t134 -199zM653 188q126 0 194 98t68 269q0 173 -68 271t-194 98
q-125 0 -191.5 -98t-66.5 -271q0 -172 66.5 -269.5t191.5 -97.5z" />
    <glyph glyph-name="uni1EA1.ss04" horiz-adv-x="1345" 
d="M903 858v254h309v-1112h-309v225q-45 -112 -143.5 -181t-224.5 -69q-135 0 -240 75t-162 207t-57 298t57 298.5t162 208t240 75.5q139 0 234 -80t134 -199zM653 188q126 0 194 98t68 269q0 173 -68 271t-194 98q-125 0 -191.5 -98t-66.5 -271q0 -172 66.5 -269.5
t191.5 -97.5zM856 -414h-324v295h324v-295z" />
    <glyph glyph-name="agrave.ss04" horiz-adv-x="1345" 
d="M586 1556l229 -319h-291l-362 319h424zM903 858v254h309v-1112h-309v225q-45 -112 -143.5 -181t-224.5 -69q-135 0 -240 75t-162 207t-57 298t57 298.5t162 208t240 75.5q139 0 234 -80t134 -199zM653 188q126 0 194 98t68 269q0 173 -68 271t-194 98q-125 0 -191.5 -98
t-66.5 -271q0 -172 66.5 -269.5t191.5 -97.5z" />
    <glyph glyph-name="amacron.ss04" horiz-adv-x="1345" 
d="M254 1501h782v-219h-782v219zM903 858v254h309v-1112h-309v225q-45 -112 -143.5 -181t-224.5 -69q-135 0 -240 75t-162 207t-57 298t57 298.5t162 208t240 75.5q139 0 234 -80t134 -199zM653 188q126 0 194 98t68 269q0 173 -68 271t-194 98q-125 0 -191.5 -98
t-66.5 -271q0 -172 66.5 -269.5t191.5 -97.5z" />
    <glyph glyph-name="aogonek.ss04" horiz-adv-x="1345" 
d="M1212 1112v-1112q-180 -61 -180 -145q0 -70 115 -70h65v-201h-106q-164 0 -253 50t-89 151q0 118 139 215v225q-45 -112 -143.5 -181t-224.5 -69q-135 0 -240 75t-162 207t-57 298t57 298.5t162 208t240 75.5q139 0 234 -80t134 -199v254h309zM653 188q126 0 194 98
t68 269q0 173 -68 271t-194 98q-125 0 -191.5 -98t-66.5 -271q0 -172 66.5 -269.5t191.5 -97.5z" />
    <glyph glyph-name="aring.ss04" horiz-adv-x="1345" 
d="M647 1229q-104 0 -178 74t-74 178t74 177t178 73t178 -73t74 -177t-74 -178t-178 -74zM647 1565q-35 0 -60.5 -24.5t-25.5 -59.5t25.5 -61.5t60.5 -26.5t60.5 26.5t25.5 61.5t-25.5 59.5t-60.5 24.5zM903 858v254h309v-1112h-309v225q-45 -112 -143.5 -181t-224.5 -69
q-135 0 -240 75t-162 207t-57 298t57 298.5t162 208t240 75.5q139 0 234 -80t134 -199zM653 188q126 0 194 98t68 269q0 173 -68 271t-194 98q-125 0 -191.5 -98t-66.5 -271q0 -172 66.5 -269.5t191.5 -97.5z" />
    <glyph glyph-name="atilde.ss04" horiz-adv-x="1345" 
d="M510 1348q-49 0 -79 -23.5t-40 -60.5h-100q3 138 60 212t151 74q68 0 160 -45q74 -32 120 -32q49 0 79 23t40 60h100q-3 -138 -59.5 -212t-150.5 -74q-73 0 -160 45q-76 33 -121 33zM903 858v254h309v-1112h-309v225q-45 -112 -143.5 -181t-224.5 -69q-135 0 -240 75
t-162 207t-57 298t57 298.5t162 208t240 75.5q139 0 234 -80t134 -199zM653 188q126 0 194 98t68 269q0 173 -68 271t-194 98q-125 0 -191.5 -98t-66.5 -271q0 -172 66.5 -269.5t191.5 -97.5z" />
    <glyph glyph-name="y.ss05" horiz-adv-x="1198" 
d="M610 334l258 778h332l-543 -1513h-331l135 378l-475 1135h329z" />
    <glyph glyph-name="yacute.ss05" horiz-adv-x="1198" 
d="M653 1556h424l-360 -319h-293zM610 334l258 778h332l-543 -1513h-331l135 378l-475 1135h329z" />
    <glyph glyph-name="ycircumflex.ss05" horiz-adv-x="1198" 
d="M774 1237l-182 186l-180 -186h-279l262 319h396l260 -319h-277zM610 334l258 778h332l-543 -1513h-331l135 378l-475 1135h329z" />
    <glyph glyph-name="ydieresis.ss05" horiz-adv-x="1198" 
d="M188 1556h324v-294h-324v294zM670 1556h323v-294h-323v294zM610 334l258 778h332l-543 -1513h-331l135 378l-475 1135h329z" />
    <glyph glyph-name="ygrave.ss05" horiz-adv-x="1198" 
d="M530 1556l230 -319h-291l-363 319h424zM610 334l258 778h332l-543 -1513h-331l135 378l-475 1135h329z" />
    <glyph glyph-name="uni0233.ss05" horiz-adv-x="1198" 
d="M201 1501h782v-219h-782v219zM610 334l258 778h332l-543 -1513h-331l135 378l-475 1135h329z" />
    <glyph glyph-name="uni1EF9.ss05" horiz-adv-x="1198" 
d="M455 1348q-49 0 -79 -23.5t-40 -60.5h-100q3 138 59.5 212t150.5 74q68 0 160 -45q74 -32 121 -32q49 0 79 23t40 60h100q-3 -138 -60 -212t-151 -74q-73 0 -160 45q-76 33 -120 33zM610 334l258 778h332l-543 -1513h-331l135 378l-475 1135h329z" />
    <glyph glyph-name="i_j.loclNLD" horiz-adv-x="1146" 
d="M451 1262h-324v294h324v-294zM1020 1262h-324v294h324v-294zM633 -401h-502v200h428q72 0 107.5 31t35.5 104v1178h312v-1180q0 -162 -105 -247.5t-276 -85.5zM444 0h-313v1112h313v-1112z" />
    <glyph glyph-name="a.inferior" horiz-adv-x="700" 
d="M350 344q144 0 212.5 -63.5t68.5 -161.5v-4v-348h-201v88q-23 -44 -69 -73.5t-113 -29.5q-84 0 -143.5 52.5t-59.5 136.5q0 151 236 174l145 12v6v4q0 38 -21.5 57t-54.5 19q-31 0 -50 -16.5t-21 -42.5h-209q10 88 86.5 139t193.5 51zM330 -129q46 0 71 36.5t25 96.5
l-70 -6q-102 -10 -102 -66q0 -28 21 -44.5t55 -16.5z" />
    <glyph glyph-name="b.inferior" horiz-adv-x="724" 
d="M453 344q107 0 168 -84.5t61 -212.5q0 -129 -61 -212t-168 -83q-61 0 -108 32t-69 85v-102h-202v778h202v-338q19 59 65 98t112 39zM371 -109q102 0 102 156t-102 156q-103 0 -103 -156t103 -156z" />
    <glyph glyph-name="c.inferior" horiz-adv-x="679" 
d="M348 -248q-136 0 -221.5 81t-85.5 214q0 131 86 214t219 83q121 0 200.5 -61t94.5 -166h-209q-18 86 -86 86q-46 0 -71 -41t-25 -115q0 -77 25.5 -116.5t72.5 -39.5q68 0 88 84h209q-17 -105 -99 -164t-198 -59z" />
    <glyph glyph-name="d.inferior" horiz-adv-x="724" 
d="M449 207v338h202v-778h-202v102q-23 -53 -69 -85t-108 -32q-107 0 -168 83.5t-61 211.5t61 212.5t168 84.5q67 0 112.5 -38.5t64.5 -98.5zM354 -109q103 0 103 156t-103 156q-100 0 -100 -156t100 -156z" />
    <glyph glyph-name="e.inferior" horiz-adv-x="679" 
d="M639 35q0 -31 -2 -45h-391q14 -107 94 -107q60 0 78 54h209q-31 -90 -105 -137.5t-182 -47.5q-131 0 -215 82t-84 213t84.5 214t214.5 83t214.5 -81t84.5 -228zM340 213q-77 0 -94 -100h188q-4 47 -29.5 73.5t-64.5 26.5z" />
    <glyph glyph-name="f.inferior" horiz-adv-x="462" 
d="M436 406h-49q-32 0 -47.5 -11.5t-15.5 -42.5v-22h112v-150h-112v-413h-205v413h-88v150h88v37q0 84 58 131t153 47h106v-139z" />
    <glyph glyph-name="g.inferior" horiz-adv-x="724" 
d="M453 211v119h202v-543q0 -66 -26.5 -114.5t-71.5 -73.5t-93 -36.5t-102 -11.5q-68 0 -127.5 17.5t-107 61t-55.5 108.5h209q13 -49 81 -49q42 0 66.5 23t24.5 71v104q-22 -51 -69.5 -81.5t-107.5 -30.5q-108 0 -168.5 78.5t-60.5 203.5q0 127 61 207t168 80
q66 0 113.5 -38.5t63.5 -94.5zM358 -86q50 0 76.5 36.5t26.5 106.5t-26.5 108t-76.5 38q-100 0 -100 -146q0 -143 100 -143z" />
    <glyph glyph-name="h.inferior" horiz-adv-x="706" 
d="M459 344q94 0 137 -58.5t43 -156.5v-4v-358h-207v311v4q0 119 -76 119q-75 0 -75 -123v-311h-207v778h202v-332q51 131 183 131z" />
    <glyph glyph-name="i.inferior" horiz-adv-x="354" 
d="M281 385h-207v160h207v-160zM281 -233h-207v563h207v-563z" />
    <glyph glyph-name="j.inferior" horiz-adv-x="354" 
d="M281 385h-207v160h207v-160zM68 -434h-80v145h22q64 0 64 56v563h207v-586q0 -85 -59 -131.5t-154 -46.5z" />
    <glyph glyph-name="k.inferior" horiz-adv-x="690" 
d="M479 78l209 -311h-235l-172 270v-270h-205v778h205v-432l168 217h229z" />
    <glyph glyph-name="l.inferior" horiz-adv-x="354" 
d="M281 -233h-207v778h207v-778z" />
    <glyph glyph-name="m.inferior" horiz-adv-x="1040" 
d="M797 344q90 0 132 -58t42 -157v-4v-358h-205v311v4q0 57 -18 88t-52 31q-71 0 -71 -123v-311h-205v311v4q0 119 -70 119q-69 0 -69 -123v-311h-207v563h202v-119q54 133 177 133q67 0 109 -38.5t59 -96.5q21 59 65 97t111 38z" />
    <glyph glyph-name="n.inferior" horiz-adv-x="706" 
d="M459 344q94 0 137 -58.5t43 -156.5v-4v-358h-207v311v4q0 119 -76 119q-75 0 -75 -123v-311h-207v563h202v-117q51 131 183 131z" />
    <glyph glyph-name="o.inferior" horiz-adv-x="702" 
d="M352 -248q-143 0 -227 82t-84 213t84.5 214t226.5 83q141 0 225.5 -83t84.5 -214t-84.5 -213t-225.5 -82zM352 -109q101 0 101 156t-101 156q-102 0 -102 -156t102 -156z" />
    <glyph glyph-name="p.inferior" horiz-adv-x="724" 
d="M453 344q107 0 168 -84.5t61 -212.5q0 -129 -61 -212t-168 -83q-61 0 -108 32t-69 85v-303h-202v764h202v-123q19 59 65 98t112 39zM371 -109q102 0 102 156t-102 156q-103 0 -103 -156t103 -156z" />
    <glyph glyph-name="q.inferior" horiz-adv-x="724" 
d="M449 207v123h202v-764h-202v303q-23 -53 -69 -85t-108 -32q-107 0 -168 83.5t-61 211.5t61 212.5t168 84.5q67 0 112.5 -38.5t64.5 -98.5zM354 -109q103 0 103 156t-103 156q-100 0 -100 -156t100 -156z" />
    <glyph glyph-name="r.inferior" horiz-adv-x="493" 
d="M276 330v-166q15 77 63.5 128.5t127.5 51.5v-199h-47q-139 0 -139 -135v-243h-207v563h202z" />
    <glyph glyph-name="s.inferior" horiz-adv-x="645" 
d="M319 -248q-117 0 -191 47t-91 140h209q13 -62 86 -62q36 0 57 12t21 31q0 21 -18 31.5t-64 21.5l-117 27q-82 19 -122 57.5t-40 102.5q0 82 75.5 133t184.5 51q111 0 188.5 -43.5t94.5 -126.5h-209q-3 43 -74 43q-63 0 -63 -37q0 -18 15 -26.5t52 -16.5l117 -26
q85 -20 130.5 -61.5t45.5 -112.5q0 -88 -81.5 -136.5t-205.5 -48.5z" />
    <glyph glyph-name="t.inferior" horiz-adv-x="481" 
d="M428 180h-109v-209v-4q0 -53 64 -53h45v-147h-102q-95 0 -153 46t-58 130v4v233h-92v150h92v131h204v-131h109v-150z" />
    <glyph glyph-name="u.inferior" horiz-adv-x="702" 
d="M424 16v314h205v-563h-201v112q-45 -127 -180 -127q-180 0 -180 215v4v359h206v-312v-4q0 -118 74 -118q76 0 76 120z" />
    <glyph glyph-name="v.inferior" horiz-adv-x="677" 
d="M340 -193l117 523h202l-133 -563h-374l-132 563h201z" />
    <glyph glyph-name="w.inferior" horiz-adv-x="976" 
d="M705 -201l71 531h172l-80 -563h-329l-50 530l-51 -530h-327l-80 563h172l69 -523l60 523h313z" />
    <glyph glyph-name="x.inferior" horiz-adv-x="669" 
d="M463 61l199 -294h-220l-106 172l-107 -172h-221l199 294l-184 269h217l96 -152l94 152h217z" />
    <glyph glyph-name="y.inferior" horiz-adv-x="684" 
d="M338 -133l115 463h215l-193 -764h-211l64 256h-174l-138 508h207z" />
    <glyph glyph-name="z.inferior" horiz-adv-x="630" 
d="M567 141l-274 -227h293v-147h-533v188l273 225h-269v150h510v-189z" />
    <glyph glyph-name="a.ss04.inferior" horiz-adv-x="724" 
d="M449 207v123h202v-563h-202v102q-23 -53 -69 -85t-108 -32q-107 0 -168 83.5t-61 211.5t61 212.5t168 84.5q67 0 112.5 -38.5t64.5 -98.5zM354 -109q103 0 103 156t-103 156q-100 0 -100 -156t100 -156z" />
    <glyph glyph-name="y.ss05.inferior" horiz-adv-x="653" 
d="M326 -35l108 365h211l-258 -764h-213l57 168l-229 596h213z" />
    <glyph glyph-name="a.superior" horiz-adv-x="700" 
d="M350 1571q144 0 212.5 -63.5t68.5 -161.5v-5v-348h-201v88q-23 -44 -69 -73t-113 -29q-84 0 -143.5 52.5t-59.5 135.5q0 155 236 174l145 13v6v4q0 38 -21.5 57t-54.5 19q-31 0 -50 -16.5t-21 -41.5h-209q10 88 86.5 138.5t193.5 50.5zM330 1100q46 0 71 36t25 95l-70 -6
q-102 -10 -102 -66q0 -27 21 -43t55 -16z" />
    <glyph glyph-name="b.superior" horiz-adv-x="724" 
d="M453 1571q107 0 168 -83.5t61 -211.5q0 -129 -61 -213t-168 -84q-61 0 -108 32t-69 85v-103h-202v779h202v-336q19 58 64.5 96.5t112.5 38.5zM371 1120q102 0 102 156t-102 156q-51 0 -77 -41t-26 -115q0 -156 103 -156z" />
    <glyph glyph-name="c.superior" horiz-adv-x="679" 
d="M348 979q-136 0 -221.5 82t-85.5 215q0 131 86 213t219 82q120 0 200 -61.5t95 -166.5h-209q-17 89 -86 89q-45 0 -70.5 -41.5t-25.5 -114.5q0 -77 25.5 -116.5t72.5 -39.5q68 0 88 84h209q-17 -106 -99 -165.5t-198 -59.5z" />
    <glyph glyph-name="d.superior" horiz-adv-x="724" 
d="M449 1436v336h202v-779h-202v103q-23 -53 -69 -85t-108 -32q-107 0 -168 84.5t-61 212.5t61 211.5t168 83.5q67 0 112.5 -38.5t64.5 -96.5zM354 1120q103 0 103 156q0 74 -26 115t-77 41q-100 0 -100 -156t100 -156z" />
    <glyph glyph-name="e.superior" horiz-adv-x="679" 
d="M639 1262q0 -31 -2 -45h-391q17 -107 94 -107q61 0 78 53h209q-31 -90 -105 -137t-182 -47q-131 0 -215 82t-84 215q0 130 84.5 212.5t214.5 82.5q131 0 215 -80.5t84 -228.5zM340 1440q-77 0 -94 -101h188q-4 47 -29.5 74t-64.5 27z" />
    <glyph glyph-name="f.superior" horiz-adv-x="462" 
d="M436 1634h-49q-63 0 -63 -53v-25h112v-147h-112v-416h-205v416h-88v147h88v37q0 86 58 132.5t153 46.5h106v-138z" />
    <glyph glyph-name="g.superior" horiz-adv-x="724" 
d="M453 1438v118h202v-540q0 -54 -18 -96t-47 -68t-68.5 -43.5t-78.5 -24t-81 -6.5q-49 0 -96 10.5t-89 32t-70.5 59.5t-34.5 87h209q14 -52 81 -52q42 0 66.5 23.5t24.5 71.5v104q-22 -51 -69.5 -82t-107.5 -31q-107 0 -168 79t-61 204q0 127 61 207t168 80
q66 0 113.5 -38.5t63.5 -94.5zM358 1143q50 0 76.5 36t26.5 105q0 71 -27 109.5t-76 38.5t-74.5 -38.5t-25.5 -109.5q0 -141 100 -141z" />
    <glyph glyph-name="h.superior" horiz-adv-x="706" 
d="M459 1571q94 0 137 -58t43 -155v-4v-361h-207v314v4q0 116 -76 116q-75 0 -75 -120v-314h-207v779h202v-330q51 129 183 129z" />
    <glyph glyph-name="i.superior" horiz-adv-x="354" 
d="M281 1614h-207v158h207v-158zM281 993h-207v563h207v-563z" />
    <glyph glyph-name="j.superior" horiz-adv-x="354" 
d="M281 1614h-207v158h207v-158zM68 793h-80v145h22q32 0 48 13t16 44v561h207v-583q0 -85 -59 -132.5t-154 -47.5z" />
    <glyph glyph-name="k.superior" horiz-adv-x="690" 
d="M477 1307l209 -314h-233l-172 269v-269h-207v779h207v-429l165 213h230z" />
    <glyph glyph-name="l.superior" horiz-adv-x="354" 
d="M281 993h-207v779h207v-779z" />
    <glyph glyph-name="m.superior" horiz-adv-x="1040" 
d="M797 1571q90 0 132 -57.5t42 -155.5v-4v-361h-205v314v4q0 56 -18 86t-52 30q-71 0 -71 -120v-314h-205v314v4q0 116 -70 116q-69 0 -69 -120v-314h-207v563h202v-116q53 131 177 131q67 0 109 -37.5t59 -95.5q21 58 65 95.5t111 37.5z" />
    <glyph glyph-name="n.superior" horiz-adv-x="706" 
d="M459 1571q94 0 137 -58t43 -155v-4v-361h-207v314v4q0 116 -76 116q-75 0 -75 -120v-314h-207v563h202v-114q51 129 183 129z" />
    <glyph glyph-name="o.superior" horiz-adv-x="702" 
d="M352 979q-142 0 -226.5 83t-84.5 214t84 213t227 82q141 0 225.5 -82t84.5 -213t-84.5 -214t-225.5 -83zM352 1120q101 0 101 156t-101 156q-102 0 -102 -156t102 -156z" />
    <glyph glyph-name="p.superior" horiz-adv-x="724" 
d="M453 1571q107 0 168 -83.5t61 -211.5q0 -129 -61 -213t-168 -84q-61 0 -108 32t-69 85v-303h-202v763h202v-120q19 58 64.5 96.5t112.5 38.5zM371 1120q102 0 102 156t-102 156q-51 0 -77 -41t-26 -115q0 -156 103 -156z" />
    <glyph glyph-name="q.superior" horiz-adv-x="724" 
d="M449 1436v120h202v-763h-202v303q-23 -53 -69 -85t-108 -32q-107 0 -168 84.5t-61 212.5t61 211.5t168 83.5q67 0 112.5 -38.5t64.5 -96.5zM354 1120q103 0 103 156q0 74 -26 115t-77 41q-100 0 -100 -156t100 -156z" />
    <glyph glyph-name="r.superior" horiz-adv-x="493" 
d="M276 1556v-165q15 77 63.5 128.5t127.5 51.5v-199h-47q-139 0 -139 -133v-246h-207v563h202z" />
    <glyph glyph-name="s.superior" horiz-adv-x="645" 
d="M319 979q-117 0 -191 46.5t-91 139.5h209q13 -59 86 -59q78 0 78 43q0 20 -18.5 31t-63.5 20l-117 27q-162 38 -162 162q0 82 75.5 132t184.5 50q111 0 188.5 -43.5t94.5 -126.5h-209q-1 22 -22.5 33.5t-51.5 11.5q-29 0 -46 -11t-17 -28q0 -16 15.5 -25.5t51.5 -17.5
l117 -27q85 -20 130.5 -61.5t45.5 -112.5q0 -87 -82 -135.5t-205 -48.5z" />
    <glyph glyph-name="a.ss04.superior" horiz-adv-x="724" 
d="M449 1436v120h202v-563h-202v103q-23 -53 -69 -85t-108 -32q-107 0 -168 84.5t-61 212.5t61 211.5t168 83.5q67 0 112.5 -38.5t64.5 -96.5zM354 1120q103 0 103 156q0 74 -26 115t-77 41q-100 0 -100 -156t100 -156z" />
    <glyph glyph-name="y.ss05.superior" horiz-adv-x="653" 
d="M326 1192l108 364h211l-258 -763h-213l57 168l-229 595h213z" />
    <glyph glyph-name="t.superior" horiz-adv-x="481" 
d="M428 1409h-109v-209v-4q0 -53 64 -53h45v-150h-102q-95 0 -153 46t-58 130v5v235h-92v147h92v134h204v-134h109v-147z" />
    <glyph glyph-name="u.superior" horiz-adv-x="702" 
d="M424 1245v311h205v-563h-201v115q-45 -129 -180 -129q-180 0 -180 215v4v358h206v-311v-4q0 -119 74 -119q76 0 76 123z" />
    <glyph glyph-name="v.superior" horiz-adv-x="677" 
d="M340 1034l117 522h202l-133 -563h-374l-132 563h201z" />
    <glyph glyph-name="w.superior" horiz-adv-x="976" 
d="M705 1026l71 530h172l-80 -563h-329l-50 531l-51 -531h-327l-80 563h172l69 -522l60 522h313z" />
    <glyph glyph-name="x.superior" horiz-adv-x="669" 
d="M463 1290l199 -297h-220l-106 172l-107 -172h-221l199 297l-184 266h217l96 -151l94 151h217z" />
    <glyph glyph-name="y.superior" horiz-adv-x="684" 
d="M338 1096l115 460h215l-193 -763h-211l64 258h-174l-138 505h207z" />
    <glyph glyph-name="z.superior" horiz-adv-x="630" 
d="M567 1368l-272 -225h291v-150h-533v189l275 227h-271v147h510v-188z" />
    <glyph glyph-name="zero.zero" horiz-adv-x="1486" 
d="M743 1581q309 0 478.5 -206.5t169.5 -596.5q0 -391 -169.5 -597t-478.5 -206t-478 206t-169 597q0 390 169 596.5t478 206.5zM743 1337q-319 0 -319 -559q0 -114 12 -205l482 705q-71 59 -175 59zM743 219q320 0 320 559q0 124 -14 209l-482 -706q71 -62 176 -62z" />
    <glyph glyph-name="one.ss01" horiz-adv-x="1136" 
d="M788 1556v-1300h324v-256h-1020v256h375v817h-367v258h82q152 0 226 46.5t108 144.5l10 34h262z" />
    <glyph glyph-name="one.ss01.dnom" horiz-adv-x="620" 
d="M446 778v-612h158v-166h-553v166h185v334h-185v166h39q82 0 122.5 23t61.5 75l5 14h167z" />
    <glyph glyph-name="one.ss01.inferior" horiz-adv-x="620" 
d="M446 545v-613h158v-165h-553v165h185v334h-185v166h39q82 0 122.5 23t61.5 75l5 15h167z" />
    <glyph glyph-name="one.ss01.numr" horiz-adv-x="620" 
d="M446 1556v-612h158v-166h-553v166h185v334h-185v166h39q82 0 122.5 23t61.5 75l5 14h167z" />
    <glyph glyph-name="one.ss01.superior" horiz-adv-x="620" 
d="M446 1772v-613h158v-166h-553v166h185v334h-185v166h39q82 0 122.5 23t61.5 75l5 15h167z" />
    <glyph glyph-name="one.ss02" horiz-adv-x="1040" 
d="M877 1556v-1556h-322v1479l-492 -684v467l213 294h601z" />
    <glyph glyph-name="one.ss02.dnom" horiz-adv-x="583" 
d="M502 778v-778h-209v723l-258 -383v295l98 143h369z" />
    <glyph glyph-name="one.ss02.inferior" horiz-adv-x="583" 
d="M502 545v-778h-209v722l-258 -383v295l98 144h369z" />
    <glyph glyph-name="one.ss02.numr" horiz-adv-x="583" 
d="M502 1556v-778h-209v723l-258 -383v295l98 143h369z" />
    <glyph glyph-name="one.ss02.superior" horiz-adv-x="583" 
d="M502 1772v-779h-209v723l-258 -383v295l98 144h369z" />
    <glyph glyph-name="one.ss02.tf" 
d="M1122 1556v-1556h-319v1481l-494 -686v467l215 294h598z" />
    <glyph glyph-name="zero.tf" 
d="M768 -25q-309 0 -478 206t-169 597q0 390 169 596.5t478 206.5t478 -206.5t169 -596.5q0 -391 -169 -597t-478 -206zM768 219q319 0 319 559t-319 559t-319 -559t319 -559z" />
    <glyph glyph-name="one.tf" 
d="M987 1556v-1300h326v-256h-1020v256h375v817h-369v258h84q151 0 225.5 46.5t108.5 144.5l10 34h260z" />
    <glyph glyph-name="two.tf" 
d="M1073 678l-538 -422h849v-256h-1220v330l688 540q84 70 127 128.5t43 123.5q0 95 -69 155t-189 60q-122 0 -193.5 -61t-78.5 -176h-324q7 148 87 258t212 166.5t299 56.5q258 0 421 -126t163 -327q0 -131 -67.5 -235.5t-209.5 -214.5z" />
    <glyph glyph-name="three.tf" 
d="M948 813q60 -6 117 -22t114 -46t99.5 -71.5t69 -103.5t26.5 -136q0 -148 -82.5 -253t-222.5 -155.5t-324 -50.5q-276 0 -430 125t-176 346h326q8 -105 79 -166t201 -61q54 0 105.5 13.5t96.5 40.5t72.5 74t27.5 106q0 80 -49.5 133.5t-127 76.5t-178.5 23h-104v256h104
q147 0 227 57t80 146q0 88 -69.5 140t-186.5 52q-113 0 -177 -55.5t-72 -148.5h-326q17 201 179 324.5t396 123.5q162 0 294.5 -48.5t211 -141t78.5 -211.5q0 -297 -379 -367z" />
    <glyph glyph-name="four.tf" 
d="M1208 666h219v-256h-219v-410h-319v410h-785v327l508 819h596v-890zM889 1497l-514 -831h514v831z" />
    <glyph glyph-name="five.tf" 
d="M887 1065q101 0 191 -35.5t159.5 -101.5t110.5 -170.5t41 -233.5q0 -132 -48 -238t-132 -173t-194.5 -102.5t-238.5 -35.5q-255 0 -423 127t-191 349h325q12 -104 88.5 -168t198.5 -64q125 0 206 80.5t81 224.5q0 145 -83.5 224t-203.5 79q-102 0 -176.5 -50t-110.5 -138
l-311 29l78 888h1034v-256h-739l-43 -477q42 101 142 171.5t239 70.5z" />
    <glyph glyph-name="six.tf" 
d="M877 1034q246 0 394 -141.5t148 -384.5q0 -155 -79.5 -276.5t-223 -189t-325.5 -67.5q-149 0 -268.5 48.5t-207.5 145.5t-136 251.5t-48 357.5q0 198 48.5 352t136.5 252t207.5 148.5t264.5 50.5q245 0 398 -116t196 -310h-325q-27 84 -92 133t-172 49q-94 0 -164 -47.5
t-109 -131.5t-56 -188t-13 -227q40 126 155.5 208.5t270.5 82.5zM786 219q133 0 219.5 80t86.5 209q0 130 -82.5 209.5t-223.5 79.5q-140 0 -226.5 -78.5t-86.5 -198.5q0 -134 82.5 -217.5t230.5 -83.5z" />
    <glyph glyph-name="seven.tf" 
d="M229 1300v256h1078v-329l-631 -1227h-383l700 1300h-764z" />
    <glyph glyph-name="eight.tf" 
d="M1014 819q60 -10 114 -28t106.5 -50t91 -74t62 -102t23.5 -131q0 -212 -176.5 -335.5t-466.5 -123.5t-466.5 123.5t-176.5 335.5q0 71 23.5 131t62 102t91 74t106.5 50t114 28q-350 87 -350 359q0 184 164 293.5t432 109.5t432 -109.5t164 -293.5q0 -272 -350 -359z
M768 1337q-135 0 -207 -54t-72 -146q0 -89 70 -144t209 -55t209 55t70 144q0 92 -72 146t-207 54zM768 219q86 0 155 24t114.5 80t45.5 136q0 108 -87.5 170.5t-227.5 62.5t-227.5 -62.5t-87.5 -170.5q0 -80 45.5 -136t114.5 -80t155 -24z" />
    <glyph glyph-name="nine.tf" 
d="M748 1581q148 0 267 -48.5t207 -145.5t135.5 -251.5t47.5 -357.5q0 -198 -48.5 -352t-136.5 -252t-207.5 -148.5t-264.5 -50.5q-245 0 -398 116.5t-194 309.5h323q27 -84 92 -133t172 -49q94 0 164 47.5t109 131.5t56 188t13 227q-40 -126 -155.5 -208.5t-270.5 -82.5
q-245 0 -392.5 142t-147.5 385q0 155 80 276t223.5 188.5t325.5 67.5zM750 760q141 0 227 78t86 198q0 134 -82.5 217.5t-230.5 83.5q-133 0 -218.5 -79.5t-85.5 -208.5q0 -131 81.5 -210t222.5 -79z" />
    <glyph glyph-name="zero.tf.zero" 
d="M768 1581q309 0 478 -206.5t169 -596.5q0 -391 -169 -597t-478 -206t-478 206t-169 597q0 390 169 596.5t478 206.5zM768 1337q-319 0 -319 -559q0 -120 14 -205l479 705q-71 59 -174 59zM768 219q319 0 319 559q0 124 -14 209l-481 -706q71 -62 176 -62z" />
    <glyph glyph-name="zero.dnom" horiz-adv-x="770" 
d="M385 -14q-163 0 -251.5 103.5t-88.5 299.5t88.5 300t251.5 104q164 0 252 -103.5t88 -300.5t-88 -300t-252 -103zM385 143q127 0 127 246t-127 246t-127 -246t127 -246z" />
    <glyph glyph-name="one.dnom" horiz-adv-x="481" 
d="M225 764l4 14h168v-778h-209v500h-170v166h23q82 0 122.5 23t61.5 75z" />
    <glyph glyph-name="two.dnom" horiz-adv-x="731" 
d="M535 336l-240 -170h391v-166h-639v209l346 254q36 27 52 47.5t16 48.5q0 32 -25.5 54t-68.5 22q-46 0 -73.5 -25.5t-29.5 -64.5h-215q5 109 93 178.5t223 69.5q140 0 224.5 -65.5t84.5 -166.5q0 -70 -34.5 -123t-104.5 -102z" />
    <glyph glyph-name="three.dnom" horiz-adv-x="731" 
d="M469 403q42 -5 79 -17.5t69.5 -34.5t51.5 -57t19 -79q0 -111 -88 -170t-242 -59q-150 0 -232 67t-93 185h213q3 -42 31 -68.5t81 -26.5q49 0 82 24.5t33 65.5q0 89 -154 89h-57v161h57q64 0 99 23t35 57q0 31 -27 51.5t-68 20.5q-43 0 -69 -23.5t-29 -60.5h-213
q8 106 94 174t215 68q136 0 224 -56.5t88 -148.5q0 -152 -199 -185z" />
    <glyph glyph-name="four.dnom" horiz-adv-x="759" 
d="M618 350h105v-164h-105v-186h-208v186h-377v209l196 383h389v-428zM410 727l-195 -377h195v377z" />
    <glyph glyph-name="five.dnom" horiz-adv-x="751" 
d="M459 532q110 0 182 -71t72 -199q0 -132 -93 -204t-239 -72q-137 0 -230.5 67.5t-103.5 186.5h215q6 -44 37.5 -70.5t81.5 -26.5q51 0 84 33.5t33 85.5q0 54 -32.5 84.5t-86.5 30.5q-41 0 -72 -19t-43 -51l-209 19l39 452h563v-166h-368l-17 -192q23 49 72 80.5t115 31.5z
" />
    <glyph glyph-name="six.dnom" horiz-adv-x="772" 
d="M455 520q122 0 197 -71.5t75 -192.5q0 -117 -93 -193.5t-243 -76.5q-158 0 -251 100.5t-93 302.5q0 201 94.5 302.5t249.5 101.5q136 0 217 -63.5t101 -160.5h-213q-24 66 -101 66q-74 0 -110 -71t-31 -177q16 55 71.5 94t129.5 39zM389 143q56 0 90.5 32.5t34.5 80.5
t-34 78.5t-91 30.5q-55 0 -90 -31.5t-35 -75.5q0 -48 33.5 -81.5t91.5 -33.5z" />
    <glyph glyph-name="seven.dnom" horiz-adv-x="618" 
d="M29 612v166h561v-209l-285 -569h-254l332 612h-354z" />
    <glyph glyph-name="eight.dnom" horiz-adv-x="778" 
d="M528 406q87 -12 147 -60.5t60 -130.5q0 -103 -93.5 -166t-252.5 -63q-160 0 -254 62.5t-94 166.5q0 82 60 130.5t147 60.5q-185 46 -185 182q0 93 91 149t235 56q143 0 233.5 -56t90.5 -149q0 -136 -185 -182zM389 635q-53 0 -84 -23t-31 -57q0 -35 30 -57.5t85 -22.5
q54 0 83.5 22.5t29.5 57.5q0 34 -30.5 57t-82.5 23zM389 143q58 0 95.5 25.5t37.5 67.5t-38 65t-95 23q-58 0 -95.5 -22.5t-37.5 -65.5q0 -42 37.5 -67.5t95.5 -25.5z" />
    <glyph glyph-name="nine.dnom" horiz-adv-x="772" 
d="M381 793q158 0 251 -101t93 -303q0 -201 -94 -302t-250 -101q-137 0 -217.5 63t-100.5 160h213q24 -66 101 -66q74 0 110 71t31 177q-16 -55 -71.5 -94t-129.5 -39q-122 0 -197 71.5t-75 192.5q0 117 93 194t243 77zM383 414q55 0 90 31t35 75q0 48 -33.5 81.5
t-91.5 33.5q-55 0 -90 -32.5t-35 -80.5t33.5 -78t91.5 -30z" />
    <glyph glyph-name="zero.numr" horiz-adv-x="770" 
d="M385 764q-163 0 -251.5 103.5t-88.5 299.5t88.5 300t251.5 104q164 0 252 -103.5t88 -300.5t-88 -300t-252 -103zM385 922q65 0 96 60.5t31 184.5q0 246 -127 246t-127 -246q0 -245 127 -245z" />
    <glyph glyph-name="one.numr" horiz-adv-x="481" 
d="M225 1542l4 14h168v-778h-209v500h-170v166h23q82 0 122.5 23t61.5 75z" />
    <glyph glyph-name="two.numr" horiz-adv-x="731" 
d="M535 1114l-240 -170h391v-166h-639v209l346 254q36 27 52 47.5t16 48.5q0 32 -25.5 54t-68.5 22q-46 0 -73.5 -25.5t-29.5 -64.5h-215q5 109 93 178.5t223 69.5q140 0 224.5 -65.5t84.5 -166.5q0 -70 -34.5 -123t-104.5 -102z" />
    <glyph glyph-name="three.numr" horiz-adv-x="731" 
d="M469 1182q41 -5 78.5 -18t70 -34.5t51.5 -57t19 -79.5q0 -111 -88 -170t-242 -59q-150 0 -232 67t-93 185h213q3 -42 31 -68t81 -26q49 0 82 24.5t33 65.5q0 88 -154 88h-57v164h57q65 0 99.5 21.5t34.5 55.5q0 31 -27 51.5t-68 20.5q-43 0 -69 -23.5t-29 -60.5h-213
q8 106 94 174t215 68q136 0 224 -56.5t88 -148.5q0 -151 -199 -184z" />
    <glyph glyph-name="four.numr" horiz-adv-x="759" 
d="M618 1128h105v-163h-105v-187h-208v187h-377v209l196 382h389v-428zM410 1505l-195 -377h195v377z" />
    <glyph glyph-name="five.numr" horiz-adv-x="751" 
d="M459 1311q109 0 181.5 -71.5t72.5 -199.5q0 -132 -93 -204t-239 -72q-137 0 -230.5 67.5t-103.5 186.5h215q6 -44 37.5 -70t81.5 -26q51 0 84 33t33 85q0 54 -32.5 84.5t-86.5 30.5q-41 0 -72 -19t-43 -51l-209 19l39 452h563v-165h-368l-17 -193q23 49 72 81t115 32z
" />
    <glyph glyph-name="six.numr" horiz-adv-x="772" 
d="M455 1298q122 0 197 -71.5t75 -192.5q0 -117 -93 -193.5t-243 -76.5q-158 0 -251 100.5t-93 302.5q0 201 94.5 302.5t249.5 101.5q137 0 217.5 -63t100.5 -160h-213q-23 65 -101 65q-74 0 -110 -71t-31 -177q16 55 71.5 94t129.5 39zM389 922q56 0 90.5 32t34.5 80
t-34 78.5t-91 30.5q-55 0 -90 -31.5t-35 -75.5q0 -48 33.5 -81t91.5 -33z" />
    <glyph glyph-name="seven.numr" horiz-adv-x="618" 
d="M29 1391v165h561v-208l-285 -570h-254l332 613h-354z" />
    <glyph glyph-name="eight.numr" horiz-adv-x="778" 
d="M528 1184q87 -12 147 -60.5t60 -130.5q0 -103 -93.5 -166t-252.5 -63q-160 0 -254 62.5t-94 166.5q0 82 60 130.5t147 60.5q-185 46 -185 182q0 93 91 149t235 56q143 0 233.5 -56t90.5 -149q0 -136 -185 -182zM389 1413q-53 0 -84 -23t-31 -57q0 -35 30 -57.5t85 -22.5
q54 0 83.5 22.5t29.5 57.5q0 34 -30.5 57t-82.5 23zM389 922q58 0 95.5 25t37.5 67t-38 65t-95 23q-58 0 -95.5 -22.5t-37.5 -65.5q0 -42 37.5 -67t95.5 -25z" />
    <glyph glyph-name="nine.numr" horiz-adv-x="772" 
d="M381 1571q158 0 251 -101t93 -303q0 -201 -94 -302t-250 -101q-137 0 -217.5 63t-100.5 160h213q23 -65 101 -65q74 0 110 71t31 176q-16 -55 -71.5 -94t-129.5 -39q-122 0 -197 71.5t-75 192.5q0 117 93 194t243 77zM383 1192q55 0 90 31t35 75q0 48 -33.5 81.5
t-91.5 33.5q-55 0 -90 -32.5t-35 -80.5t33.5 -78t91.5 -30z" />
    <glyph glyph-name="uni2080.zero" horiz-adv-x="776" 
d="M387 559q164 0 253 -103.5t89 -299.5q0 -197 -89 -300.5t-253 -103.5q-163 0 -251.5 104t-88.5 300t88.5 299.5t251.5 103.5zM387 401q-125 0 -125 -245q0 -33 2 -47l187 274q-27 18 -64 18zM387 -90q127 0 127 246q0 33 -2 47l-186 -275q24 -18 61 -18z" />
    <glyph glyph-name="zero.dnom.zero" horiz-adv-x="776" 
d="M387 793q164 0 253 -103.5t89 -300.5q0 -196 -89 -299.5t-253 -103.5q-163 0 -251.5 103.5t-88.5 299.5t88.5 300t251.5 104zM387 635q-125 0 -125 -246q0 -33 2 -47l187 274q-29 19 -64 19zM387 143q127 0 127 246q0 33 -2 47l-186 -274q25 -19 61 -19z" />
    <glyph glyph-name="zero.numr.zero" horiz-adv-x="776" 
d="M387 1571q164 0 253 -103.5t89 -300.5q0 -196 -89 -299.5t-253 -103.5q-163 0 -251.5 103.5t-88.5 299.5t88.5 300t251.5 104zM387 1413q-125 0 -125 -246q0 -33 2 -47l187 275q-27 18 -64 18zM387 922q65 0 96 60.5t31 184.5q0 33 -2 47l-186 -274q24 -18 61 -18z" />
    <glyph glyph-name="uni2070.zero" horiz-adv-x="776" 
d="M387 1786q164 0 253 -103.5t89 -300.5q0 -196 -89 -299.5t-253 -103.5q-163 0 -251.5 103.5t-88.5 299.5t88.5 300t251.5 104zM387 1628q-125 0 -125 -246q0 -33 2 -47l187 275q-27 18 -64 18zM387 1137q65 0 96 60.5t31 184.5q0 34 -2 48l-186 -275q24 -18 61 -18z" />
    <glyph glyph-name="exclamdown.case" horiz-adv-x="628" 
d="M143 1556h340v-313h-340v313zM182 1028h264l50 -1028h-363z" />
    <glyph glyph-name="questiondown.case" horiz-adv-x="1214" 
d="M467 1556h338v-313h-338v313zM483 1028h316q0 -115 -38.5 -200t-121.5 -158l-107 -95q-77 -69 -108 -110.5t-31 -93.5q0 -67 57 -111.5t158 -44.5q99 0 162.5 51.5t69.5 136.5h321q-7 -133 -81 -231t-196 -147.5t-276 -49.5q-252 0 -397 104.5t-145 278.5q0 101 45 171.5
t131 146.5l108 96q76 67 104.5 121t28.5 135z" />
    <glyph glyph-name="periodcentered.case" horiz-adv-x="589" 
d="M465 633h-340v313h340v-313z" />
    <glyph glyph-name="bullet.case" horiz-adv-x="1099" 
d="M549 381q-169 0 -285.5 116t-116.5 285t116.5 286.5t285.5 117.5q170 0 286.5 -117.5t116.5 -286.5t-116.5 -285t-286.5 -116z" />
    <glyph glyph-name="periodcentered.loclCAT.case" horiz-adv-x="20" 
d="M-94 733h-338v314h338v-314z" />
    <glyph glyph-name="period.inferior" horiz-adv-x="342" 
d="M272 -233h-202v194h202v-194z" />
    <glyph glyph-name="comma.inferior" horiz-adv-x="366" 
d="M84 -233v194h203v-217l-84 -127h-121l70 150h-68z" />
    <glyph glyph-name="period.lining" 
d="M938 0h-340v313h340v-313z" />
    <glyph glyph-name="comma.lining" 
d="M598 0v313h340v-350l-158 -250h-205l134 287h-111z" />
    </font>
</defs>
</svg>
